G75*
%MOIN*%
%OFA0B0*%
%FSLAX24Y24*%
%IPPOS*%
%LPD*%
%AMOC8*
5,1,8,0,0,1.08239X$1,22.5*
%
%ADD10C,0.0050*%
%ADD11R,0.0594X0.0594*%
%ADD12C,0.0594*%
%ADD13C,0.0520*%
%ADD14C,0.0660*%
%ADD15C,0.1000*%
%ADD16C,0.0100*%
%ADD17C,0.0240*%
D10*
X001450Y006250D02*
X006450Y006250D01*
X005450Y009000D02*
X005450Y022000D01*
X006450Y022500D02*
X006450Y023000D01*
X005950Y023500D01*
X005895Y023764D01*
X006450Y022500D02*
X011450Y022500D01*
X012950Y021000D01*
X012950Y020500D02*
X012950Y019000D01*
X013450Y020000D02*
X013950Y020000D01*
X013950Y021000D01*
X014450Y021500D01*
X013950Y020000D02*
X013950Y016575D01*
X013950Y011260D01*
X015524Y011260D02*
X015950Y011500D01*
X016450Y012000D01*
X016450Y016000D01*
X015950Y016500D01*
X015524Y016575D01*
X015450Y017000D01*
X015450Y019000D01*
X014950Y019000D01*
X015450Y019000D02*
X015450Y020000D01*
X016950Y021500D01*
X016950Y021000D02*
X016950Y018000D01*
X019450Y015500D01*
X019450Y015000D01*
X020450Y016500D02*
X020450Y023500D01*
X019950Y024000D01*
X019950Y024500D01*
X019450Y025000D01*
X017450Y025000D01*
X017450Y024000D01*
X017202Y024069D01*
X016450Y024000D02*
X016202Y024069D01*
X016450Y024000D02*
X017950Y022500D01*
X017950Y019000D01*
X017450Y020000D02*
X017450Y021500D01*
X016450Y022500D01*
X011950Y022500D01*
X008950Y025500D01*
X007895Y026764D02*
X007950Y027000D01*
X008950Y028000D01*
X008950Y029000D01*
X008450Y029500D01*
X007993Y029510D01*
X007993Y028510D02*
X007950Y028500D01*
X007950Y028000D01*
X006950Y027000D01*
X006895Y026764D01*
X006450Y026000D02*
X005950Y026500D01*
X005895Y026764D01*
X006450Y026000D02*
X006450Y025500D01*
X007450Y025500D01*
X008950Y024000D01*
X010950Y021500D02*
X009450Y020000D01*
X008450Y020000D01*
X007450Y021000D01*
X006950Y021000D01*
X006950Y020500D01*
X011450Y016000D01*
X011450Y012000D01*
X011950Y011500D01*
X012375Y011260D01*
X015700Y008500D02*
X008700Y008500D01*
X008607Y008498D01*
X008514Y008492D01*
X008422Y008483D01*
X008330Y008469D01*
X008238Y008452D01*
X008148Y008431D01*
X008058Y008406D01*
X007969Y008378D01*
X007882Y008346D01*
X007796Y008310D01*
X007712Y008271D01*
X007629Y008229D01*
X007548Y008183D01*
X007469Y008134D01*
X007393Y008081D01*
X007318Y008026D01*
X007246Y007967D01*
X007176Y007905D01*
X007109Y007841D01*
X007045Y007774D01*
X006983Y007704D01*
X006924Y007632D01*
X006869Y007557D01*
X006816Y007481D01*
X006767Y007402D01*
X006721Y007321D01*
X006679Y007238D01*
X006640Y007154D01*
X006604Y007068D01*
X006572Y006981D01*
X006544Y006892D01*
X006519Y006802D01*
X006498Y006712D01*
X006481Y006620D01*
X006467Y006528D01*
X006458Y006436D01*
X006452Y006343D01*
X006450Y006250D01*
X005450Y009000D02*
X021200Y009000D01*
X020950Y009500D02*
X021450Y009500D01*
X021950Y009000D01*
X022200Y009000D01*
X020950Y009500D02*
X019950Y010500D01*
X019950Y023500D01*
X019450Y024000D01*
X019202Y024069D01*
X020450Y024000D02*
X020450Y025500D01*
X016450Y025500D01*
X009450Y032500D01*
X006450Y034500D02*
X017950Y034500D01*
X018090Y034498D01*
X018230Y034492D01*
X018370Y034482D01*
X018510Y034469D01*
X018649Y034451D01*
X018788Y034429D01*
X018925Y034404D01*
X019063Y034375D01*
X019199Y034342D01*
X019334Y034305D01*
X019468Y034264D01*
X019601Y034219D01*
X019733Y034171D01*
X019863Y034119D01*
X019992Y034064D01*
X020119Y034005D01*
X020245Y033942D01*
X020369Y033876D01*
X020490Y033807D01*
X020610Y033734D01*
X020728Y033657D01*
X020843Y033578D01*
X020957Y033495D01*
X021067Y033409D01*
X021176Y033320D01*
X021282Y033228D01*
X021385Y033133D01*
X021486Y033036D01*
X021583Y032935D01*
X021678Y032832D01*
X021770Y032726D01*
X021859Y032617D01*
X021945Y032507D01*
X022028Y032393D01*
X022107Y032278D01*
X022184Y032160D01*
X022257Y032040D01*
X022326Y031919D01*
X022392Y031795D01*
X022455Y031669D01*
X022514Y031542D01*
X022569Y031413D01*
X022621Y031283D01*
X022669Y031151D01*
X022714Y031018D01*
X022755Y030884D01*
X022792Y030749D01*
X022825Y030613D01*
X022854Y030475D01*
X022879Y030338D01*
X022901Y030199D01*
X022919Y030060D01*
X022932Y029920D01*
X022942Y029780D01*
X022948Y029640D01*
X022950Y029500D01*
X022950Y006250D01*
X017950Y006250D01*
X017948Y006343D01*
X017942Y006436D01*
X017933Y006528D01*
X017919Y006620D01*
X017902Y006712D01*
X017881Y006802D01*
X017856Y006892D01*
X017828Y006981D01*
X017796Y007068D01*
X017760Y007154D01*
X017721Y007238D01*
X017679Y007321D01*
X017633Y007402D01*
X017584Y007481D01*
X017531Y007557D01*
X017476Y007632D01*
X017417Y007704D01*
X017355Y007774D01*
X017291Y007841D01*
X017224Y007905D01*
X017154Y007967D01*
X017082Y008026D01*
X017007Y008081D01*
X016931Y008134D01*
X016852Y008183D01*
X016771Y008229D01*
X016688Y008271D01*
X016604Y008310D01*
X016518Y008346D01*
X016431Y008378D01*
X016342Y008406D01*
X016252Y008431D01*
X016162Y008452D01*
X016070Y008469D01*
X015978Y008483D01*
X015886Y008492D01*
X015793Y008498D01*
X015700Y008500D01*
X017099Y011260D02*
X017450Y011500D01*
X017950Y012000D01*
X017950Y016000D01*
X017450Y016500D01*
X017099Y016575D01*
X020450Y016500D02*
X021450Y016500D01*
X021950Y016000D01*
X022200Y016000D01*
X019450Y027000D02*
X019202Y027069D01*
X019450Y027000D02*
X020450Y028000D01*
X020450Y029000D01*
X019950Y029500D01*
X019863Y029364D01*
X012450Y021000D02*
X012950Y020500D01*
X012375Y016575D02*
X011950Y016500D01*
X011450Y016500D01*
X007450Y020500D01*
X001450Y029500D02*
X001452Y029640D01*
X001458Y029780D01*
X001468Y029920D01*
X001481Y030060D01*
X001499Y030199D01*
X001521Y030338D01*
X001546Y030475D01*
X001575Y030613D01*
X001608Y030749D01*
X001645Y030884D01*
X001686Y031018D01*
X001731Y031151D01*
X001779Y031283D01*
X001831Y031413D01*
X001886Y031542D01*
X001945Y031669D01*
X002008Y031795D01*
X002074Y031919D01*
X002143Y032040D01*
X002216Y032160D01*
X002293Y032278D01*
X002372Y032393D01*
X002455Y032507D01*
X002541Y032617D01*
X002630Y032726D01*
X002722Y032832D01*
X002817Y032935D01*
X002914Y033036D01*
X003015Y033133D01*
X003118Y033228D01*
X003224Y033320D01*
X003333Y033409D01*
X003443Y033495D01*
X003557Y033578D01*
X003672Y033657D01*
X003790Y033734D01*
X003910Y033807D01*
X004031Y033876D01*
X004155Y033942D01*
X004281Y034005D01*
X004408Y034064D01*
X004537Y034119D01*
X004667Y034171D01*
X004799Y034219D01*
X004932Y034264D01*
X005066Y034305D01*
X005201Y034342D01*
X005337Y034375D01*
X005475Y034404D01*
X005612Y034429D01*
X005751Y034451D01*
X005890Y034469D01*
X006030Y034482D01*
X006170Y034492D01*
X006310Y034498D01*
X006450Y034500D01*
X001450Y029500D02*
X001450Y006250D01*
D11*
X003200Y008000D03*
X022200Y008000D03*
D12*
X022200Y009000D03*
X022200Y010000D03*
X022200Y011000D03*
X022200Y012000D03*
X022200Y013000D03*
X022200Y014000D03*
X022200Y015000D03*
X022200Y016000D03*
X022200Y017000D03*
X022200Y018000D03*
X022200Y019000D03*
X022200Y020000D03*
X022200Y021000D03*
X022200Y022000D03*
X022200Y023000D03*
X022200Y024000D03*
X022200Y025000D03*
X022200Y026000D03*
X022200Y027000D03*
X022200Y028000D03*
X022200Y029000D03*
X022200Y030000D03*
X021200Y030000D03*
X021200Y029000D03*
X021200Y028000D03*
X021200Y027000D03*
X021200Y026000D03*
X021200Y025000D03*
X021200Y024000D03*
X021200Y023000D03*
X021200Y022000D03*
X021200Y021000D03*
X021200Y020000D03*
X021200Y019000D03*
X021200Y018000D03*
X021200Y017000D03*
X021200Y016000D03*
X021200Y015000D03*
X021200Y014000D03*
X021200Y013000D03*
X021200Y012000D03*
X021200Y011000D03*
X021200Y010000D03*
X021200Y009000D03*
X021200Y008000D03*
X003200Y009000D03*
X003200Y010000D03*
X003200Y011000D03*
X003200Y012000D03*
X003200Y013000D03*
X003200Y014000D03*
X003200Y015000D03*
X003200Y016000D03*
X003200Y017000D03*
X003200Y018000D03*
X003200Y019000D03*
X003200Y020000D03*
X003200Y021000D03*
X003200Y022000D03*
X003200Y023000D03*
X003200Y024000D03*
X003200Y025000D03*
X003200Y026000D03*
X003200Y027000D03*
X003200Y028000D03*
X003200Y029000D03*
X003200Y030000D03*
X002200Y030000D03*
X002200Y029000D03*
X002200Y028000D03*
X002200Y027000D03*
X002200Y026000D03*
X002200Y025000D03*
X002200Y024000D03*
X002200Y023000D03*
X002200Y022000D03*
X002200Y021000D03*
X002200Y020000D03*
X002200Y019000D03*
X002200Y018000D03*
X002200Y017000D03*
X002200Y016000D03*
X002200Y015000D03*
X002200Y014000D03*
X002200Y013000D03*
X002200Y012000D03*
X002200Y011000D03*
X002200Y010000D03*
X002200Y009000D03*
X002200Y008000D03*
D13*
X004895Y023504D02*
X004895Y024024D01*
X005895Y024024D02*
X005895Y023504D01*
X006895Y023504D02*
X006895Y024024D01*
X007895Y024024D02*
X007895Y023504D01*
X007895Y026504D02*
X007895Y027024D01*
X006895Y027024D02*
X006895Y026504D01*
X005895Y026504D02*
X005895Y027024D01*
X004895Y027024D02*
X004895Y026504D01*
X004733Y028510D02*
X005253Y028510D01*
X005253Y029510D02*
X004733Y029510D01*
X007733Y029510D02*
X008253Y029510D01*
X008253Y028510D02*
X007733Y028510D01*
X016202Y027329D02*
X016202Y026809D01*
X017202Y026809D02*
X017202Y027329D01*
X018202Y027329D02*
X018202Y026809D01*
X019202Y026809D02*
X019202Y027329D01*
X019202Y024329D02*
X019202Y023809D01*
X018202Y023809D02*
X018202Y024329D01*
X017202Y024329D02*
X017202Y023809D01*
X016202Y023809D02*
X016202Y024329D01*
D14*
X019863Y028364D03*
X019863Y029364D03*
D15*
X017099Y016575D03*
X015524Y016575D03*
X013950Y016575D03*
X012375Y016575D03*
X009816Y016575D03*
X008241Y016575D03*
X006666Y016575D03*
X006666Y011260D03*
X008241Y011260D03*
X009816Y011260D03*
X012375Y011260D03*
X013950Y011260D03*
X015524Y011260D03*
X017099Y011260D03*
D16*
X016852Y010713D02*
X015772Y010713D01*
X015864Y010751D02*
X016033Y010920D01*
X016124Y011140D01*
X016124Y011379D01*
X016090Y011463D01*
X016501Y011875D01*
X016575Y011948D01*
X016575Y016052D01*
X016124Y016502D01*
X016124Y016694D01*
X016033Y016915D01*
X015864Y017083D01*
X015644Y017175D01*
X015575Y017175D01*
X015575Y019948D01*
X016906Y021280D01*
X017041Y021280D01*
X017170Y021409D01*
X017170Y021591D01*
X017041Y021720D01*
X016859Y021720D01*
X016730Y021591D01*
X016730Y021457D01*
X015398Y020125D01*
X015325Y020052D01*
X015325Y019125D01*
X015136Y019125D01*
X015041Y019220D01*
X014859Y019220D01*
X014730Y019091D01*
X014730Y018909D01*
X014859Y018780D01*
X015041Y018780D01*
X015136Y018875D01*
X015325Y018875D01*
X015325Y017141D01*
X015185Y017083D01*
X015016Y016915D01*
X014924Y016694D01*
X014924Y016455D01*
X015016Y016235D01*
X015185Y016066D01*
X015405Y015975D01*
X015644Y015975D01*
X015864Y016066D01*
X016033Y016235D01*
X016035Y016238D01*
X016325Y015948D01*
X016325Y012052D01*
X015953Y011680D01*
X015864Y011768D01*
X015644Y011860D01*
X015405Y011860D01*
X015185Y011768D01*
X015016Y011600D01*
X014924Y011379D01*
X014924Y011140D01*
X015016Y010920D01*
X015185Y010751D01*
X015405Y010660D01*
X015644Y010660D01*
X015864Y010751D01*
X015925Y010812D02*
X016699Y010812D01*
X016759Y010751D02*
X016591Y010920D01*
X016499Y011140D01*
X016499Y011379D01*
X016591Y011600D01*
X016759Y011768D01*
X016980Y011860D01*
X017219Y011860D01*
X017439Y011768D01*
X017490Y011717D01*
X017825Y012052D01*
X017825Y015948D01*
X017573Y016200D01*
X017439Y016066D01*
X017219Y015975D01*
X016980Y015975D01*
X016759Y016066D01*
X016591Y016235D01*
X016499Y016455D01*
X016499Y016694D01*
X016591Y016915D01*
X016759Y017083D01*
X016980Y017175D01*
X017219Y017175D01*
X017439Y017083D01*
X017608Y016915D01*
X017699Y016694D01*
X017699Y016455D01*
X017691Y016435D01*
X018001Y016125D01*
X018075Y016052D01*
X018075Y011948D01*
X017643Y011516D01*
X017699Y011379D01*
X017699Y011140D01*
X017608Y010920D01*
X017439Y010751D01*
X017219Y010660D01*
X016980Y010660D01*
X016759Y010751D01*
X016601Y010910D02*
X016023Y010910D01*
X016070Y011009D02*
X016554Y011009D01*
X016513Y011107D02*
X016111Y011107D01*
X016124Y011206D02*
X016499Y011206D01*
X016499Y011304D02*
X016124Y011304D01*
X016115Y011403D02*
X016509Y011403D01*
X016550Y011501D02*
X016127Y011501D01*
X016226Y011600D02*
X016591Y011600D01*
X016689Y011698D02*
X016324Y011698D01*
X016423Y011797D02*
X016827Y011797D01*
X016575Y011994D02*
X017766Y011994D01*
X017825Y012092D02*
X016575Y012092D01*
X016575Y012191D02*
X017825Y012191D01*
X017825Y012289D02*
X016575Y012289D01*
X016575Y012388D02*
X017825Y012388D01*
X017825Y012486D02*
X016575Y012486D01*
X016575Y012585D02*
X017825Y012585D01*
X017825Y012683D02*
X016575Y012683D01*
X016575Y012782D02*
X017825Y012782D01*
X017825Y012880D02*
X016575Y012880D01*
X016575Y012979D02*
X017825Y012979D01*
X017825Y013077D02*
X016575Y013077D01*
X016575Y013176D02*
X017825Y013176D01*
X017825Y013274D02*
X016575Y013274D01*
X016575Y013373D02*
X017825Y013373D01*
X017825Y013471D02*
X016575Y013471D01*
X016575Y013570D02*
X017825Y013570D01*
X017825Y013668D02*
X016575Y013668D01*
X016575Y013767D02*
X017825Y013767D01*
X017825Y013865D02*
X016575Y013865D01*
X016575Y013964D02*
X017825Y013964D01*
X017825Y014062D02*
X016575Y014062D01*
X016575Y014161D02*
X017825Y014161D01*
X017825Y014259D02*
X016575Y014259D01*
X016575Y014358D02*
X017825Y014358D01*
X017825Y014456D02*
X016575Y014456D01*
X016575Y014555D02*
X017825Y014555D01*
X017825Y014653D02*
X016575Y014653D01*
X016575Y014752D02*
X017825Y014752D01*
X017825Y014850D02*
X016575Y014850D01*
X016575Y014949D02*
X017825Y014949D01*
X017825Y015047D02*
X016575Y015047D01*
X016575Y015146D02*
X017825Y015146D01*
X017825Y015244D02*
X016575Y015244D01*
X016575Y015343D02*
X017825Y015343D01*
X017825Y015441D02*
X016575Y015441D01*
X016575Y015540D02*
X017825Y015540D01*
X017825Y015638D02*
X016575Y015638D01*
X016575Y015737D02*
X017825Y015737D01*
X017825Y015835D02*
X016575Y015835D01*
X016575Y015934D02*
X017825Y015934D01*
X017741Y016032D02*
X017357Y016032D01*
X017504Y016131D02*
X017642Y016131D01*
X017799Y016328D02*
X018445Y016328D01*
X018347Y016426D02*
X017700Y016426D01*
X017699Y016525D02*
X018248Y016525D01*
X018150Y016623D02*
X017699Y016623D01*
X017688Y016722D02*
X018051Y016722D01*
X017953Y016820D02*
X017647Y016820D01*
X017604Y016919D02*
X017854Y016919D01*
X017756Y017017D02*
X017506Y017017D01*
X017362Y017116D02*
X017657Y017116D01*
X017559Y017214D02*
X015575Y017214D01*
X015575Y017313D02*
X017460Y017313D01*
X017362Y017411D02*
X015575Y017411D01*
X015575Y017510D02*
X017263Y017510D01*
X017165Y017608D02*
X015575Y017608D01*
X015575Y017707D02*
X017066Y017707D01*
X016968Y017805D02*
X015575Y017805D01*
X015575Y017904D02*
X016869Y017904D01*
X016825Y017948D02*
X019325Y015448D01*
X019325Y015186D01*
X019230Y015091D01*
X019230Y014909D01*
X019359Y014780D01*
X019541Y014780D01*
X019670Y014909D01*
X019670Y015091D01*
X019575Y015186D01*
X019575Y015552D01*
X019501Y015625D01*
X017075Y018052D01*
X017075Y020814D01*
X017170Y020909D01*
X017170Y021091D01*
X017041Y021220D01*
X016859Y021220D01*
X016730Y021091D01*
X016730Y020909D01*
X016825Y020814D01*
X016825Y018052D01*
X016825Y017948D01*
X016825Y018002D02*
X015575Y018002D01*
X015575Y018101D02*
X016825Y018101D01*
X016825Y018199D02*
X015575Y018199D01*
X015575Y018298D02*
X016825Y018298D01*
X016825Y018396D02*
X015575Y018396D01*
X015575Y018495D02*
X016825Y018495D01*
X016825Y018593D02*
X015575Y018593D01*
X015575Y018692D02*
X016825Y018692D01*
X016825Y018790D02*
X015575Y018790D01*
X015575Y018889D02*
X016825Y018889D01*
X016825Y018987D02*
X015575Y018987D01*
X015575Y019086D02*
X016825Y019086D01*
X016825Y019184D02*
X015575Y019184D01*
X015575Y019283D02*
X016825Y019283D01*
X016825Y019381D02*
X015575Y019381D01*
X015575Y019480D02*
X016825Y019480D01*
X016825Y019578D02*
X015575Y019578D01*
X015575Y019677D02*
X016825Y019677D01*
X016825Y019775D02*
X015575Y019775D01*
X015575Y019874D02*
X016825Y019874D01*
X016825Y019972D02*
X015598Y019972D01*
X015697Y020071D02*
X016825Y020071D01*
X016825Y020169D02*
X015795Y020169D01*
X015894Y020268D02*
X016825Y020268D01*
X016825Y020366D02*
X015992Y020366D01*
X016091Y020465D02*
X016825Y020465D01*
X016825Y020563D02*
X016189Y020563D01*
X016288Y020662D02*
X016825Y020662D01*
X016825Y020760D02*
X016386Y020760D01*
X016485Y020859D02*
X016780Y020859D01*
X016730Y020957D02*
X016584Y020957D01*
X016682Y021056D02*
X016730Y021056D01*
X016781Y021154D02*
X016793Y021154D01*
X016879Y021253D02*
X017325Y021253D01*
X017325Y021351D02*
X017112Y021351D01*
X017170Y021450D02*
X017323Y021450D01*
X017325Y021448D02*
X017325Y020186D01*
X017230Y020091D01*
X017230Y019909D01*
X017359Y019780D01*
X017541Y019780D01*
X017670Y019909D01*
X017670Y020091D01*
X017575Y020186D01*
X017575Y021448D01*
X017575Y021552D01*
X016575Y022552D01*
X016501Y022625D01*
X012001Y022625D01*
X009170Y025457D01*
X009170Y025591D01*
X009041Y025720D01*
X008859Y025720D01*
X008730Y025591D01*
X008730Y025409D01*
X008859Y025280D01*
X008993Y025280D01*
X011898Y022375D01*
X016398Y022375D01*
X017325Y021448D01*
X017225Y021548D02*
X017170Y021548D01*
X017126Y021647D02*
X017114Y021647D01*
X017028Y021745D02*
X012381Y021745D01*
X012283Y021844D02*
X016929Y021844D01*
X016831Y021942D02*
X012184Y021942D01*
X012086Y022041D02*
X016732Y022041D01*
X016634Y022139D02*
X011987Y022139D01*
X011889Y022238D02*
X016535Y022238D01*
X016437Y022336D02*
X011790Y022336D01*
X011838Y022435D02*
X011692Y022435D01*
X011740Y022533D02*
X011593Y022533D01*
X011575Y022552D02*
X012906Y021220D01*
X013041Y021220D01*
X013170Y021091D01*
X013170Y020909D01*
X013041Y020780D01*
X012859Y020780D01*
X012730Y020909D01*
X012730Y021043D01*
X011398Y022375D01*
X006398Y022375D01*
X006325Y022448D01*
X006325Y022948D01*
X006081Y023192D01*
X005966Y023144D01*
X005823Y023144D01*
X005691Y023199D01*
X005589Y023300D01*
X005535Y023432D01*
X005535Y024095D01*
X005589Y024228D01*
X005691Y024329D01*
X005823Y024384D01*
X005966Y024384D01*
X006098Y024329D01*
X006200Y024228D01*
X006255Y024095D01*
X006255Y023432D01*
X006237Y023390D01*
X006575Y023052D01*
X006575Y022625D01*
X011501Y022625D01*
X011575Y022552D01*
X011641Y022632D02*
X006575Y022632D01*
X006575Y022730D02*
X011543Y022730D01*
X011444Y022829D02*
X006575Y022829D01*
X006575Y022927D02*
X011346Y022927D01*
X011247Y023026D02*
X006575Y023026D01*
X006502Y023124D02*
X011149Y023124D01*
X011050Y023223D02*
X008122Y023223D01*
X008098Y023199D02*
X008200Y023300D01*
X008255Y023432D01*
X008255Y024095D01*
X008200Y024228D01*
X008098Y024329D01*
X007966Y024384D01*
X007823Y024384D01*
X007691Y024329D01*
X007589Y024228D01*
X007535Y024095D01*
X007535Y023432D01*
X007589Y023300D01*
X007691Y023199D01*
X007823Y023144D01*
X007966Y023144D01*
X008098Y023199D01*
X008209Y023321D02*
X010952Y023321D01*
X010853Y023420D02*
X008249Y023420D01*
X008255Y023518D02*
X010755Y023518D01*
X010656Y023617D02*
X008255Y023617D01*
X008255Y023715D02*
X010558Y023715D01*
X010459Y023814D02*
X009074Y023814D01*
X009041Y023780D02*
X009170Y023909D01*
X009170Y024091D01*
X009041Y024220D01*
X008906Y024220D01*
X007575Y025552D01*
X007501Y025625D01*
X006575Y025625D01*
X006575Y026052D01*
X006237Y026390D01*
X006255Y026432D01*
X006255Y027095D01*
X006200Y027228D01*
X006098Y027329D01*
X005966Y027384D01*
X005823Y027384D01*
X005691Y027329D01*
X005589Y027228D01*
X005535Y027095D01*
X005535Y026432D01*
X005589Y026300D01*
X005691Y026199D01*
X005823Y026144D01*
X005966Y026144D01*
X006081Y026192D01*
X006325Y025948D01*
X006325Y025448D01*
X006398Y025375D01*
X007398Y025375D01*
X008730Y024043D01*
X008730Y023909D01*
X008859Y023780D01*
X009041Y023780D01*
X009170Y023912D02*
X010361Y023912D01*
X010262Y024011D02*
X009170Y024011D01*
X009152Y024109D02*
X010164Y024109D01*
X010065Y024208D02*
X009053Y024208D01*
X008820Y024306D02*
X009967Y024306D01*
X009868Y024405D02*
X008722Y024405D01*
X008623Y024503D02*
X009770Y024503D01*
X009671Y024602D02*
X008525Y024602D01*
X008426Y024700D02*
X009573Y024700D01*
X009474Y024799D02*
X008328Y024799D01*
X008229Y024897D02*
X009376Y024897D01*
X009277Y024996D02*
X008131Y024996D01*
X008032Y025094D02*
X009179Y025094D01*
X009080Y025193D02*
X007934Y025193D01*
X007835Y025291D02*
X008848Y025291D01*
X008749Y025390D02*
X007737Y025390D01*
X007638Y025488D02*
X008730Y025488D01*
X008730Y025587D02*
X007540Y025587D01*
X007575Y025552D02*
X007575Y025552D01*
X007482Y025291D02*
X003470Y025291D01*
X003424Y025336D02*
X003279Y025397D01*
X003121Y025397D01*
X002975Y025336D01*
X002863Y025225D01*
X002803Y025079D01*
X002803Y024921D01*
X002863Y024775D01*
X002975Y024664D01*
X003121Y024603D01*
X003279Y024603D01*
X003424Y024664D01*
X003536Y024775D01*
X003597Y024921D01*
X003597Y025079D01*
X003536Y025225D01*
X003424Y025336D01*
X003296Y025390D02*
X006383Y025390D01*
X006325Y025488D02*
X001625Y025488D01*
X001625Y025390D02*
X002103Y025390D01*
X002121Y025397D02*
X001975Y025336D01*
X001863Y025225D01*
X001803Y025079D01*
X001803Y024921D01*
X001863Y024775D01*
X001975Y024664D01*
X002121Y024603D01*
X002279Y024603D01*
X002424Y024664D01*
X002536Y024775D01*
X002597Y024921D01*
X002597Y025079D01*
X002536Y025225D01*
X002424Y025336D01*
X002279Y025397D01*
X002121Y025397D01*
X002296Y025390D02*
X003103Y025390D01*
X002930Y025291D02*
X002470Y025291D01*
X002549Y025193D02*
X002850Y025193D01*
X002809Y025094D02*
X002590Y025094D01*
X002597Y024996D02*
X002803Y024996D01*
X002813Y024897D02*
X002587Y024897D01*
X002546Y024799D02*
X002854Y024799D01*
X002938Y024700D02*
X002461Y024700D01*
X002279Y024397D02*
X002121Y024397D01*
X001975Y024336D01*
X001863Y024225D01*
X001803Y024079D01*
X001803Y023921D01*
X001863Y023775D01*
X001975Y023664D01*
X002121Y023603D01*
X002279Y023603D01*
X002424Y023664D01*
X002536Y023775D01*
X002597Y023921D01*
X002597Y024079D01*
X002536Y024225D01*
X002424Y024336D01*
X002279Y024397D01*
X002455Y024306D02*
X002945Y024306D01*
X002975Y024336D02*
X002863Y024225D01*
X002803Y024079D01*
X002803Y023921D01*
X002863Y023775D01*
X002975Y023664D01*
X003121Y023603D01*
X003279Y023603D01*
X003424Y023664D01*
X003536Y023775D01*
X003597Y023921D01*
X003597Y024079D01*
X003536Y024225D01*
X003424Y024336D01*
X003279Y024397D01*
X003121Y024397D01*
X002975Y024336D01*
X002856Y024208D02*
X002543Y024208D01*
X002584Y024109D02*
X002815Y024109D01*
X002803Y024011D02*
X002597Y024011D01*
X002593Y023912D02*
X002807Y023912D01*
X002847Y023814D02*
X002552Y023814D01*
X002476Y023715D02*
X002923Y023715D01*
X003088Y023617D02*
X002311Y023617D01*
X002279Y023397D02*
X002424Y023336D01*
X002536Y023225D01*
X002597Y023079D01*
X002597Y022921D01*
X002536Y022775D01*
X002424Y022664D01*
X002279Y022603D01*
X002121Y022603D01*
X001975Y022664D01*
X001863Y022775D01*
X001803Y022921D01*
X001803Y023079D01*
X001863Y023225D01*
X001975Y023336D01*
X002121Y023397D01*
X002279Y023397D01*
X002440Y023321D02*
X002960Y023321D01*
X002975Y023336D02*
X002863Y023225D01*
X002803Y023079D01*
X002803Y022921D01*
X002863Y022775D01*
X002975Y022664D01*
X003121Y022603D01*
X003279Y022603D01*
X003424Y022664D01*
X003536Y022775D01*
X003597Y022921D01*
X003597Y023079D01*
X003536Y023225D01*
X003424Y023336D01*
X003279Y023397D01*
X003121Y023397D01*
X002975Y023336D01*
X002862Y023223D02*
X002537Y023223D01*
X002578Y023124D02*
X002822Y023124D01*
X002803Y023026D02*
X002597Y023026D01*
X002597Y022927D02*
X002803Y022927D01*
X002841Y022829D02*
X002558Y022829D01*
X002491Y022730D02*
X002908Y022730D01*
X003052Y022632D02*
X002347Y022632D01*
X002279Y022397D02*
X002424Y022336D01*
X002536Y022225D01*
X002597Y022079D01*
X002597Y021921D01*
X002536Y021775D01*
X002424Y021664D01*
X002279Y021603D01*
X002121Y021603D01*
X001975Y021664D01*
X001863Y021775D01*
X001803Y021921D01*
X001803Y022079D01*
X001863Y022225D01*
X001975Y022336D01*
X002121Y022397D01*
X002279Y022397D01*
X002425Y022336D02*
X002974Y022336D01*
X002975Y022336D02*
X002863Y022225D01*
X002803Y022079D01*
X002803Y021921D01*
X002863Y021775D01*
X002975Y021664D01*
X003121Y021603D01*
X003279Y021603D01*
X003424Y021664D01*
X003536Y021775D01*
X003597Y021921D01*
X003597Y022079D01*
X003536Y022225D01*
X003424Y022336D01*
X003279Y022397D01*
X003121Y022397D01*
X002975Y022336D01*
X002876Y022238D02*
X002523Y022238D01*
X002572Y022139D02*
X002828Y022139D01*
X002803Y022041D02*
X002597Y022041D01*
X002597Y021942D02*
X002803Y021942D01*
X002835Y021844D02*
X002564Y021844D01*
X002506Y021745D02*
X002893Y021745D01*
X003016Y021647D02*
X002383Y021647D01*
X002279Y021397D02*
X002121Y021397D01*
X001975Y021336D01*
X001863Y021225D01*
X001803Y021079D01*
X001803Y020921D01*
X001863Y020775D01*
X001975Y020664D01*
X002121Y020603D01*
X002279Y020603D01*
X002424Y020664D01*
X002536Y020775D01*
X002597Y020921D01*
X002597Y021079D01*
X002536Y021225D01*
X002424Y021336D01*
X002279Y021397D01*
X002389Y021351D02*
X003010Y021351D01*
X002975Y021336D02*
X002863Y021225D01*
X002803Y021079D01*
X002803Y020921D01*
X002863Y020775D01*
X002975Y020664D01*
X003121Y020603D01*
X003279Y020603D01*
X003424Y020664D01*
X003536Y020775D01*
X003597Y020921D01*
X003597Y021079D01*
X003536Y021225D01*
X003424Y021336D01*
X003279Y021397D01*
X003121Y021397D01*
X002975Y021336D01*
X002891Y021253D02*
X002508Y021253D01*
X002565Y021154D02*
X002834Y021154D01*
X002803Y021056D02*
X002597Y021056D01*
X002597Y020957D02*
X002803Y020957D01*
X002829Y020859D02*
X002571Y020859D01*
X002521Y020760D02*
X002878Y020760D01*
X002980Y020662D02*
X002420Y020662D01*
X002279Y020397D02*
X002121Y020397D01*
X001975Y020336D01*
X001863Y020225D01*
X001803Y020079D01*
X001803Y019921D01*
X001863Y019775D01*
X001975Y019664D01*
X002121Y019603D01*
X002279Y019603D01*
X002424Y019664D01*
X002536Y019775D01*
X002863Y019775D01*
X002975Y019664D01*
X003121Y019603D01*
X003279Y019603D01*
X003424Y019664D01*
X003536Y019775D01*
X005325Y019775D01*
X005325Y019677D02*
X003437Y019677D01*
X003536Y019775D02*
X003597Y019921D01*
X003597Y020079D01*
X003536Y020225D01*
X003424Y020336D01*
X003279Y020397D01*
X003121Y020397D01*
X002975Y020336D01*
X002863Y020225D01*
X002803Y020079D01*
X002803Y019921D01*
X002863Y019775D01*
X002823Y019874D02*
X002577Y019874D01*
X002597Y019921D02*
X002536Y019775D01*
X002437Y019677D02*
X002962Y019677D01*
X003083Y019381D02*
X002317Y019381D01*
X002279Y019397D02*
X002424Y019336D01*
X002536Y019225D01*
X002597Y019079D01*
X002597Y018921D01*
X002536Y018775D01*
X002424Y018664D01*
X002279Y018603D01*
X002121Y018603D01*
X001975Y018664D01*
X001863Y018775D01*
X001803Y018921D01*
X001803Y019079D01*
X001863Y019225D01*
X001975Y019336D01*
X002121Y019397D01*
X002279Y019397D01*
X002083Y019381D02*
X001625Y019381D01*
X001625Y019283D02*
X001921Y019283D01*
X001846Y019184D02*
X001625Y019184D01*
X001625Y019086D02*
X001806Y019086D01*
X001803Y018987D02*
X001625Y018987D01*
X001625Y018889D02*
X001816Y018889D01*
X001857Y018790D02*
X001625Y018790D01*
X001625Y018692D02*
X001947Y018692D01*
X001625Y018593D02*
X005325Y018593D01*
X005325Y018495D02*
X001625Y018495D01*
X001625Y018396D02*
X002119Y018396D01*
X002121Y018397D02*
X001975Y018336D01*
X001863Y018225D01*
X001803Y018079D01*
X001803Y017921D01*
X001863Y017775D01*
X001975Y017664D01*
X002121Y017603D01*
X002279Y017603D01*
X002424Y017664D01*
X002536Y017775D01*
X002597Y017921D01*
X002597Y018079D01*
X002536Y018225D01*
X002424Y018336D01*
X002279Y018397D01*
X002121Y018397D01*
X002281Y018396D02*
X003119Y018396D01*
X003121Y018397D02*
X002975Y018336D01*
X002863Y018225D01*
X002803Y018079D01*
X002803Y017921D01*
X002863Y017775D01*
X002975Y017664D01*
X003121Y017603D01*
X003279Y017603D01*
X003424Y017664D01*
X003536Y017775D01*
X003597Y017921D01*
X003597Y018079D01*
X003536Y018225D01*
X003424Y018336D01*
X003279Y018397D01*
X003121Y018397D01*
X003281Y018396D02*
X005325Y018396D01*
X005325Y018298D02*
X003463Y018298D01*
X003547Y018199D02*
X005325Y018199D01*
X005325Y018101D02*
X003588Y018101D01*
X003597Y018002D02*
X005325Y018002D01*
X005325Y017904D02*
X003589Y017904D01*
X003548Y017805D02*
X005325Y017805D01*
X005325Y017707D02*
X003467Y017707D01*
X003290Y017608D02*
X005325Y017608D01*
X005325Y017510D02*
X001625Y017510D01*
X001625Y017608D02*
X002109Y017608D01*
X002290Y017608D02*
X003109Y017608D01*
X002932Y017707D02*
X002467Y017707D01*
X002548Y017805D02*
X002851Y017805D01*
X002810Y017904D02*
X002589Y017904D01*
X002597Y018002D02*
X002803Y018002D01*
X002812Y018101D02*
X002588Y018101D01*
X002547Y018199D02*
X002853Y018199D01*
X002936Y018298D02*
X002463Y018298D01*
X002452Y018692D02*
X002947Y018692D01*
X002975Y018664D02*
X003121Y018603D01*
X003279Y018603D01*
X003424Y018664D01*
X003536Y018775D01*
X003597Y018921D01*
X003597Y019079D01*
X003536Y019225D01*
X003424Y019336D01*
X003279Y019397D01*
X003121Y019397D01*
X002975Y019336D01*
X002863Y019225D01*
X002803Y019079D01*
X002803Y018921D01*
X002863Y018775D01*
X002975Y018664D01*
X002857Y018790D02*
X002542Y018790D01*
X002583Y018889D02*
X002816Y018889D01*
X002803Y018987D02*
X002597Y018987D01*
X002594Y019086D02*
X002806Y019086D01*
X002846Y019184D02*
X002553Y019184D01*
X002478Y019283D02*
X002921Y019283D01*
X003317Y019381D02*
X005325Y019381D01*
X005325Y019283D02*
X003478Y019283D01*
X003553Y019184D02*
X005325Y019184D01*
X005325Y019086D02*
X003594Y019086D01*
X003597Y018987D02*
X005325Y018987D01*
X005325Y018889D02*
X003583Y018889D01*
X003542Y018790D02*
X005325Y018790D01*
X005325Y018692D02*
X003452Y018692D01*
X003279Y017397D02*
X003121Y017397D01*
X002975Y017336D01*
X002863Y017225D01*
X002803Y017079D01*
X002803Y016921D01*
X002863Y016775D01*
X002975Y016664D01*
X003121Y016603D01*
X003279Y016603D01*
X003424Y016664D01*
X003536Y016775D01*
X003597Y016921D01*
X003597Y017079D01*
X003536Y017225D01*
X003424Y017336D01*
X003279Y017397D01*
X003448Y017313D02*
X005325Y017313D01*
X005325Y017411D02*
X001625Y017411D01*
X001625Y017313D02*
X001951Y017313D01*
X001975Y017336D02*
X001863Y017225D01*
X001803Y017079D01*
X001803Y016921D01*
X001863Y016775D01*
X001975Y016664D01*
X002121Y016603D01*
X002279Y016603D01*
X002424Y016664D01*
X002536Y016775D01*
X002597Y016921D01*
X002597Y017079D01*
X002536Y017225D01*
X002424Y017336D01*
X002279Y017397D01*
X002121Y017397D01*
X001975Y017336D01*
X001859Y017214D02*
X001625Y017214D01*
X001625Y017116D02*
X001818Y017116D01*
X001803Y017017D02*
X001625Y017017D01*
X001625Y016919D02*
X001804Y016919D01*
X001845Y016820D02*
X001625Y016820D01*
X001625Y016722D02*
X001917Y016722D01*
X002073Y016623D02*
X001625Y016623D01*
X001625Y016525D02*
X005325Y016525D01*
X005325Y016623D02*
X003327Y016623D01*
X003482Y016722D02*
X005325Y016722D01*
X005325Y016820D02*
X003555Y016820D01*
X003595Y016919D02*
X005325Y016919D01*
X005325Y017017D02*
X003597Y017017D01*
X003581Y017116D02*
X005325Y017116D01*
X005325Y017214D02*
X003541Y017214D01*
X002951Y017313D02*
X002448Y017313D01*
X002541Y017214D02*
X002859Y017214D01*
X002818Y017116D02*
X002581Y017116D01*
X002597Y017017D02*
X002803Y017017D01*
X002804Y016919D02*
X002595Y016919D01*
X002555Y016820D02*
X002845Y016820D01*
X002917Y016722D02*
X002482Y016722D01*
X002327Y016623D02*
X003073Y016623D01*
X003121Y016397D02*
X002975Y016336D01*
X002863Y016225D01*
X002803Y016079D01*
X002803Y015921D01*
X002863Y015775D01*
X002975Y015664D01*
X003121Y015603D01*
X003279Y015603D01*
X003424Y015664D01*
X003536Y015775D01*
X003597Y015921D01*
X003597Y016079D01*
X003536Y016225D01*
X003424Y016336D01*
X003279Y016397D01*
X003121Y016397D01*
X002966Y016328D02*
X002433Y016328D01*
X002424Y016336D02*
X002279Y016397D01*
X002121Y016397D01*
X001975Y016336D01*
X001863Y016225D01*
X001803Y016079D01*
X001803Y015921D01*
X001863Y015775D01*
X001975Y015664D01*
X002121Y015603D01*
X002279Y015603D01*
X002424Y015664D01*
X002536Y015775D01*
X002597Y015921D01*
X002597Y016079D01*
X002536Y016225D01*
X002424Y016336D01*
X002532Y016229D02*
X002867Y016229D01*
X002824Y016131D02*
X002575Y016131D01*
X002597Y016032D02*
X002803Y016032D01*
X002803Y015934D02*
X002597Y015934D01*
X002561Y015835D02*
X002838Y015835D01*
X002902Y015737D02*
X002497Y015737D01*
X002363Y015638D02*
X003037Y015638D01*
X003121Y015397D02*
X002975Y015336D01*
X002863Y015225D01*
X002803Y015079D01*
X002803Y014921D01*
X002863Y014775D01*
X002975Y014664D01*
X003121Y014603D01*
X003279Y014603D01*
X003424Y014664D01*
X003536Y014775D01*
X003597Y014921D01*
X003597Y015079D01*
X003536Y015225D01*
X003424Y015336D01*
X003279Y015397D01*
X003121Y015397D01*
X002990Y015343D02*
X002410Y015343D01*
X002424Y015336D02*
X002279Y015397D01*
X002121Y015397D01*
X001975Y015336D01*
X001863Y015225D01*
X001803Y015079D01*
X001803Y014921D01*
X001863Y014775D01*
X001975Y014664D01*
X002121Y014603D01*
X002279Y014603D01*
X002424Y014664D01*
X002536Y014775D01*
X002597Y014921D01*
X002597Y015079D01*
X002536Y015225D01*
X002424Y015336D01*
X002517Y015244D02*
X002882Y015244D01*
X002830Y015146D02*
X002569Y015146D01*
X002597Y015047D02*
X002803Y015047D01*
X002803Y014949D02*
X002597Y014949D01*
X002567Y014850D02*
X002832Y014850D01*
X002887Y014752D02*
X002512Y014752D01*
X002399Y014653D02*
X003000Y014653D01*
X003121Y014397D02*
X002975Y014336D01*
X002863Y014225D01*
X002803Y014079D01*
X002803Y013921D01*
X002863Y013775D01*
X002975Y013664D01*
X003121Y013603D01*
X003279Y013603D01*
X003424Y013664D01*
X003536Y013775D01*
X003597Y013921D01*
X003597Y014079D01*
X003536Y014225D01*
X003424Y014336D01*
X003279Y014397D01*
X003121Y014397D01*
X003026Y014358D02*
X002374Y014358D01*
X002424Y014336D02*
X002279Y014397D01*
X002121Y014397D01*
X001975Y014336D01*
X001863Y014225D01*
X001803Y014079D01*
X001803Y013921D01*
X001863Y013775D01*
X001975Y013664D01*
X002121Y013603D01*
X002279Y013603D01*
X002424Y013664D01*
X002536Y013775D01*
X002597Y013921D01*
X002597Y014079D01*
X002536Y014225D01*
X002424Y014336D01*
X002502Y014259D02*
X002897Y014259D01*
X002837Y014161D02*
X002563Y014161D01*
X002597Y014062D02*
X002803Y014062D01*
X002803Y013964D02*
X002597Y013964D01*
X002573Y013865D02*
X002826Y013865D01*
X002872Y013767D02*
X002527Y013767D01*
X002429Y013668D02*
X002970Y013668D01*
X003062Y013373D02*
X002337Y013373D01*
X002279Y013397D02*
X002424Y013336D01*
X002536Y013225D01*
X002597Y013079D01*
X002597Y012921D01*
X002536Y012775D01*
X002424Y012664D01*
X002279Y012603D01*
X002121Y012603D01*
X001975Y012664D01*
X001863Y012775D01*
X001803Y012921D01*
X001803Y013079D01*
X001863Y013225D01*
X001975Y013336D01*
X002121Y013397D01*
X002279Y013397D01*
X002062Y013373D02*
X001625Y013373D01*
X001625Y013471D02*
X005325Y013471D01*
X005325Y013373D02*
X003337Y013373D01*
X003279Y013397D02*
X003424Y013336D01*
X003536Y013225D01*
X003597Y013079D01*
X003597Y012921D01*
X003536Y012775D01*
X003424Y012664D01*
X003279Y012603D01*
X003121Y012603D01*
X002975Y012664D01*
X002863Y012775D01*
X002803Y012921D01*
X002803Y013079D01*
X002863Y013225D01*
X002975Y013336D01*
X003121Y013397D01*
X003279Y013397D01*
X003487Y013274D02*
X005325Y013274D01*
X005325Y013176D02*
X003557Y013176D01*
X003597Y013077D02*
X005325Y013077D01*
X005325Y012979D02*
X003597Y012979D01*
X003580Y012880D02*
X005325Y012880D01*
X005325Y012782D02*
X003539Y012782D01*
X003444Y012683D02*
X005325Y012683D01*
X005325Y012585D02*
X001625Y012585D01*
X001625Y012683D02*
X001955Y012683D01*
X001861Y012782D02*
X001625Y012782D01*
X001625Y012880D02*
X001820Y012880D01*
X001803Y012979D02*
X001625Y012979D01*
X001625Y013077D02*
X001803Y013077D01*
X001843Y013176D02*
X001625Y013176D01*
X001625Y013274D02*
X001912Y013274D01*
X001970Y013668D02*
X001625Y013668D01*
X001625Y013570D02*
X005325Y013570D01*
X005325Y013668D02*
X003429Y013668D01*
X003527Y013767D02*
X005325Y013767D01*
X005325Y013865D02*
X003573Y013865D01*
X003597Y013964D02*
X005325Y013964D01*
X005325Y014062D02*
X003597Y014062D01*
X003563Y014161D02*
X005325Y014161D01*
X005325Y014259D02*
X003502Y014259D01*
X003374Y014358D02*
X005325Y014358D01*
X005325Y014456D02*
X001625Y014456D01*
X001625Y014358D02*
X002026Y014358D01*
X001897Y014259D02*
X001625Y014259D01*
X001625Y014161D02*
X001837Y014161D01*
X001803Y014062D02*
X001625Y014062D01*
X001625Y013964D02*
X001803Y013964D01*
X001826Y013865D02*
X001625Y013865D01*
X001625Y013767D02*
X001872Y013767D01*
X002487Y013274D02*
X002912Y013274D01*
X002843Y013176D02*
X002557Y013176D01*
X002597Y013077D02*
X002803Y013077D01*
X002803Y012979D02*
X002597Y012979D01*
X002580Y012880D02*
X002820Y012880D01*
X002861Y012782D02*
X002539Y012782D01*
X002444Y012683D02*
X002955Y012683D01*
X003098Y012388D02*
X002301Y012388D01*
X002279Y012397D02*
X002424Y012336D01*
X002536Y012225D01*
X002597Y012079D01*
X002597Y011921D01*
X002536Y011775D01*
X002424Y011664D01*
X002279Y011603D01*
X002121Y011603D01*
X001975Y011664D01*
X001863Y011775D01*
X001803Y011921D01*
X001803Y012079D01*
X001863Y012225D01*
X001975Y012336D01*
X002121Y012397D01*
X002279Y012397D01*
X002098Y012388D02*
X001625Y012388D01*
X001625Y012486D02*
X005325Y012486D01*
X005325Y012388D02*
X003301Y012388D01*
X003279Y012397D02*
X003424Y012336D01*
X003536Y012225D01*
X003597Y012079D01*
X003597Y011921D01*
X003536Y011775D01*
X003424Y011664D01*
X003279Y011603D01*
X003121Y011603D01*
X002975Y011664D01*
X002863Y011775D01*
X002803Y011921D01*
X002803Y012079D01*
X002863Y012225D01*
X002975Y012336D01*
X003121Y012397D01*
X003279Y012397D01*
X003472Y012289D02*
X005325Y012289D01*
X005325Y012191D02*
X003550Y012191D01*
X003591Y012092D02*
X005325Y012092D01*
X005325Y011994D02*
X003597Y011994D01*
X003586Y011895D02*
X005325Y011895D01*
X005325Y011797D02*
X003545Y011797D01*
X003459Y011698D02*
X005325Y011698D01*
X005325Y011600D02*
X001625Y011600D01*
X001625Y011698D02*
X001940Y011698D01*
X001854Y011797D02*
X001625Y011797D01*
X001625Y011895D02*
X001814Y011895D01*
X001803Y011994D02*
X001625Y011994D01*
X001625Y012092D02*
X001808Y012092D01*
X001849Y012191D02*
X001625Y012191D01*
X001625Y012289D02*
X001927Y012289D01*
X002472Y012289D02*
X002927Y012289D01*
X002849Y012191D02*
X002550Y012191D01*
X002591Y012092D02*
X002808Y012092D01*
X002803Y011994D02*
X002597Y011994D01*
X002586Y011895D02*
X002814Y011895D01*
X002854Y011797D02*
X002545Y011797D01*
X002459Y011698D02*
X002940Y011698D01*
X003121Y011397D02*
X002975Y011336D01*
X002863Y011225D01*
X002803Y011079D01*
X002803Y010921D01*
X002863Y010775D01*
X002975Y010664D01*
X003121Y010603D01*
X003279Y010603D01*
X003424Y010664D01*
X003536Y010775D01*
X003597Y010921D01*
X003597Y011079D01*
X003536Y011225D01*
X003424Y011336D01*
X003279Y011397D01*
X003121Y011397D01*
X002942Y011304D02*
X002457Y011304D01*
X002424Y011336D02*
X002279Y011397D01*
X002121Y011397D01*
X001975Y011336D01*
X001863Y011225D01*
X001803Y011079D01*
X001803Y010921D01*
X001863Y010775D01*
X001975Y010664D01*
X002121Y010603D01*
X002279Y010603D01*
X002424Y010664D01*
X002536Y010775D01*
X002597Y010921D01*
X002597Y011079D01*
X002536Y011225D01*
X002424Y011336D01*
X002544Y011206D02*
X002855Y011206D01*
X002814Y011107D02*
X002585Y011107D01*
X002597Y011009D02*
X002803Y011009D01*
X002807Y010910D02*
X002592Y010910D01*
X002551Y010812D02*
X002848Y010812D01*
X002925Y010713D02*
X002474Y010713D01*
X002306Y010615D02*
X003093Y010615D01*
X003306Y010615D02*
X005325Y010615D01*
X005325Y010713D02*
X003474Y010713D01*
X003551Y010812D02*
X005325Y010812D01*
X005325Y010910D02*
X003592Y010910D01*
X003597Y011009D02*
X005325Y011009D01*
X005325Y011107D02*
X003585Y011107D01*
X003544Y011206D02*
X005325Y011206D01*
X005325Y011304D02*
X003457Y011304D01*
X003279Y010397D02*
X003121Y010397D01*
X002975Y010336D01*
X002863Y010225D01*
X002803Y010079D01*
X002803Y009921D01*
X002863Y009775D01*
X002975Y009664D01*
X003121Y009603D01*
X003279Y009603D01*
X003424Y009664D01*
X003536Y009775D01*
X003597Y009921D01*
X003597Y010079D01*
X003536Y010225D01*
X003424Y010336D01*
X003279Y010397D01*
X003442Y010319D02*
X005325Y010319D01*
X005325Y010221D02*
X003538Y010221D01*
X003579Y010122D02*
X005325Y010122D01*
X005325Y010024D02*
X003597Y010024D01*
X003597Y009925D02*
X005325Y009925D01*
X005325Y009827D02*
X003557Y009827D01*
X003489Y009728D02*
X005325Y009728D01*
X005325Y009630D02*
X003342Y009630D01*
X003279Y009397D02*
X003121Y009397D01*
X002975Y009336D01*
X002863Y009225D01*
X002803Y009079D01*
X002803Y008921D01*
X002863Y008775D01*
X002975Y008664D01*
X003121Y008603D01*
X003279Y008603D01*
X003424Y008664D01*
X003536Y008775D01*
X003597Y008921D01*
X003597Y009079D01*
X003536Y009225D01*
X003424Y009336D01*
X003279Y009397D01*
X003427Y009334D02*
X005325Y009334D01*
X005325Y009236D02*
X003525Y009236D01*
X003572Y009137D02*
X005325Y009137D01*
X005325Y009039D02*
X003597Y009039D01*
X003597Y008940D02*
X005333Y008940D01*
X005325Y008948D02*
X005398Y008875D01*
X020822Y008875D01*
X020863Y008775D01*
X020975Y008664D01*
X021121Y008603D01*
X021279Y008603D01*
X021424Y008664D01*
X021536Y008775D01*
X021597Y008921D01*
X021597Y009079D01*
X021536Y009225D01*
X021424Y009336D01*
X021331Y009375D01*
X021398Y009375D01*
X021803Y008970D01*
X021803Y008921D01*
X021863Y008775D01*
X021975Y008664D01*
X022121Y008603D01*
X022279Y008603D01*
X022424Y008664D01*
X022536Y008775D01*
X022597Y008921D01*
X022597Y009079D01*
X022536Y009225D01*
X022424Y009336D01*
X022279Y009397D01*
X022121Y009397D01*
X021975Y009336D01*
X021882Y009244D01*
X021575Y009552D01*
X021501Y009625D01*
X021331Y009625D01*
X021424Y009664D01*
X021536Y009775D01*
X021597Y009921D01*
X021597Y010079D01*
X021536Y010225D01*
X021424Y010336D01*
X021279Y010397D01*
X021121Y010397D01*
X020975Y010336D01*
X020863Y010225D01*
X020803Y010079D01*
X020803Y009921D01*
X020863Y009775D01*
X020975Y009664D01*
X021068Y009625D01*
X021001Y009625D01*
X020075Y010552D01*
X020075Y023552D01*
X019562Y024065D01*
X019562Y024401D01*
X019507Y024533D01*
X019406Y024634D01*
X019273Y024689D01*
X019130Y024689D01*
X018998Y024634D01*
X018896Y024533D01*
X018842Y024401D01*
X018842Y023737D01*
X018896Y023605D01*
X018998Y023504D01*
X019130Y023449D01*
X019273Y023449D01*
X019406Y023504D01*
X019507Y023605D01*
X019554Y023719D01*
X019825Y023448D01*
X019825Y010448D01*
X019898Y010375D01*
X020898Y009375D01*
X021068Y009375D01*
X020975Y009336D01*
X020863Y009225D01*
X020822Y009125D01*
X005575Y009125D01*
X005575Y021814D01*
X005670Y021909D01*
X005670Y022091D01*
X005541Y022220D01*
X005359Y022220D01*
X005230Y022091D01*
X005230Y021909D01*
X005325Y021814D01*
X005325Y008948D01*
X005575Y009137D02*
X020827Y009137D01*
X020874Y009236D02*
X005575Y009236D01*
X005575Y009334D02*
X020972Y009334D01*
X020840Y009433D02*
X005575Y009433D01*
X005575Y009531D02*
X020742Y009531D01*
X020643Y009630D02*
X005575Y009630D01*
X005575Y009728D02*
X020545Y009728D01*
X020446Y009827D02*
X005575Y009827D01*
X005575Y009925D02*
X020348Y009925D01*
X020249Y010024D02*
X005575Y010024D01*
X005575Y010122D02*
X020151Y010122D01*
X020052Y010221D02*
X005575Y010221D01*
X005575Y010319D02*
X019954Y010319D01*
X019855Y010418D02*
X005575Y010418D01*
X005575Y010516D02*
X019825Y010516D01*
X019825Y010615D02*
X006744Y010615D01*
X006716Y010615D02*
X006616Y010615D01*
X006616Y010611D02*
X006616Y011210D01*
X006017Y011210D01*
X006027Y011133D01*
X006049Y011050D01*
X006082Y010972D01*
X006125Y010898D01*
X006176Y010830D01*
X006237Y010770D01*
X006304Y010718D01*
X006378Y010676D01*
X006457Y010643D01*
X006539Y010621D01*
X006616Y010611D01*
X006588Y010615D02*
X005575Y010615D01*
X005575Y010713D02*
X006313Y010713D01*
X006195Y010812D02*
X005575Y010812D01*
X005575Y010910D02*
X006118Y010910D01*
X006067Y011009D02*
X005575Y011009D01*
X005575Y011107D02*
X006034Y011107D01*
X006018Y011206D02*
X005575Y011206D01*
X005575Y011304D02*
X006616Y011304D01*
X006616Y011310D02*
X006616Y011210D01*
X006716Y011210D01*
X006716Y010611D01*
X006793Y010621D01*
X006876Y010643D01*
X006954Y010676D01*
X007028Y010718D01*
X007096Y010770D01*
X007156Y010830D01*
X007208Y010898D01*
X007250Y010972D01*
X007283Y011050D01*
X007305Y011133D01*
X007315Y011210D01*
X006716Y011210D01*
X006716Y011310D01*
X006616Y011310D01*
X006017Y011310D01*
X006027Y011387D01*
X006049Y011469D01*
X006082Y011548D01*
X006125Y011622D01*
X006176Y011689D01*
X006237Y011750D01*
X006304Y011801D01*
X006378Y011844D01*
X006457Y011877D01*
X006539Y011899D01*
X006616Y011909D01*
X006616Y011310D01*
X006616Y011403D02*
X006716Y011403D01*
X006716Y011310D02*
X006716Y011909D01*
X006793Y011899D01*
X006876Y011877D01*
X006954Y011844D01*
X007028Y011801D01*
X007096Y011750D01*
X007156Y011689D01*
X007208Y011622D01*
X007250Y011548D01*
X007283Y011469D01*
X007305Y011387D01*
X007315Y011310D01*
X006716Y011310D01*
X006716Y011304D02*
X007641Y011304D01*
X007641Y011379D02*
X007641Y011140D01*
X007732Y010920D01*
X007901Y010751D01*
X008122Y010660D01*
X008360Y010660D01*
X008581Y010751D01*
X008750Y010920D01*
X008841Y011140D01*
X008841Y011379D01*
X008750Y011600D01*
X008581Y011768D01*
X008360Y011860D01*
X008122Y011860D01*
X007901Y011768D01*
X007732Y011600D01*
X007641Y011379D01*
X007651Y011403D02*
X007301Y011403D01*
X007270Y011501D02*
X007691Y011501D01*
X007732Y011600D02*
X007221Y011600D01*
X007147Y011698D02*
X007831Y011698D01*
X007969Y011797D02*
X007035Y011797D01*
X006807Y011895D02*
X011378Y011895D01*
X011325Y011948D02*
X011810Y011463D01*
X011775Y011379D01*
X011775Y011140D01*
X011866Y010920D01*
X012035Y010751D01*
X012256Y010660D01*
X012494Y010660D01*
X012715Y010751D01*
X012884Y010920D01*
X012975Y011140D01*
X012975Y011379D01*
X012884Y011600D01*
X012715Y011768D01*
X012494Y011860D01*
X012256Y011860D01*
X012035Y011768D01*
X011946Y011680D01*
X011575Y012052D01*
X011575Y016052D01*
X011501Y016125D01*
X007075Y020552D01*
X007075Y020875D01*
X007398Y020875D01*
X008398Y019875D01*
X009264Y019875D01*
X009359Y019780D01*
X009541Y019780D01*
X009670Y019909D01*
X009670Y020043D01*
X010906Y021280D01*
X011041Y021280D01*
X011170Y021409D01*
X011170Y021591D01*
X011041Y021720D01*
X010859Y021720D01*
X010730Y021591D01*
X010730Y021457D01*
X009493Y020220D01*
X009359Y020220D01*
X009264Y020125D01*
X008501Y020125D01*
X007575Y021052D01*
X007501Y021125D01*
X006898Y021125D01*
X006825Y021052D01*
X006825Y020448D01*
X011325Y015948D01*
X011325Y011948D01*
X011325Y011994D02*
X005575Y011994D01*
X005575Y012092D02*
X011325Y012092D01*
X011325Y012191D02*
X005575Y012191D01*
X005575Y012289D02*
X011325Y012289D01*
X011325Y012388D02*
X005575Y012388D01*
X005575Y012486D02*
X011325Y012486D01*
X011325Y012585D02*
X005575Y012585D01*
X005575Y012683D02*
X011325Y012683D01*
X011325Y012782D02*
X005575Y012782D01*
X005575Y012880D02*
X011325Y012880D01*
X011325Y012979D02*
X005575Y012979D01*
X005575Y013077D02*
X011325Y013077D01*
X011325Y013176D02*
X005575Y013176D01*
X005575Y013274D02*
X011325Y013274D01*
X011325Y013373D02*
X005575Y013373D01*
X005575Y013471D02*
X011325Y013471D01*
X011325Y013570D02*
X005575Y013570D01*
X005575Y013668D02*
X011325Y013668D01*
X011325Y013767D02*
X005575Y013767D01*
X005575Y013865D02*
X011325Y013865D01*
X011325Y013964D02*
X005575Y013964D01*
X005575Y014062D02*
X011325Y014062D01*
X011325Y014161D02*
X005575Y014161D01*
X005575Y014259D02*
X011325Y014259D01*
X011325Y014358D02*
X005575Y014358D01*
X005575Y014456D02*
X011325Y014456D01*
X011325Y014555D02*
X005575Y014555D01*
X005575Y014653D02*
X011325Y014653D01*
X011325Y014752D02*
X005575Y014752D01*
X005575Y014850D02*
X011325Y014850D01*
X011325Y014949D02*
X005575Y014949D01*
X005575Y015047D02*
X011325Y015047D01*
X011325Y015146D02*
X005575Y015146D01*
X005575Y015244D02*
X011325Y015244D01*
X011325Y015343D02*
X005575Y015343D01*
X005575Y015441D02*
X011325Y015441D01*
X011325Y015540D02*
X005575Y015540D01*
X005575Y015638D02*
X011325Y015638D01*
X011325Y015737D02*
X005575Y015737D01*
X005575Y015835D02*
X011325Y015835D01*
X011325Y015934D02*
X006775Y015934D01*
X006793Y015936D02*
X006876Y015958D01*
X006954Y015991D01*
X007028Y016033D01*
X007096Y016085D01*
X007156Y016145D01*
X007208Y016213D01*
X007250Y016287D01*
X007283Y016365D01*
X007305Y016448D01*
X007315Y016525D01*
X006716Y016525D01*
X006716Y015926D01*
X006793Y015936D01*
X006716Y015934D02*
X006616Y015934D01*
X006616Y015926D02*
X006616Y016525D01*
X006017Y016525D01*
X006027Y016448D01*
X006049Y016365D01*
X006082Y016287D01*
X006125Y016213D01*
X006176Y016145D01*
X006237Y016085D01*
X006304Y016033D01*
X006378Y015991D01*
X006457Y015958D01*
X006539Y015936D01*
X006616Y015926D01*
X006557Y015934D02*
X005575Y015934D01*
X005575Y016032D02*
X006306Y016032D01*
X006191Y016131D02*
X005575Y016131D01*
X005575Y016229D02*
X006115Y016229D01*
X006065Y016328D02*
X005575Y016328D01*
X005575Y016426D02*
X006033Y016426D01*
X006017Y016525D02*
X005575Y016525D01*
X005575Y016623D02*
X006616Y016623D01*
X006616Y016625D02*
X006616Y016525D01*
X006716Y016525D01*
X006716Y016625D01*
X006616Y016625D01*
X006017Y016625D01*
X006027Y016702D01*
X006049Y016784D01*
X006082Y016863D01*
X006125Y016937D01*
X006176Y017004D01*
X006237Y017065D01*
X006304Y017116D01*
X006378Y017159D01*
X006457Y017192D01*
X006539Y017214D01*
X006616Y017224D01*
X006616Y016625D01*
X006616Y016722D02*
X006716Y016722D01*
X006716Y016625D02*
X006716Y017224D01*
X006793Y017214D01*
X006876Y017192D01*
X006954Y017159D01*
X007028Y017116D01*
X007096Y017065D01*
X007156Y017004D01*
X007208Y016937D01*
X007250Y016863D01*
X007283Y016784D01*
X007305Y016702D01*
X007315Y016625D01*
X006716Y016625D01*
X006716Y016623D02*
X007641Y016623D01*
X007641Y016694D02*
X007641Y016455D01*
X007732Y016235D01*
X007901Y016066D01*
X008122Y015975D01*
X008360Y015975D01*
X008581Y016066D01*
X008750Y016235D01*
X008841Y016455D01*
X008841Y016694D01*
X008750Y016915D01*
X008581Y017083D01*
X008360Y017175D01*
X008122Y017175D01*
X007901Y017083D01*
X007732Y016915D01*
X007641Y016694D01*
X007652Y016722D02*
X007300Y016722D01*
X007268Y016820D02*
X007693Y016820D01*
X007736Y016919D02*
X007218Y016919D01*
X007143Y017017D02*
X007835Y017017D01*
X007979Y017116D02*
X007029Y017116D01*
X006791Y017214D02*
X010059Y017214D01*
X010078Y017116D02*
X010157Y017116D01*
X010156Y017083D02*
X009935Y017175D01*
X009696Y017175D01*
X009476Y017083D01*
X009307Y016915D01*
X009216Y016694D01*
X009216Y016455D01*
X009307Y016235D01*
X009476Y016066D01*
X009696Y015975D01*
X009935Y015975D01*
X010156Y016066D01*
X010324Y016235D01*
X010416Y016455D01*
X010416Y016694D01*
X010324Y016915D01*
X010156Y017083D01*
X010222Y017017D02*
X010256Y017017D01*
X010321Y016919D02*
X010354Y016919D01*
X010364Y016820D02*
X010453Y016820D01*
X010404Y016722D02*
X010551Y016722D01*
X010650Y016623D02*
X010416Y016623D01*
X010416Y016525D02*
X010748Y016525D01*
X010847Y016426D02*
X010404Y016426D01*
X010363Y016328D02*
X010945Y016328D01*
X011044Y016229D02*
X010319Y016229D01*
X010220Y016131D02*
X011142Y016131D01*
X011241Y016032D02*
X010073Y016032D01*
X009558Y016032D02*
X008499Y016032D01*
X008645Y016131D02*
X009412Y016131D01*
X009313Y016229D02*
X008744Y016229D01*
X008788Y016328D02*
X009269Y016328D01*
X009228Y016426D02*
X008829Y016426D01*
X008841Y016525D02*
X009216Y016525D01*
X009216Y016623D02*
X008841Y016623D01*
X008830Y016722D02*
X009227Y016722D01*
X009268Y016820D02*
X008789Y016820D01*
X008746Y016919D02*
X009311Y016919D01*
X009410Y017017D02*
X008647Y017017D01*
X008503Y017116D02*
X009553Y017116D01*
X009862Y017411D02*
X005575Y017411D01*
X005575Y017313D02*
X009960Y017313D01*
X010117Y017510D02*
X010263Y017510D01*
X010215Y017411D02*
X010362Y017411D01*
X010314Y017313D02*
X010460Y017313D01*
X010412Y017214D02*
X010559Y017214D01*
X010511Y017116D02*
X010657Y017116D01*
X010609Y017017D02*
X010756Y017017D01*
X010708Y016919D02*
X010854Y016919D01*
X010806Y016820D02*
X010953Y016820D01*
X010905Y016722D02*
X011051Y016722D01*
X011003Y016623D02*
X011150Y016623D01*
X011102Y016525D02*
X011248Y016525D01*
X011325Y016448D02*
X007493Y020280D01*
X007359Y020280D01*
X007230Y020409D01*
X007230Y020591D01*
X007359Y020720D01*
X007541Y020720D01*
X007670Y020591D01*
X007670Y020457D01*
X011501Y016625D01*
X011775Y016625D01*
X011775Y016694D01*
X011866Y016915D01*
X012035Y017083D01*
X012256Y017175D01*
X012494Y017175D01*
X012715Y017083D01*
X012884Y016915D01*
X012975Y016694D01*
X012975Y016455D01*
X012884Y016235D01*
X012715Y016066D01*
X012494Y015975D01*
X012256Y015975D01*
X012035Y016066D01*
X011866Y016235D01*
X011808Y016375D01*
X011398Y016375D01*
X011325Y016448D01*
X011347Y016426D02*
X011200Y016426D01*
X011299Y016328D02*
X011828Y016328D01*
X011872Y016229D02*
X011397Y016229D01*
X011496Y016131D02*
X011971Y016131D01*
X012117Y016032D02*
X011575Y016032D01*
X011575Y015934D02*
X013825Y015934D01*
X013825Y015977D02*
X013825Y011858D01*
X013610Y011768D01*
X013441Y011600D01*
X013350Y011379D01*
X013350Y011140D01*
X013441Y010920D01*
X013610Y010751D01*
X013830Y010660D01*
X014069Y010660D01*
X014290Y010751D01*
X014458Y010920D01*
X014550Y011140D01*
X014550Y011379D01*
X014458Y011600D01*
X014290Y011768D01*
X014075Y011858D01*
X014075Y015977D01*
X014290Y016066D01*
X014458Y016235D01*
X014550Y016455D01*
X014550Y016694D01*
X014458Y016915D01*
X014290Y017083D01*
X014075Y017172D01*
X014075Y020948D01*
X014406Y021280D01*
X014541Y021280D01*
X014670Y021409D01*
X014670Y021591D01*
X014541Y021720D01*
X014359Y021720D01*
X014230Y021591D01*
X014230Y021457D01*
X013898Y021125D01*
X013825Y021052D01*
X013825Y020125D01*
X013636Y020125D01*
X013541Y020220D01*
X013359Y020220D01*
X013230Y020091D01*
X013230Y019909D01*
X013359Y019780D01*
X013541Y019780D01*
X013636Y019875D01*
X013825Y019875D01*
X013825Y017172D01*
X013610Y017083D01*
X013441Y016915D01*
X013350Y016694D01*
X013350Y016455D01*
X013441Y016235D01*
X013610Y016066D01*
X013825Y015977D01*
X013825Y015835D02*
X011575Y015835D01*
X011575Y015737D02*
X013825Y015737D01*
X013825Y015638D02*
X011575Y015638D01*
X011575Y015540D02*
X013825Y015540D01*
X013825Y015441D02*
X011575Y015441D01*
X011575Y015343D02*
X013825Y015343D01*
X013825Y015244D02*
X011575Y015244D01*
X011575Y015146D02*
X013825Y015146D01*
X013825Y015047D02*
X011575Y015047D01*
X011575Y014949D02*
X013825Y014949D01*
X013825Y014850D02*
X011575Y014850D01*
X011575Y014752D02*
X013825Y014752D01*
X013825Y014653D02*
X011575Y014653D01*
X011575Y014555D02*
X013825Y014555D01*
X013825Y014456D02*
X011575Y014456D01*
X011575Y014358D02*
X013825Y014358D01*
X013825Y014259D02*
X011575Y014259D01*
X011575Y014161D02*
X013825Y014161D01*
X013825Y014062D02*
X011575Y014062D01*
X011575Y013964D02*
X013825Y013964D01*
X013825Y013865D02*
X011575Y013865D01*
X011575Y013767D02*
X013825Y013767D01*
X013825Y013668D02*
X011575Y013668D01*
X011575Y013570D02*
X013825Y013570D01*
X013825Y013471D02*
X011575Y013471D01*
X011575Y013373D02*
X013825Y013373D01*
X013825Y013274D02*
X011575Y013274D01*
X011575Y013176D02*
X013825Y013176D01*
X013825Y013077D02*
X011575Y013077D01*
X011575Y012979D02*
X013825Y012979D01*
X013825Y012880D02*
X011575Y012880D01*
X011575Y012782D02*
X013825Y012782D01*
X013825Y012683D02*
X011575Y012683D01*
X011575Y012585D02*
X013825Y012585D01*
X013825Y012486D02*
X011575Y012486D01*
X011575Y012388D02*
X013825Y012388D01*
X013825Y012289D02*
X011575Y012289D01*
X011575Y012191D02*
X013825Y012191D01*
X013825Y012092D02*
X011575Y012092D01*
X011633Y011994D02*
X013825Y011994D01*
X013825Y011895D02*
X011731Y011895D01*
X011830Y011797D02*
X012103Y011797D01*
X011965Y011698D02*
X011928Y011698D01*
X011772Y011501D02*
X010365Y011501D01*
X010325Y011600D02*
X011673Y011600D01*
X011575Y011698D02*
X010226Y011698D01*
X010156Y011768D02*
X009935Y011860D01*
X009696Y011860D01*
X009476Y011768D01*
X009307Y011600D01*
X009216Y011379D01*
X009216Y011140D01*
X009307Y010920D01*
X009476Y010751D01*
X009696Y010660D01*
X009935Y010660D01*
X010156Y010751D01*
X010324Y010920D01*
X010416Y011140D01*
X010416Y011379D01*
X010324Y011600D01*
X010156Y011768D01*
X010088Y011797D02*
X011476Y011797D01*
X011785Y011403D02*
X010406Y011403D01*
X010416Y011304D02*
X011775Y011304D01*
X011775Y011206D02*
X010416Y011206D01*
X010402Y011107D02*
X011789Y011107D01*
X011830Y011009D02*
X010361Y011009D01*
X010315Y010910D02*
X011876Y010910D01*
X011975Y010812D02*
X010216Y010812D01*
X010064Y010713D02*
X012127Y010713D01*
X012623Y010713D02*
X013702Y010713D01*
X013549Y010812D02*
X012775Y010812D01*
X012874Y010910D02*
X013451Y010910D01*
X013404Y011009D02*
X012920Y011009D01*
X012961Y011107D02*
X013364Y011107D01*
X013350Y011206D02*
X012975Y011206D01*
X012975Y011304D02*
X013350Y011304D01*
X013359Y011403D02*
X012965Y011403D01*
X012924Y011501D02*
X013400Y011501D01*
X013441Y011600D02*
X012884Y011600D01*
X012785Y011698D02*
X013539Y011698D01*
X013677Y011797D02*
X012647Y011797D01*
X014075Y011895D02*
X016168Y011895D01*
X016266Y011994D02*
X014075Y011994D01*
X014075Y012092D02*
X016325Y012092D01*
X016325Y012191D02*
X014075Y012191D01*
X014075Y012289D02*
X016325Y012289D01*
X016325Y012388D02*
X014075Y012388D01*
X014075Y012486D02*
X016325Y012486D01*
X016325Y012585D02*
X014075Y012585D01*
X014075Y012683D02*
X016325Y012683D01*
X016325Y012782D02*
X014075Y012782D01*
X014075Y012880D02*
X016325Y012880D01*
X016325Y012979D02*
X014075Y012979D01*
X014075Y013077D02*
X016325Y013077D01*
X016325Y013176D02*
X014075Y013176D01*
X014075Y013274D02*
X016325Y013274D01*
X016325Y013373D02*
X014075Y013373D01*
X014075Y013471D02*
X016325Y013471D01*
X016325Y013570D02*
X014075Y013570D01*
X014075Y013668D02*
X016325Y013668D01*
X016325Y013767D02*
X014075Y013767D01*
X014075Y013865D02*
X016325Y013865D01*
X016325Y013964D02*
X014075Y013964D01*
X014075Y014062D02*
X016325Y014062D01*
X016325Y014161D02*
X014075Y014161D01*
X014075Y014259D02*
X016325Y014259D01*
X016325Y014358D02*
X014075Y014358D01*
X014075Y014456D02*
X016325Y014456D01*
X016325Y014555D02*
X014075Y014555D01*
X014075Y014653D02*
X016325Y014653D01*
X016325Y014752D02*
X014075Y014752D01*
X014075Y014850D02*
X016325Y014850D01*
X016325Y014949D02*
X014075Y014949D01*
X014075Y015047D02*
X016325Y015047D01*
X016325Y015146D02*
X014075Y015146D01*
X014075Y015244D02*
X016325Y015244D01*
X016325Y015343D02*
X014075Y015343D01*
X014075Y015441D02*
X016325Y015441D01*
X016325Y015540D02*
X014075Y015540D01*
X014075Y015638D02*
X016325Y015638D01*
X016325Y015737D02*
X014075Y015737D01*
X014075Y015835D02*
X016325Y015835D01*
X016325Y015934D02*
X014075Y015934D01*
X014207Y016032D02*
X015267Y016032D01*
X015120Y016131D02*
X014354Y016131D01*
X014452Y016229D02*
X015022Y016229D01*
X014977Y016328D02*
X014497Y016328D01*
X014537Y016426D02*
X014937Y016426D01*
X014924Y016525D02*
X014550Y016525D01*
X014550Y016623D02*
X014924Y016623D01*
X014936Y016722D02*
X014538Y016722D01*
X014498Y016820D02*
X014977Y016820D01*
X015020Y016919D02*
X014454Y016919D01*
X014356Y017017D02*
X015118Y017017D01*
X015262Y017116D02*
X014212Y017116D01*
X014075Y017214D02*
X015325Y017214D01*
X015325Y017313D02*
X014075Y017313D01*
X014075Y017411D02*
X015325Y017411D01*
X015325Y017510D02*
X014075Y017510D01*
X014075Y017608D02*
X015325Y017608D01*
X015325Y017707D02*
X014075Y017707D01*
X014075Y017805D02*
X015325Y017805D01*
X015325Y017904D02*
X014075Y017904D01*
X014075Y018002D02*
X015325Y018002D01*
X015325Y018101D02*
X014075Y018101D01*
X014075Y018199D02*
X015325Y018199D01*
X015325Y018298D02*
X014075Y018298D01*
X014075Y018396D02*
X015325Y018396D01*
X015325Y018495D02*
X014075Y018495D01*
X014075Y018593D02*
X015325Y018593D01*
X015325Y018692D02*
X014075Y018692D01*
X014075Y018790D02*
X014849Y018790D01*
X014750Y018889D02*
X014075Y018889D01*
X014075Y018987D02*
X014730Y018987D01*
X014730Y019086D02*
X014075Y019086D01*
X014075Y019184D02*
X014823Y019184D01*
X015077Y019184D02*
X015325Y019184D01*
X015325Y019283D02*
X014075Y019283D01*
X014075Y019381D02*
X015325Y019381D01*
X015325Y019480D02*
X014075Y019480D01*
X014075Y019578D02*
X015325Y019578D01*
X015325Y019677D02*
X014075Y019677D01*
X014075Y019775D02*
X015325Y019775D01*
X015325Y019874D02*
X014075Y019874D01*
X014075Y019972D02*
X015325Y019972D01*
X015343Y020071D02*
X014075Y020071D01*
X014075Y020169D02*
X015442Y020169D01*
X015540Y020268D02*
X014075Y020268D01*
X014075Y020366D02*
X015639Y020366D01*
X015737Y020465D02*
X014075Y020465D01*
X014075Y020563D02*
X015836Y020563D01*
X015934Y020662D02*
X014075Y020662D01*
X014075Y020760D02*
X016033Y020760D01*
X016131Y020859D02*
X014075Y020859D01*
X014084Y020957D02*
X016230Y020957D01*
X016328Y021056D02*
X014182Y021056D01*
X014281Y021154D02*
X016427Y021154D01*
X016525Y021253D02*
X014379Y021253D01*
X014222Y021450D02*
X012677Y021450D01*
X012578Y021548D02*
X014230Y021548D01*
X014285Y021647D02*
X012480Y021647D01*
X012323Y021450D02*
X011170Y021450D01*
X011170Y021548D02*
X012225Y021548D01*
X012126Y021647D02*
X011114Y021647D01*
X011112Y021351D02*
X012422Y021351D01*
X012520Y021253D02*
X010879Y021253D01*
X010781Y021154D02*
X012293Y021154D01*
X012230Y021091D02*
X012230Y020909D01*
X012359Y020780D01*
X012493Y020780D01*
X012825Y020448D01*
X012825Y019186D01*
X012730Y019091D01*
X012730Y018909D01*
X012859Y018780D01*
X013041Y018780D01*
X013170Y018909D01*
X013170Y019091D01*
X013075Y019186D01*
X013075Y020552D01*
X013001Y020625D01*
X012670Y020957D01*
X012730Y020957D01*
X012670Y020957D02*
X012670Y021091D01*
X012541Y021220D01*
X012359Y021220D01*
X012230Y021091D01*
X012230Y021056D02*
X010682Y021056D01*
X010584Y020957D02*
X012230Y020957D01*
X012280Y020859D02*
X010485Y020859D01*
X010386Y020760D02*
X012513Y020760D01*
X012611Y020662D02*
X010288Y020662D01*
X010189Y020563D02*
X012710Y020563D01*
X012808Y020465D02*
X010091Y020465D01*
X009992Y020366D02*
X012825Y020366D01*
X012825Y020268D02*
X009894Y020268D01*
X009795Y020169D02*
X012825Y020169D01*
X012825Y020071D02*
X009697Y020071D01*
X009670Y019972D02*
X012825Y019972D01*
X012825Y019874D02*
X009634Y019874D01*
X009540Y020268D02*
X008359Y020268D01*
X008260Y020366D02*
X009639Y020366D01*
X009737Y020465D02*
X008162Y020465D01*
X008063Y020563D02*
X009836Y020563D01*
X009934Y020662D02*
X007965Y020662D01*
X007866Y020760D02*
X010033Y020760D01*
X010131Y020859D02*
X007768Y020859D01*
X007669Y020957D02*
X010230Y020957D01*
X010328Y021056D02*
X007571Y021056D01*
X007414Y020859D02*
X007075Y020859D01*
X007075Y020760D02*
X007513Y020760D01*
X007599Y020662D02*
X007611Y020662D01*
X007670Y020563D02*
X007710Y020563D01*
X007670Y020465D02*
X007808Y020465D01*
X007760Y020366D02*
X007907Y020366D01*
X007859Y020268D02*
X008005Y020268D01*
X007957Y020169D02*
X008104Y020169D01*
X008056Y020071D02*
X008202Y020071D01*
X008154Y019972D02*
X008301Y019972D01*
X008253Y019874D02*
X009265Y019874D01*
X009308Y020169D02*
X008457Y020169D01*
X008351Y019775D02*
X012825Y019775D01*
X012825Y019677D02*
X008450Y019677D01*
X008548Y019578D02*
X012825Y019578D01*
X012825Y019480D02*
X008647Y019480D01*
X008745Y019381D02*
X012825Y019381D01*
X012825Y019283D02*
X008844Y019283D01*
X008942Y019184D02*
X012823Y019184D01*
X012730Y019086D02*
X009041Y019086D01*
X009139Y018987D02*
X012730Y018987D01*
X012750Y018889D02*
X009238Y018889D01*
X009336Y018790D02*
X012849Y018790D01*
X013051Y018790D02*
X013825Y018790D01*
X013825Y018692D02*
X009435Y018692D01*
X009533Y018593D02*
X013825Y018593D01*
X013825Y018495D02*
X009632Y018495D01*
X009730Y018396D02*
X013825Y018396D01*
X013825Y018298D02*
X009829Y018298D01*
X009927Y018199D02*
X013825Y018199D01*
X013825Y018101D02*
X010026Y018101D01*
X010124Y018002D02*
X013825Y018002D01*
X013825Y017904D02*
X010223Y017904D01*
X010321Y017805D02*
X013825Y017805D01*
X013825Y017707D02*
X010420Y017707D01*
X010518Y017608D02*
X013825Y017608D01*
X013825Y017510D02*
X010617Y017510D01*
X010715Y017411D02*
X013825Y017411D01*
X013825Y017313D02*
X010814Y017313D01*
X010912Y017214D02*
X013825Y017214D01*
X013687Y017116D02*
X012637Y017116D01*
X012781Y017017D02*
X013543Y017017D01*
X013445Y016919D02*
X012880Y016919D01*
X012923Y016820D02*
X013402Y016820D01*
X013361Y016722D02*
X012964Y016722D01*
X012975Y016623D02*
X013350Y016623D01*
X013350Y016525D02*
X012975Y016525D01*
X012963Y016426D02*
X013362Y016426D01*
X013403Y016328D02*
X012922Y016328D01*
X012878Y016229D02*
X013447Y016229D01*
X013545Y016131D02*
X012779Y016131D01*
X012632Y016032D02*
X013692Y016032D01*
X012112Y017116D02*
X011011Y017116D01*
X011109Y017017D02*
X011969Y017017D01*
X011870Y016919D02*
X011208Y016919D01*
X011306Y016820D02*
X011827Y016820D01*
X011786Y016722D02*
X011405Y016722D01*
X010165Y017608D02*
X010018Y017608D01*
X010066Y017707D02*
X009920Y017707D01*
X009968Y017805D02*
X009821Y017805D01*
X009869Y017904D02*
X009723Y017904D01*
X009771Y018002D02*
X009624Y018002D01*
X009672Y018101D02*
X009526Y018101D01*
X009574Y018199D02*
X009427Y018199D01*
X009475Y018298D02*
X009329Y018298D01*
X009377Y018396D02*
X009230Y018396D01*
X009278Y018495D02*
X009132Y018495D01*
X009180Y018593D02*
X009033Y018593D01*
X009081Y018692D02*
X008935Y018692D01*
X008983Y018790D02*
X008836Y018790D01*
X008884Y018889D02*
X008738Y018889D01*
X008786Y018987D02*
X008639Y018987D01*
X008687Y019086D02*
X008541Y019086D01*
X008589Y019184D02*
X008442Y019184D01*
X008490Y019283D02*
X008344Y019283D01*
X008392Y019381D02*
X008245Y019381D01*
X008293Y019480D02*
X008147Y019480D01*
X008195Y019578D02*
X008048Y019578D01*
X008096Y019677D02*
X007950Y019677D01*
X007998Y019775D02*
X007851Y019775D01*
X007899Y019874D02*
X007753Y019874D01*
X007801Y019972D02*
X007654Y019972D01*
X007702Y020071D02*
X007556Y020071D01*
X007604Y020169D02*
X007457Y020169D01*
X007505Y020268D02*
X007359Y020268D01*
X007273Y020366D02*
X007260Y020366D01*
X007230Y020465D02*
X007162Y020465D01*
X007230Y020563D02*
X007075Y020563D01*
X007075Y020662D02*
X007300Y020662D01*
X006907Y020366D02*
X005575Y020366D01*
X005575Y020268D02*
X007005Y020268D01*
X007104Y020169D02*
X005575Y020169D01*
X005575Y020071D02*
X007202Y020071D01*
X007301Y019972D02*
X005575Y019972D01*
X005575Y019874D02*
X007399Y019874D01*
X007498Y019775D02*
X005575Y019775D01*
X005575Y019677D02*
X007596Y019677D01*
X007695Y019578D02*
X005575Y019578D01*
X005575Y019480D02*
X007793Y019480D01*
X007892Y019381D02*
X005575Y019381D01*
X005575Y019283D02*
X007990Y019283D01*
X008089Y019184D02*
X005575Y019184D01*
X005575Y019086D02*
X008187Y019086D01*
X008286Y018987D02*
X005575Y018987D01*
X005575Y018889D02*
X008384Y018889D01*
X008483Y018790D02*
X005575Y018790D01*
X005575Y018692D02*
X008581Y018692D01*
X008680Y018593D02*
X005575Y018593D01*
X005575Y018495D02*
X008778Y018495D01*
X008877Y018396D02*
X005575Y018396D01*
X005575Y018298D02*
X008975Y018298D01*
X009074Y018199D02*
X005575Y018199D01*
X005575Y018101D02*
X009172Y018101D01*
X009271Y018002D02*
X005575Y018002D01*
X005575Y017904D02*
X009369Y017904D01*
X009468Y017805D02*
X005575Y017805D01*
X005575Y017707D02*
X009566Y017707D01*
X009665Y017608D02*
X005575Y017608D01*
X005575Y017510D02*
X009763Y017510D01*
X007984Y016032D02*
X007026Y016032D01*
X007141Y016131D02*
X007837Y016131D01*
X007738Y016229D02*
X007217Y016229D01*
X007267Y016328D02*
X007694Y016328D01*
X007653Y016426D02*
X007299Y016426D01*
X007315Y016525D02*
X007641Y016525D01*
X006716Y016525D02*
X006616Y016525D01*
X006616Y016426D02*
X006716Y016426D01*
X006716Y016328D02*
X006616Y016328D01*
X006616Y016229D02*
X006716Y016229D01*
X006716Y016131D02*
X006616Y016131D01*
X006616Y016032D02*
X006716Y016032D01*
X006716Y016820D02*
X006616Y016820D01*
X006616Y016919D02*
X006716Y016919D01*
X006716Y017017D02*
X006616Y017017D01*
X006616Y017116D02*
X006716Y017116D01*
X006716Y017214D02*
X006616Y017214D01*
X006542Y017214D02*
X005575Y017214D01*
X005575Y017116D02*
X006303Y017116D01*
X006189Y017017D02*
X005575Y017017D01*
X005575Y016919D02*
X006114Y016919D01*
X006064Y016820D02*
X005575Y016820D01*
X005575Y016722D02*
X006033Y016722D01*
X005325Y016426D02*
X001625Y016426D01*
X001625Y016328D02*
X001966Y016328D01*
X001867Y016229D02*
X001625Y016229D01*
X001625Y016131D02*
X001824Y016131D01*
X001803Y016032D02*
X001625Y016032D01*
X001625Y015934D02*
X001803Y015934D01*
X001838Y015835D02*
X001625Y015835D01*
X001625Y015737D02*
X001902Y015737D01*
X002037Y015638D02*
X001625Y015638D01*
X001625Y015540D02*
X005325Y015540D01*
X005325Y015638D02*
X003363Y015638D01*
X003497Y015737D02*
X005325Y015737D01*
X005325Y015835D02*
X003561Y015835D01*
X003597Y015934D02*
X005325Y015934D01*
X005325Y016032D02*
X003597Y016032D01*
X003575Y016131D02*
X005325Y016131D01*
X005325Y016229D02*
X003532Y016229D01*
X003433Y016328D02*
X005325Y016328D01*
X005325Y015441D02*
X001625Y015441D01*
X001625Y015343D02*
X001990Y015343D01*
X001882Y015244D02*
X001625Y015244D01*
X001625Y015146D02*
X001830Y015146D01*
X001803Y015047D02*
X001625Y015047D01*
X001625Y014949D02*
X001803Y014949D01*
X001832Y014850D02*
X001625Y014850D01*
X001625Y014752D02*
X001887Y014752D01*
X002000Y014653D02*
X001625Y014653D01*
X001625Y014555D02*
X005325Y014555D01*
X005325Y014653D02*
X003399Y014653D01*
X003512Y014752D02*
X005325Y014752D01*
X005325Y014850D02*
X003567Y014850D01*
X003597Y014949D02*
X005325Y014949D01*
X005325Y015047D02*
X003597Y015047D01*
X003569Y015146D02*
X005325Y015146D01*
X005325Y015244D02*
X003517Y015244D01*
X003410Y015343D02*
X005325Y015343D01*
X005575Y011895D02*
X006525Y011895D01*
X006616Y011895D02*
X006716Y011895D01*
X006716Y011797D02*
X006616Y011797D01*
X006616Y011698D02*
X006716Y011698D01*
X006716Y011600D02*
X006616Y011600D01*
X006616Y011501D02*
X006716Y011501D01*
X006716Y011206D02*
X006616Y011206D01*
X006616Y011107D02*
X006716Y011107D01*
X006716Y011009D02*
X006616Y011009D01*
X006616Y010910D02*
X006716Y010910D01*
X006716Y010812D02*
X006616Y010812D01*
X006616Y010713D02*
X006716Y010713D01*
X007019Y010713D02*
X007993Y010713D01*
X007841Y010812D02*
X007137Y010812D01*
X007215Y010910D02*
X007742Y010910D01*
X007696Y011009D02*
X007266Y011009D01*
X007298Y011107D02*
X007655Y011107D01*
X007641Y011206D02*
X007315Y011206D01*
X006298Y011797D02*
X005575Y011797D01*
X005575Y011698D02*
X006185Y011698D01*
X006112Y011600D02*
X005575Y011600D01*
X005575Y011501D02*
X006063Y011501D01*
X006032Y011403D02*
X005575Y011403D01*
X005325Y011403D02*
X001625Y011403D01*
X001625Y011501D02*
X005325Y011501D01*
X005325Y010516D02*
X001625Y010516D01*
X001625Y010418D02*
X005325Y010418D01*
X005325Y009531D02*
X001625Y009531D01*
X001625Y009433D02*
X005325Y009433D01*
X006974Y007976D02*
X006633Y007548D01*
X006396Y007056D01*
X006275Y006523D01*
X006275Y006425D01*
X001625Y006425D01*
X001625Y029500D01*
X001640Y029879D01*
X001758Y030626D01*
X001992Y031346D01*
X002336Y032021D01*
X002781Y032634D01*
X003316Y033169D01*
X003929Y033614D01*
X004603Y033958D01*
X005323Y034192D01*
X006071Y034310D01*
X006450Y034325D01*
X017950Y034325D01*
X018328Y034310D01*
X019076Y034192D01*
X019796Y033958D01*
X020471Y033614D01*
X021083Y033169D01*
X021619Y032634D01*
X022064Y032021D01*
X022407Y031346D01*
X022641Y030626D01*
X022760Y029879D01*
X022775Y029500D01*
X022775Y006425D01*
X018125Y006425D01*
X018125Y006523D01*
X018003Y007056D01*
X017766Y007548D01*
X017766Y007548D01*
X017425Y007976D01*
X016998Y008316D01*
X016506Y008553D01*
X016506Y008553D01*
X015973Y008675D01*
X015772Y008675D01*
X008426Y008675D01*
X007894Y008553D01*
X007894Y008553D01*
X007401Y008316D01*
X006974Y007976D01*
X006974Y007976D01*
X006958Y007955D02*
X003248Y007955D01*
X003248Y007952D02*
X003248Y008048D01*
X003647Y008048D01*
X003647Y008317D01*
X003636Y008355D01*
X003617Y008389D01*
X003589Y008417D01*
X003554Y008437D01*
X003516Y008447D01*
X003248Y008447D01*
X003248Y008048D01*
X003151Y008048D01*
X003151Y007952D01*
X002753Y007952D01*
X002753Y007683D01*
X002763Y007645D01*
X002783Y007611D01*
X002811Y007583D01*
X002845Y007563D01*
X002883Y007553D01*
X003151Y007553D01*
X003151Y007952D01*
X003248Y007952D01*
X003647Y007952D01*
X003647Y007683D01*
X003636Y007645D01*
X003617Y007611D01*
X003589Y007583D01*
X003554Y007563D01*
X003516Y007553D01*
X003248Y007553D01*
X003248Y007952D01*
X003248Y007857D02*
X003151Y007857D01*
X003151Y007955D02*
X002248Y007955D01*
X002248Y007952D02*
X002248Y008048D01*
X002644Y008048D01*
X002636Y008105D01*
X002614Y008172D01*
X002582Y008234D01*
X002541Y008291D01*
X002491Y008341D01*
X002434Y008382D01*
X002371Y008414D01*
X002304Y008436D01*
X002248Y008445D01*
X002248Y008048D01*
X002151Y008048D01*
X002151Y007952D01*
X001755Y007952D01*
X001764Y007895D01*
X001786Y007828D01*
X001818Y007766D01*
X001859Y007709D01*
X001909Y007659D01*
X001965Y007618D01*
X002028Y007586D01*
X002095Y007564D01*
X002151Y007555D01*
X002151Y007952D01*
X002248Y007952D01*
X002644Y007952D01*
X002636Y007895D01*
X002614Y007828D01*
X002582Y007766D01*
X002541Y007709D01*
X002491Y007659D01*
X002434Y007618D01*
X002371Y007586D01*
X002304Y007564D01*
X002248Y007555D01*
X002248Y007952D01*
X002248Y007857D02*
X002151Y007857D01*
X002151Y007955D02*
X001625Y007955D01*
X001625Y007857D02*
X001776Y007857D01*
X001823Y007758D02*
X001625Y007758D01*
X001625Y007660D02*
X001908Y007660D01*
X002115Y007561D02*
X001625Y007561D01*
X001625Y007463D02*
X006592Y007463D01*
X006633Y007548D02*
X006633Y007548D01*
X006643Y007561D02*
X003546Y007561D01*
X003640Y007660D02*
X006722Y007660D01*
X006801Y007758D02*
X003647Y007758D01*
X003647Y007857D02*
X006879Y007857D01*
X007072Y008054D02*
X003647Y008054D01*
X003647Y008152D02*
X007195Y008152D01*
X007319Y008251D02*
X003647Y008251D01*
X003638Y008349D02*
X007469Y008349D01*
X007401Y008316D02*
X007401Y008316D01*
X007674Y008448D02*
X001625Y008448D01*
X001625Y008546D02*
X007878Y008546D01*
X008293Y008645D02*
X003378Y008645D01*
X003504Y008743D02*
X020895Y008743D01*
X020836Y008842D02*
X003564Y008842D01*
X003151Y008447D02*
X003151Y008048D01*
X002753Y008048D01*
X002753Y008317D01*
X002763Y008355D01*
X002783Y008389D01*
X002811Y008417D01*
X002845Y008437D01*
X002883Y008447D01*
X003151Y008447D01*
X003151Y008349D02*
X003248Y008349D01*
X003248Y008251D02*
X003151Y008251D01*
X003151Y008152D02*
X003248Y008152D01*
X003248Y008054D02*
X003151Y008054D01*
X003151Y007758D02*
X003248Y007758D01*
X003248Y007660D02*
X003151Y007660D01*
X003151Y007561D02*
X003248Y007561D01*
X002854Y007561D02*
X002284Y007561D01*
X002248Y007561D02*
X002151Y007561D01*
X002151Y007660D02*
X002248Y007660D01*
X002248Y007758D02*
X002151Y007758D01*
X002151Y008048D02*
X001755Y008048D01*
X001764Y008105D01*
X001786Y008172D01*
X001818Y008234D01*
X001859Y008291D01*
X001909Y008341D01*
X001965Y008382D01*
X002028Y008414D01*
X002095Y008436D01*
X002151Y008445D01*
X002151Y008048D01*
X002151Y008054D02*
X002248Y008054D01*
X002248Y008152D02*
X002151Y008152D01*
X002151Y008251D02*
X002248Y008251D01*
X002248Y008349D02*
X002151Y008349D01*
X001920Y008349D02*
X001625Y008349D01*
X001625Y008251D02*
X001829Y008251D01*
X001779Y008152D02*
X001625Y008152D01*
X001625Y008054D02*
X001756Y008054D01*
X001625Y008645D02*
X002021Y008645D01*
X001975Y008664D02*
X002121Y008603D01*
X002279Y008603D01*
X002424Y008664D01*
X002536Y008775D01*
X002597Y008921D01*
X002597Y009079D01*
X002536Y009225D01*
X002424Y009336D01*
X002279Y009397D01*
X002121Y009397D01*
X001975Y009336D01*
X001863Y009225D01*
X001803Y009079D01*
X001803Y008921D01*
X001863Y008775D01*
X001975Y008664D01*
X001895Y008743D02*
X001625Y008743D01*
X001625Y008842D02*
X001836Y008842D01*
X001803Y008940D02*
X001625Y008940D01*
X001625Y009039D02*
X001803Y009039D01*
X001827Y009137D02*
X001625Y009137D01*
X001625Y009236D02*
X001874Y009236D01*
X001972Y009334D02*
X001625Y009334D01*
X001625Y009630D02*
X002057Y009630D01*
X002121Y009603D02*
X002279Y009603D01*
X002424Y009664D01*
X002536Y009775D01*
X002597Y009921D01*
X002597Y010079D01*
X002536Y010225D01*
X002424Y010336D01*
X002279Y010397D01*
X002121Y010397D01*
X001975Y010336D01*
X001863Y010225D01*
X001803Y010079D01*
X001803Y009921D01*
X001863Y009775D01*
X001975Y009664D01*
X002121Y009603D01*
X002342Y009630D02*
X003057Y009630D01*
X002910Y009728D02*
X002489Y009728D01*
X002557Y009827D02*
X002842Y009827D01*
X002803Y009925D02*
X002597Y009925D01*
X002597Y010024D02*
X002803Y010024D01*
X002821Y010122D02*
X002579Y010122D01*
X002538Y010221D02*
X002861Y010221D01*
X002957Y010319D02*
X002442Y010319D01*
X002093Y010615D02*
X001625Y010615D01*
X001625Y010713D02*
X001925Y010713D01*
X001848Y010812D02*
X001625Y010812D01*
X001625Y010910D02*
X001807Y010910D01*
X001803Y011009D02*
X001625Y011009D01*
X001625Y011107D02*
X001814Y011107D01*
X001855Y011206D02*
X001625Y011206D01*
X001625Y011304D02*
X001942Y011304D01*
X001957Y010319D02*
X001625Y010319D01*
X001625Y010221D02*
X001861Y010221D01*
X001821Y010122D02*
X001625Y010122D01*
X001625Y010024D02*
X001803Y010024D01*
X001803Y009925D02*
X001625Y009925D01*
X001625Y009827D02*
X001842Y009827D01*
X001910Y009728D02*
X001625Y009728D01*
X002427Y009334D02*
X002972Y009334D01*
X002874Y009236D02*
X002525Y009236D01*
X002572Y009137D02*
X002827Y009137D01*
X002803Y009039D02*
X002597Y009039D01*
X002597Y008940D02*
X002803Y008940D01*
X002836Y008842D02*
X002564Y008842D01*
X002504Y008743D02*
X002895Y008743D01*
X003021Y008645D02*
X002378Y008645D01*
X002480Y008349D02*
X002762Y008349D01*
X002753Y008251D02*
X002570Y008251D01*
X002620Y008152D02*
X002753Y008152D01*
X002753Y008054D02*
X002644Y008054D01*
X002623Y007857D02*
X002753Y007857D01*
X002753Y007758D02*
X002576Y007758D01*
X002491Y007660D02*
X002759Y007660D01*
X001625Y007364D02*
X006545Y007364D01*
X006497Y007266D02*
X001625Y007266D01*
X001625Y007167D02*
X006450Y007167D01*
X006402Y007069D02*
X001625Y007069D01*
X001625Y006970D02*
X006377Y006970D01*
X006354Y006872D02*
X001625Y006872D01*
X001625Y006773D02*
X006332Y006773D01*
X006309Y006675D02*
X001625Y006675D01*
X001625Y006576D02*
X006287Y006576D01*
X006275Y006478D02*
X001625Y006478D01*
X008489Y010713D02*
X009568Y010713D01*
X009416Y010812D02*
X008641Y010812D01*
X008740Y010910D02*
X009317Y010910D01*
X009270Y011009D02*
X008786Y011009D01*
X008827Y011107D02*
X009230Y011107D01*
X009216Y011206D02*
X008841Y011206D01*
X008841Y011304D02*
X009216Y011304D01*
X009225Y011403D02*
X008831Y011403D01*
X008791Y011501D02*
X009266Y011501D01*
X009307Y011600D02*
X008750Y011600D01*
X008651Y011698D02*
X009405Y011698D01*
X009544Y011797D02*
X008513Y011797D01*
X013149Y018889D02*
X013825Y018889D01*
X013825Y018987D02*
X013170Y018987D01*
X013170Y019086D02*
X013825Y019086D01*
X013825Y019184D02*
X013077Y019184D01*
X013075Y019283D02*
X013825Y019283D01*
X013825Y019381D02*
X013075Y019381D01*
X013075Y019480D02*
X013825Y019480D01*
X013825Y019578D02*
X013075Y019578D01*
X013075Y019677D02*
X013825Y019677D01*
X013825Y019775D02*
X013075Y019775D01*
X013075Y019874D02*
X013265Y019874D01*
X013230Y019972D02*
X013075Y019972D01*
X013075Y020071D02*
X013230Y020071D01*
X013308Y020169D02*
X013075Y020169D01*
X013075Y020268D02*
X013825Y020268D01*
X013825Y020366D02*
X013075Y020366D01*
X013075Y020465D02*
X013825Y020465D01*
X013825Y020563D02*
X013063Y020563D01*
X012965Y020662D02*
X013825Y020662D01*
X013825Y020760D02*
X012866Y020760D01*
X012780Y020859D02*
X012768Y020859D01*
X012717Y021056D02*
X012670Y021056D01*
X012619Y021154D02*
X012607Y021154D01*
X012775Y021351D02*
X014124Y021351D01*
X014025Y021253D02*
X012874Y021253D01*
X013107Y021154D02*
X013927Y021154D01*
X013828Y021056D02*
X013170Y021056D01*
X013170Y020957D02*
X013825Y020957D01*
X013825Y020859D02*
X013119Y020859D01*
X013592Y020169D02*
X013825Y020169D01*
X013825Y019874D02*
X013634Y019874D01*
X014612Y021351D02*
X016624Y021351D01*
X016722Y021450D02*
X014670Y021450D01*
X014670Y021548D02*
X016730Y021548D01*
X016785Y021647D02*
X014614Y021647D01*
X015998Y023504D02*
X015896Y023605D01*
X015842Y023737D01*
X015842Y024401D01*
X015896Y024533D01*
X015998Y024634D01*
X016130Y024689D01*
X016273Y024689D01*
X016406Y024634D01*
X016507Y024533D01*
X016562Y024401D01*
X016562Y024065D01*
X016842Y023785D01*
X016842Y024401D01*
X016896Y024533D01*
X016998Y024634D01*
X017130Y024689D01*
X017273Y024689D01*
X017325Y024668D01*
X017325Y025052D01*
X017398Y025125D01*
X019501Y025125D01*
X019575Y025052D01*
X020075Y024552D01*
X020075Y024052D01*
X020575Y023552D01*
X020575Y016625D01*
X021068Y016625D01*
X020975Y016664D01*
X020863Y016775D01*
X020803Y016921D01*
X020803Y017079D01*
X020863Y017225D01*
X020975Y017336D01*
X021121Y017397D01*
X021279Y017397D01*
X021424Y017336D01*
X021536Y017225D01*
X021597Y017079D01*
X021597Y016921D01*
X021536Y016775D01*
X021424Y016664D01*
X021331Y016625D01*
X021501Y016625D01*
X021575Y016552D01*
X021882Y016244D01*
X021975Y016336D01*
X022121Y016397D01*
X022279Y016397D01*
X022424Y016336D01*
X022536Y016225D01*
X022597Y016079D01*
X022597Y015921D01*
X022536Y015775D01*
X022424Y015664D01*
X022279Y015603D01*
X022121Y015603D01*
X021975Y015664D01*
X021863Y015775D01*
X021803Y015921D01*
X021803Y015970D01*
X021398Y016375D01*
X021331Y016375D01*
X021424Y016336D01*
X021536Y016225D01*
X021597Y016079D01*
X021597Y015921D01*
X021536Y015775D01*
X021424Y015664D01*
X021279Y015603D01*
X021121Y015603D01*
X020975Y015664D01*
X020863Y015775D01*
X020803Y015921D01*
X020803Y016079D01*
X020863Y016225D01*
X020975Y016336D01*
X021068Y016375D01*
X020398Y016375D01*
X020325Y016448D01*
X020325Y023448D01*
X019898Y023875D01*
X019825Y023948D01*
X019825Y024448D01*
X019398Y024875D01*
X017575Y024875D01*
X017575Y024033D01*
X017584Y024016D01*
X017575Y023983D01*
X017575Y023948D01*
X017562Y023935D01*
X017562Y023737D01*
X017507Y023605D01*
X017406Y023504D01*
X017273Y023449D01*
X017178Y023449D01*
X018075Y022552D01*
X018075Y022448D01*
X018075Y019186D01*
X018170Y019091D01*
X018170Y018909D01*
X018041Y018780D01*
X017859Y018780D01*
X017730Y018909D01*
X017730Y019091D01*
X017825Y019186D01*
X017825Y022448D01*
X016554Y023719D01*
X016507Y023605D01*
X016406Y023504D01*
X016273Y023449D01*
X016130Y023449D01*
X015998Y023504D01*
X015983Y023518D02*
X011108Y023518D01*
X011010Y023617D02*
X015892Y023617D01*
X015851Y023715D02*
X010911Y023715D01*
X010813Y023814D02*
X015842Y023814D01*
X015842Y023912D02*
X010714Y023912D01*
X010616Y024011D02*
X015842Y024011D01*
X015842Y024109D02*
X010517Y024109D01*
X010419Y024208D02*
X015842Y024208D01*
X015842Y024306D02*
X010320Y024306D01*
X010222Y024405D02*
X015843Y024405D01*
X015884Y024503D02*
X010123Y024503D01*
X010025Y024602D02*
X015965Y024602D01*
X016438Y024602D02*
X016965Y024602D01*
X016884Y024503D02*
X016519Y024503D01*
X016560Y024405D02*
X016843Y024405D01*
X016842Y024306D02*
X016562Y024306D01*
X016562Y024208D02*
X016842Y024208D01*
X016842Y024109D02*
X016562Y024109D01*
X016616Y024011D02*
X016842Y024011D01*
X016842Y023912D02*
X016714Y023912D01*
X016813Y023814D02*
X016842Y023814D01*
X016656Y023617D02*
X016512Y023617D01*
X016552Y023715D02*
X016558Y023715D01*
X016420Y023518D02*
X016755Y023518D01*
X016853Y023420D02*
X011207Y023420D01*
X011305Y023321D02*
X016952Y023321D01*
X017050Y023223D02*
X011404Y023223D01*
X011502Y023124D02*
X017149Y023124D01*
X017247Y023026D02*
X011601Y023026D01*
X011699Y022927D02*
X017346Y022927D01*
X017444Y022829D02*
X011798Y022829D01*
X011896Y022730D02*
X017543Y022730D01*
X017641Y022632D02*
X011995Y022632D01*
X011732Y022041D02*
X005670Y022041D01*
X005670Y021942D02*
X011831Y021942D01*
X011929Y021844D02*
X005604Y021844D01*
X005575Y021745D02*
X012028Y021745D01*
X011634Y022139D02*
X005622Y022139D01*
X005325Y021745D02*
X003506Y021745D01*
X003564Y021844D02*
X005295Y021844D01*
X005230Y021942D02*
X003597Y021942D01*
X003597Y022041D02*
X005230Y022041D01*
X005278Y022139D02*
X003572Y022139D01*
X003523Y022238D02*
X011535Y022238D01*
X011437Y022336D02*
X003425Y022336D01*
X003347Y022632D02*
X006325Y022632D01*
X006325Y022730D02*
X003491Y022730D01*
X003558Y022829D02*
X006325Y022829D01*
X006325Y022927D02*
X003597Y022927D01*
X003597Y023026D02*
X006247Y023026D01*
X006149Y023124D02*
X003578Y023124D01*
X003537Y023223D02*
X004667Y023223D01*
X004691Y023199D02*
X004823Y023144D01*
X004966Y023144D01*
X005098Y023199D01*
X005200Y023300D01*
X005255Y023432D01*
X005255Y024095D01*
X005200Y024228D01*
X005098Y024329D01*
X004966Y024384D01*
X004823Y024384D01*
X004691Y024329D01*
X004589Y024228D01*
X004535Y024095D01*
X004535Y023432D01*
X004589Y023300D01*
X004691Y023199D01*
X004581Y023321D02*
X003440Y023321D01*
X003311Y023617D02*
X004535Y023617D01*
X004535Y023715D02*
X003476Y023715D01*
X003552Y023814D02*
X004535Y023814D01*
X004535Y023912D02*
X003593Y023912D01*
X003597Y024011D02*
X004535Y024011D01*
X004540Y024109D02*
X003584Y024109D01*
X003543Y024208D02*
X004581Y024208D01*
X004668Y024306D02*
X003455Y024306D01*
X003461Y024700D02*
X008073Y024700D01*
X008171Y024602D02*
X001625Y024602D01*
X001625Y024700D02*
X001938Y024700D01*
X001854Y024799D02*
X001625Y024799D01*
X001625Y024897D02*
X001813Y024897D01*
X001803Y024996D02*
X001625Y024996D01*
X001625Y025094D02*
X001809Y025094D01*
X001850Y025193D02*
X001625Y025193D01*
X001625Y025291D02*
X001930Y025291D01*
X002121Y025603D02*
X001975Y025664D01*
X001863Y025775D01*
X001803Y025921D01*
X001803Y026079D01*
X001625Y026079D01*
X001625Y025981D02*
X001803Y025981D01*
X001803Y026079D02*
X001863Y026225D01*
X001975Y026336D01*
X002121Y026397D01*
X002279Y026397D01*
X002424Y026336D01*
X002536Y026225D01*
X002597Y026079D01*
X002597Y025921D01*
X002536Y025775D01*
X002424Y025664D01*
X002279Y025603D01*
X002121Y025603D01*
X001953Y025685D02*
X001625Y025685D01*
X001625Y025587D02*
X006325Y025587D01*
X006325Y025685D02*
X003446Y025685D01*
X003424Y025664D02*
X003536Y025775D01*
X003597Y025921D01*
X003597Y026079D01*
X003536Y026225D01*
X003424Y026336D01*
X003279Y026397D01*
X003121Y026397D01*
X002975Y026336D01*
X002863Y026225D01*
X002803Y026079D01*
X002596Y026079D01*
X002597Y025981D02*
X002803Y025981D01*
X002803Y025921D02*
X002863Y025775D01*
X002975Y025664D01*
X003121Y025603D01*
X003279Y025603D01*
X003424Y025664D01*
X003540Y025784D02*
X006325Y025784D01*
X006325Y025882D02*
X003580Y025882D01*
X003597Y025981D02*
X006292Y025981D01*
X006194Y026079D02*
X003596Y026079D01*
X003556Y026178D02*
X004646Y026178D01*
X004627Y026191D02*
X004680Y026153D01*
X004737Y026124D01*
X004799Y026104D01*
X004862Y026094D01*
X004865Y026094D01*
X004865Y026734D01*
X004925Y026734D01*
X004925Y026794D01*
X005305Y026794D01*
X005305Y027056D01*
X005294Y027120D01*
X005275Y027181D01*
X005245Y027239D01*
X005207Y027291D01*
X005162Y027337D01*
X005109Y027374D01*
X005052Y027404D01*
X004991Y027424D01*
X004927Y027434D01*
X004925Y027434D01*
X004925Y026794D01*
X004865Y026794D01*
X004865Y027434D01*
X004862Y027434D01*
X004799Y027424D01*
X004737Y027404D01*
X004680Y027374D01*
X004627Y027337D01*
X004582Y027291D01*
X004544Y027239D01*
X004515Y027181D01*
X004495Y027120D01*
X004485Y027056D01*
X004485Y026794D01*
X004865Y026794D01*
X004865Y026734D01*
X004485Y026734D01*
X004485Y026472D01*
X004495Y026408D01*
X004515Y026346D01*
X004544Y026289D01*
X004582Y026237D01*
X004627Y026191D01*
X004553Y026276D02*
X003485Y026276D01*
X003332Y026375D02*
X004505Y026375D01*
X004485Y026473D02*
X001625Y026473D01*
X001625Y026375D02*
X002067Y026375D01*
X001915Y026276D02*
X001625Y026276D01*
X001625Y026178D02*
X001844Y026178D01*
X001819Y025882D02*
X001625Y025882D01*
X001625Y025784D02*
X001860Y025784D01*
X002446Y025685D02*
X002953Y025685D01*
X002860Y025784D02*
X002540Y025784D01*
X002580Y025882D02*
X002819Y025882D01*
X002803Y025921D02*
X002803Y026079D01*
X002844Y026178D02*
X002556Y026178D01*
X002485Y026276D02*
X002915Y026276D01*
X003067Y026375D02*
X002332Y026375D01*
X002279Y026603D02*
X002424Y026664D01*
X002536Y026775D01*
X002597Y026921D01*
X002597Y027079D01*
X002536Y027225D01*
X002424Y027336D01*
X002279Y027397D01*
X002121Y027397D01*
X001975Y027336D01*
X001863Y027225D01*
X001803Y027079D01*
X001803Y026921D01*
X001863Y026775D01*
X001975Y026664D01*
X002121Y026603D01*
X002279Y026603D01*
X002431Y026670D02*
X002968Y026670D01*
X002975Y026664D02*
X003121Y026603D01*
X003279Y026603D01*
X003424Y026664D01*
X003536Y026775D01*
X003597Y026921D01*
X003597Y027079D01*
X003536Y027225D01*
X003424Y027336D01*
X003279Y027397D01*
X003121Y027397D01*
X002975Y027336D01*
X002863Y027225D01*
X002803Y027079D01*
X002803Y026921D01*
X002863Y026775D01*
X002975Y026664D01*
X002870Y026769D02*
X002529Y026769D01*
X002574Y026867D02*
X002825Y026867D01*
X002803Y026966D02*
X002597Y026966D01*
X002597Y027064D02*
X002803Y027064D01*
X002837Y027163D02*
X002562Y027163D01*
X002500Y027261D02*
X002900Y027261D01*
X003031Y027360D02*
X002369Y027360D01*
X002279Y027603D02*
X002424Y027664D01*
X002536Y027775D01*
X002597Y027921D01*
X002597Y028079D01*
X002536Y028225D01*
X002424Y028336D01*
X002279Y028397D01*
X002121Y028397D01*
X001975Y028336D01*
X001863Y028225D01*
X001803Y028079D01*
X001803Y027921D01*
X001863Y027775D01*
X001975Y027664D01*
X002121Y027603D01*
X002279Y027603D01*
X002404Y027655D02*
X002995Y027655D01*
X002975Y027664D02*
X003121Y027603D01*
X003279Y027603D01*
X003424Y027664D01*
X003536Y027775D01*
X003597Y027921D01*
X003597Y028079D01*
X003536Y028225D01*
X003424Y028336D01*
X003279Y028397D01*
X003121Y028397D01*
X002975Y028336D01*
X002863Y028225D01*
X002803Y028079D01*
X002803Y027921D01*
X002863Y027775D01*
X002975Y027664D01*
X002885Y027754D02*
X002514Y027754D01*
X002568Y027852D02*
X002831Y027852D01*
X002803Y027951D02*
X002597Y027951D01*
X002597Y028049D02*
X002803Y028049D01*
X002831Y028148D02*
X002568Y028148D01*
X002515Y028246D02*
X002885Y028246D01*
X002995Y028345D02*
X002405Y028345D01*
X002279Y028603D02*
X002424Y028664D01*
X002536Y028775D01*
X002597Y028921D01*
X002597Y029079D01*
X002536Y029225D01*
X002424Y029336D01*
X002279Y029397D01*
X002121Y029397D01*
X001975Y029336D01*
X001863Y029225D01*
X001803Y029079D01*
X001803Y028921D01*
X001863Y028775D01*
X001975Y028664D01*
X002121Y028603D01*
X002279Y028603D01*
X002368Y028640D02*
X003032Y028640D01*
X002975Y028664D02*
X003121Y028603D01*
X003279Y028603D01*
X003424Y028664D01*
X003536Y028775D01*
X003597Y028921D01*
X003597Y029079D01*
X003536Y029225D01*
X003424Y029336D01*
X003279Y029397D01*
X003121Y029397D01*
X002975Y029336D01*
X002863Y029225D01*
X002803Y029079D01*
X002803Y028921D01*
X002863Y028775D01*
X002975Y028664D01*
X002900Y028739D02*
X002499Y028739D01*
X002562Y028837D02*
X002838Y028837D01*
X002803Y028936D02*
X002597Y028936D01*
X002597Y029034D02*
X002803Y029034D01*
X002825Y029133D02*
X002574Y029133D01*
X002530Y029231D02*
X002870Y029231D01*
X002968Y029330D02*
X002431Y029330D01*
X002332Y029625D02*
X003068Y029625D01*
X003121Y029603D02*
X003279Y029603D01*
X003424Y029664D01*
X003536Y029775D01*
X003597Y029921D01*
X003597Y030079D01*
X003536Y030225D01*
X003424Y030336D01*
X003279Y030397D01*
X003121Y030397D01*
X002975Y030336D01*
X002863Y030225D01*
X002803Y030079D01*
X002803Y029921D01*
X002863Y029775D01*
X002975Y029664D01*
X003121Y029603D01*
X003332Y029625D02*
X004339Y029625D01*
X004333Y029606D02*
X004323Y029542D01*
X004323Y029540D01*
X004963Y029540D01*
X004963Y029920D01*
X004701Y029920D01*
X004637Y029910D01*
X004576Y029890D01*
X004518Y029861D01*
X004466Y029823D01*
X004420Y029777D01*
X004382Y029725D01*
X004353Y029667D01*
X004333Y029606D01*
X004323Y029480D02*
X004323Y029478D01*
X004333Y029414D01*
X004353Y029352D01*
X004382Y029295D01*
X004420Y029243D01*
X004466Y029197D01*
X004518Y029159D01*
X004576Y029130D01*
X004637Y029110D01*
X004701Y029100D01*
X004963Y029100D01*
X004963Y029480D01*
X004323Y029480D01*
X004331Y029428D02*
X001625Y029428D01*
X001625Y029330D02*
X001968Y029330D01*
X001870Y029231D02*
X001625Y029231D01*
X001625Y029133D02*
X001825Y029133D01*
X001803Y029034D02*
X001625Y029034D01*
X001625Y028936D02*
X001803Y028936D01*
X001838Y028837D02*
X001625Y028837D01*
X001625Y028739D02*
X001900Y028739D01*
X002032Y028640D02*
X001625Y028640D01*
X001625Y028542D02*
X004323Y028542D01*
X004333Y028606D01*
X004353Y028667D01*
X004382Y028725D01*
X004420Y028777D01*
X004466Y028823D01*
X004518Y028861D01*
X004576Y028890D01*
X004637Y028910D01*
X004701Y028920D01*
X004963Y028920D01*
X004963Y028540D01*
X005023Y028540D01*
X005023Y028920D01*
X005285Y028920D01*
X005349Y028910D01*
X005410Y028890D01*
X005468Y028861D01*
X005520Y028823D01*
X005566Y028777D01*
X005604Y028725D01*
X005633Y028667D01*
X005653Y028606D01*
X005663Y028542D01*
X005663Y028540D01*
X005023Y028540D01*
X005023Y028480D01*
X005663Y028480D01*
X005663Y028478D01*
X005653Y028414D01*
X005633Y028352D01*
X005604Y028295D01*
X005566Y028243D01*
X005520Y028197D01*
X005468Y028159D01*
X005410Y028130D01*
X005349Y028110D01*
X005285Y028100D01*
X005023Y028100D01*
X005023Y028480D01*
X004963Y028480D01*
X004323Y028480D01*
X004323Y028478D01*
X004333Y028414D01*
X004353Y028352D01*
X004382Y028295D01*
X004420Y028243D01*
X004466Y028197D01*
X004518Y028159D01*
X004576Y028130D01*
X004637Y028110D01*
X004701Y028100D01*
X004963Y028100D01*
X004963Y028480D01*
X004963Y028540D01*
X004323Y028540D01*
X004323Y028542D01*
X004328Y028443D02*
X001625Y028443D01*
X001625Y028345D02*
X001995Y028345D01*
X001885Y028246D02*
X001625Y028246D01*
X001625Y028148D02*
X001831Y028148D01*
X001803Y028049D02*
X001625Y028049D01*
X001625Y027951D02*
X001803Y027951D01*
X001831Y027852D02*
X001625Y027852D01*
X001625Y027754D02*
X001885Y027754D01*
X001995Y027655D02*
X001625Y027655D01*
X001625Y027557D02*
X007329Y027557D01*
X007231Y027458D02*
X001625Y027458D01*
X001625Y027360D02*
X002031Y027360D01*
X001900Y027261D02*
X001625Y027261D01*
X001625Y027163D02*
X001837Y027163D01*
X001803Y027064D02*
X001625Y027064D01*
X001625Y026966D02*
X001803Y026966D01*
X001825Y026867D02*
X001625Y026867D01*
X001625Y026769D02*
X001870Y026769D01*
X001968Y026670D02*
X001625Y026670D01*
X001625Y026572D02*
X004485Y026572D01*
X004485Y026670D02*
X003431Y026670D01*
X003529Y026769D02*
X004865Y026769D01*
X004925Y026769D02*
X005535Y026769D01*
X005535Y026867D02*
X005305Y026867D01*
X005305Y026966D02*
X005535Y026966D01*
X005535Y027064D02*
X005303Y027064D01*
X005281Y027163D02*
X005562Y027163D01*
X005623Y027261D02*
X005229Y027261D01*
X005130Y027360D02*
X005764Y027360D01*
X006025Y027360D02*
X006764Y027360D01*
X006823Y027384D02*
X006691Y027329D01*
X006589Y027228D01*
X006535Y027095D01*
X006535Y026432D01*
X006589Y026300D01*
X006691Y026199D01*
X006823Y026144D01*
X006966Y026144D01*
X007098Y026199D01*
X007200Y026300D01*
X007255Y026432D01*
X007255Y027095D01*
X007245Y027119D01*
X008001Y027875D01*
X008075Y027948D01*
X008075Y028150D01*
X008325Y028150D01*
X008457Y028205D01*
X008558Y028306D01*
X008613Y028438D01*
X008613Y028581D01*
X008558Y028714D01*
X008457Y028815D01*
X008325Y028870D01*
X007661Y028870D01*
X007529Y028815D01*
X007428Y028714D01*
X007373Y028581D01*
X007373Y028438D01*
X007428Y028306D01*
X007529Y028205D01*
X007661Y028150D01*
X007825Y028150D01*
X007825Y028052D01*
X007100Y027327D01*
X007098Y027329D01*
X006966Y027384D01*
X006823Y027384D01*
X007025Y027360D02*
X007132Y027360D01*
X007289Y027163D02*
X007562Y027163D01*
X007589Y027228D02*
X007535Y027095D01*
X007535Y026432D01*
X007589Y026300D01*
X007691Y026199D01*
X007823Y026144D01*
X007966Y026144D01*
X008098Y026199D01*
X008200Y026300D01*
X008255Y026432D01*
X008255Y027095D01*
X008245Y027119D01*
X009001Y027875D01*
X009075Y027948D01*
X009075Y029052D01*
X008613Y029513D01*
X008613Y029581D01*
X008558Y029714D01*
X008457Y029815D01*
X008325Y029870D01*
X007661Y029870D01*
X007529Y029815D01*
X007428Y029714D01*
X007373Y029581D01*
X007373Y029438D01*
X007428Y029306D01*
X007529Y029205D01*
X007661Y029150D01*
X008325Y029150D01*
X008457Y029205D01*
X008513Y029260D01*
X008825Y028948D01*
X008825Y028052D01*
X008100Y027327D01*
X008098Y027329D01*
X007966Y027384D01*
X007823Y027384D01*
X007691Y027329D01*
X007589Y027228D01*
X007623Y027261D02*
X007388Y027261D01*
X007486Y027360D02*
X007764Y027360D01*
X007585Y027458D02*
X008231Y027458D01*
X008132Y027360D02*
X008025Y027360D01*
X008289Y027163D02*
X014610Y027163D01*
X014512Y027261D02*
X008388Y027261D01*
X008486Y027360D02*
X014413Y027360D01*
X014315Y027458D02*
X008585Y027458D01*
X008683Y027557D02*
X014216Y027557D01*
X014118Y027655D02*
X008782Y027655D01*
X008880Y027754D02*
X014019Y027754D01*
X013921Y027852D02*
X008979Y027852D01*
X009075Y027951D02*
X013822Y027951D01*
X013724Y028049D02*
X009075Y028049D01*
X009075Y028148D02*
X013625Y028148D01*
X013527Y028246D02*
X009075Y028246D01*
X009075Y028345D02*
X013428Y028345D01*
X013330Y028443D02*
X009075Y028443D01*
X009075Y028542D02*
X013231Y028542D01*
X013133Y028640D02*
X009075Y028640D01*
X009075Y028739D02*
X013034Y028739D01*
X012936Y028837D02*
X009075Y028837D01*
X009075Y028936D02*
X012837Y028936D01*
X012739Y029034D02*
X009075Y029034D01*
X008994Y029133D02*
X012640Y029133D01*
X012542Y029231D02*
X008895Y029231D01*
X008797Y029330D02*
X012443Y029330D01*
X012345Y029428D02*
X008698Y029428D01*
X008613Y029527D02*
X012246Y029527D01*
X012148Y029625D02*
X008595Y029625D01*
X008548Y029724D02*
X012049Y029724D01*
X011951Y029822D02*
X008440Y029822D01*
X008483Y029231D02*
X008542Y029231D01*
X008640Y029133D02*
X005416Y029133D01*
X005410Y029130D02*
X005468Y029159D01*
X005520Y029197D01*
X005566Y029243D01*
X005604Y029295D01*
X005633Y029352D01*
X005653Y029414D01*
X005663Y029478D01*
X005663Y029480D01*
X005023Y029480D01*
X005023Y029540D01*
X004963Y029540D01*
X004963Y029480D01*
X005023Y029480D01*
X005023Y029100D01*
X005285Y029100D01*
X005349Y029110D01*
X005410Y029130D01*
X005554Y029231D02*
X007503Y029231D01*
X007418Y029330D02*
X005621Y029330D01*
X005655Y029428D02*
X007377Y029428D01*
X007373Y029527D02*
X005023Y029527D01*
X005023Y029540D02*
X005663Y029540D01*
X005663Y029542D01*
X005653Y029606D01*
X005633Y029667D01*
X005604Y029725D01*
X005566Y029777D01*
X005520Y029823D01*
X005468Y029861D01*
X005410Y029890D01*
X005349Y029910D01*
X005285Y029920D01*
X005023Y029920D01*
X005023Y029540D01*
X004963Y029527D02*
X001626Y029527D01*
X001630Y029625D02*
X002068Y029625D01*
X002121Y029603D02*
X002279Y029603D01*
X002424Y029664D01*
X002536Y029775D01*
X002597Y029921D01*
X002597Y030079D01*
X002536Y030225D01*
X002424Y030336D01*
X002279Y030397D01*
X002121Y030397D01*
X001975Y030336D01*
X001863Y030225D01*
X001803Y030079D01*
X001803Y029921D01*
X001863Y029775D01*
X001975Y029664D01*
X002121Y029603D01*
X001915Y029724D02*
X001633Y029724D01*
X001637Y029822D02*
X001844Y029822D01*
X001803Y029921D02*
X001646Y029921D01*
X001662Y030019D02*
X001803Y030019D01*
X001819Y030118D02*
X001677Y030118D01*
X001693Y030216D02*
X001860Y030216D01*
X001953Y030315D02*
X001709Y030315D01*
X001724Y030413D02*
X011360Y030413D01*
X011458Y030315D02*
X003446Y030315D01*
X003540Y030216D02*
X011557Y030216D01*
X011655Y030118D02*
X003581Y030118D01*
X003597Y030019D02*
X011754Y030019D01*
X011852Y029921D02*
X003596Y029921D01*
X003556Y029822D02*
X004465Y029822D01*
X004382Y029724D02*
X003484Y029724D01*
X003431Y029330D02*
X004365Y029330D01*
X004432Y029231D02*
X003530Y029231D01*
X003574Y029133D02*
X004570Y029133D01*
X004486Y028837D02*
X003562Y028837D01*
X003597Y028936D02*
X008825Y028936D01*
X008825Y028837D02*
X008404Y028837D01*
X008533Y028739D02*
X008825Y028739D01*
X008825Y028640D02*
X008589Y028640D01*
X008613Y028542D02*
X008825Y028542D01*
X008825Y028443D02*
X008613Y028443D01*
X008574Y028345D02*
X008825Y028345D01*
X008825Y028246D02*
X008498Y028246D01*
X008825Y028148D02*
X008075Y028148D01*
X008075Y028049D02*
X008822Y028049D01*
X008723Y027951D02*
X008075Y027951D01*
X007979Y027852D02*
X008625Y027852D01*
X008526Y027754D02*
X007880Y027754D01*
X007782Y027655D02*
X008428Y027655D01*
X008329Y027557D02*
X007683Y027557D01*
X007526Y027754D02*
X003514Y027754D01*
X003568Y027852D02*
X007625Y027852D01*
X007723Y027951D02*
X003597Y027951D01*
X003597Y028049D02*
X007822Y028049D01*
X007825Y028148D02*
X005445Y028148D01*
X005568Y028246D02*
X007488Y028246D01*
X007412Y028345D02*
X005629Y028345D01*
X005658Y028443D02*
X007373Y028443D01*
X007373Y028542D02*
X005663Y028542D01*
X005642Y028640D02*
X007397Y028640D01*
X007453Y028739D02*
X005594Y028739D01*
X005500Y028837D02*
X007582Y028837D01*
X007391Y029625D02*
X005647Y029625D01*
X005604Y029724D02*
X007438Y029724D01*
X007546Y029822D02*
X005521Y029822D01*
X005023Y029822D02*
X004963Y029822D01*
X004963Y029724D02*
X005023Y029724D01*
X005023Y029625D02*
X004963Y029625D01*
X004963Y029428D02*
X005023Y029428D01*
X005023Y029330D02*
X004963Y029330D01*
X004963Y029231D02*
X005023Y029231D01*
X005023Y029133D02*
X004963Y029133D01*
X004963Y028837D02*
X005023Y028837D01*
X005023Y028739D02*
X004963Y028739D01*
X004963Y028640D02*
X005023Y028640D01*
X005023Y028542D02*
X004963Y028542D01*
X004963Y028443D02*
X005023Y028443D01*
X005023Y028345D02*
X004963Y028345D01*
X004963Y028246D02*
X005023Y028246D01*
X005023Y028148D02*
X004963Y028148D01*
X004541Y028148D02*
X003568Y028148D01*
X003515Y028246D02*
X004418Y028246D01*
X004357Y028345D02*
X003405Y028345D01*
X003368Y028640D02*
X004344Y028640D01*
X004392Y028739D02*
X003499Y028739D01*
X003597Y029034D02*
X008739Y029034D01*
X007428Y027655D02*
X003404Y027655D01*
X003369Y027360D02*
X004659Y027360D01*
X004560Y027261D02*
X003500Y027261D01*
X003562Y027163D02*
X004509Y027163D01*
X004486Y027064D02*
X003597Y027064D01*
X003597Y026966D02*
X004485Y026966D01*
X004485Y026867D02*
X003574Y026867D01*
X003549Y025193D02*
X007580Y025193D01*
X007679Y025094D02*
X003590Y025094D01*
X003597Y024996D02*
X007777Y024996D01*
X007876Y024897D02*
X003587Y024897D01*
X003546Y024799D02*
X007974Y024799D01*
X008270Y024503D02*
X001625Y024503D01*
X001625Y024405D02*
X008368Y024405D01*
X008467Y024306D02*
X008121Y024306D01*
X008208Y024208D02*
X008565Y024208D01*
X008664Y024109D02*
X008249Y024109D01*
X008255Y024011D02*
X008730Y024011D01*
X008730Y023912D02*
X008255Y023912D01*
X008255Y023814D02*
X008825Y023814D01*
X009532Y025094D02*
X017367Y025094D01*
X017325Y024996D02*
X009631Y024996D01*
X009729Y024897D02*
X017325Y024897D01*
X017325Y024799D02*
X009828Y024799D01*
X009926Y024700D02*
X017325Y024700D01*
X017575Y024700D02*
X019573Y024700D01*
X019671Y024602D02*
X019438Y024602D01*
X019519Y024503D02*
X019770Y024503D01*
X019825Y024405D02*
X019560Y024405D01*
X019562Y024306D02*
X019825Y024306D01*
X019825Y024208D02*
X019562Y024208D01*
X019562Y024109D02*
X019825Y024109D01*
X019825Y024011D02*
X019616Y024011D01*
X019714Y023912D02*
X019861Y023912D01*
X019813Y023814D02*
X019959Y023814D01*
X019911Y023715D02*
X020058Y023715D01*
X020010Y023617D02*
X020156Y023617D01*
X020075Y023518D02*
X020255Y023518D01*
X020325Y023420D02*
X020075Y023420D01*
X020075Y023321D02*
X020325Y023321D01*
X020325Y023223D02*
X020075Y023223D01*
X020075Y023124D02*
X020325Y023124D01*
X020325Y023026D02*
X020075Y023026D01*
X020075Y022927D02*
X020325Y022927D01*
X020325Y022829D02*
X020075Y022829D01*
X020075Y022730D02*
X020325Y022730D01*
X020325Y022632D02*
X020075Y022632D01*
X020075Y022533D02*
X020325Y022533D01*
X020325Y022435D02*
X020075Y022435D01*
X020075Y022336D02*
X020325Y022336D01*
X020325Y022238D02*
X020075Y022238D01*
X020075Y022139D02*
X020325Y022139D01*
X020325Y022041D02*
X020075Y022041D01*
X020075Y021942D02*
X020325Y021942D01*
X020325Y021844D02*
X020075Y021844D01*
X020075Y021745D02*
X020325Y021745D01*
X020325Y021647D02*
X020075Y021647D01*
X020075Y021548D02*
X020325Y021548D01*
X020325Y021450D02*
X020075Y021450D01*
X020075Y021351D02*
X020325Y021351D01*
X020325Y021253D02*
X020075Y021253D01*
X020075Y021154D02*
X020325Y021154D01*
X020325Y021056D02*
X020075Y021056D01*
X020075Y020957D02*
X020325Y020957D01*
X020325Y020859D02*
X020075Y020859D01*
X020075Y020760D02*
X020325Y020760D01*
X020325Y020662D02*
X020075Y020662D01*
X020075Y020563D02*
X020325Y020563D01*
X020325Y020465D02*
X020075Y020465D01*
X020075Y020366D02*
X020325Y020366D01*
X020325Y020268D02*
X020075Y020268D01*
X020075Y020169D02*
X020325Y020169D01*
X020325Y020071D02*
X020075Y020071D01*
X020075Y019972D02*
X020325Y019972D01*
X020325Y019874D02*
X020075Y019874D01*
X020075Y019775D02*
X020325Y019775D01*
X020325Y019677D02*
X020075Y019677D01*
X020075Y019578D02*
X020325Y019578D01*
X020325Y019480D02*
X020075Y019480D01*
X020075Y019381D02*
X020325Y019381D01*
X020325Y019283D02*
X020075Y019283D01*
X020075Y019184D02*
X020325Y019184D01*
X020325Y019086D02*
X020075Y019086D01*
X020075Y018987D02*
X020325Y018987D01*
X020325Y018889D02*
X020075Y018889D01*
X020075Y018790D02*
X020325Y018790D01*
X020325Y018692D02*
X020075Y018692D01*
X020075Y018593D02*
X020325Y018593D01*
X020325Y018495D02*
X020075Y018495D01*
X020075Y018396D02*
X020325Y018396D01*
X020325Y018298D02*
X020075Y018298D01*
X020075Y018199D02*
X020325Y018199D01*
X020325Y018101D02*
X020075Y018101D01*
X020075Y018002D02*
X020325Y018002D01*
X020325Y017904D02*
X020075Y017904D01*
X020075Y017805D02*
X020325Y017805D01*
X020325Y017707D02*
X020075Y017707D01*
X020075Y017608D02*
X020325Y017608D01*
X020325Y017510D02*
X020075Y017510D01*
X020075Y017411D02*
X020325Y017411D01*
X020325Y017313D02*
X020075Y017313D01*
X020075Y017214D02*
X020325Y017214D01*
X020325Y017116D02*
X020075Y017116D01*
X020075Y017017D02*
X020325Y017017D01*
X020325Y016919D02*
X020075Y016919D01*
X020075Y016820D02*
X020325Y016820D01*
X020325Y016722D02*
X020075Y016722D01*
X020075Y016623D02*
X020325Y016623D01*
X020325Y016525D02*
X020075Y016525D01*
X020075Y016426D02*
X020347Y016426D01*
X020075Y016328D02*
X020966Y016328D01*
X020867Y016229D02*
X020075Y016229D01*
X020075Y016131D02*
X020824Y016131D01*
X020803Y016032D02*
X020075Y016032D01*
X020075Y015934D02*
X020803Y015934D01*
X020838Y015835D02*
X020075Y015835D01*
X020075Y015737D02*
X020902Y015737D01*
X021037Y015638D02*
X020075Y015638D01*
X020075Y015540D02*
X022775Y015540D01*
X022775Y015638D02*
X022363Y015638D01*
X022497Y015737D02*
X022775Y015737D01*
X022775Y015835D02*
X022561Y015835D01*
X022597Y015934D02*
X022775Y015934D01*
X022775Y016032D02*
X022597Y016032D01*
X022575Y016131D02*
X022775Y016131D01*
X022775Y016229D02*
X022532Y016229D01*
X022433Y016328D02*
X022775Y016328D01*
X022775Y016426D02*
X021700Y016426D01*
X021602Y016525D02*
X022775Y016525D01*
X022775Y016623D02*
X022327Y016623D01*
X022279Y016603D02*
X022424Y016664D01*
X022536Y016775D01*
X022597Y016921D01*
X022597Y017079D01*
X022536Y017225D01*
X022424Y017336D01*
X022279Y017397D01*
X022121Y017397D01*
X021975Y017336D01*
X021863Y017225D01*
X021803Y017079D01*
X021803Y016921D01*
X021863Y016775D01*
X021975Y016664D01*
X022121Y016603D01*
X022279Y016603D01*
X022073Y016623D02*
X021503Y016623D01*
X021482Y016722D02*
X021917Y016722D01*
X021845Y016820D02*
X021555Y016820D01*
X021595Y016919D02*
X021804Y016919D01*
X021803Y017017D02*
X021597Y017017D01*
X021581Y017116D02*
X021818Y017116D01*
X021859Y017214D02*
X021541Y017214D01*
X021448Y017313D02*
X021951Y017313D01*
X022109Y017608D02*
X021290Y017608D01*
X021279Y017603D02*
X021424Y017664D01*
X021536Y017775D01*
X021597Y017921D01*
X021597Y018079D01*
X021536Y018225D01*
X021424Y018336D01*
X021279Y018397D01*
X021121Y018397D01*
X020975Y018336D01*
X020863Y018225D01*
X020803Y018079D01*
X020803Y017921D01*
X020863Y017775D01*
X020975Y017664D01*
X021121Y017603D01*
X021279Y017603D01*
X021109Y017608D02*
X020575Y017608D01*
X020575Y017510D02*
X022775Y017510D01*
X022775Y017608D02*
X022290Y017608D01*
X022279Y017603D02*
X022424Y017664D01*
X022536Y017775D01*
X022597Y017921D01*
X022597Y018079D01*
X022536Y018225D01*
X022424Y018336D01*
X022279Y018397D01*
X022121Y018397D01*
X021975Y018336D01*
X021863Y018225D01*
X021803Y018079D01*
X021803Y017921D01*
X021863Y017775D01*
X021975Y017664D01*
X022121Y017603D01*
X022279Y017603D01*
X022467Y017707D02*
X022775Y017707D01*
X022775Y017805D02*
X022548Y017805D01*
X022589Y017904D02*
X022775Y017904D01*
X022775Y018002D02*
X022597Y018002D01*
X022588Y018101D02*
X022775Y018101D01*
X022775Y018199D02*
X022547Y018199D01*
X022463Y018298D02*
X022775Y018298D01*
X022775Y018396D02*
X022281Y018396D01*
X022119Y018396D02*
X021281Y018396D01*
X021119Y018396D02*
X020575Y018396D01*
X020575Y018298D02*
X020936Y018298D01*
X020853Y018199D02*
X020575Y018199D01*
X020575Y018101D02*
X020812Y018101D01*
X020803Y018002D02*
X020575Y018002D01*
X020575Y017904D02*
X020810Y017904D01*
X020851Y017805D02*
X020575Y017805D01*
X020575Y017707D02*
X020932Y017707D01*
X020575Y017411D02*
X022775Y017411D01*
X022775Y017313D02*
X022448Y017313D01*
X022541Y017214D02*
X022775Y017214D01*
X022775Y017116D02*
X022581Y017116D01*
X022597Y017017D02*
X022775Y017017D01*
X022775Y016919D02*
X022595Y016919D01*
X022555Y016820D02*
X022775Y016820D01*
X022775Y016722D02*
X022482Y016722D01*
X021966Y016328D02*
X021799Y016328D01*
X021642Y016131D02*
X021575Y016131D01*
X021597Y016032D02*
X021741Y016032D01*
X021803Y015934D02*
X021597Y015934D01*
X021561Y015835D02*
X021838Y015835D01*
X021902Y015737D02*
X021497Y015737D01*
X021363Y015638D02*
X022037Y015638D01*
X022121Y015397D02*
X021975Y015336D01*
X021863Y015225D01*
X021803Y015079D01*
X021803Y014921D01*
X021863Y014775D01*
X021975Y014664D01*
X022121Y014603D01*
X022279Y014603D01*
X022424Y014664D01*
X022536Y014775D01*
X022597Y014921D01*
X022597Y015079D01*
X022536Y015225D01*
X022424Y015336D01*
X022279Y015397D01*
X022121Y015397D01*
X021990Y015343D02*
X021410Y015343D01*
X021424Y015336D02*
X021279Y015397D01*
X021121Y015397D01*
X020975Y015336D01*
X020863Y015225D01*
X020803Y015079D01*
X020803Y014921D01*
X020863Y014775D01*
X020975Y014664D01*
X021121Y014603D01*
X021279Y014603D01*
X021424Y014664D01*
X021536Y014775D01*
X021597Y014921D01*
X021597Y015079D01*
X021536Y015225D01*
X021424Y015336D01*
X021517Y015244D02*
X021882Y015244D01*
X021830Y015146D02*
X021569Y015146D01*
X021597Y015047D02*
X021803Y015047D01*
X021803Y014949D02*
X021597Y014949D01*
X021567Y014850D02*
X021832Y014850D01*
X021887Y014752D02*
X021512Y014752D01*
X021399Y014653D02*
X022000Y014653D01*
X022121Y014397D02*
X021975Y014336D01*
X021863Y014225D01*
X021803Y014079D01*
X021803Y013921D01*
X021863Y013775D01*
X021975Y013664D01*
X022121Y013603D01*
X022279Y013603D01*
X022424Y013664D01*
X022536Y013775D01*
X022597Y013921D01*
X022597Y014079D01*
X022536Y014225D01*
X022424Y014336D01*
X022279Y014397D01*
X022121Y014397D01*
X022026Y014358D02*
X021374Y014358D01*
X021424Y014336D02*
X021279Y014397D01*
X021121Y014397D01*
X020975Y014336D01*
X020863Y014225D01*
X020803Y014079D01*
X020803Y013921D01*
X020863Y013775D01*
X020975Y013664D01*
X021121Y013603D01*
X021279Y013603D01*
X021424Y013664D01*
X021536Y013775D01*
X021597Y013921D01*
X021597Y014079D01*
X021536Y014225D01*
X021424Y014336D01*
X021502Y014259D02*
X021897Y014259D01*
X021837Y014161D02*
X021563Y014161D01*
X021597Y014062D02*
X021803Y014062D01*
X021803Y013964D02*
X021597Y013964D01*
X021573Y013865D02*
X021826Y013865D01*
X021872Y013767D02*
X021527Y013767D01*
X021429Y013668D02*
X021970Y013668D01*
X022062Y013373D02*
X021337Y013373D01*
X021279Y013397D02*
X021121Y013397D01*
X020975Y013336D01*
X020863Y013225D01*
X020803Y013079D01*
X020803Y012921D01*
X020863Y012775D01*
X020975Y012664D01*
X021121Y012603D01*
X021279Y012603D01*
X021424Y012664D01*
X021536Y012775D01*
X021597Y012921D01*
X021597Y013079D01*
X021536Y013225D01*
X021424Y013336D01*
X021279Y013397D01*
X021062Y013373D02*
X020075Y013373D01*
X020075Y013471D02*
X022775Y013471D01*
X022775Y013373D02*
X022337Y013373D01*
X022279Y013397D02*
X022424Y013336D01*
X022536Y013225D01*
X022597Y013079D01*
X022597Y012921D01*
X022536Y012775D01*
X022424Y012664D01*
X022279Y012603D01*
X022121Y012603D01*
X021975Y012664D01*
X021863Y012775D01*
X021803Y012921D01*
X021803Y013079D01*
X021863Y013225D01*
X021975Y013336D01*
X022121Y013397D01*
X022279Y013397D01*
X022487Y013274D02*
X022775Y013274D01*
X022775Y013176D02*
X022557Y013176D01*
X022597Y013077D02*
X022775Y013077D01*
X022775Y012979D02*
X022597Y012979D01*
X022580Y012880D02*
X022775Y012880D01*
X022775Y012782D02*
X022539Y012782D01*
X022444Y012683D02*
X022775Y012683D01*
X022775Y012585D02*
X020075Y012585D01*
X020075Y012683D02*
X020955Y012683D01*
X020861Y012782D02*
X020075Y012782D01*
X020075Y012880D02*
X020820Y012880D01*
X020803Y012979D02*
X020075Y012979D01*
X020075Y013077D02*
X020803Y013077D01*
X020843Y013176D02*
X020075Y013176D01*
X020075Y013274D02*
X020912Y013274D01*
X020970Y013668D02*
X020075Y013668D01*
X020075Y013570D02*
X022775Y013570D01*
X022775Y013668D02*
X022429Y013668D01*
X022527Y013767D02*
X022775Y013767D01*
X022775Y013865D02*
X022573Y013865D01*
X022597Y013964D02*
X022775Y013964D01*
X022775Y014062D02*
X022597Y014062D01*
X022563Y014161D02*
X022775Y014161D01*
X022775Y014259D02*
X022502Y014259D01*
X022374Y014358D02*
X022775Y014358D01*
X022775Y014456D02*
X020075Y014456D01*
X020075Y014358D02*
X021026Y014358D01*
X020897Y014259D02*
X020075Y014259D01*
X020075Y014161D02*
X020837Y014161D01*
X020803Y014062D02*
X020075Y014062D01*
X020075Y013964D02*
X020803Y013964D01*
X020826Y013865D02*
X020075Y013865D01*
X020075Y013767D02*
X020872Y013767D01*
X021487Y013274D02*
X021912Y013274D01*
X021843Y013176D02*
X021557Y013176D01*
X021597Y013077D02*
X021803Y013077D01*
X021803Y012979D02*
X021597Y012979D01*
X021580Y012880D02*
X021820Y012880D01*
X021861Y012782D02*
X021539Y012782D01*
X021444Y012683D02*
X021955Y012683D01*
X022098Y012388D02*
X021301Y012388D01*
X021279Y012397D02*
X021121Y012397D01*
X020975Y012336D01*
X020863Y012225D01*
X020803Y012079D01*
X020803Y011921D01*
X020863Y011775D01*
X020975Y011664D01*
X021121Y011603D01*
X021279Y011603D01*
X021424Y011664D01*
X021536Y011775D01*
X021597Y011921D01*
X021597Y012079D01*
X021536Y012225D01*
X021424Y012336D01*
X021279Y012397D01*
X021098Y012388D02*
X020075Y012388D01*
X020075Y012486D02*
X022775Y012486D01*
X022775Y012388D02*
X022301Y012388D01*
X022279Y012397D02*
X022424Y012336D01*
X022536Y012225D01*
X022597Y012079D01*
X022597Y011921D01*
X022536Y011775D01*
X022424Y011664D01*
X022279Y011603D01*
X022121Y011603D01*
X021975Y011664D01*
X021863Y011775D01*
X021803Y011921D01*
X021803Y012079D01*
X021863Y012225D01*
X021975Y012336D01*
X022121Y012397D01*
X022279Y012397D01*
X022472Y012289D02*
X022775Y012289D01*
X022775Y012191D02*
X022550Y012191D01*
X022591Y012092D02*
X022775Y012092D01*
X022775Y011994D02*
X022597Y011994D01*
X022586Y011895D02*
X022775Y011895D01*
X022775Y011797D02*
X022545Y011797D01*
X022459Y011698D02*
X022775Y011698D01*
X022775Y011600D02*
X020075Y011600D01*
X020075Y011698D02*
X020940Y011698D01*
X020854Y011797D02*
X020075Y011797D01*
X020075Y011895D02*
X020814Y011895D01*
X020803Y011994D02*
X020075Y011994D01*
X020075Y012092D02*
X020808Y012092D01*
X020849Y012191D02*
X020075Y012191D01*
X020075Y012289D02*
X020927Y012289D01*
X021472Y012289D02*
X021927Y012289D01*
X021849Y012191D02*
X021550Y012191D01*
X021591Y012092D02*
X021808Y012092D01*
X021803Y011994D02*
X021597Y011994D01*
X021586Y011895D02*
X021814Y011895D01*
X021854Y011797D02*
X021545Y011797D01*
X021459Y011698D02*
X021940Y011698D01*
X022121Y011397D02*
X021975Y011336D01*
X021863Y011225D01*
X021803Y011079D01*
X021803Y010921D01*
X021863Y010775D01*
X021975Y010664D01*
X022121Y010603D01*
X022279Y010603D01*
X022424Y010664D01*
X022536Y010775D01*
X022597Y010921D01*
X022597Y011079D01*
X022536Y011225D01*
X022424Y011336D01*
X022279Y011397D01*
X022121Y011397D01*
X021942Y011304D02*
X021457Y011304D01*
X021424Y011336D02*
X021279Y011397D01*
X021121Y011397D01*
X020975Y011336D01*
X020863Y011225D01*
X020803Y011079D01*
X020803Y010921D01*
X020863Y010775D01*
X020975Y010664D01*
X021121Y010603D01*
X021279Y010603D01*
X021424Y010664D01*
X021536Y010775D01*
X021597Y010921D01*
X021597Y011079D01*
X021536Y011225D01*
X021424Y011336D01*
X021544Y011206D02*
X021855Y011206D01*
X021814Y011107D02*
X021585Y011107D01*
X021597Y011009D02*
X021803Y011009D01*
X021807Y010910D02*
X021592Y010910D01*
X021551Y010812D02*
X021848Y010812D01*
X021925Y010713D02*
X021474Y010713D01*
X021306Y010615D02*
X022093Y010615D01*
X022306Y010615D02*
X022775Y010615D01*
X022775Y010713D02*
X022474Y010713D01*
X022551Y010812D02*
X022775Y010812D01*
X022775Y010910D02*
X022592Y010910D01*
X022597Y011009D02*
X022775Y011009D01*
X022775Y011107D02*
X022585Y011107D01*
X022544Y011206D02*
X022775Y011206D01*
X022775Y011304D02*
X022457Y011304D01*
X022775Y011403D02*
X020075Y011403D01*
X020075Y011501D02*
X022775Y011501D01*
X022775Y010516D02*
X020110Y010516D01*
X020075Y010615D02*
X021093Y010615D01*
X020925Y010713D02*
X020075Y010713D01*
X020075Y010812D02*
X020848Y010812D01*
X020807Y010910D02*
X020075Y010910D01*
X020075Y011009D02*
X020803Y011009D01*
X020814Y011107D02*
X020075Y011107D01*
X020075Y011206D02*
X020855Y011206D01*
X020942Y011304D02*
X020075Y011304D01*
X019825Y011304D02*
X017699Y011304D01*
X017699Y011206D02*
X019825Y011206D01*
X019825Y011107D02*
X017685Y011107D01*
X017645Y011009D02*
X019825Y011009D01*
X019825Y010910D02*
X017598Y010910D01*
X017499Y010812D02*
X019825Y010812D01*
X019825Y010713D02*
X017347Y010713D01*
X017690Y011403D02*
X019825Y011403D01*
X019825Y011501D02*
X017649Y011501D01*
X017726Y011600D02*
X019825Y011600D01*
X019825Y011698D02*
X017824Y011698D01*
X017923Y011797D02*
X019825Y011797D01*
X019825Y011895D02*
X018021Y011895D01*
X018075Y011994D02*
X019825Y011994D01*
X019825Y012092D02*
X018075Y012092D01*
X018075Y012191D02*
X019825Y012191D01*
X019825Y012289D02*
X018075Y012289D01*
X018075Y012388D02*
X019825Y012388D01*
X019825Y012486D02*
X018075Y012486D01*
X018075Y012585D02*
X019825Y012585D01*
X019825Y012683D02*
X018075Y012683D01*
X018075Y012782D02*
X019825Y012782D01*
X019825Y012880D02*
X018075Y012880D01*
X018075Y012979D02*
X019825Y012979D01*
X019825Y013077D02*
X018075Y013077D01*
X018075Y013176D02*
X019825Y013176D01*
X019825Y013274D02*
X018075Y013274D01*
X018075Y013373D02*
X019825Y013373D01*
X019825Y013471D02*
X018075Y013471D01*
X018075Y013570D02*
X019825Y013570D01*
X019825Y013668D02*
X018075Y013668D01*
X018075Y013767D02*
X019825Y013767D01*
X019825Y013865D02*
X018075Y013865D01*
X018075Y013964D02*
X019825Y013964D01*
X019825Y014062D02*
X018075Y014062D01*
X018075Y014161D02*
X019825Y014161D01*
X019825Y014259D02*
X018075Y014259D01*
X018075Y014358D02*
X019825Y014358D01*
X019825Y014456D02*
X018075Y014456D01*
X018075Y014555D02*
X019825Y014555D01*
X019825Y014653D02*
X018075Y014653D01*
X018075Y014752D02*
X019825Y014752D01*
X019825Y014850D02*
X019611Y014850D01*
X019670Y014949D02*
X019825Y014949D01*
X019825Y015047D02*
X019670Y015047D01*
X019615Y015146D02*
X019825Y015146D01*
X019825Y015244D02*
X019575Y015244D01*
X019575Y015343D02*
X019825Y015343D01*
X019825Y015441D02*
X019575Y015441D01*
X019575Y015540D02*
X019825Y015540D01*
X019825Y015638D02*
X019488Y015638D01*
X019390Y015737D02*
X019825Y015737D01*
X019825Y015835D02*
X019291Y015835D01*
X019193Y015934D02*
X019825Y015934D01*
X019825Y016032D02*
X019094Y016032D01*
X018996Y016131D02*
X019825Y016131D01*
X019825Y016229D02*
X018897Y016229D01*
X018799Y016328D02*
X019825Y016328D01*
X019825Y016426D02*
X018700Y016426D01*
X018602Y016525D02*
X019825Y016525D01*
X019825Y016623D02*
X018503Y016623D01*
X018405Y016722D02*
X019825Y016722D01*
X019825Y016820D02*
X018306Y016820D01*
X018208Y016919D02*
X019825Y016919D01*
X019825Y017017D02*
X018109Y017017D01*
X018011Y017116D02*
X019825Y017116D01*
X019825Y017214D02*
X017912Y017214D01*
X017814Y017313D02*
X019825Y017313D01*
X019825Y017411D02*
X017715Y017411D01*
X017617Y017510D02*
X019825Y017510D01*
X019825Y017608D02*
X017518Y017608D01*
X017420Y017707D02*
X019825Y017707D01*
X019825Y017805D02*
X017321Y017805D01*
X017223Y017904D02*
X019825Y017904D01*
X019825Y018002D02*
X017124Y018002D01*
X017075Y018101D02*
X019825Y018101D01*
X019825Y018199D02*
X017075Y018199D01*
X017075Y018298D02*
X019825Y018298D01*
X019825Y018396D02*
X017075Y018396D01*
X017075Y018495D02*
X019825Y018495D01*
X019825Y018593D02*
X017075Y018593D01*
X017075Y018692D02*
X019825Y018692D01*
X019825Y018790D02*
X018051Y018790D01*
X018149Y018889D02*
X019825Y018889D01*
X019825Y018987D02*
X018170Y018987D01*
X018170Y019086D02*
X019825Y019086D01*
X019825Y019184D02*
X018077Y019184D01*
X018075Y019283D02*
X019825Y019283D01*
X019825Y019381D02*
X018075Y019381D01*
X018075Y019480D02*
X019825Y019480D01*
X019825Y019578D02*
X018075Y019578D01*
X018075Y019677D02*
X019825Y019677D01*
X019825Y019775D02*
X018075Y019775D01*
X018075Y019874D02*
X019825Y019874D01*
X019825Y019972D02*
X018075Y019972D01*
X018075Y020071D02*
X019825Y020071D01*
X019825Y020169D02*
X018075Y020169D01*
X018075Y020268D02*
X019825Y020268D01*
X019825Y020366D02*
X018075Y020366D01*
X018075Y020465D02*
X019825Y020465D01*
X019825Y020563D02*
X018075Y020563D01*
X018075Y020662D02*
X019825Y020662D01*
X019825Y020760D02*
X018075Y020760D01*
X018075Y020859D02*
X019825Y020859D01*
X019825Y020957D02*
X018075Y020957D01*
X018075Y021056D02*
X019825Y021056D01*
X019825Y021154D02*
X018075Y021154D01*
X018075Y021253D02*
X019825Y021253D01*
X019825Y021351D02*
X018075Y021351D01*
X018075Y021450D02*
X019825Y021450D01*
X019825Y021548D02*
X018075Y021548D01*
X018075Y021647D02*
X019825Y021647D01*
X019825Y021745D02*
X018075Y021745D01*
X018075Y021844D02*
X019825Y021844D01*
X019825Y021942D02*
X018075Y021942D01*
X018075Y022041D02*
X019825Y022041D01*
X019825Y022139D02*
X018075Y022139D01*
X018075Y022238D02*
X019825Y022238D01*
X019825Y022336D02*
X018075Y022336D01*
X018075Y022435D02*
X019825Y022435D01*
X019825Y022533D02*
X018075Y022533D01*
X017995Y022632D02*
X019825Y022632D01*
X019825Y022730D02*
X017896Y022730D01*
X017798Y022829D02*
X019825Y022829D01*
X019825Y022927D02*
X017699Y022927D01*
X017601Y023026D02*
X019825Y023026D01*
X019825Y023124D02*
X017502Y023124D01*
X017404Y023223D02*
X019825Y023223D01*
X019825Y023321D02*
X017305Y023321D01*
X017207Y023420D02*
X019825Y023420D01*
X019755Y023518D02*
X019420Y023518D01*
X019512Y023617D02*
X019656Y023617D01*
X019558Y023715D02*
X019552Y023715D01*
X020116Y024011D02*
X020230Y024011D01*
X020230Y024091D02*
X020230Y023909D01*
X020359Y023780D01*
X020541Y023780D01*
X020670Y023909D01*
X020670Y024091D01*
X020575Y024186D01*
X020575Y025552D01*
X020501Y025625D01*
X016501Y025625D01*
X009670Y032457D01*
X009670Y032591D01*
X009541Y032720D01*
X009359Y032720D01*
X009230Y032591D01*
X009230Y032409D01*
X009359Y032280D01*
X009493Y032280D01*
X016325Y025448D01*
X016398Y025375D01*
X020325Y025375D01*
X020325Y024186D01*
X020230Y024091D01*
X020248Y024109D02*
X020075Y024109D01*
X020075Y024208D02*
X020325Y024208D01*
X020325Y024306D02*
X020075Y024306D01*
X020075Y024405D02*
X020325Y024405D01*
X020325Y024503D02*
X020075Y024503D01*
X020025Y024602D02*
X020325Y024602D01*
X020325Y024700D02*
X019926Y024700D01*
X019828Y024799D02*
X020325Y024799D01*
X020325Y024897D02*
X019729Y024897D01*
X019631Y024996D02*
X020325Y024996D01*
X020325Y025094D02*
X019532Y025094D01*
X019474Y024799D02*
X017575Y024799D01*
X017575Y024602D02*
X017965Y024602D01*
X017998Y024634D02*
X017896Y024533D01*
X017842Y024401D01*
X017842Y023737D01*
X017896Y023605D01*
X017998Y023504D01*
X018130Y023449D01*
X018273Y023449D01*
X018406Y023504D01*
X018507Y023605D01*
X018562Y023737D01*
X018562Y024401D01*
X018507Y024533D01*
X018406Y024634D01*
X018273Y024689D01*
X018130Y024689D01*
X017998Y024634D01*
X017884Y024503D02*
X017575Y024503D01*
X017575Y024405D02*
X017843Y024405D01*
X017842Y024306D02*
X017575Y024306D01*
X017575Y024208D02*
X017842Y024208D01*
X017842Y024109D02*
X017575Y024109D01*
X017582Y024011D02*
X017842Y024011D01*
X017842Y023912D02*
X017562Y023912D01*
X017562Y023814D02*
X017842Y023814D01*
X017851Y023715D02*
X017552Y023715D01*
X017512Y023617D02*
X017892Y023617D01*
X017983Y023518D02*
X017420Y023518D01*
X017740Y022533D02*
X016593Y022533D01*
X016692Y022435D02*
X017825Y022435D01*
X017825Y022336D02*
X016790Y022336D01*
X016889Y022238D02*
X017825Y022238D01*
X017825Y022139D02*
X016987Y022139D01*
X017086Y022041D02*
X017825Y022041D01*
X017825Y021942D02*
X017184Y021942D01*
X017283Y021844D02*
X017825Y021844D01*
X017825Y021745D02*
X017381Y021745D01*
X017480Y021647D02*
X017825Y021647D01*
X017825Y021548D02*
X017575Y021548D01*
X017575Y021450D02*
X017825Y021450D01*
X017825Y021351D02*
X017575Y021351D01*
X017575Y021253D02*
X017825Y021253D01*
X017825Y021154D02*
X017575Y021154D01*
X017575Y021056D02*
X017825Y021056D01*
X017825Y020957D02*
X017575Y020957D01*
X017575Y020859D02*
X017825Y020859D01*
X017825Y020760D02*
X017575Y020760D01*
X017575Y020662D02*
X017825Y020662D01*
X017825Y020563D02*
X017575Y020563D01*
X017575Y020465D02*
X017825Y020465D01*
X017825Y020366D02*
X017575Y020366D01*
X017575Y020268D02*
X017825Y020268D01*
X017825Y020169D02*
X017592Y020169D01*
X017670Y020071D02*
X017825Y020071D01*
X017825Y019972D02*
X017670Y019972D01*
X017634Y019874D02*
X017825Y019874D01*
X017825Y019775D02*
X017075Y019775D01*
X017075Y019677D02*
X017825Y019677D01*
X017825Y019578D02*
X017075Y019578D01*
X017075Y019480D02*
X017825Y019480D01*
X017825Y019381D02*
X017075Y019381D01*
X017075Y019283D02*
X017825Y019283D01*
X017823Y019184D02*
X017075Y019184D01*
X017075Y019086D02*
X017730Y019086D01*
X017730Y018987D02*
X017075Y018987D01*
X017075Y018889D02*
X017750Y018889D01*
X017849Y018790D02*
X017075Y018790D01*
X017075Y019874D02*
X017265Y019874D01*
X017230Y019972D02*
X017075Y019972D01*
X017075Y020071D02*
X017230Y020071D01*
X017308Y020169D02*
X017075Y020169D01*
X017075Y020268D02*
X017325Y020268D01*
X017325Y020366D02*
X017075Y020366D01*
X017075Y020465D02*
X017325Y020465D01*
X017325Y020563D02*
X017075Y020563D01*
X017075Y020662D02*
X017325Y020662D01*
X017325Y020760D02*
X017075Y020760D01*
X017119Y020859D02*
X017325Y020859D01*
X017325Y020957D02*
X017170Y020957D01*
X017170Y021056D02*
X017325Y021056D01*
X017325Y021154D02*
X017107Y021154D01*
X018420Y023518D02*
X018983Y023518D01*
X018892Y023617D02*
X018512Y023617D01*
X018552Y023715D02*
X018851Y023715D01*
X018842Y023814D02*
X018562Y023814D01*
X018562Y023912D02*
X018842Y023912D01*
X018842Y024011D02*
X018562Y024011D01*
X018562Y024109D02*
X018842Y024109D01*
X018842Y024208D02*
X018562Y024208D01*
X018562Y024306D02*
X018842Y024306D01*
X018843Y024405D02*
X018560Y024405D01*
X018519Y024503D02*
X018884Y024503D01*
X018965Y024602D02*
X018438Y024602D01*
X018273Y026449D02*
X018130Y026449D01*
X017998Y026504D01*
X017896Y026605D01*
X017842Y026737D01*
X017842Y027401D01*
X017896Y027533D01*
X017998Y027634D01*
X018130Y027689D01*
X018273Y027689D01*
X018406Y027634D01*
X018507Y027533D01*
X018562Y027401D01*
X018562Y026737D01*
X018507Y026605D01*
X018406Y026504D01*
X018273Y026449D01*
X018332Y026473D02*
X019072Y026473D01*
X019130Y026449D02*
X019273Y026449D01*
X019406Y026504D01*
X019507Y026605D01*
X019562Y026737D01*
X019562Y026935D01*
X020501Y027875D01*
X020575Y027948D01*
X020575Y029052D01*
X020501Y029125D01*
X020293Y029333D01*
X020293Y029450D01*
X020228Y029608D01*
X020107Y029729D01*
X019949Y029794D01*
X019778Y029794D01*
X019619Y029729D01*
X019499Y029608D01*
X019433Y029450D01*
X019433Y029279D01*
X019499Y029121D01*
X019619Y029000D01*
X019778Y028934D01*
X019949Y028934D01*
X020107Y029000D01*
X020190Y029083D01*
X020325Y028948D01*
X020325Y028052D01*
X019562Y027289D01*
X019562Y027401D01*
X019507Y027533D01*
X019406Y027634D01*
X019273Y027689D01*
X019130Y027689D01*
X018998Y027634D01*
X018896Y027533D01*
X018842Y027401D01*
X018842Y026737D01*
X018896Y026605D01*
X018998Y026504D01*
X019130Y026449D01*
X019332Y026473D02*
X022775Y026473D01*
X022775Y026375D02*
X022332Y026375D01*
X022279Y026397D02*
X022424Y026336D01*
X022536Y026225D01*
X022597Y026079D01*
X022597Y025921D01*
X022536Y025775D01*
X022424Y025664D01*
X022279Y025603D01*
X022121Y025603D01*
X021975Y025664D01*
X021863Y025775D01*
X021803Y025921D01*
X021803Y026079D01*
X021596Y026079D01*
X021597Y026079D02*
X021536Y026225D01*
X021424Y026336D01*
X021279Y026397D01*
X021121Y026397D01*
X020975Y026336D01*
X020863Y026225D01*
X020803Y026079D01*
X016047Y026079D01*
X015949Y026178D02*
X020844Y026178D01*
X020803Y026079D02*
X020803Y025921D01*
X020863Y025775D01*
X020975Y025664D01*
X021121Y025603D01*
X021279Y025603D01*
X021424Y025664D01*
X021536Y025775D01*
X021597Y025921D01*
X021597Y026079D01*
X021597Y025981D02*
X021803Y025981D01*
X021803Y026079D02*
X021863Y026225D01*
X021975Y026336D01*
X022121Y026397D01*
X022279Y026397D01*
X022279Y026603D02*
X022424Y026664D01*
X022536Y026775D01*
X022597Y026921D01*
X022597Y027079D01*
X022536Y027225D01*
X022424Y027336D01*
X022279Y027397D01*
X022121Y027397D01*
X021975Y027336D01*
X021863Y027225D01*
X021803Y027079D01*
X021803Y026921D01*
X021863Y026775D01*
X021975Y026664D01*
X022121Y026603D01*
X022279Y026603D01*
X022431Y026670D02*
X022775Y026670D01*
X022775Y026572D02*
X019473Y026572D01*
X019534Y026670D02*
X020968Y026670D01*
X020975Y026664D02*
X021121Y026603D01*
X021279Y026603D01*
X021424Y026664D01*
X021536Y026775D01*
X021597Y026921D01*
X021597Y027079D01*
X021536Y027225D01*
X021424Y027336D01*
X021279Y027397D01*
X021121Y027397D01*
X020975Y027336D01*
X020863Y027225D01*
X020803Y027079D01*
X020803Y026921D01*
X020863Y026775D01*
X020975Y026664D01*
X020870Y026769D02*
X019562Y026769D01*
X019562Y026867D02*
X020825Y026867D01*
X020803Y026966D02*
X019592Y026966D01*
X019691Y027064D02*
X020803Y027064D01*
X020837Y027163D02*
X019789Y027163D01*
X019888Y027261D02*
X020900Y027261D01*
X021031Y027360D02*
X019986Y027360D01*
X020085Y027458D02*
X022775Y027458D01*
X022775Y027360D02*
X022369Y027360D01*
X022500Y027261D02*
X022775Y027261D01*
X022775Y027163D02*
X022562Y027163D01*
X022597Y027064D02*
X022775Y027064D01*
X022775Y026966D02*
X022597Y026966D01*
X022574Y026867D02*
X022775Y026867D01*
X022775Y026769D02*
X022529Y026769D01*
X022485Y026276D02*
X022775Y026276D01*
X022775Y026178D02*
X022556Y026178D01*
X022596Y026079D02*
X022775Y026079D01*
X022775Y025981D02*
X022597Y025981D01*
X022580Y025882D02*
X022775Y025882D01*
X022775Y025784D02*
X022540Y025784D01*
X022446Y025685D02*
X022775Y025685D01*
X022775Y025587D02*
X020540Y025587D01*
X020575Y025488D02*
X022775Y025488D01*
X022775Y025390D02*
X022296Y025390D01*
X022279Y025397D02*
X022424Y025336D01*
X022536Y025225D01*
X022597Y025079D01*
X022597Y024921D01*
X022536Y024775D01*
X022424Y024664D01*
X022279Y024603D01*
X022121Y024603D01*
X021975Y024664D01*
X021863Y024775D01*
X021803Y024921D01*
X021803Y025079D01*
X021863Y025225D01*
X021975Y025336D01*
X022121Y025397D01*
X022279Y025397D01*
X022103Y025390D02*
X021296Y025390D01*
X021279Y025397D02*
X021121Y025397D01*
X020975Y025336D01*
X020863Y025225D01*
X020803Y025079D01*
X020803Y024921D01*
X020863Y024775D01*
X020975Y024664D01*
X021121Y024603D01*
X021279Y024603D01*
X021424Y024664D01*
X021536Y024775D01*
X021597Y024921D01*
X021597Y025079D01*
X021536Y025225D01*
X021424Y025336D01*
X021279Y025397D01*
X021103Y025390D02*
X020575Y025390D01*
X020575Y025291D02*
X020930Y025291D01*
X020850Y025193D02*
X020575Y025193D01*
X020575Y025094D02*
X020809Y025094D01*
X020803Y024996D02*
X020575Y024996D01*
X020575Y024897D02*
X020813Y024897D01*
X020854Y024799D02*
X020575Y024799D01*
X020575Y024700D02*
X020938Y024700D01*
X021121Y024397D02*
X020975Y024336D01*
X020863Y024225D01*
X020803Y024079D01*
X020803Y023921D01*
X020863Y023775D01*
X020975Y023664D01*
X021121Y023603D01*
X021279Y023603D01*
X021424Y023664D01*
X021536Y023775D01*
X021597Y023921D01*
X021597Y024079D01*
X021536Y024225D01*
X021424Y024336D01*
X021279Y024397D01*
X021121Y024397D01*
X020945Y024306D02*
X020575Y024306D01*
X020575Y024208D02*
X020856Y024208D01*
X020815Y024109D02*
X020652Y024109D01*
X020670Y024011D02*
X020803Y024011D01*
X020807Y023912D02*
X020670Y023912D01*
X020574Y023814D02*
X020847Y023814D01*
X020923Y023715D02*
X020411Y023715D01*
X020325Y023814D02*
X020313Y023814D01*
X020230Y023912D02*
X020214Y023912D01*
X020510Y023617D02*
X021088Y023617D01*
X021121Y023397D02*
X020975Y023336D01*
X020863Y023225D01*
X020803Y023079D01*
X020803Y022921D01*
X020863Y022775D01*
X020975Y022664D01*
X021121Y022603D01*
X021279Y022603D01*
X021424Y022664D01*
X021536Y022775D01*
X021597Y022921D01*
X021597Y023079D01*
X021536Y023225D01*
X021424Y023336D01*
X021279Y023397D01*
X021121Y023397D01*
X020960Y023321D02*
X020575Y023321D01*
X020575Y023223D02*
X020862Y023223D01*
X020822Y023124D02*
X020575Y023124D01*
X020575Y023026D02*
X020803Y023026D01*
X020803Y022927D02*
X020575Y022927D01*
X020575Y022829D02*
X020841Y022829D01*
X020908Y022730D02*
X020575Y022730D01*
X020575Y022632D02*
X021052Y022632D01*
X021121Y022397D02*
X020975Y022336D01*
X020863Y022225D01*
X020803Y022079D01*
X020803Y021921D01*
X020863Y021775D01*
X020975Y021664D01*
X021121Y021603D01*
X021279Y021603D01*
X021424Y021664D01*
X021536Y021775D01*
X021597Y021921D01*
X021597Y022079D01*
X021536Y022225D01*
X021424Y022336D01*
X021279Y022397D01*
X021121Y022397D01*
X020974Y022336D02*
X020575Y022336D01*
X020575Y022238D02*
X020876Y022238D01*
X020828Y022139D02*
X020575Y022139D01*
X020575Y022041D02*
X020803Y022041D01*
X020803Y021942D02*
X020575Y021942D01*
X020575Y021844D02*
X020835Y021844D01*
X020893Y021745D02*
X020575Y021745D01*
X020575Y021647D02*
X021016Y021647D01*
X021121Y021397D02*
X020975Y021336D01*
X020863Y021225D01*
X020803Y021079D01*
X020803Y020921D01*
X020863Y020775D01*
X020975Y020664D01*
X021121Y020603D01*
X021279Y020603D01*
X021424Y020664D01*
X021536Y020775D01*
X021597Y020921D01*
X021597Y021079D01*
X021536Y021225D01*
X021424Y021336D01*
X021279Y021397D01*
X021121Y021397D01*
X021010Y021351D02*
X020575Y021351D01*
X020575Y021253D02*
X020891Y021253D01*
X020834Y021154D02*
X020575Y021154D01*
X020575Y021056D02*
X020803Y021056D01*
X020803Y020957D02*
X020575Y020957D01*
X020575Y020859D02*
X020829Y020859D01*
X020878Y020760D02*
X020575Y020760D01*
X020575Y020662D02*
X020980Y020662D01*
X021121Y020397D02*
X020975Y020336D01*
X020863Y020225D01*
X020803Y020079D01*
X020803Y019921D01*
X020863Y019775D01*
X020975Y019664D01*
X021121Y019603D01*
X021279Y019603D01*
X021424Y019664D01*
X021536Y019775D01*
X021863Y019775D01*
X021975Y019664D01*
X022121Y019603D01*
X022279Y019603D01*
X022424Y019664D01*
X022536Y019775D01*
X022775Y019775D01*
X022775Y019677D02*
X022437Y019677D01*
X022536Y019775D02*
X022597Y019921D01*
X022597Y020079D01*
X022536Y020225D01*
X022424Y020336D01*
X022279Y020397D01*
X022121Y020397D01*
X021975Y020336D01*
X021863Y020225D01*
X021803Y020079D01*
X021803Y019921D01*
X021863Y019775D01*
X021823Y019874D02*
X021577Y019874D01*
X021597Y019921D02*
X021536Y019775D01*
X021437Y019677D02*
X021962Y019677D01*
X022083Y019381D02*
X021317Y019381D01*
X021279Y019397D02*
X021121Y019397D01*
X020975Y019336D01*
X020863Y019225D01*
X020803Y019079D01*
X020803Y018921D01*
X020863Y018775D01*
X020975Y018664D01*
X021121Y018603D01*
X021279Y018603D01*
X021424Y018664D01*
X021536Y018775D01*
X021597Y018921D01*
X021597Y019079D01*
X021536Y019225D01*
X021424Y019336D01*
X021279Y019397D01*
X021083Y019381D02*
X020575Y019381D01*
X020575Y019283D02*
X020921Y019283D01*
X020846Y019184D02*
X020575Y019184D01*
X020575Y019086D02*
X020806Y019086D01*
X020803Y018987D02*
X020575Y018987D01*
X020575Y018889D02*
X020816Y018889D01*
X020857Y018790D02*
X020575Y018790D01*
X020575Y018692D02*
X020947Y018692D01*
X020575Y018593D02*
X022775Y018593D01*
X022775Y018495D02*
X020575Y018495D01*
X021452Y018692D02*
X021947Y018692D01*
X021975Y018664D02*
X022121Y018603D01*
X022279Y018603D01*
X022424Y018664D01*
X022536Y018775D01*
X022597Y018921D01*
X022597Y019079D01*
X022536Y019225D01*
X022424Y019336D01*
X022279Y019397D01*
X022121Y019397D01*
X021975Y019336D01*
X021863Y019225D01*
X021803Y019079D01*
X021803Y018921D01*
X021863Y018775D01*
X021975Y018664D01*
X021857Y018790D02*
X021542Y018790D01*
X021583Y018889D02*
X021816Y018889D01*
X021803Y018987D02*
X021597Y018987D01*
X021594Y019086D02*
X021806Y019086D01*
X021846Y019184D02*
X021553Y019184D01*
X021478Y019283D02*
X021921Y019283D01*
X022317Y019381D02*
X022775Y019381D01*
X022775Y019283D02*
X022478Y019283D01*
X022553Y019184D02*
X022775Y019184D01*
X022775Y019086D02*
X022594Y019086D01*
X022597Y018987D02*
X022775Y018987D01*
X022775Y018889D02*
X022583Y018889D01*
X022542Y018790D02*
X022775Y018790D01*
X022775Y018692D02*
X022452Y018692D01*
X021936Y018298D02*
X021463Y018298D01*
X021547Y018199D02*
X021853Y018199D01*
X021812Y018101D02*
X021588Y018101D01*
X021597Y018002D02*
X021803Y018002D01*
X021810Y017904D02*
X021589Y017904D01*
X021548Y017805D02*
X021851Y017805D01*
X021932Y017707D02*
X021467Y017707D01*
X020951Y017313D02*
X020575Y017313D01*
X020575Y017214D02*
X020859Y017214D01*
X020818Y017116D02*
X020575Y017116D01*
X020575Y017017D02*
X020803Y017017D01*
X020804Y016919D02*
X020575Y016919D01*
X020575Y016820D02*
X020845Y016820D01*
X020917Y016722D02*
X020575Y016722D01*
X021433Y016328D02*
X021445Y016328D01*
X021532Y016229D02*
X021544Y016229D01*
X020990Y015343D02*
X020075Y015343D01*
X020075Y015441D02*
X022775Y015441D01*
X022775Y015343D02*
X022410Y015343D01*
X022517Y015244D02*
X022775Y015244D01*
X022775Y015146D02*
X022569Y015146D01*
X022597Y015047D02*
X022775Y015047D01*
X022775Y014949D02*
X022597Y014949D01*
X022567Y014850D02*
X022775Y014850D01*
X022775Y014752D02*
X022512Y014752D01*
X022399Y014653D02*
X022775Y014653D01*
X022775Y014555D02*
X020075Y014555D01*
X020075Y014653D02*
X021000Y014653D01*
X020887Y014752D02*
X020075Y014752D01*
X020075Y014850D02*
X020832Y014850D01*
X020803Y014949D02*
X020075Y014949D01*
X020075Y015047D02*
X020803Y015047D01*
X020830Y015146D02*
X020075Y015146D01*
X020075Y015244D02*
X020882Y015244D01*
X019325Y015244D02*
X018075Y015244D01*
X018075Y015146D02*
X019284Y015146D01*
X019230Y015047D02*
X018075Y015047D01*
X018075Y014949D02*
X019230Y014949D01*
X019289Y014850D02*
X018075Y014850D01*
X018075Y015343D02*
X019325Y015343D01*
X019325Y015441D02*
X018075Y015441D01*
X018075Y015540D02*
X019233Y015540D01*
X019135Y015638D02*
X018075Y015638D01*
X018075Y015737D02*
X019036Y015737D01*
X018938Y015835D02*
X018075Y015835D01*
X018075Y015934D02*
X018839Y015934D01*
X018741Y016032D02*
X018075Y016032D01*
X017996Y016131D02*
X018642Y016131D01*
X018544Y016229D02*
X017897Y016229D01*
X016842Y016032D02*
X016575Y016032D01*
X016496Y016131D02*
X016695Y016131D01*
X016597Y016229D02*
X016397Y016229D01*
X016299Y016328D02*
X016552Y016328D01*
X016511Y016426D02*
X016200Y016426D01*
X016124Y016525D02*
X016499Y016525D01*
X016499Y016623D02*
X016124Y016623D01*
X016113Y016722D02*
X016511Y016722D01*
X016551Y016820D02*
X016072Y016820D01*
X016029Y016919D02*
X016594Y016919D01*
X016693Y017017D02*
X015931Y017017D01*
X015787Y017116D02*
X016837Y017116D01*
X016044Y016229D02*
X016027Y016229D01*
X015929Y016131D02*
X016142Y016131D01*
X016241Y016032D02*
X015782Y016032D01*
X015325Y018790D02*
X015051Y018790D01*
X010722Y021450D02*
X005575Y021450D01*
X005575Y021548D02*
X010730Y021548D01*
X010785Y021647D02*
X005575Y021647D01*
X005325Y021647D02*
X003383Y021647D01*
X003389Y021351D02*
X005325Y021351D01*
X005325Y021253D02*
X003508Y021253D01*
X003565Y021154D02*
X005325Y021154D01*
X005325Y021056D02*
X003597Y021056D01*
X003597Y020957D02*
X005325Y020957D01*
X005325Y020859D02*
X003571Y020859D01*
X003521Y020760D02*
X005325Y020760D01*
X005325Y020662D02*
X003420Y020662D01*
X003353Y020366D02*
X005325Y020366D01*
X005325Y020268D02*
X003493Y020268D01*
X003559Y020169D02*
X005325Y020169D01*
X005325Y020071D02*
X003597Y020071D01*
X003597Y019972D02*
X005325Y019972D01*
X005325Y019874D02*
X003577Y019874D01*
X003046Y020366D02*
X002353Y020366D01*
X002424Y020336D02*
X002279Y020397D01*
X002424Y020336D02*
X002536Y020225D01*
X002597Y020079D01*
X002597Y019921D01*
X002597Y019972D02*
X002803Y019972D01*
X002803Y020071D02*
X002597Y020071D01*
X002559Y020169D02*
X002840Y020169D01*
X002906Y020268D02*
X002493Y020268D01*
X002046Y020366D02*
X001625Y020366D01*
X001625Y020268D02*
X001906Y020268D01*
X001840Y020169D02*
X001625Y020169D01*
X001625Y020071D02*
X001803Y020071D01*
X001803Y019972D02*
X001625Y019972D01*
X001625Y019874D02*
X001823Y019874D01*
X001863Y019775D02*
X001625Y019775D01*
X001625Y019677D02*
X001962Y019677D01*
X001625Y019578D02*
X005325Y019578D01*
X005325Y019480D02*
X001625Y019480D01*
X001625Y020465D02*
X005325Y020465D01*
X005325Y020563D02*
X001625Y020563D01*
X001625Y020662D02*
X001980Y020662D01*
X001878Y020760D02*
X001625Y020760D01*
X001625Y020859D02*
X001829Y020859D01*
X001803Y020957D02*
X001625Y020957D01*
X001625Y021056D02*
X001803Y021056D01*
X001834Y021154D02*
X001625Y021154D01*
X001625Y021253D02*
X001891Y021253D01*
X002010Y021351D02*
X001625Y021351D01*
X001625Y021450D02*
X005325Y021450D01*
X005325Y021548D02*
X001625Y021548D01*
X001625Y021647D02*
X002016Y021647D01*
X001893Y021745D02*
X001625Y021745D01*
X001625Y021844D02*
X001835Y021844D01*
X001803Y021942D02*
X001625Y021942D01*
X001625Y022041D02*
X001803Y022041D01*
X001828Y022139D02*
X001625Y022139D01*
X001625Y022238D02*
X001876Y022238D01*
X001974Y022336D02*
X001625Y022336D01*
X001625Y022435D02*
X006338Y022435D01*
X006325Y022533D02*
X001625Y022533D01*
X001625Y022632D02*
X002052Y022632D01*
X001908Y022730D02*
X001625Y022730D01*
X001625Y022829D02*
X001841Y022829D01*
X001803Y022927D02*
X001625Y022927D01*
X001625Y023026D02*
X001803Y023026D01*
X001822Y023124D02*
X001625Y023124D01*
X001625Y023223D02*
X001862Y023223D01*
X001960Y023321D02*
X001625Y023321D01*
X001625Y023420D02*
X004540Y023420D01*
X004535Y023518D02*
X001625Y023518D01*
X001625Y023617D02*
X002088Y023617D01*
X001923Y023715D02*
X001625Y023715D01*
X001625Y023814D02*
X001847Y023814D01*
X001807Y023912D02*
X001625Y023912D01*
X001625Y024011D02*
X001803Y024011D01*
X001815Y024109D02*
X001625Y024109D01*
X001625Y024208D02*
X001856Y024208D01*
X001945Y024306D02*
X001625Y024306D01*
X004865Y026178D02*
X004925Y026178D01*
X004925Y026094D02*
X004927Y026094D01*
X004991Y026104D01*
X005052Y026124D01*
X005109Y026153D01*
X005162Y026191D01*
X005207Y026237D01*
X005245Y026289D01*
X005275Y026346D01*
X005294Y026408D01*
X005305Y026472D01*
X005305Y026734D01*
X004925Y026734D01*
X004925Y026094D01*
X004925Y026276D02*
X004865Y026276D01*
X004865Y026375D02*
X004925Y026375D01*
X004925Y026473D02*
X004865Y026473D01*
X004865Y026572D02*
X004925Y026572D01*
X004925Y026670D02*
X004865Y026670D01*
X004865Y026867D02*
X004925Y026867D01*
X004925Y026966D02*
X004865Y026966D01*
X004865Y027064D02*
X004925Y027064D01*
X004925Y027163D02*
X004865Y027163D01*
X004865Y027261D02*
X004925Y027261D01*
X004925Y027360D02*
X004865Y027360D01*
X005305Y026670D02*
X005535Y026670D01*
X005535Y026572D02*
X005305Y026572D01*
X005305Y026473D02*
X005535Y026473D01*
X005558Y026375D02*
X005284Y026375D01*
X005236Y026276D02*
X005613Y026276D01*
X005741Y026178D02*
X005143Y026178D01*
X006048Y026178D02*
X006095Y026178D01*
X006252Y026375D02*
X006558Y026375D01*
X006535Y026473D02*
X006255Y026473D01*
X006255Y026572D02*
X006535Y026572D01*
X006535Y026670D02*
X006255Y026670D01*
X006255Y026769D02*
X006535Y026769D01*
X006535Y026867D02*
X006255Y026867D01*
X006255Y026966D02*
X006535Y026966D01*
X006535Y027064D02*
X006255Y027064D01*
X006227Y027163D02*
X006562Y027163D01*
X006623Y027261D02*
X006166Y027261D01*
X006350Y026276D02*
X006613Y026276D01*
X006741Y026178D02*
X006449Y026178D01*
X006547Y026079D02*
X015694Y026079D01*
X015792Y025981D02*
X006575Y025981D01*
X006575Y025882D02*
X015891Y025882D01*
X015989Y025784D02*
X006575Y025784D01*
X006575Y025685D02*
X008824Y025685D01*
X009076Y025685D02*
X016088Y025685D01*
X016186Y025587D02*
X009170Y025587D01*
X009170Y025488D02*
X016285Y025488D01*
X016383Y025390D02*
X009237Y025390D01*
X009335Y025291D02*
X020325Y025291D01*
X020325Y025193D02*
X009434Y025193D01*
X008176Y026276D02*
X015497Y026276D01*
X015595Y026178D02*
X008048Y026178D01*
X008231Y026375D02*
X015398Y026375D01*
X015300Y026473D02*
X008255Y026473D01*
X008255Y026572D02*
X015201Y026572D01*
X015103Y026670D02*
X008255Y026670D01*
X008255Y026769D02*
X015004Y026769D01*
X014906Y026867D02*
X008255Y026867D01*
X008255Y026966D02*
X014807Y026966D01*
X014709Y027064D02*
X008255Y027064D01*
X007613Y026276D02*
X007176Y026276D01*
X007231Y026375D02*
X007558Y026375D01*
X007535Y026473D02*
X007255Y026473D01*
X007255Y026572D02*
X007535Y026572D01*
X007535Y026670D02*
X007255Y026670D01*
X007255Y026769D02*
X007535Y026769D01*
X007535Y026867D02*
X007255Y026867D01*
X007255Y026966D02*
X007535Y026966D01*
X007535Y027064D02*
X007255Y027064D01*
X007048Y026178D02*
X007741Y026178D01*
X007668Y024306D02*
X007121Y024306D01*
X007098Y024329D02*
X006966Y024384D01*
X006823Y024384D01*
X006691Y024329D01*
X006589Y024228D01*
X006535Y024095D01*
X006535Y023432D01*
X006589Y023300D01*
X006691Y023199D01*
X006823Y023144D01*
X006966Y023144D01*
X007098Y023199D01*
X007200Y023300D01*
X007255Y023432D01*
X007255Y024095D01*
X007200Y024228D01*
X007098Y024329D01*
X007208Y024208D02*
X007581Y024208D01*
X007540Y024109D02*
X007249Y024109D01*
X007255Y024011D02*
X007535Y024011D01*
X007535Y023912D02*
X007255Y023912D01*
X007255Y023814D02*
X007535Y023814D01*
X007535Y023715D02*
X007255Y023715D01*
X007255Y023617D02*
X007535Y023617D01*
X007535Y023518D02*
X007255Y023518D01*
X007249Y023420D02*
X007540Y023420D01*
X007581Y023321D02*
X007209Y023321D01*
X007122Y023223D02*
X007667Y023223D01*
X006667Y023223D02*
X006404Y023223D01*
X006305Y023321D02*
X006581Y023321D01*
X006540Y023420D02*
X006249Y023420D01*
X006255Y023518D02*
X006535Y023518D01*
X006535Y023617D02*
X006255Y023617D01*
X006255Y023715D02*
X006535Y023715D01*
X006535Y023814D02*
X006255Y023814D01*
X006255Y023912D02*
X006535Y023912D01*
X006535Y024011D02*
X006255Y024011D01*
X006249Y024109D02*
X006540Y024109D01*
X006581Y024208D02*
X006208Y024208D01*
X006121Y024306D02*
X006668Y024306D01*
X005668Y024306D02*
X005121Y024306D01*
X005208Y024208D02*
X005581Y024208D01*
X005540Y024109D02*
X005249Y024109D01*
X005255Y024011D02*
X005535Y024011D01*
X005535Y023912D02*
X005255Y023912D01*
X005255Y023814D02*
X005535Y023814D01*
X005535Y023715D02*
X005255Y023715D01*
X005255Y023617D02*
X005535Y023617D01*
X005535Y023518D02*
X005255Y023518D01*
X005249Y023420D02*
X005540Y023420D01*
X005581Y023321D02*
X005209Y023321D01*
X005122Y023223D02*
X005667Y023223D01*
X005575Y021351D02*
X010624Y021351D01*
X010525Y021253D02*
X005575Y021253D01*
X005575Y021154D02*
X010427Y021154D01*
X006828Y021056D02*
X005575Y021056D01*
X005575Y020957D02*
X006825Y020957D01*
X006825Y020859D02*
X005575Y020859D01*
X005575Y020760D02*
X006825Y020760D01*
X006825Y020662D02*
X005575Y020662D01*
X005575Y020563D02*
X006825Y020563D01*
X006825Y020465D02*
X005575Y020465D01*
X001936Y018298D02*
X001625Y018298D01*
X001625Y018199D02*
X001853Y018199D01*
X001812Y018101D02*
X001625Y018101D01*
X001625Y018002D02*
X001803Y018002D01*
X001810Y017904D02*
X001625Y017904D01*
X001625Y017805D02*
X001851Y017805D01*
X001932Y017707D02*
X001625Y017707D01*
X002484Y029724D02*
X002915Y029724D01*
X002844Y029822D02*
X002556Y029822D01*
X002596Y029921D02*
X002803Y029921D01*
X002803Y030019D02*
X002597Y030019D01*
X002581Y030118D02*
X002819Y030118D01*
X002860Y030216D02*
X002540Y030216D01*
X002446Y030315D02*
X002953Y030315D01*
X001785Y030709D02*
X011064Y030709D01*
X010966Y030807D02*
X001817Y030807D01*
X001849Y030906D02*
X010867Y030906D01*
X010769Y031004D02*
X001881Y031004D01*
X001913Y031103D02*
X010670Y031103D01*
X010572Y031201D02*
X001945Y031201D01*
X001977Y031300D02*
X010473Y031300D01*
X010375Y031398D02*
X002018Y031398D01*
X002068Y031497D02*
X010276Y031497D01*
X010178Y031595D02*
X002119Y031595D01*
X002169Y031694D02*
X010079Y031694D01*
X009981Y031792D02*
X002219Y031792D01*
X002269Y031891D02*
X009882Y031891D01*
X009784Y031989D02*
X002319Y031989D01*
X002384Y032088D02*
X009685Y032088D01*
X009587Y032186D02*
X002456Y032186D01*
X002527Y032285D02*
X009354Y032285D01*
X009255Y032383D02*
X002599Y032383D01*
X002670Y032482D02*
X009230Y032482D01*
X009230Y032580D02*
X002742Y032580D01*
X002826Y032679D02*
X009317Y032679D01*
X009582Y032679D02*
X021574Y032679D01*
X021658Y032580D02*
X009670Y032580D01*
X009670Y032482D02*
X021729Y032482D01*
X021801Y032383D02*
X009743Y032383D01*
X009842Y032285D02*
X021872Y032285D01*
X021944Y032186D02*
X009940Y032186D01*
X010039Y032088D02*
X022015Y032088D01*
X022080Y031989D02*
X010137Y031989D01*
X010236Y031891D02*
X022130Y031891D01*
X022180Y031792D02*
X010334Y031792D01*
X010433Y031694D02*
X022231Y031694D01*
X022281Y031595D02*
X010531Y031595D01*
X010630Y031497D02*
X022331Y031497D01*
X022381Y031398D02*
X010728Y031398D01*
X010827Y031300D02*
X022423Y031300D01*
X022455Y031201D02*
X010925Y031201D01*
X011024Y031103D02*
X022487Y031103D01*
X022519Y031004D02*
X011122Y031004D01*
X011221Y030906D02*
X022551Y030906D01*
X022583Y030807D02*
X011319Y030807D01*
X011418Y030709D02*
X022615Y030709D01*
X022644Y030610D02*
X011516Y030610D01*
X011615Y030512D02*
X022660Y030512D01*
X022675Y030413D02*
X022373Y030413D01*
X022371Y030414D02*
X022304Y030436D01*
X022248Y030445D01*
X022248Y030048D01*
X022644Y030048D01*
X022636Y030105D01*
X022614Y030172D01*
X022582Y030234D01*
X022541Y030291D01*
X022491Y030341D01*
X022434Y030382D01*
X022371Y030414D01*
X022248Y030413D02*
X022151Y030413D01*
X022151Y030445D02*
X022151Y030048D01*
X022151Y029952D01*
X021755Y029952D01*
X021764Y029895D01*
X021786Y029828D01*
X021818Y029766D01*
X021859Y029709D01*
X021909Y029659D01*
X021965Y029618D01*
X022028Y029586D01*
X022095Y029564D01*
X022151Y029555D01*
X022151Y029952D01*
X022248Y029952D01*
X022248Y030048D01*
X022151Y030048D01*
X021755Y030048D01*
X021764Y030105D01*
X021786Y030172D01*
X021818Y030234D01*
X021859Y030291D01*
X021909Y030341D01*
X021965Y030382D01*
X022028Y030414D01*
X022095Y030436D01*
X022151Y030445D01*
X022026Y030413D02*
X021373Y030413D01*
X021371Y030414D02*
X021304Y030436D01*
X021248Y030445D01*
X021248Y030048D01*
X021644Y030048D01*
X021636Y030105D01*
X021614Y030172D01*
X021582Y030234D01*
X021541Y030291D01*
X021491Y030341D01*
X021434Y030382D01*
X021371Y030414D01*
X021248Y030413D02*
X021151Y030413D01*
X021151Y030445D02*
X021151Y030048D01*
X021151Y029952D01*
X020755Y029952D01*
X020764Y029895D01*
X020786Y029828D01*
X020818Y029766D01*
X020859Y029709D01*
X020909Y029659D01*
X020965Y029618D01*
X021028Y029586D01*
X021095Y029564D01*
X021151Y029555D01*
X021151Y029952D01*
X021248Y029952D01*
X021248Y030048D01*
X021151Y030048D01*
X020755Y030048D01*
X020764Y030105D01*
X020786Y030172D01*
X020818Y030234D01*
X020859Y030291D01*
X020909Y030341D01*
X020965Y030382D01*
X021028Y030414D01*
X021095Y030436D01*
X021151Y030445D01*
X021026Y030413D02*
X011713Y030413D01*
X011812Y030315D02*
X020882Y030315D01*
X020808Y030216D02*
X011910Y030216D01*
X012009Y030118D02*
X020768Y030118D01*
X020760Y029921D02*
X012206Y029921D01*
X012107Y030019D02*
X021151Y030019D01*
X021248Y030019D02*
X022151Y030019D01*
X022248Y030019D02*
X022738Y030019D01*
X022753Y029921D02*
X022640Y029921D01*
X022636Y029895D02*
X022644Y029952D01*
X022248Y029952D01*
X022248Y029555D01*
X022304Y029564D01*
X022371Y029586D01*
X022434Y029618D01*
X022491Y029659D01*
X022541Y029709D01*
X022582Y029766D01*
X022614Y029828D01*
X022636Y029895D01*
X022611Y029822D02*
X022762Y029822D01*
X022766Y029724D02*
X022551Y029724D01*
X022444Y029625D02*
X022770Y029625D01*
X022774Y029527D02*
X020261Y029527D01*
X020293Y029428D02*
X021071Y029428D01*
X021095Y029436D02*
X021028Y029414D01*
X020965Y029382D01*
X020909Y029341D01*
X020859Y029291D01*
X020818Y029234D01*
X020786Y029172D01*
X020764Y029105D01*
X020755Y029048D01*
X021151Y029048D01*
X021151Y028952D01*
X020755Y028952D01*
X020764Y028895D01*
X020786Y028828D01*
X020818Y028766D01*
X020859Y028709D01*
X020909Y028659D01*
X020965Y028618D01*
X021028Y028586D01*
X021095Y028564D01*
X021151Y028555D01*
X021151Y028952D01*
X021248Y028952D01*
X021248Y029048D01*
X021644Y029048D01*
X021636Y029105D01*
X021614Y029172D01*
X021582Y029234D01*
X021541Y029291D01*
X021491Y029341D01*
X021434Y029382D01*
X021371Y029414D01*
X021304Y029436D01*
X021248Y029445D01*
X021248Y029048D01*
X021151Y029048D01*
X021151Y029445D01*
X021095Y029436D01*
X021151Y029428D02*
X021248Y029428D01*
X021328Y029428D02*
X022071Y029428D01*
X022095Y029436D02*
X022028Y029414D01*
X021965Y029382D01*
X021909Y029341D01*
X021859Y029291D01*
X021818Y029234D01*
X021786Y029172D01*
X021764Y029105D01*
X021755Y029048D01*
X022151Y029048D01*
X022151Y028952D01*
X021755Y028952D01*
X021764Y028895D01*
X021786Y028828D01*
X021818Y028766D01*
X021859Y028709D01*
X021909Y028659D01*
X021965Y028618D01*
X022028Y028586D01*
X022095Y028564D01*
X022151Y028555D01*
X022151Y028952D01*
X022248Y028952D01*
X022248Y029048D01*
X022644Y029048D01*
X022636Y029105D01*
X022614Y029172D01*
X022582Y029234D01*
X022541Y029291D01*
X022491Y029341D01*
X022434Y029382D01*
X022371Y029414D01*
X022304Y029436D01*
X022248Y029445D01*
X022248Y029048D01*
X022151Y029048D01*
X022151Y029445D01*
X022095Y029436D01*
X022151Y029428D02*
X022248Y029428D01*
X022328Y029428D02*
X022775Y029428D01*
X022775Y029330D02*
X022502Y029330D01*
X022583Y029231D02*
X022775Y029231D01*
X022775Y029133D02*
X022626Y029133D01*
X022775Y029034D02*
X022248Y029034D01*
X022248Y028952D02*
X022644Y028952D01*
X022636Y028895D01*
X022614Y028828D01*
X022582Y028766D01*
X022541Y028709D01*
X022491Y028659D01*
X022434Y028618D01*
X022371Y028586D01*
X022304Y028564D01*
X022248Y028555D01*
X022248Y028952D01*
X022248Y028936D02*
X022151Y028936D01*
X022151Y029034D02*
X021248Y029034D01*
X021248Y028952D02*
X021644Y028952D01*
X021636Y028895D01*
X021614Y028828D01*
X021582Y028766D01*
X021541Y028709D01*
X021491Y028659D01*
X021434Y028618D01*
X021371Y028586D01*
X021304Y028564D01*
X021248Y028555D01*
X021248Y028952D01*
X021248Y028936D02*
X021151Y028936D01*
X021151Y029034D02*
X020575Y029034D01*
X020575Y028936D02*
X020757Y028936D01*
X020783Y028837D02*
X020575Y028837D01*
X020575Y028739D02*
X020837Y028739D01*
X020935Y028640D02*
X020575Y028640D01*
X020575Y028542D02*
X022775Y028542D01*
X022775Y028640D02*
X022464Y028640D01*
X022562Y028739D02*
X022775Y028739D01*
X022775Y028837D02*
X022617Y028837D01*
X022642Y028936D02*
X022775Y028936D01*
X022775Y028443D02*
X020575Y028443D01*
X020575Y028345D02*
X020995Y028345D01*
X020975Y028336D02*
X020863Y028225D01*
X020803Y028079D01*
X020803Y027921D01*
X020863Y027775D01*
X020975Y027664D01*
X021121Y027603D01*
X021279Y027603D01*
X021424Y027664D01*
X021536Y027775D01*
X021597Y027921D01*
X021597Y028079D01*
X021536Y028225D01*
X021424Y028336D01*
X021279Y028397D01*
X021121Y028397D01*
X020975Y028336D01*
X020885Y028246D02*
X020575Y028246D01*
X020575Y028148D02*
X020831Y028148D01*
X020803Y028049D02*
X020575Y028049D01*
X020575Y027951D02*
X020803Y027951D01*
X020831Y027852D02*
X020479Y027852D01*
X020380Y027754D02*
X020885Y027754D01*
X020995Y027655D02*
X020282Y027655D01*
X020183Y027557D02*
X022775Y027557D01*
X022775Y027655D02*
X022404Y027655D01*
X022424Y027664D02*
X022536Y027775D01*
X022597Y027921D01*
X022597Y028079D01*
X022536Y028225D01*
X022424Y028336D01*
X022279Y028397D01*
X022121Y028397D01*
X021975Y028336D01*
X021863Y028225D01*
X021803Y028079D01*
X021803Y027921D01*
X021863Y027775D01*
X021975Y027664D01*
X022121Y027603D01*
X022279Y027603D01*
X022424Y027664D01*
X022514Y027754D02*
X022775Y027754D01*
X022775Y027852D02*
X022568Y027852D01*
X022597Y027951D02*
X022775Y027951D01*
X022775Y028049D02*
X022597Y028049D01*
X022568Y028148D02*
X022775Y028148D01*
X022775Y028246D02*
X022515Y028246D01*
X022405Y028345D02*
X022775Y028345D01*
X022248Y028640D02*
X022151Y028640D01*
X022151Y028739D02*
X022248Y028739D01*
X022248Y028837D02*
X022151Y028837D01*
X021935Y028640D02*
X021464Y028640D01*
X021562Y028739D02*
X021837Y028739D01*
X021783Y028837D02*
X021617Y028837D01*
X021642Y028936D02*
X021757Y028936D01*
X021773Y029133D02*
X021626Y029133D01*
X021583Y029231D02*
X021816Y029231D01*
X021897Y029330D02*
X021502Y029330D01*
X021248Y029330D02*
X021151Y029330D01*
X021151Y029231D02*
X021248Y029231D01*
X021248Y029133D02*
X021151Y029133D01*
X021151Y028837D02*
X021248Y028837D01*
X021248Y028739D02*
X021151Y028739D01*
X021151Y028640D02*
X021248Y028640D01*
X021405Y028345D02*
X021995Y028345D01*
X021885Y028246D02*
X021515Y028246D01*
X021568Y028148D02*
X021831Y028148D01*
X021803Y028049D02*
X021597Y028049D01*
X021597Y027951D02*
X021803Y027951D01*
X021831Y027852D02*
X021568Y027852D01*
X021514Y027754D02*
X021885Y027754D01*
X021995Y027655D02*
X021404Y027655D01*
X021369Y027360D02*
X022031Y027360D01*
X021900Y027261D02*
X021500Y027261D01*
X021562Y027163D02*
X021837Y027163D01*
X021803Y027064D02*
X021597Y027064D01*
X021597Y026966D02*
X021803Y026966D01*
X021825Y026867D02*
X021574Y026867D01*
X021529Y026769D02*
X021870Y026769D01*
X021968Y026670D02*
X021431Y026670D01*
X021332Y026375D02*
X022067Y026375D01*
X021915Y026276D02*
X021485Y026276D01*
X021556Y026178D02*
X021844Y026178D01*
X021819Y025882D02*
X021580Y025882D01*
X021540Y025784D02*
X021860Y025784D01*
X021953Y025685D02*
X021446Y025685D01*
X021470Y025291D02*
X021930Y025291D01*
X021850Y025193D02*
X021549Y025193D01*
X021590Y025094D02*
X021809Y025094D01*
X021803Y024996D02*
X021597Y024996D01*
X021587Y024897D02*
X021813Y024897D01*
X021854Y024799D02*
X021546Y024799D01*
X021461Y024700D02*
X021938Y024700D01*
X022121Y024397D02*
X021975Y024336D01*
X021863Y024225D01*
X021803Y024079D01*
X021803Y023921D01*
X021863Y023775D01*
X021975Y023664D01*
X022121Y023603D01*
X022279Y023603D01*
X022424Y023664D01*
X022536Y023775D01*
X022597Y023921D01*
X022597Y024079D01*
X022536Y024225D01*
X022424Y024336D01*
X022279Y024397D01*
X022121Y024397D01*
X021945Y024306D02*
X021455Y024306D01*
X021543Y024208D02*
X021856Y024208D01*
X021815Y024109D02*
X021584Y024109D01*
X021597Y024011D02*
X021803Y024011D01*
X021807Y023912D02*
X021593Y023912D01*
X021552Y023814D02*
X021847Y023814D01*
X021923Y023715D02*
X021476Y023715D01*
X021311Y023617D02*
X022088Y023617D01*
X022121Y023397D02*
X021975Y023336D01*
X021863Y023225D01*
X021803Y023079D01*
X021803Y022921D01*
X021863Y022775D01*
X021975Y022664D01*
X022121Y022603D01*
X022279Y022603D01*
X022424Y022664D01*
X022536Y022775D01*
X022597Y022921D01*
X022597Y023079D01*
X022536Y023225D01*
X022424Y023336D01*
X022279Y023397D01*
X022121Y023397D01*
X021960Y023321D02*
X021440Y023321D01*
X021537Y023223D02*
X021862Y023223D01*
X021822Y023124D02*
X021578Y023124D01*
X021597Y023026D02*
X021803Y023026D01*
X021803Y022927D02*
X021597Y022927D01*
X021558Y022829D02*
X021841Y022829D01*
X021908Y022730D02*
X021491Y022730D01*
X021347Y022632D02*
X022052Y022632D01*
X022121Y022397D02*
X021975Y022336D01*
X021863Y022225D01*
X021803Y022079D01*
X021803Y021921D01*
X021863Y021775D01*
X021975Y021664D01*
X022121Y021603D01*
X022279Y021603D01*
X022424Y021664D01*
X022536Y021775D01*
X022597Y021921D01*
X022597Y022079D01*
X022536Y022225D01*
X022424Y022336D01*
X022279Y022397D01*
X022121Y022397D01*
X021974Y022336D02*
X021425Y022336D01*
X021523Y022238D02*
X021876Y022238D01*
X021828Y022139D02*
X021572Y022139D01*
X021597Y022041D02*
X021803Y022041D01*
X021803Y021942D02*
X021597Y021942D01*
X021564Y021844D02*
X021835Y021844D01*
X021893Y021745D02*
X021506Y021745D01*
X021383Y021647D02*
X022016Y021647D01*
X022121Y021397D02*
X021975Y021336D01*
X021863Y021225D01*
X021803Y021079D01*
X021803Y020921D01*
X021863Y020775D01*
X021975Y020664D01*
X022121Y020603D01*
X022279Y020603D01*
X022424Y020664D01*
X022536Y020775D01*
X022597Y020921D01*
X022597Y021079D01*
X022536Y021225D01*
X022424Y021336D01*
X022279Y021397D01*
X022121Y021397D01*
X022010Y021351D02*
X021389Y021351D01*
X021508Y021253D02*
X021891Y021253D01*
X021834Y021154D02*
X021565Y021154D01*
X021597Y021056D02*
X021803Y021056D01*
X021803Y020957D02*
X021597Y020957D01*
X021571Y020859D02*
X021829Y020859D01*
X021878Y020760D02*
X021521Y020760D01*
X021420Y020662D02*
X021980Y020662D01*
X022046Y020366D02*
X021353Y020366D01*
X021424Y020336D02*
X021279Y020397D01*
X021121Y020397D01*
X021046Y020366D02*
X020575Y020366D01*
X020575Y020268D02*
X020906Y020268D01*
X020840Y020169D02*
X020575Y020169D01*
X020575Y020071D02*
X020803Y020071D01*
X020803Y019972D02*
X020575Y019972D01*
X020575Y019874D02*
X020823Y019874D01*
X020863Y019775D02*
X020575Y019775D01*
X020575Y019677D02*
X020962Y019677D01*
X020575Y019578D02*
X022775Y019578D01*
X022775Y019480D02*
X020575Y019480D01*
X020575Y020465D02*
X022775Y020465D01*
X022775Y020563D02*
X020575Y020563D01*
X020575Y021450D02*
X022775Y021450D01*
X022775Y021548D02*
X020575Y021548D01*
X020575Y022435D02*
X022775Y022435D01*
X022775Y022533D02*
X020575Y022533D01*
X020575Y023420D02*
X022775Y023420D01*
X022775Y023518D02*
X020575Y023518D01*
X020575Y024405D02*
X022775Y024405D01*
X022775Y024503D02*
X020575Y024503D01*
X020575Y024602D02*
X022775Y024602D01*
X022775Y024700D02*
X022461Y024700D01*
X022546Y024799D02*
X022775Y024799D01*
X022775Y024897D02*
X022587Y024897D01*
X022597Y024996D02*
X022775Y024996D01*
X022775Y025094D02*
X022590Y025094D01*
X022549Y025193D02*
X022775Y025193D01*
X022775Y025291D02*
X022470Y025291D01*
X022455Y024306D02*
X022775Y024306D01*
X022775Y024208D02*
X022543Y024208D01*
X022584Y024109D02*
X022775Y024109D01*
X022775Y024011D02*
X022597Y024011D01*
X022593Y023912D02*
X022775Y023912D01*
X022775Y023814D02*
X022552Y023814D01*
X022476Y023715D02*
X022775Y023715D01*
X022775Y023617D02*
X022311Y023617D01*
X022440Y023321D02*
X022775Y023321D01*
X022775Y023223D02*
X022537Y023223D01*
X022578Y023124D02*
X022775Y023124D01*
X022775Y023026D02*
X022597Y023026D01*
X022597Y022927D02*
X022775Y022927D01*
X022775Y022829D02*
X022558Y022829D01*
X022491Y022730D02*
X022775Y022730D01*
X022775Y022632D02*
X022347Y022632D01*
X022425Y022336D02*
X022775Y022336D01*
X022775Y022238D02*
X022523Y022238D01*
X022572Y022139D02*
X022775Y022139D01*
X022775Y022041D02*
X022597Y022041D01*
X022597Y021942D02*
X022775Y021942D01*
X022775Y021844D02*
X022564Y021844D01*
X022506Y021745D02*
X022775Y021745D01*
X022775Y021647D02*
X022383Y021647D01*
X022389Y021351D02*
X022775Y021351D01*
X022775Y021253D02*
X022508Y021253D01*
X022565Y021154D02*
X022775Y021154D01*
X022775Y021056D02*
X022597Y021056D01*
X022597Y020957D02*
X022775Y020957D01*
X022775Y020859D02*
X022571Y020859D01*
X022521Y020760D02*
X022775Y020760D01*
X022775Y020662D02*
X022420Y020662D01*
X022353Y020366D02*
X022775Y020366D01*
X022775Y020268D02*
X022493Y020268D01*
X022559Y020169D02*
X022775Y020169D01*
X022775Y020071D02*
X022597Y020071D01*
X022597Y019972D02*
X022775Y019972D01*
X022775Y019874D02*
X022577Y019874D01*
X021906Y020268D02*
X021493Y020268D01*
X021536Y020225D02*
X021424Y020336D01*
X021536Y020225D02*
X021597Y020079D01*
X021597Y019921D01*
X021597Y019972D02*
X021803Y019972D01*
X021803Y020071D02*
X021597Y020071D01*
X021559Y020169D02*
X021840Y020169D01*
X020953Y025685D02*
X016441Y025685D01*
X016343Y025784D02*
X020860Y025784D01*
X020819Y025882D02*
X016244Y025882D01*
X016146Y025981D02*
X020803Y025981D01*
X020915Y026276D02*
X015850Y026276D01*
X015752Y026375D02*
X021067Y026375D01*
X020026Y027754D02*
X014373Y027754D01*
X014274Y027852D02*
X020125Y027852D01*
X020223Y027951D02*
X019988Y027951D01*
X019949Y027934D02*
X020107Y028000D01*
X020228Y028121D01*
X020293Y028279D01*
X020293Y028450D01*
X020228Y028608D01*
X020107Y028729D01*
X019949Y028794D01*
X019778Y028794D01*
X019619Y028729D01*
X019499Y028608D01*
X019433Y028450D01*
X019433Y028279D01*
X019499Y028121D01*
X019619Y028000D01*
X019778Y027934D01*
X019949Y027934D01*
X019738Y027951D02*
X014176Y027951D01*
X014077Y028049D02*
X019570Y028049D01*
X019487Y028148D02*
X013979Y028148D01*
X013880Y028246D02*
X019447Y028246D01*
X019433Y028345D02*
X013782Y028345D01*
X013683Y028443D02*
X019433Y028443D01*
X019471Y028542D02*
X013585Y028542D01*
X013486Y028640D02*
X019531Y028640D01*
X019643Y028739D02*
X013388Y028739D01*
X013289Y028837D02*
X020325Y028837D01*
X020325Y028739D02*
X020083Y028739D01*
X020195Y028640D02*
X020325Y028640D01*
X020325Y028542D02*
X020255Y028542D01*
X020293Y028443D02*
X020325Y028443D01*
X020325Y028345D02*
X020293Y028345D01*
X020280Y028246D02*
X020325Y028246D01*
X020325Y028148D02*
X020239Y028148D01*
X020156Y028049D02*
X020322Y028049D01*
X019928Y027655D02*
X019355Y027655D01*
X019483Y027557D02*
X019829Y027557D01*
X019731Y027458D02*
X019538Y027458D01*
X019562Y027360D02*
X019632Y027360D01*
X019048Y027655D02*
X018355Y027655D01*
X018483Y027557D02*
X018920Y027557D01*
X018865Y027458D02*
X018538Y027458D01*
X018562Y027360D02*
X018842Y027360D01*
X018842Y027261D02*
X018562Y027261D01*
X018562Y027163D02*
X018842Y027163D01*
X018842Y027064D02*
X018562Y027064D01*
X018562Y026966D02*
X018842Y026966D01*
X018842Y026867D02*
X018562Y026867D01*
X018562Y026769D02*
X018842Y026769D01*
X018870Y026670D02*
X018534Y026670D01*
X018473Y026572D02*
X018930Y026572D01*
X018072Y026473D02*
X017332Y026473D01*
X017273Y026449D02*
X017406Y026504D01*
X017507Y026605D01*
X017562Y026737D01*
X017562Y027401D01*
X017507Y027533D01*
X017406Y027634D01*
X017273Y027689D01*
X017130Y027689D01*
X016998Y027634D01*
X016896Y027533D01*
X016842Y027401D01*
X016842Y026737D01*
X016896Y026605D01*
X016998Y026504D01*
X017130Y026449D01*
X017273Y026449D01*
X017072Y026473D02*
X016437Y026473D01*
X016417Y026458D02*
X016469Y026496D01*
X016514Y026542D01*
X016552Y026594D01*
X016582Y026652D01*
X016602Y026713D01*
X016612Y026777D01*
X016612Y027039D01*
X016232Y027039D01*
X016232Y027099D01*
X016612Y027099D01*
X016612Y027361D01*
X016602Y027425D01*
X016582Y027486D01*
X016552Y027544D01*
X016514Y027596D01*
X016469Y027642D01*
X016417Y027680D01*
X016359Y027709D01*
X016298Y027729D01*
X016234Y027739D01*
X016232Y027739D01*
X016232Y027099D01*
X016172Y027099D01*
X016172Y027739D01*
X016169Y027739D01*
X016106Y027729D01*
X016044Y027709D01*
X015987Y027680D01*
X015935Y027642D01*
X015889Y027596D01*
X015851Y027544D01*
X015822Y027486D01*
X015802Y027425D01*
X015792Y027361D01*
X015792Y027099D01*
X016172Y027099D01*
X016172Y027039D01*
X016232Y027039D01*
X016232Y026399D01*
X016234Y026399D01*
X016298Y026409D01*
X016359Y026429D01*
X016417Y026458D01*
X016536Y026572D02*
X016930Y026572D01*
X016870Y026670D02*
X016588Y026670D01*
X016610Y026769D02*
X016842Y026769D01*
X016842Y026867D02*
X016612Y026867D01*
X016612Y026966D02*
X016842Y026966D01*
X016842Y027064D02*
X016232Y027064D01*
X016172Y027064D02*
X015062Y027064D01*
X014964Y027163D02*
X015792Y027163D01*
X015792Y027261D02*
X014865Y027261D01*
X014767Y027360D02*
X015792Y027360D01*
X015813Y027458D02*
X014668Y027458D01*
X014570Y027557D02*
X015860Y027557D01*
X015953Y027655D02*
X014471Y027655D01*
X015161Y026966D02*
X015792Y026966D01*
X015792Y027039D02*
X015792Y026777D01*
X015802Y026713D01*
X015822Y026652D01*
X015851Y026594D01*
X015889Y026542D01*
X015935Y026496D01*
X015987Y026458D01*
X016044Y026429D01*
X016106Y026409D01*
X016169Y026399D01*
X016172Y026399D01*
X016172Y027039D01*
X015792Y027039D01*
X015792Y026867D02*
X015259Y026867D01*
X015358Y026769D02*
X015793Y026769D01*
X015816Y026670D02*
X015456Y026670D01*
X015555Y026572D02*
X015867Y026572D01*
X015966Y026473D02*
X015653Y026473D01*
X016172Y026473D02*
X016232Y026473D01*
X016232Y026572D02*
X016172Y026572D01*
X016172Y026670D02*
X016232Y026670D01*
X016232Y026769D02*
X016172Y026769D01*
X016172Y026867D02*
X016232Y026867D01*
X016232Y026966D02*
X016172Y026966D01*
X016172Y027163D02*
X016232Y027163D01*
X016232Y027261D02*
X016172Y027261D01*
X016172Y027360D02*
X016232Y027360D01*
X016232Y027458D02*
X016172Y027458D01*
X016172Y027557D02*
X016232Y027557D01*
X016232Y027655D02*
X016172Y027655D01*
X016450Y027655D02*
X017048Y027655D01*
X016920Y027557D02*
X016543Y027557D01*
X016591Y027458D02*
X016865Y027458D01*
X016842Y027360D02*
X016612Y027360D01*
X016612Y027261D02*
X016842Y027261D01*
X016842Y027163D02*
X016612Y027163D01*
X017355Y027655D02*
X018048Y027655D01*
X017920Y027557D02*
X017483Y027557D01*
X017538Y027458D02*
X017865Y027458D01*
X017842Y027360D02*
X017562Y027360D01*
X017562Y027261D02*
X017842Y027261D01*
X017842Y027163D02*
X017562Y027163D01*
X017562Y027064D02*
X017842Y027064D01*
X017842Y026966D02*
X017562Y026966D01*
X017562Y026867D02*
X017842Y026867D01*
X017842Y026769D02*
X017562Y026769D01*
X017534Y026670D02*
X017870Y026670D01*
X017930Y026572D02*
X017473Y026572D01*
X019494Y029133D02*
X012994Y029133D01*
X012895Y029231D02*
X019453Y029231D01*
X019433Y029330D02*
X012797Y029330D01*
X012698Y029428D02*
X019433Y029428D01*
X019465Y029527D02*
X012600Y029527D01*
X012501Y029625D02*
X019516Y029625D01*
X019614Y029724D02*
X012403Y029724D01*
X012304Y029822D02*
X020789Y029822D01*
X020848Y029724D02*
X020112Y029724D01*
X020210Y029625D02*
X020956Y029625D01*
X021151Y029625D02*
X021248Y029625D01*
X021248Y029555D02*
X021304Y029564D01*
X021371Y029586D01*
X021434Y029618D01*
X021491Y029659D01*
X021541Y029709D01*
X021582Y029766D01*
X021614Y029828D01*
X021636Y029895D01*
X021644Y029952D01*
X021248Y029952D01*
X021248Y029555D01*
X021248Y029724D02*
X021151Y029724D01*
X021151Y029822D02*
X021248Y029822D01*
X021248Y029921D02*
X021151Y029921D01*
X021151Y030118D02*
X021248Y030118D01*
X021248Y030216D02*
X021151Y030216D01*
X021151Y030315D02*
X021248Y030315D01*
X021517Y030315D02*
X021882Y030315D01*
X021808Y030216D02*
X021591Y030216D01*
X021631Y030118D02*
X021768Y030118D01*
X021760Y029921D02*
X021640Y029921D01*
X021611Y029822D02*
X021789Y029822D01*
X021848Y029724D02*
X021551Y029724D01*
X021444Y029625D02*
X021956Y029625D01*
X022151Y029625D02*
X022248Y029625D01*
X022248Y029724D02*
X022151Y029724D01*
X022151Y029822D02*
X022248Y029822D01*
X022248Y029921D02*
X022151Y029921D01*
X022151Y030118D02*
X022248Y030118D01*
X022248Y030216D02*
X022151Y030216D01*
X022151Y030315D02*
X022248Y030315D01*
X022517Y030315D02*
X022691Y030315D01*
X022706Y030216D02*
X022591Y030216D01*
X022631Y030118D02*
X022722Y030118D01*
X022248Y029330D02*
X022151Y029330D01*
X022151Y029231D02*
X022248Y029231D01*
X022248Y029133D02*
X022151Y029133D01*
X020897Y029330D02*
X020297Y029330D01*
X020395Y029231D02*
X020816Y029231D01*
X020773Y029133D02*
X020494Y029133D01*
X020501Y029125D02*
X020501Y029125D01*
X020325Y028936D02*
X019952Y028936D01*
X019774Y028936D02*
X013191Y028936D01*
X013092Y029034D02*
X019585Y029034D01*
X020141Y029034D02*
X020239Y029034D01*
X021475Y032777D02*
X002924Y032777D01*
X003023Y032876D02*
X021377Y032876D01*
X021278Y032974D02*
X003121Y032974D01*
X003220Y033073D02*
X021180Y033073D01*
X021080Y033171D02*
X003319Y033171D01*
X003455Y033270D02*
X020945Y033270D01*
X020809Y033368D02*
X003590Y033368D01*
X003726Y033467D02*
X020674Y033467D01*
X020538Y033565D02*
X003861Y033565D01*
X004026Y033664D02*
X020373Y033664D01*
X020180Y033762D02*
X004219Y033762D01*
X004413Y033861D02*
X019987Y033861D01*
X019792Y033959D02*
X004607Y033959D01*
X004911Y034058D02*
X019489Y034058D01*
X019186Y034156D02*
X005214Y034156D01*
X005720Y034255D02*
X018679Y034255D01*
X011261Y030512D02*
X001740Y030512D01*
X001755Y030610D02*
X011163Y030610D01*
X014222Y011797D02*
X015252Y011797D01*
X015114Y011698D02*
X014360Y011698D01*
X014458Y011600D02*
X015016Y011600D01*
X014975Y011501D02*
X014499Y011501D01*
X014540Y011403D02*
X014934Y011403D01*
X014924Y011304D02*
X014550Y011304D01*
X014550Y011206D02*
X014924Y011206D01*
X014938Y011107D02*
X014536Y011107D01*
X014495Y011009D02*
X014979Y011009D01*
X015026Y010910D02*
X014448Y010910D01*
X014350Y010812D02*
X015124Y010812D01*
X015277Y010713D02*
X014197Y010713D01*
X015797Y011797D02*
X016069Y011797D01*
X015971Y011698D02*
X015935Y011698D01*
X016521Y011895D02*
X017668Y011895D01*
X017569Y011797D02*
X017372Y011797D01*
X016521Y008546D02*
X022775Y008546D01*
X022775Y008448D02*
X016726Y008448D01*
X016930Y008349D02*
X020920Y008349D01*
X020909Y008341D02*
X020859Y008291D01*
X020818Y008234D01*
X020786Y008172D01*
X020764Y008105D01*
X020755Y008048D01*
X021151Y008048D01*
X021151Y007952D01*
X020755Y007952D01*
X020764Y007895D01*
X020786Y007828D01*
X020818Y007766D01*
X020859Y007709D01*
X020909Y007659D01*
X020965Y007618D01*
X021028Y007586D01*
X021095Y007564D01*
X021151Y007555D01*
X021151Y007952D01*
X021248Y007952D01*
X021248Y008048D01*
X021644Y008048D01*
X021636Y008105D01*
X021614Y008172D01*
X021582Y008234D01*
X021541Y008291D01*
X021491Y008341D01*
X021434Y008382D01*
X021371Y008414D01*
X021304Y008436D01*
X021248Y008445D01*
X021248Y008048D01*
X021151Y008048D01*
X021151Y008445D01*
X021095Y008436D01*
X021028Y008414D01*
X020965Y008382D01*
X020909Y008341D01*
X020829Y008251D02*
X017081Y008251D01*
X016998Y008316D02*
X016998Y008316D01*
X017204Y008152D02*
X020779Y008152D01*
X020756Y008054D02*
X017328Y008054D01*
X017425Y007976D02*
X017425Y007976D01*
X017425Y007976D01*
X017442Y007955D02*
X021151Y007955D01*
X021248Y007955D02*
X022151Y007955D01*
X022151Y007952D02*
X021753Y007952D01*
X021753Y007683D01*
X021763Y007645D01*
X021783Y007611D01*
X021811Y007583D01*
X021845Y007563D01*
X021883Y007553D01*
X022151Y007553D01*
X022151Y007952D01*
X022151Y008048D01*
X021753Y008048D01*
X021753Y008317D01*
X021763Y008355D01*
X021783Y008389D01*
X021811Y008417D01*
X021845Y008437D01*
X021883Y008447D01*
X022151Y008447D01*
X022151Y008048D01*
X022248Y008048D01*
X022647Y008048D01*
X022647Y008317D01*
X022636Y008355D01*
X022617Y008389D01*
X022589Y008417D01*
X022554Y008437D01*
X022516Y008447D01*
X022248Y008447D01*
X022248Y008048D01*
X022248Y007952D01*
X022647Y007952D01*
X022647Y007683D01*
X022636Y007645D01*
X022617Y007611D01*
X022589Y007583D01*
X022554Y007563D01*
X022516Y007553D01*
X022248Y007553D01*
X022248Y007952D01*
X022151Y007952D01*
X022151Y007857D02*
X022248Y007857D01*
X022248Y007955D02*
X022775Y007955D01*
X022775Y007857D02*
X022647Y007857D01*
X022647Y007758D02*
X022775Y007758D01*
X022775Y007660D02*
X022640Y007660D01*
X022546Y007561D02*
X022775Y007561D01*
X022775Y007463D02*
X017807Y007463D01*
X017855Y007364D02*
X022775Y007364D01*
X022775Y007266D02*
X017902Y007266D01*
X017950Y007167D02*
X022775Y007167D01*
X022775Y007069D02*
X017997Y007069D01*
X018003Y007056D02*
X018003Y007056D01*
X018023Y006970D02*
X022775Y006970D01*
X022775Y006872D02*
X018045Y006872D01*
X018068Y006773D02*
X022775Y006773D01*
X022775Y006675D02*
X018090Y006675D01*
X018113Y006576D02*
X022775Y006576D01*
X022775Y006478D02*
X018125Y006478D01*
X017756Y007561D02*
X021115Y007561D01*
X021151Y007561D02*
X021248Y007561D01*
X021248Y007555D02*
X021304Y007564D01*
X021371Y007586D01*
X021434Y007618D01*
X021491Y007659D01*
X021541Y007709D01*
X021582Y007766D01*
X021614Y007828D01*
X021636Y007895D01*
X021644Y007952D01*
X021248Y007952D01*
X021248Y007555D01*
X021284Y007561D02*
X021854Y007561D01*
X021759Y007660D02*
X021491Y007660D01*
X021576Y007758D02*
X021753Y007758D01*
X021753Y007857D02*
X021623Y007857D01*
X021644Y008054D02*
X021753Y008054D01*
X021753Y008152D02*
X021620Y008152D01*
X021570Y008251D02*
X021753Y008251D01*
X021762Y008349D02*
X021480Y008349D01*
X021248Y008349D02*
X021151Y008349D01*
X021151Y008251D02*
X021248Y008251D01*
X021248Y008152D02*
X021151Y008152D01*
X021151Y008054D02*
X021248Y008054D01*
X021248Y007857D02*
X021151Y007857D01*
X021151Y007758D02*
X021248Y007758D01*
X021248Y007660D02*
X021151Y007660D01*
X020908Y007660D02*
X017677Y007660D01*
X017599Y007758D02*
X020823Y007758D01*
X020776Y007857D02*
X017520Y007857D01*
X016107Y008645D02*
X021021Y008645D01*
X021378Y008645D02*
X022021Y008645D01*
X021895Y008743D02*
X021504Y008743D01*
X021564Y008842D02*
X021836Y008842D01*
X021803Y008940D02*
X021597Y008940D01*
X021597Y009039D02*
X021734Y009039D01*
X021636Y009137D02*
X021572Y009137D01*
X021537Y009236D02*
X021525Y009236D01*
X021439Y009334D02*
X021427Y009334D01*
X021595Y009531D02*
X022775Y009531D01*
X022775Y009433D02*
X021694Y009433D01*
X021792Y009334D02*
X021972Y009334D01*
X022121Y009603D02*
X021975Y009664D01*
X021863Y009775D01*
X021803Y009921D01*
X021803Y010079D01*
X021863Y010225D01*
X021975Y010336D01*
X022121Y010397D01*
X022279Y010397D01*
X022424Y010336D01*
X022536Y010225D01*
X022597Y010079D01*
X022597Y009921D01*
X022536Y009775D01*
X022424Y009664D01*
X022279Y009603D01*
X022121Y009603D01*
X022057Y009630D02*
X021342Y009630D01*
X021489Y009728D02*
X021910Y009728D01*
X021842Y009827D02*
X021557Y009827D01*
X021597Y009925D02*
X021803Y009925D01*
X021803Y010024D02*
X021597Y010024D01*
X021579Y010122D02*
X021821Y010122D01*
X021861Y010221D02*
X021538Y010221D01*
X021442Y010319D02*
X021957Y010319D01*
X022442Y010319D02*
X022775Y010319D01*
X022775Y010221D02*
X022538Y010221D01*
X022579Y010122D02*
X022775Y010122D01*
X022775Y010024D02*
X022597Y010024D01*
X022597Y009925D02*
X022775Y009925D01*
X022775Y009827D02*
X022557Y009827D01*
X022489Y009728D02*
X022775Y009728D01*
X022775Y009630D02*
X022342Y009630D01*
X022427Y009334D02*
X022775Y009334D01*
X022775Y009236D02*
X022525Y009236D01*
X022572Y009137D02*
X022775Y009137D01*
X022775Y009039D02*
X022597Y009039D01*
X022597Y008940D02*
X022775Y008940D01*
X022775Y008842D02*
X022564Y008842D01*
X022504Y008743D02*
X022775Y008743D01*
X022775Y008645D02*
X022378Y008645D01*
X022248Y008349D02*
X022151Y008349D01*
X022151Y008251D02*
X022248Y008251D01*
X022248Y008152D02*
X022151Y008152D01*
X022151Y008054D02*
X022248Y008054D01*
X022248Y007758D02*
X022151Y007758D01*
X022151Y007660D02*
X022248Y007660D01*
X022248Y007561D02*
X022151Y007561D01*
X022647Y008054D02*
X022775Y008054D01*
X022775Y008152D02*
X022647Y008152D01*
X022647Y008251D02*
X022775Y008251D01*
X022775Y008349D02*
X022638Y008349D01*
X021057Y009630D02*
X020997Y009630D01*
X020910Y009728D02*
X020898Y009728D01*
X020842Y009827D02*
X020800Y009827D01*
X020803Y009925D02*
X020701Y009925D01*
X020603Y010024D02*
X020803Y010024D01*
X020821Y010122D02*
X020504Y010122D01*
X020406Y010221D02*
X020861Y010221D01*
X020957Y010319D02*
X020307Y010319D01*
X020209Y010418D02*
X022775Y010418D01*
D17*
X019450Y015000D03*
X017950Y019000D03*
X017450Y020000D03*
X016950Y021000D03*
X016950Y021500D03*
X014950Y019000D03*
X013450Y020000D03*
X012950Y019000D03*
X012950Y021000D03*
X012450Y021000D03*
X010950Y021500D03*
X009450Y020000D03*
X007450Y020500D03*
X005450Y022000D03*
X008950Y024000D03*
X008950Y025500D03*
X009450Y032500D03*
X014450Y021500D03*
X020450Y024000D03*
M02*
