G75*
%MOIN*%
%OFA0B0*%
%FSLAX24Y24*%
%IPPOS*%
%LPD*%
%AMOC8*
5,1,8,0,0,1.08239X$1,22.5*
%
%ADD10C,0.0050*%
D10*
X001450Y006250D02*
X006450Y006250D01*
X006452Y006343D01*
X006458Y006436D01*
X006467Y006528D01*
X006481Y006620D01*
X006498Y006712D01*
X006519Y006802D01*
X006544Y006892D01*
X006572Y006981D01*
X006604Y007068D01*
X006640Y007154D01*
X006679Y007238D01*
X006721Y007321D01*
X006767Y007402D01*
X006816Y007481D01*
X006869Y007557D01*
X006924Y007632D01*
X006983Y007704D01*
X007045Y007774D01*
X007109Y007841D01*
X007176Y007905D01*
X007246Y007967D01*
X007318Y008026D01*
X007393Y008081D01*
X007469Y008134D01*
X007548Y008183D01*
X007629Y008229D01*
X007712Y008271D01*
X007796Y008310D01*
X007882Y008346D01*
X007969Y008378D01*
X008058Y008406D01*
X008148Y008431D01*
X008238Y008452D01*
X008330Y008469D01*
X008422Y008483D01*
X008514Y008492D01*
X008607Y008498D01*
X008700Y008500D01*
X015700Y008500D01*
X015793Y008498D01*
X015886Y008492D01*
X015978Y008483D01*
X016070Y008469D01*
X016162Y008452D01*
X016252Y008431D01*
X016342Y008406D01*
X016431Y008378D01*
X016518Y008346D01*
X016604Y008310D01*
X016688Y008271D01*
X016771Y008229D01*
X016852Y008183D01*
X016931Y008134D01*
X017007Y008081D01*
X017082Y008026D01*
X017154Y007967D01*
X017224Y007905D01*
X017291Y007841D01*
X017355Y007774D01*
X017417Y007704D01*
X017476Y007632D01*
X017531Y007557D01*
X017584Y007481D01*
X017633Y007402D01*
X017679Y007321D01*
X017721Y007238D01*
X017760Y007154D01*
X017796Y007068D01*
X017828Y006981D01*
X017856Y006892D01*
X017881Y006802D01*
X017902Y006712D01*
X017919Y006620D01*
X017933Y006528D01*
X017942Y006436D01*
X017948Y006343D01*
X017950Y006250D01*
X022950Y006250D01*
X022950Y029500D01*
X022948Y029640D01*
X022942Y029780D01*
X022932Y029920D01*
X022919Y030060D01*
X022901Y030199D01*
X022879Y030338D01*
X022854Y030475D01*
X022825Y030613D01*
X022792Y030749D01*
X022755Y030884D01*
X022714Y031018D01*
X022669Y031151D01*
X022621Y031283D01*
X022569Y031413D01*
X022514Y031542D01*
X022455Y031669D01*
X022392Y031795D01*
X022326Y031919D01*
X022257Y032040D01*
X022184Y032160D01*
X022107Y032278D01*
X022028Y032393D01*
X021945Y032507D01*
X021859Y032617D01*
X021770Y032726D01*
X021678Y032832D01*
X021583Y032935D01*
X021486Y033036D01*
X021385Y033133D01*
X021282Y033228D01*
X021176Y033320D01*
X021067Y033409D01*
X020957Y033495D01*
X020843Y033578D01*
X020728Y033657D01*
X020610Y033734D01*
X020490Y033807D01*
X020369Y033876D01*
X020245Y033942D01*
X020119Y034005D01*
X019992Y034064D01*
X019863Y034119D01*
X019733Y034171D01*
X019601Y034219D01*
X019468Y034264D01*
X019334Y034305D01*
X019199Y034342D01*
X019063Y034375D01*
X018925Y034404D01*
X018788Y034429D01*
X018649Y034451D01*
X018510Y034469D01*
X018370Y034482D01*
X018230Y034492D01*
X018090Y034498D01*
X017950Y034500D01*
X006450Y034500D01*
X006310Y034498D01*
X006170Y034492D01*
X006030Y034482D01*
X005890Y034469D01*
X005751Y034451D01*
X005612Y034429D01*
X005475Y034404D01*
X005337Y034375D01*
X005201Y034342D01*
X005066Y034305D01*
X004932Y034264D01*
X004799Y034219D01*
X004667Y034171D01*
X004537Y034119D01*
X004408Y034064D01*
X004281Y034005D01*
X004155Y033942D01*
X004031Y033876D01*
X003910Y033807D01*
X003790Y033734D01*
X003672Y033657D01*
X003557Y033578D01*
X003443Y033495D01*
X003333Y033409D01*
X003224Y033320D01*
X003118Y033228D01*
X003015Y033133D01*
X002914Y033036D01*
X002817Y032935D01*
X002722Y032832D01*
X002630Y032726D01*
X002541Y032617D01*
X002455Y032507D01*
X002372Y032393D01*
X002293Y032278D01*
X002216Y032160D01*
X002143Y032040D01*
X002074Y031919D01*
X002008Y031795D01*
X001945Y031669D01*
X001886Y031542D01*
X001831Y031413D01*
X001779Y031283D01*
X001731Y031151D01*
X001686Y031018D01*
X001645Y030884D01*
X001608Y030749D01*
X001575Y030613D01*
X001546Y030475D01*
X001521Y030338D01*
X001499Y030199D01*
X001481Y030060D01*
X001468Y029920D01*
X001458Y029780D01*
X001452Y029640D01*
X001450Y029500D01*
X001450Y006250D01*
M02*
