%
M48
M72
T01C0.0120
T02C0.0320
T03C0.0394
T04C0.0492
%
T01
X9450Y32500
X8950Y25500
X8950Y24000
X10950Y21500
X12450Y21000
X12950Y21000
X13450Y20000
X12950Y19000
X14450Y21500
X14950Y19000
X16950Y21000
X16950Y21500
X17450Y20000
X17950Y19000
X19450Y15000
X20450Y24000
X9450Y20000
X7450Y20500
X5450Y22000
T02
X4993Y29510
X4993Y28510
X4895Y26764
X5895Y26764
X6895Y26764
X7895Y26764
X7993Y28510
X7993Y29510
X4895Y23764
X5895Y23764
X6895Y23764
X7895Y23764
X16202Y27069
X17202Y27069
X18202Y27069
X19202Y27069
X19863Y28364
X19863Y29364
X19202Y24069
X18202Y24069
X17202Y24069
X16202Y24069
T03
X2200Y30000
X2200Y29000
X2200Y28000
X2200Y27000
X2200Y26000
X2200Y25000
X2200Y24000
X2200Y23000
X2200Y22000
X2200Y21000
X2200Y20000
X2200Y19000
X2200Y18000
X2200Y17000
X2200Y16000
X2200Y15000
X2200Y14000
X2200Y13000
X2200Y12000
X2200Y11000
X2200Y10000
X2200Y9000
X2200Y8000
X3200Y8000
X3200Y9000
X3200Y10000
X3200Y11000
X3200Y12000
X3200Y13000
X3200Y14000
X3200Y15000
X3200Y16000
X3200Y17000
X3200Y18000
X3200Y19000
X3200Y20000
X3200Y21000
X3200Y22000
X3200Y23000
X3200Y24000
X3200Y25000
X3200Y26000
X3200Y27000
X3200Y28000
X3200Y29000
X3200Y30000
X22200Y30000
X22200Y29000
X22200Y28000
X22200Y27000
X22200Y26000
X22200Y25000
X22200Y24000
X22200Y23000
X22200Y22000
X22200Y21000
X22200Y20000
X22200Y19000
X22200Y18000
X22200Y17000
X22200Y16000
X22200Y15000
X22200Y14000
X22200Y13000
X22200Y12000
X22200Y11000
X22200Y10000
X22200Y9000
X22200Y8000
X21200Y8000
X21200Y9000
X21200Y10000
X21200Y11000
X21200Y12000
X21200Y13000
X21200Y14000
X21200Y15000
X21200Y16000
X21200Y17000
X21200Y18000
X21200Y19000
X21200Y20000
X21200Y21000
X21200Y22000
X21200Y23000
X21200Y24000
X21200Y25000
X21200Y26000
X21200Y27000
X21200Y28000
X21200Y29000
X21200Y30000
T04
X17099Y16575
X15524Y16575
X13950Y16575
X12375Y16575
X9816Y16575
X8241Y16575
X6666Y16575
X6666Y11260
X8241Y11260
X9816Y11260
X12375Y11260
X13950Y11260
X15524Y11260
X17099Y11260
M30
