G75*
%MOIN*%
%OFA0B0*%
%FSLAX24Y24*%
%IPPOS*%
%LPD*%
%AMOC8*
5,1,8,0,0,1.08239X$1,22.5*
%
%ADD10C,0.0060*%
%ADD11C,0.0050*%
%ADD12C,0.0000*%
%ADD13R,0.0040X0.0005*%
%ADD14R,0.0050X0.0005*%
%ADD15R,0.0060X0.0005*%
%ADD16R,0.0070X0.0005*%
%ADD17R,0.0085X0.0005*%
%ADD18R,0.0100X0.0005*%
%ADD19R,0.0120X0.0005*%
%ADD20R,0.0130X0.0005*%
%ADD21R,0.0135X0.0005*%
%ADD22R,0.0140X0.0005*%
%ADD23R,0.0145X0.0005*%
%ADD24R,0.0150X0.0005*%
%ADD25R,0.0025X0.0005*%
%ADD26R,0.0005X0.0005*%
%ADD27R,0.0020X0.0005*%
%ADD28R,0.0015X0.0005*%
%ADD29R,0.0010X0.0005*%
%ADD30R,0.0165X0.0005*%
%ADD31R,0.0155X0.0005*%
%ADD32R,0.0160X0.0005*%
%ADD33R,0.0075X0.0005*%
%ADD34R,0.0065X0.0005*%
%ADD35R,0.0030X0.0005*%
%ADD36R,0.0185X0.0005*%
%ADD37R,0.0180X0.0005*%
%ADD38R,0.0105X0.0005*%
%ADD39R,0.0035X0.0005*%
%ADD40R,0.0195X0.0005*%
%ADD41R,0.0200X0.0005*%
%ADD42R,0.0170X0.0005*%
%ADD43R,0.0045X0.0005*%
%ADD44R,0.0125X0.0005*%
%ADD45R,0.0210X0.0005*%
%ADD46R,0.0055X0.0005*%
%ADD47R,0.0220X0.0005*%
%ADD48R,0.0215X0.0005*%
%ADD49R,0.0235X0.0005*%
%ADD50R,0.0225X0.0005*%
%ADD51R,0.0205X0.0005*%
%ADD52R,0.0265X0.0005*%
%ADD53R,0.0255X0.0005*%
%ADD54R,0.0245X0.0005*%
%ADD55R,0.0410X0.0005*%
%ADD56R,0.0240X0.0005*%
%ADD57R,0.0080X0.0005*%
%ADD58R,0.0250X0.0005*%
%ADD59R,0.0285X0.0005*%
%ADD60R,0.0090X0.0005*%
%ADD61R,0.0270X0.0005*%
%ADD62R,0.0420X0.0005*%
%ADD63R,0.0095X0.0005*%
%ADD64R,0.0110X0.0005*%
%ADD65R,0.0300X0.0005*%
%ADD66R,0.0525X0.0005*%
%ADD67R,0.0260X0.0005*%
%ADD68R,0.0305X0.0005*%
%ADD69R,0.0430X0.0005*%
%ADD70R,0.0115X0.0005*%
%ADD71R,0.0315X0.0005*%
%ADD72R,0.0535X0.0005*%
%ADD73R,0.0295X0.0005*%
%ADD74R,0.0435X0.0005*%
%ADD75R,0.0275X0.0005*%
%ADD76R,0.0325X0.0005*%
%ADD77R,0.0545X0.0005*%
%ADD78R,0.0440X0.0005*%
%ADD79R,0.0280X0.0005*%
%ADD80R,0.0335X0.0005*%
%ADD81R,0.0555X0.0005*%
%ADD82R,0.0330X0.0005*%
%ADD83R,0.0320X0.0005*%
%ADD84R,0.0445X0.0005*%
%ADD85R,0.0345X0.0005*%
%ADD86R,0.0565X0.0005*%
%ADD87R,0.0340X0.0005*%
%ADD88R,0.0455X0.0005*%
%ADD89R,0.0360X0.0005*%
%ADD90R,0.0575X0.0005*%
%ADD91R,0.0355X0.0005*%
%ADD92R,0.0470X0.0005*%
%ADD93R,0.0290X0.0005*%
%ADD94R,0.0370X0.0005*%
%ADD95R,0.0585X0.0005*%
%ADD96R,0.0365X0.0005*%
%ADD97R,0.0375X0.0005*%
%ADD98R,0.0475X0.0005*%
%ADD99R,0.0380X0.0005*%
%ADD100R,0.0590X0.0005*%
%ADD101R,0.0385X0.0005*%
%ADD102R,0.0480X0.0005*%
%ADD103R,0.0390X0.0005*%
%ADD104R,0.0595X0.0005*%
%ADD105R,0.0395X0.0005*%
%ADD106R,0.0485X0.0005*%
%ADD107R,0.0400X0.0005*%
%ADD108R,0.0600X0.0005*%
%ADD109R,0.0405X0.0005*%
%ADD110R,0.0605X0.0005*%
%ADD111R,0.0415X0.0005*%
%ADD112R,0.0490X0.0005*%
%ADD113R,0.0495X0.0005*%
%ADD114R,0.0310X0.0005*%
%ADD115R,0.0615X0.0005*%
%ADD116R,0.0505X0.0005*%
%ADD117R,0.0425X0.0005*%
%ADD118R,0.0625X0.0005*%
%ADD119R,0.0510X0.0005*%
%ADD120R,0.0630X0.0005*%
%ADD121R,0.0515X0.0005*%
%ADD122R,0.0190X0.0005*%
%ADD123R,0.0635X0.0005*%
%ADD124R,0.0175X0.0005*%
%ADD125R,0.0465X0.0005*%
%ADD126R,0.0520X0.0005*%
%ADD127R,0.0530X0.0005*%
%ADD128R,0.0500X0.0005*%
%ADD129R,0.0540X0.0005*%
%ADD130R,0.0230X0.0005*%
%ADD131R,0.0350X0.0005*%
%ADD132R,0.0550X0.0005*%
%ADD133R,0.0460X0.0005*%
%ADD134R,0.0450X0.0005*%
%ADD135R,0.0560X0.0005*%
%ADD136R,0.0570X0.0005*%
%ADD137R,0.0620X0.0005*%
%ADD138R,0.0645X0.0005*%
%ADD139R,0.0655X0.0005*%
%ADD140R,0.0665X0.0005*%
%ADD141R,0.0680X0.0005*%
%ADD142R,0.0690X0.0005*%
%ADD143R,0.0705X0.0005*%
%ADD144R,0.0720X0.0005*%
%ADD145R,0.0730X0.0005*%
%ADD146R,0.0740X0.0005*%
%ADD147R,0.0745X0.0005*%
%ADD148R,0.0760X0.0005*%
%ADD149R,0.0780X0.0005*%
%ADD150R,0.0610X0.0005*%
%ADD151R,0.0795X0.0005*%
%ADD152R,0.0805X0.0005*%
%ADD153R,0.0640X0.0005*%
%ADD154R,0.0810X0.0005*%
%ADD155R,0.0820X0.0005*%
%ADD156R,0.0835X0.0005*%
%ADD157R,0.0670X0.0005*%
%ADD158R,0.0845X0.0005*%
%ADD159R,0.0860X0.0005*%
%ADD160R,0.0695X0.0005*%
%ADD161R,0.0875X0.0005*%
%ADD162R,0.0710X0.0005*%
%ADD163R,0.0890X0.0005*%
%ADD164R,0.0900X0.0005*%
%ADD165R,0.0905X0.0005*%
%ADD166R,0.0735X0.0005*%
%ADD167R,0.0915X0.0005*%
%ADD168R,0.0925X0.0005*%
%ADD169R,0.0940X0.0005*%
%ADD170R,0.0770X0.0005*%
%ADD171R,0.0960X0.0005*%
%ADD172R,0.0785X0.0005*%
%ADD173R,0.0965X0.0005*%
%ADD174R,0.0975X0.0005*%
%ADD175R,0.0990X0.0005*%
%ADD176R,0.1000X0.0005*%
%ADD177R,0.1015X0.0005*%
%ADD178R,0.1030X0.0005*%
%ADD179R,0.0850X0.0005*%
%ADD180R,0.1045X0.0005*%
%ADD181R,0.1055X0.0005*%
%ADD182R,0.1065X0.0005*%
%ADD183R,0.0885X0.0005*%
%ADD184R,0.1070X0.0005*%
%ADD185R,0.1080X0.0005*%
%ADD186R,0.1095X0.0005*%
%ADD187R,0.1110X0.0005*%
%ADD188R,0.0930X0.0005*%
%ADD189R,0.1120X0.0005*%
%ADD190R,0.0945X0.0005*%
%ADD191R,0.1130X0.0005*%
%ADD192R,0.0955X0.0005*%
%ADD193R,0.1140X0.0005*%
%ADD194R,0.1635X0.0005*%
%ADD195R,0.1640X0.0005*%
%ADD196R,0.0980X0.0005*%
%ADD197R,0.1650X0.0005*%
%ADD198R,0.0995X0.0005*%
%ADD199R,0.1655X0.0005*%
%ADD200R,0.1005X0.0005*%
%ADD201R,0.1660X0.0005*%
%ADD202R,0.1670X0.0005*%
%ADD203R,0.1025X0.0005*%
%ADD204R,0.1035X0.0005*%
%ADD205R,0.1680X0.0005*%
%ADD206R,0.1060X0.0005*%
%ADD207R,0.1690X0.0005*%
%ADD208R,0.1075X0.0005*%
%ADD209R,0.1085X0.0005*%
%ADD210R,0.1695X0.0005*%
%ADD211R,0.1100X0.0005*%
%ADD212R,0.1700X0.0005*%
%ADD213R,0.1645X0.0005*%
%ADD214R,0.1705X0.0005*%
%ADD215R,0.1665X0.0005*%
%ADD216R,0.1710X0.0005*%
%ADD217R,0.1675X0.0005*%
%ADD218R,0.1685X0.0005*%
%ADD219R,0.1715X0.0005*%
%ADD220R,0.1720X0.0005*%
%ADD221R,0.1730X0.0005*%
%ADD222R,0.1735X0.0005*%
%ADD223R,0.1740X0.0005*%
%ADD224R,0.1725X0.0005*%
%ADD225R,0.1630X0.0005*%
%ADD226R,0.1625X0.0005*%
%ADD227R,0.1615X0.0005*%
%ADD228R,0.1610X0.0005*%
%ADD229R,0.1605X0.0005*%
%ADD230R,0.1600X0.0005*%
%ADD231R,0.1595X0.0005*%
%ADD232R,0.1590X0.0005*%
%ADD233R,0.1585X0.0005*%
%ADD234R,0.1580X0.0005*%
%ADD235R,0.1575X0.0005*%
%ADD236R,0.1570X0.0005*%
%ADD237R,0.1565X0.0005*%
%ADD238R,0.1560X0.0005*%
%ADD239R,0.1555X0.0005*%
%ADD240R,0.1550X0.0005*%
%ADD241R,0.1545X0.0005*%
%ADD242R,0.1540X0.0005*%
%ADD243R,0.1535X0.0005*%
%ADD244R,0.1530X0.0005*%
%ADD245R,0.1525X0.0005*%
%ADD246R,0.1520X0.0005*%
%ADD247R,0.1515X0.0005*%
%ADD248R,0.1510X0.0005*%
%ADD249R,0.1505X0.0005*%
%ADD250R,0.1500X0.0005*%
%ADD251R,0.1495X0.0005*%
%ADD252R,0.1490X0.0005*%
%ADD253R,0.1620X0.0005*%
%ADD254R,0.1745X0.0005*%
%ADD255R,0.1750X0.0005*%
%ADD256R,0.1760X0.0005*%
%ADD257R,0.1765X0.0005*%
%ADD258R,0.1775X0.0005*%
%ADD259R,0.1780X0.0005*%
%ADD260R,0.1785X0.0005*%
%ADD261R,0.1790X0.0005*%
%ADD262R,0.1755X0.0005*%
%ADD263R,0.1795X0.0005*%
%ADD264R,0.1800X0.0005*%
%ADD265R,0.1805X0.0005*%
%ADD266R,0.1770X0.0005*%
%ADD267R,0.1810X0.0005*%
%ADD268R,0.1815X0.0005*%
%ADD269R,0.1820X0.0005*%
%ADD270R,0.1825X0.0005*%
%ADD271R,0.1835X0.0005*%
%ADD272R,0.1840X0.0005*%
%ADD273R,0.1845X0.0005*%
%ADD274R,0.1850X0.0005*%
%ADD275R,0.1830X0.0005*%
%ADD276R,0.1870X0.0005*%
%ADD277R,0.1900X0.0005*%
%ADD278R,0.1920X0.0005*%
%ADD279R,0.1935X0.0005*%
%ADD280R,0.1950X0.0005*%
%ADD281R,0.1965X0.0005*%
%ADD282R,0.2000X0.0005*%
%ADD283R,0.2045X0.0005*%
%ADD284R,0.2075X0.0005*%
%ADD285R,0.2100X0.0005*%
%ADD286R,0.2110X0.0005*%
%ADD287R,0.2125X0.0005*%
%ADD288R,0.2150X0.0005*%
%ADD289R,0.2190X0.0005*%
%ADD290R,0.1855X0.0005*%
%ADD291R,0.2230X0.0005*%
%ADD292R,0.2245X0.0005*%
%ADD293R,0.1930X0.0005*%
%ADD294R,0.2255X0.0005*%
%ADD295R,0.2260X0.0005*%
%ADD296R,0.2265X0.0005*%
%ADD297R,0.1985X0.0005*%
%ADD298R,0.2270X0.0005*%
%ADD299R,0.2020X0.0005*%
%ADD300R,0.2065X0.0005*%
%ADD301R,0.2275X0.0005*%
%ADD302R,0.2280X0.0005*%
%ADD303R,0.2130X0.0005*%
%ADD304R,0.2165X0.0005*%
%ADD305R,0.2185X0.0005*%
%ADD306R,0.2215X0.0005*%
%ADD307R,0.2235X0.0005*%
%ADD308R,0.2240X0.0005*%
%ADD309R,0.2250X0.0005*%
%ADD310R,0.2225X0.0005*%
%ADD311R,0.2220X0.0005*%
%ADD312R,0.2210X0.0005*%
%ADD313R,0.2285X0.0005*%
%ADD314R,0.2290X0.0005*%
%ADD315R,0.2295X0.0005*%
%ADD316R,0.2175X0.0005*%
%ADD317R,0.2135X0.0005*%
%ADD318R,0.2085X0.0005*%
%ADD319R,0.2055X0.0005*%
%ADD320R,0.2040X0.0005*%
%ADD321R,0.2005X0.0005*%
%ADD322R,0.1970X0.0005*%
%ADD323R,0.1890X0.0005*%
%ADD324R,0.1865X0.0005*%
%ADD325R,0.2195X0.0005*%
%ADD326R,0.2025X0.0005*%
%ADD327R,0.1940X0.0005*%
%ADD328R,0.1925X0.0005*%
%ADD329R,0.1895X0.0005*%
%ADD330R,0.1880X0.0005*%
%ADD331R,0.1905X0.0005*%
%ADD332R,0.1910X0.0005*%
%ADD333R,0.1915X0.0005*%
%ADD334R,0.2035X0.0005*%
%ADD335R,0.2060X0.0005*%
%ADD336R,0.2070X0.0005*%
%ADD337R,0.4230X0.0005*%
%ADD338R,0.4225X0.0005*%
%ADD339R,0.4220X0.0005*%
%ADD340R,0.4215X0.0005*%
%ADD341R,0.4205X0.0005*%
%ADD342R,0.4200X0.0005*%
%ADD343R,0.4195X0.0005*%
%ADD344R,0.4185X0.0005*%
%ADD345R,0.4180X0.0005*%
%ADD346R,0.4175X0.0005*%
%ADD347R,0.4170X0.0005*%
%ADD348R,0.4160X0.0005*%
%ADD349R,0.4150X0.0005*%
%ADD350R,0.4145X0.0005*%
%ADD351R,0.4140X0.0005*%
%ADD352R,0.4130X0.0005*%
%ADD353R,0.4125X0.0005*%
%ADD354R,0.4120X0.0005*%
%ADD355R,0.4110X0.0005*%
%ADD356R,0.4100X0.0005*%
%ADD357R,0.4095X0.0005*%
%ADD358R,0.4090X0.0005*%
%ADD359R,0.4085X0.0005*%
%ADD360R,0.4080X0.0005*%
%ADD361R,0.4075X0.0005*%
%ADD362R,0.4065X0.0005*%
%ADD363R,0.4055X0.0005*%
%ADD364R,0.4050X0.0005*%
%ADD365R,0.4045X0.0005*%
%ADD366R,0.4040X0.0005*%
%ADD367R,0.4030X0.0005*%
%ADD368R,0.4025X0.0005*%
%ADD369R,0.4020X0.0005*%
%ADD370R,0.4015X0.0005*%
%ADD371R,0.4005X0.0005*%
%ADD372R,0.4000X0.0005*%
%ADD373R,0.3995X0.0005*%
%ADD374R,0.3985X0.0005*%
%ADD375R,0.3980X0.0005*%
%ADD376R,0.3975X0.0005*%
%ADD377R,0.3970X0.0005*%
%ADD378R,0.3960X0.0005*%
%ADD379R,0.3950X0.0005*%
%ADD380R,0.3945X0.0005*%
%ADD381R,0.3935X0.0005*%
%ADD382R,0.3925X0.0005*%
%ADD383R,0.3920X0.0005*%
%ADD384R,0.3915X0.0005*%
%ADD385R,0.3910X0.0005*%
%ADD386R,0.3900X0.0005*%
%ADD387R,0.3895X0.0005*%
%ADD388R,0.3885X0.0005*%
%ADD389R,0.3880X0.0005*%
%ADD390R,0.3875X0.0005*%
%ADD391R,0.3890X0.0005*%
%ADD392R,0.3905X0.0005*%
%ADD393R,0.3930X0.0005*%
%ADD394R,0.3940X0.0005*%
%ADD395R,0.3965X0.0005*%
%ADD396R,0.3990X0.0005*%
%ADD397R,0.4035X0.0005*%
%ADD398R,0.4060X0.0005*%
%ADD399R,0.4070X0.0005*%
%ADD400R,0.4135X0.0005*%
%ADD401R,0.4190X0.0005*%
%ADD402R,0.4210X0.0005*%
%ADD403R,0.4235X0.0005*%
%ADD404R,0.4245X0.0005*%
%ADD405R,0.4250X0.0005*%
%ADD406R,0.4260X0.0005*%
%ADD407R,0.4265X0.0005*%
%ADD408R,0.4270X0.0005*%
%ADD409R,0.4280X0.0005*%
%ADD410R,0.4285X0.0005*%
%ADD411R,0.4295X0.0005*%
%ADD412R,0.4300X0.0005*%
%ADD413R,0.4305X0.0005*%
%ADD414R,0.4315X0.0005*%
%ADD415R,0.4320X0.0005*%
%ADD416R,0.4330X0.0005*%
%ADD417R,0.4335X0.0005*%
%ADD418R,0.4340X0.0005*%
%ADD419R,0.4345X0.0005*%
%ADD420R,0.4355X0.0005*%
%ADD421R,0.4360X0.0005*%
%ADD422R,0.4370X0.0005*%
%ADD423R,0.4375X0.0005*%
%ADD424R,0.4385X0.0005*%
%ADD425R,0.4390X0.0005*%
%ADD426R,0.4400X0.0005*%
%ADD427R,0.4410X0.0005*%
%ADD428R,0.4420X0.0005*%
%ADD429R,0.4430X0.0005*%
%ADD430R,0.4440X0.0005*%
%ADD431R,0.4450X0.0005*%
%ADD432R,0.4455X0.0005*%
%ADD433R,0.4465X0.0005*%
%ADD434R,0.4475X0.0005*%
%ADD435R,0.4485X0.0005*%
%ADD436R,0.4490X0.0005*%
%ADD437R,0.4500X0.0005*%
%ADD438R,0.4510X0.0005*%
%ADD439R,0.4520X0.0005*%
%ADD440R,0.4525X0.0005*%
%ADD441R,0.4535X0.0005*%
%ADD442R,0.4545X0.0005*%
%ADD443R,0.4550X0.0005*%
%ADD444R,0.4560X0.0005*%
%ADD445R,0.4565X0.0005*%
%ADD446R,0.4575X0.0005*%
%ADD447R,0.4580X0.0005*%
%ADD448R,0.4590X0.0005*%
%ADD449R,0.4595X0.0005*%
%ADD450R,0.4600X0.0005*%
%ADD451R,0.4610X0.0005*%
%ADD452R,0.4620X0.0005*%
%ADD453R,0.4625X0.0005*%
%ADD454R,0.4635X0.0005*%
%ADD455R,0.4645X0.0005*%
%ADD456R,0.4650X0.0005*%
%ADD457R,0.4660X0.0005*%
%ADD458R,0.4670X0.0005*%
%ADD459R,0.4675X0.0005*%
%ADD460R,0.4685X0.0005*%
%ADD461R,0.4690X0.0005*%
%ADD462R,0.4695X0.0005*%
%ADD463R,0.4705X0.0005*%
%ADD464R,0.4715X0.0005*%
%ADD465R,0.4720X0.0005*%
%ADD466R,0.4730X0.0005*%
%ADD467R,0.4735X0.0005*%
%ADD468R,0.4740X0.0005*%
%ADD469R,0.4745X0.0005*%
%ADD470R,0.4755X0.0005*%
%ADD471R,0.4760X0.0005*%
%ADD472R,0.4765X0.0005*%
%ADD473R,0.4750X0.0005*%
%ADD474R,0.4725X0.0005*%
%ADD475R,0.4710X0.0005*%
%ADD476R,0.4700X0.0005*%
%ADD477R,0.4680X0.0005*%
%ADD478R,0.1155X0.0005*%
%ADD479R,0.3480X0.0005*%
%ADD480R,0.3465X0.0005*%
%ADD481R,0.1125X0.0005*%
%ADD482R,0.3445X0.0005*%
%ADD483R,0.1190X0.0005*%
%ADD484R,0.2200X0.0005*%
%ADD485R,0.1175X0.0005*%
%ADD486R,0.1090X0.0005*%
%ADD487R,0.1165X0.0005*%
%ADD488R,0.2160X0.0005*%
%ADD489R,0.1145X0.0005*%
%ADD490R,0.1040X0.0005*%
%ADD491R,0.2105X0.0005*%
%ADD492R,0.1115X0.0005*%
%ADD493R,0.1995X0.0005*%
%ADD494R,0.0950X0.0005*%
%ADD495R,0.1945X0.0005*%
%ADD496R,0.1010X0.0005*%
%ADD497R,0.0935X0.0005*%
%ADD498R,0.0910X0.0005*%
%ADD499R,0.1875X0.0005*%
%ADD500R,0.0880X0.0005*%
%ADD501R,0.0865X0.0005*%
%ADD502R,0.0855X0.0005*%
%ADD503R,0.0920X0.0005*%
%ADD504R,0.0840X0.0005*%
%ADD505R,0.0825X0.0005*%
%ADD506R,0.0895X0.0005*%
%ADD507R,0.0815X0.0005*%
%ADD508R,0.0800X0.0005*%
%ADD509R,0.0790X0.0005*%
%ADD510R,0.0775X0.0005*%
%ADD511R,0.1480X0.0005*%
%ADD512R,0.0715X0.0005*%
%ADD513R,0.1455X0.0005*%
%ADD514R,0.1440X0.0005*%
%ADD515R,0.0700X0.0005*%
%ADD516R,0.1420X0.0005*%
%ADD517R,0.1400X0.0005*%
%ADD518R,0.0755X0.0005*%
%ADD519R,0.1365X0.0005*%
%ADD520R,0.1305X0.0005*%
%ADD521R,0.0725X0.0005*%
%ADD522R,0.1255X0.0005*%
%ADD523R,0.1225X0.0005*%
%ADD524R,0.1205X0.0005*%
%ADD525R,0.0685X0.0005*%
%ADD526R,0.1185X0.0005*%
%ADD527R,0.1150X0.0005*%
%ADD528R,0.1105X0.0005*%
%ADD529R,0.0580X0.0005*%
%ADD530R,0.1050X0.0005*%
%ADD531R,0.1020X0.0005*%
%ADD532R,0.0985X0.0005*%
%ADD533R,0.0970X0.0005*%
%ADD534R,0.0870X0.0005*%
D10*
X005211Y018180D02*
X005531Y018180D01*
X005638Y018286D01*
X005531Y018393D01*
X005211Y018393D01*
X005211Y018500D02*
X005211Y018180D01*
X005211Y018500D02*
X005318Y018607D01*
X005531Y018607D01*
X005855Y018607D02*
X006176Y018607D01*
X006282Y018500D01*
X006176Y018393D01*
X005962Y018393D01*
X005855Y018286D01*
X005962Y018180D01*
X006282Y018180D01*
X006499Y018607D02*
X006606Y018607D01*
X006819Y018393D01*
X006819Y018180D02*
X006819Y018607D01*
X007037Y018500D02*
X007037Y018393D01*
X007464Y018393D01*
X007464Y018286D02*
X007464Y018500D01*
X007357Y018607D01*
X007144Y018607D01*
X007037Y018500D01*
X007144Y018180D02*
X007357Y018180D01*
X007464Y018286D01*
X007682Y018180D02*
X008002Y018180D01*
X008109Y018286D01*
X008109Y018500D01*
X008002Y018607D01*
X007682Y018607D01*
X007682Y018820D02*
X007682Y018180D01*
X008326Y018180D02*
X008326Y018500D01*
X008433Y018607D01*
X008753Y018607D01*
X008753Y018180D01*
X008971Y018393D02*
X008971Y018500D01*
X009077Y018607D01*
X009291Y018607D01*
X009398Y018500D01*
X009398Y018286D01*
X009291Y018180D01*
X009077Y018180D01*
X008971Y018393D02*
X009398Y018393D01*
X009615Y018500D02*
X009615Y018180D01*
X009615Y018500D02*
X009722Y018607D01*
X009935Y018607D01*
X010042Y018500D01*
X010042Y018820D02*
X010042Y018180D01*
X010687Y018180D02*
X010260Y018820D01*
X010152Y019230D02*
X010045Y019336D01*
X010152Y019443D01*
X010365Y019443D01*
X010472Y019550D01*
X010365Y019657D01*
X010045Y019657D01*
X009827Y019657D02*
X009827Y019230D01*
X009827Y019657D02*
X009507Y019657D01*
X009400Y019550D01*
X009400Y019230D01*
X009183Y019336D02*
X009183Y019550D01*
X009076Y019657D01*
X008863Y019657D01*
X008756Y019550D01*
X008756Y019443D01*
X009183Y019443D01*
X009183Y019336D02*
X009076Y019230D01*
X008863Y019230D01*
X008538Y019230D02*
X008218Y019230D01*
X008111Y019336D01*
X008218Y019443D01*
X008432Y019443D01*
X008538Y019550D01*
X008432Y019657D01*
X008111Y019657D01*
X007894Y019336D02*
X007787Y019336D01*
X007787Y019230D01*
X007894Y019230D01*
X007894Y019336D01*
X007571Y019336D02*
X007465Y019230D01*
X007251Y019230D01*
X007144Y019336D01*
X007144Y019550D01*
X007251Y019657D01*
X007465Y019657D01*
X007571Y019550D01*
X007571Y019336D01*
X006927Y019230D02*
X006927Y019657D01*
X006927Y019443D02*
X006713Y019657D01*
X006607Y019657D01*
X006390Y019550D02*
X006390Y019336D01*
X006283Y019230D01*
X005963Y019230D01*
X005963Y019123D02*
X005963Y019657D01*
X006283Y019657D01*
X006390Y019550D01*
X006176Y019016D02*
X006069Y019016D01*
X005963Y019123D01*
X005853Y021330D02*
X005640Y021330D01*
X005533Y021436D01*
X005533Y021650D01*
X005640Y021757D01*
X005853Y021757D01*
X005960Y021650D01*
X005960Y021436D01*
X005853Y021330D01*
X006178Y021436D02*
X006284Y021543D01*
X006498Y021543D01*
X006605Y021650D01*
X006498Y021757D01*
X006178Y021757D01*
X006178Y021436D02*
X006284Y021330D01*
X006605Y021330D01*
X006821Y021757D02*
X006928Y021757D01*
X007142Y021543D01*
X007142Y021330D02*
X007142Y021757D01*
X007359Y021650D02*
X007359Y021543D01*
X007786Y021543D01*
X007786Y021436D02*
X007786Y021650D01*
X007680Y021757D01*
X007466Y021757D01*
X007359Y021650D01*
X007466Y021330D02*
X007680Y021330D01*
X007786Y021436D01*
X008004Y021330D02*
X008324Y021330D01*
X008431Y021436D01*
X008431Y021650D01*
X008324Y021757D01*
X008004Y021757D01*
X008004Y021970D02*
X008004Y021330D01*
X008434Y020707D02*
X008754Y020707D01*
X008861Y020600D01*
X008861Y020386D01*
X008754Y020280D01*
X008434Y020280D01*
X008434Y020173D02*
X008434Y020707D01*
X008434Y020173D02*
X008540Y020066D01*
X008647Y020066D01*
X009077Y020707D02*
X009184Y020707D01*
X009398Y020493D01*
X009398Y020280D02*
X009398Y020707D01*
X009615Y020600D02*
X009722Y020707D01*
X009935Y020707D01*
X010042Y020600D01*
X010042Y020386D01*
X009935Y020280D01*
X009722Y020280D01*
X009615Y020386D01*
X009615Y020600D01*
X009613Y021330D02*
X009720Y021436D01*
X009720Y021650D01*
X009613Y021757D01*
X009400Y021757D01*
X009293Y021650D01*
X009293Y021543D01*
X009720Y021543D01*
X009613Y021330D02*
X009400Y021330D01*
X009075Y021330D02*
X009075Y021757D01*
X008755Y021757D01*
X008648Y021650D01*
X008648Y021330D01*
X008647Y022380D02*
X008754Y022486D01*
X008754Y022913D01*
X008861Y022807D02*
X008647Y022807D01*
X009078Y022700D02*
X009078Y022380D01*
X009078Y022700D02*
X009185Y022807D01*
X009505Y022807D01*
X009505Y022380D01*
X009723Y022593D02*
X009723Y022700D01*
X009829Y022807D01*
X010043Y022807D01*
X010150Y022700D01*
X010150Y022486D01*
X010043Y022380D01*
X009829Y022380D01*
X009723Y022593D02*
X010150Y022593D01*
X010367Y022700D02*
X010367Y022380D01*
X010581Y022380D02*
X010581Y022700D01*
X010474Y022807D01*
X010367Y022700D01*
X010581Y022700D02*
X010687Y022807D01*
X010794Y022807D01*
X010794Y022380D01*
X011012Y022380D02*
X011012Y022700D01*
X011118Y022807D01*
X011439Y022807D01*
X011439Y022380D01*
X011655Y022380D02*
X011868Y022380D01*
X011762Y022380D02*
X011762Y022807D01*
X011868Y022807D01*
X011762Y023020D02*
X011762Y023127D01*
X012086Y022700D02*
X012086Y022380D01*
X012406Y022380D01*
X012513Y022486D01*
X012406Y022593D01*
X012086Y022593D01*
X012086Y022700D02*
X012193Y022807D01*
X012406Y022807D01*
X012729Y022807D02*
X012943Y022807D01*
X012836Y022913D02*
X012836Y022486D01*
X012729Y022380D01*
X013053Y021970D02*
X013053Y021330D01*
X013373Y021330D01*
X013480Y021436D01*
X013480Y021650D01*
X013373Y021757D01*
X013053Y021757D01*
X012835Y021757D02*
X012835Y021330D01*
X012835Y021543D02*
X012622Y021757D01*
X012515Y021757D01*
X012298Y021650D02*
X012298Y021436D01*
X012191Y021330D01*
X011978Y021330D01*
X011871Y021543D02*
X011871Y021650D01*
X011978Y021757D01*
X012191Y021757D01*
X012298Y021650D01*
X012298Y021543D02*
X011871Y021543D01*
X011654Y021436D02*
X011547Y021330D01*
X011440Y021436D01*
X011333Y021330D01*
X011227Y021436D01*
X011227Y021757D01*
X011654Y021757D02*
X011654Y021436D01*
X011977Y020920D02*
X011977Y020280D01*
X012083Y020280D02*
X011870Y020280D01*
X011654Y020386D02*
X011547Y020280D01*
X011227Y020280D01*
X011227Y020707D01*
X011009Y020600D02*
X010902Y020493D01*
X010689Y020493D01*
X010582Y020386D01*
X010689Y020280D01*
X011009Y020280D01*
X011009Y020600D02*
X010902Y020707D01*
X010582Y020707D01*
X010364Y020386D02*
X010258Y020386D01*
X010258Y020280D01*
X010364Y020280D01*
X010364Y020386D01*
X010796Y019657D02*
X010689Y019550D01*
X010689Y019443D01*
X011116Y019443D01*
X011116Y019336D02*
X011116Y019550D01*
X011010Y019657D01*
X010796Y019657D01*
X010796Y019230D02*
X011010Y019230D01*
X011116Y019336D01*
X011333Y019230D02*
X011546Y019230D01*
X011439Y019230D02*
X011439Y019870D01*
X011546Y019870D01*
X011764Y019657D02*
X012084Y019657D01*
X012191Y019550D01*
X012191Y019336D01*
X012084Y019230D01*
X011764Y019230D01*
X011764Y019123D02*
X011764Y019657D01*
X011764Y019123D02*
X011870Y019016D01*
X011977Y019016D01*
X011869Y018607D02*
X011976Y018500D01*
X011976Y018286D01*
X011869Y018180D01*
X011656Y018180D01*
X011549Y018286D01*
X011549Y018500D01*
X011656Y018607D01*
X011869Y018607D01*
X012193Y018607D02*
X012514Y018607D01*
X012620Y018500D01*
X012620Y018286D01*
X012514Y018180D01*
X012193Y018180D01*
X012836Y018180D02*
X012943Y018180D01*
X012943Y018286D01*
X012836Y018286D01*
X012836Y018180D01*
X013160Y018286D02*
X013160Y018500D01*
X013267Y018607D01*
X013587Y018607D01*
X013587Y018820D02*
X013587Y018180D01*
X013267Y018180D01*
X013160Y018286D01*
X013805Y018180D02*
X013805Y018607D01*
X013805Y018180D02*
X014125Y018180D01*
X014232Y018286D01*
X014232Y018607D01*
X014449Y018500D02*
X014449Y018180D01*
X014449Y018500D02*
X014556Y018607D01*
X014770Y018607D01*
X014876Y018500D01*
X015093Y018607D02*
X015306Y018607D01*
X015199Y018713D02*
X015199Y018286D01*
X015093Y018180D01*
X014876Y018180D02*
X014876Y018820D01*
X014771Y019230D02*
X014664Y019336D01*
X014664Y019657D01*
X014878Y019336D02*
X014771Y019230D01*
X014878Y019336D02*
X014984Y019230D01*
X015091Y019336D01*
X015091Y019657D01*
X015309Y019657D02*
X015309Y019336D01*
X015415Y019230D01*
X015522Y019336D01*
X015629Y019230D01*
X015736Y019336D01*
X015736Y019657D01*
X015953Y019657D02*
X015953Y019336D01*
X016060Y019230D01*
X016167Y019336D01*
X016274Y019230D01*
X016380Y019336D01*
X016380Y019657D01*
X016598Y019870D02*
X017025Y019230D01*
X017242Y018820D02*
X017669Y018180D01*
X017885Y018180D02*
X017992Y018180D01*
X017992Y018286D01*
X017885Y018286D01*
X017885Y018180D01*
X017885Y018500D02*
X017992Y018500D01*
X017992Y018607D01*
X017885Y018607D01*
X017885Y018500D01*
X018209Y018500D02*
X018209Y018286D01*
X018316Y018180D01*
X018636Y018180D01*
X018636Y017966D02*
X018636Y018607D01*
X018316Y018607D01*
X018209Y018500D01*
X018636Y019016D02*
X018636Y019657D01*
X018316Y019657D01*
X018209Y019550D01*
X018209Y019336D01*
X018316Y019230D01*
X018636Y019230D01*
X018852Y019230D02*
X018959Y019336D01*
X018959Y019763D01*
X019066Y019657D02*
X018852Y019657D01*
X019282Y019657D02*
X019496Y019657D01*
X019389Y019763D02*
X019389Y019336D01*
X019282Y019230D01*
X019713Y019230D02*
X019713Y019550D01*
X019820Y019657D01*
X020033Y019657D01*
X020140Y019550D01*
X020140Y019870D02*
X020140Y019230D01*
X020140Y018820D02*
X020140Y018180D01*
X020140Y018500D02*
X020033Y018607D01*
X019820Y018607D01*
X019713Y018500D01*
X019713Y018180D01*
X019389Y018286D02*
X019389Y018713D01*
X019496Y018607D02*
X019282Y018607D01*
X019066Y018607D02*
X018852Y018607D01*
X018959Y018713D02*
X018959Y018286D01*
X018852Y018180D01*
X019282Y018180D02*
X019389Y018286D01*
X017992Y019230D02*
X017992Y019336D01*
X017885Y019336D01*
X017885Y019230D01*
X017992Y019230D01*
X017992Y019550D02*
X017885Y019550D01*
X017885Y019657D01*
X017992Y019657D01*
X017992Y019550D01*
X017669Y019230D02*
X017242Y019870D01*
X017242Y020280D02*
X017455Y020280D01*
X017562Y020386D01*
X017562Y020600D01*
X017455Y020707D01*
X017242Y020707D01*
X017135Y020600D01*
X017135Y020493D01*
X017562Y020493D01*
X017779Y020280D02*
X018100Y020280D01*
X018207Y020386D01*
X018207Y020600D01*
X018100Y020707D01*
X017779Y020707D01*
X017779Y020920D02*
X017779Y020280D01*
X018424Y020280D02*
X018424Y020600D01*
X018531Y020707D01*
X018851Y020707D01*
X018851Y020280D01*
X019069Y020493D02*
X019069Y020600D01*
X019175Y020707D01*
X019389Y020707D01*
X019496Y020600D01*
X019496Y020386D01*
X019389Y020280D01*
X019175Y020280D01*
X019069Y020493D02*
X019496Y020493D01*
X019713Y020600D02*
X019713Y020280D01*
X019713Y020600D02*
X019820Y020707D01*
X020033Y020707D01*
X020140Y020600D01*
X020140Y020920D02*
X020140Y020280D01*
X019927Y021330D02*
X020140Y021543D01*
X020140Y021757D01*
X019927Y021970D01*
X019710Y021863D02*
X019710Y021436D01*
X019604Y021330D01*
X019390Y021330D01*
X019283Y021436D01*
X019066Y021330D02*
X018852Y021543D01*
X018852Y021757D01*
X019066Y021970D01*
X019283Y021863D02*
X019390Y021970D01*
X019604Y021970D01*
X019710Y021863D01*
X019820Y022380D02*
X019713Y022486D01*
X019713Y022593D01*
X019820Y022700D01*
X020140Y022700D01*
X019820Y022700D02*
X019713Y022807D01*
X019713Y022913D01*
X019820Y023020D01*
X020140Y023020D01*
X020140Y022380D01*
X019820Y022380D01*
X019496Y022486D02*
X019496Y022700D01*
X019389Y022807D01*
X019175Y022807D01*
X019069Y022700D01*
X019069Y022593D01*
X019496Y022593D01*
X019496Y022486D02*
X019389Y022380D01*
X019175Y022380D01*
X018851Y022486D02*
X018744Y022593D01*
X018424Y022593D01*
X018424Y022700D02*
X018424Y022380D01*
X018744Y022380D01*
X018851Y022486D01*
X018744Y022807D02*
X018531Y022807D01*
X018424Y022700D01*
X018207Y022700D02*
X018207Y022486D01*
X018100Y022380D01*
X017779Y022380D01*
X017779Y022273D02*
X017779Y022807D01*
X018100Y022807D01*
X018207Y022700D01*
X017993Y022166D02*
X017886Y022166D01*
X017779Y022273D01*
X017562Y022380D02*
X017348Y022380D01*
X017455Y022380D02*
X017455Y023020D01*
X017562Y023020D01*
X017132Y022700D02*
X017132Y022486D01*
X017026Y022380D01*
X016812Y022380D01*
X016705Y022593D02*
X016705Y022700D01*
X016812Y022807D01*
X017026Y022807D01*
X017132Y022700D01*
X017132Y022593D02*
X016705Y022593D01*
X016489Y021970D02*
X016489Y021330D01*
X016276Y021330D02*
X016703Y021330D01*
X016920Y021436D02*
X016920Y021863D01*
X017347Y021436D01*
X017240Y021330D01*
X017027Y021330D01*
X016920Y021436D01*
X016703Y021757D02*
X016489Y021970D01*
X016920Y021863D02*
X017027Y021970D01*
X017240Y021970D01*
X017347Y021863D01*
X017347Y021436D01*
X017565Y021330D02*
X017992Y021330D01*
X017565Y021757D01*
X017565Y021863D01*
X017671Y021970D01*
X017885Y021970D01*
X017992Y021863D01*
X016917Y020707D02*
X016917Y020280D01*
X016917Y020493D02*
X016704Y020707D01*
X016597Y020707D01*
X016380Y020600D02*
X016274Y020493D01*
X016060Y020493D01*
X015953Y020386D01*
X016060Y020280D01*
X016380Y020280D01*
X016380Y020600D02*
X016274Y020707D01*
X015953Y020707D01*
X015629Y020707D02*
X015415Y020707D01*
X015309Y020600D01*
X015309Y020280D01*
X015629Y020280D01*
X015736Y020386D01*
X015629Y020493D01*
X015309Y020493D01*
X015091Y020386D02*
X015091Y020813D01*
X014984Y020920D01*
X014771Y020920D01*
X014664Y020813D01*
X014664Y020600D01*
X014771Y020493D01*
X014771Y020707D01*
X014984Y020707D01*
X014984Y020493D01*
X014771Y020493D01*
X014664Y020386D02*
X014771Y020280D01*
X014984Y020280D01*
X015091Y020386D01*
X014447Y020280D02*
X014233Y020280D01*
X014340Y020280D02*
X014340Y020707D01*
X014447Y020707D01*
X014340Y020920D02*
X014340Y021027D01*
X014342Y021330D02*
X014342Y021757D01*
X014555Y021970D01*
X014769Y021757D01*
X014769Y021330D01*
X014769Y021650D02*
X014342Y021650D01*
X014124Y021757D02*
X014124Y021330D01*
X014124Y021757D02*
X013804Y021757D01*
X013697Y021650D01*
X013697Y021330D01*
X013590Y020707D02*
X013910Y020707D01*
X014017Y020600D01*
X014017Y020386D01*
X013910Y020280D01*
X013590Y020280D01*
X013372Y020386D02*
X013372Y020600D01*
X013266Y020707D01*
X012945Y020707D01*
X012728Y020707D02*
X012728Y020386D01*
X012621Y020280D01*
X012301Y020280D01*
X012301Y020707D01*
X012083Y020920D02*
X011977Y020920D01*
X011654Y020707D02*
X011654Y020386D01*
X012408Y019550D02*
X012408Y019230D01*
X012729Y019230D01*
X012835Y019336D01*
X012729Y019443D01*
X012408Y019443D01*
X012408Y019550D02*
X012515Y019657D01*
X012729Y019657D01*
X013053Y019550D02*
X013053Y019443D01*
X013480Y019443D01*
X013480Y019336D02*
X013480Y019550D01*
X013373Y019657D01*
X013160Y019657D01*
X013053Y019550D01*
X013160Y019230D02*
X013373Y019230D01*
X013480Y019336D01*
X013697Y019336D02*
X013697Y019550D01*
X013804Y019657D01*
X014124Y019657D01*
X014124Y019870D02*
X014124Y019230D01*
X013804Y019230D01*
X013697Y019336D01*
X014340Y019336D02*
X014340Y019230D01*
X014447Y019230D01*
X014447Y019336D01*
X014340Y019336D01*
X013372Y020386D02*
X013266Y020280D01*
X012945Y020280D01*
X013480Y022380D02*
X013480Y022807D01*
X013480Y022593D02*
X013266Y022807D01*
X013160Y022807D01*
X013697Y022700D02*
X013697Y022593D01*
X014124Y022593D01*
X014124Y022486D02*
X014124Y022700D01*
X014018Y022807D01*
X013804Y022807D01*
X013697Y022700D01*
X013804Y022380D02*
X014018Y022380D01*
X014124Y022486D01*
X014341Y022380D02*
X014447Y022486D01*
X014447Y022913D01*
X014341Y022807D02*
X014554Y022807D01*
X014772Y022700D02*
X014772Y022380D01*
X014772Y022700D02*
X014878Y022807D01*
X015199Y022807D01*
X015199Y022380D01*
X015416Y022380D02*
X015843Y022380D01*
X015843Y023020D01*
X015416Y023020D01*
X015630Y022700D02*
X015843Y022700D01*
X015631Y021970D02*
X015844Y021863D01*
X016058Y021650D01*
X015738Y021650D01*
X015631Y021543D01*
X015631Y021436D01*
X015738Y021330D01*
X015951Y021330D01*
X016058Y021436D01*
X016058Y021650D01*
X015629Y018927D02*
X015629Y018820D01*
X015629Y018607D02*
X015629Y018180D01*
X015736Y018180D02*
X015522Y018180D01*
X015953Y018180D02*
X016274Y018180D01*
X016380Y018286D01*
X016380Y018500D01*
X016274Y018607D01*
X015953Y018607D01*
X015953Y018073D01*
X016060Y017966D01*
X016167Y017966D01*
X015736Y018607D02*
X015629Y018607D01*
X016598Y018820D02*
X017025Y018180D01*
X011331Y018180D02*
X011331Y018607D01*
X011225Y018607D01*
X011118Y018500D01*
X011011Y018607D01*
X010904Y018500D01*
X010904Y018180D01*
X011118Y018180D02*
X011118Y018500D01*
X010472Y019230D02*
X010152Y019230D01*
X010364Y021330D02*
X010364Y021970D01*
X010364Y021650D02*
X009937Y021650D01*
X009937Y021970D02*
X009937Y021330D01*
X007786Y022486D02*
X007680Y022380D01*
X007466Y022380D01*
X007359Y022486D01*
X007359Y022593D01*
X007466Y022700D01*
X007680Y022700D01*
X007786Y022807D01*
X007786Y022913D01*
X007680Y023020D01*
X007466Y023020D01*
X007359Y022913D01*
X007142Y022807D02*
X007142Y022486D01*
X007035Y022380D01*
X006715Y022380D01*
X006715Y022273D02*
X006821Y022166D01*
X006928Y022166D01*
X006715Y022273D02*
X006715Y022807D01*
X006497Y022700D02*
X006390Y022593D01*
X006177Y022593D01*
X006070Y022486D01*
X006177Y022380D01*
X006497Y022380D01*
X006497Y022700D02*
X006390Y022807D01*
X006070Y022807D01*
X005853Y022807D02*
X005639Y022807D01*
X005746Y022913D02*
X005746Y022486D01*
X005639Y022380D01*
X005423Y022486D02*
X005423Y022700D01*
X005316Y022807D01*
X005103Y022807D01*
X004996Y022700D01*
X004996Y022593D01*
X005423Y022593D01*
X005423Y022486D02*
X005316Y022380D01*
X005103Y022380D01*
X004778Y022380D02*
X004778Y022807D01*
X004672Y022807D01*
X004565Y022700D01*
X004458Y022807D01*
X004351Y022700D01*
X004351Y022380D01*
X004565Y022380D02*
X004565Y022700D01*
X004995Y021757D02*
X004888Y021650D01*
X004888Y021330D01*
X005316Y021330D02*
X005316Y021757D01*
X004995Y021757D01*
D11*
X006450Y006250D02*
X001450Y006250D01*
X001450Y029500D01*
X001452Y029640D01*
X001458Y029780D01*
X001468Y029920D01*
X001481Y030060D01*
X001499Y030199D01*
X001521Y030338D01*
X001546Y030475D01*
X001575Y030613D01*
X001608Y030749D01*
X001645Y030884D01*
X001686Y031018D01*
X001731Y031151D01*
X001779Y031283D01*
X001831Y031413D01*
X001886Y031542D01*
X001945Y031669D01*
X002008Y031795D01*
X002074Y031919D01*
X002143Y032040D01*
X002216Y032160D01*
X002293Y032278D01*
X002372Y032393D01*
X002455Y032507D01*
X002541Y032617D01*
X002630Y032726D01*
X002722Y032832D01*
X002817Y032935D01*
X002914Y033036D01*
X003015Y033133D01*
X003118Y033228D01*
X003224Y033320D01*
X003333Y033409D01*
X003443Y033495D01*
X003557Y033578D01*
X003672Y033657D01*
X003790Y033734D01*
X003910Y033807D01*
X004031Y033876D01*
X004155Y033942D01*
X004281Y034005D01*
X004408Y034064D01*
X004537Y034119D01*
X004667Y034171D01*
X004799Y034219D01*
X004932Y034264D01*
X005066Y034305D01*
X005201Y034342D01*
X005337Y034375D01*
X005475Y034404D01*
X005612Y034429D01*
X005751Y034451D01*
X005890Y034469D01*
X006030Y034482D01*
X006170Y034492D01*
X006310Y034498D01*
X006450Y034500D01*
X017950Y034500D01*
X018090Y034498D01*
X018230Y034492D01*
X018370Y034482D01*
X018510Y034469D01*
X018649Y034451D01*
X018788Y034429D01*
X018925Y034404D01*
X019063Y034375D01*
X019199Y034342D01*
X019334Y034305D01*
X019468Y034264D01*
X019601Y034219D01*
X019733Y034171D01*
X019863Y034119D01*
X019992Y034064D01*
X020119Y034005D01*
X020245Y033942D01*
X020369Y033876D01*
X020490Y033807D01*
X020610Y033734D01*
X020728Y033657D01*
X020843Y033578D01*
X020957Y033495D01*
X021067Y033409D01*
X021176Y033320D01*
X021282Y033228D01*
X021385Y033133D01*
X021486Y033036D01*
X021583Y032935D01*
X021678Y032832D01*
X021770Y032726D01*
X021859Y032617D01*
X021945Y032507D01*
X022028Y032393D01*
X022107Y032278D01*
X022184Y032160D01*
X022257Y032040D01*
X022326Y031919D01*
X022392Y031795D01*
X022455Y031669D01*
X022514Y031542D01*
X022569Y031413D01*
X022621Y031283D01*
X022669Y031151D01*
X022714Y031018D01*
X022755Y030884D01*
X022792Y030749D01*
X022825Y030613D01*
X022854Y030475D01*
X022879Y030338D01*
X022901Y030199D01*
X022919Y030060D01*
X022932Y029920D01*
X022942Y029780D01*
X022948Y029640D01*
X022950Y029500D01*
X022950Y006250D01*
X017950Y006250D01*
X017948Y006343D01*
X017942Y006436D01*
X017933Y006528D01*
X017919Y006620D01*
X017902Y006712D01*
X017881Y006802D01*
X017856Y006892D01*
X017828Y006981D01*
X017796Y007068D01*
X017760Y007154D01*
X017721Y007238D01*
X017679Y007321D01*
X017633Y007402D01*
X017584Y007481D01*
X017531Y007557D01*
X017476Y007632D01*
X017417Y007704D01*
X017355Y007774D01*
X017291Y007841D01*
X017224Y007905D01*
X017154Y007967D01*
X017082Y008026D01*
X017007Y008081D01*
X016931Y008134D01*
X016852Y008183D01*
X016771Y008229D01*
X016688Y008271D01*
X016604Y008310D01*
X016518Y008346D01*
X016431Y008378D01*
X016342Y008406D01*
X016252Y008431D01*
X016162Y008452D01*
X016070Y008469D01*
X015978Y008483D01*
X015886Y008492D01*
X015793Y008498D01*
X015700Y008500D01*
X008700Y008500D01*
X008607Y008498D01*
X008514Y008492D01*
X008422Y008483D01*
X008330Y008469D01*
X008238Y008452D01*
X008148Y008431D01*
X008058Y008406D01*
X007969Y008378D01*
X007882Y008346D01*
X007796Y008310D01*
X007712Y008271D01*
X007629Y008229D01*
X007548Y008183D01*
X007469Y008134D01*
X007393Y008081D01*
X007318Y008026D01*
X007246Y007967D01*
X007176Y007905D01*
X007109Y007841D01*
X007045Y007774D01*
X006983Y007704D01*
X006924Y007632D01*
X006869Y007557D01*
X006816Y007481D01*
X006767Y007402D01*
X006721Y007321D01*
X006679Y007238D01*
X006640Y007154D01*
X006604Y007068D01*
X006572Y006981D01*
X006544Y006892D01*
X006519Y006802D01*
X006498Y006712D01*
X006481Y006620D01*
X006467Y006528D01*
X006458Y006436D01*
X006452Y006343D01*
X006450Y006250D01*
D12*
X016646Y023407D02*
X016646Y023417D01*
X016641Y023417D01*
X016639Y023415D01*
X016639Y023412D01*
X016641Y023410D01*
X016646Y023410D01*
X016648Y023410D02*
X016648Y023415D01*
X016650Y023417D01*
X016652Y023415D01*
X016652Y023410D01*
X016655Y023410D02*
X016655Y023417D01*
X016653Y023417D01*
X016652Y023415D01*
X016658Y023415D02*
X016659Y023417D01*
X016664Y023417D01*
X016664Y023420D02*
X016664Y023410D01*
X016659Y023410D01*
X016658Y023412D01*
X016658Y023415D01*
X016667Y023412D02*
X016667Y023410D01*
X016669Y023410D01*
X016669Y023412D01*
X016667Y023412D01*
X016671Y023412D02*
X016671Y023415D01*
X016673Y023417D01*
X016676Y023417D01*
X016678Y023415D01*
X016678Y023412D01*
X016676Y023410D01*
X016673Y023410D01*
X016671Y023412D01*
X016681Y023410D02*
X016686Y023410D01*
X016687Y023412D01*
X016687Y023415D01*
X016686Y023417D01*
X016681Y023417D01*
X016681Y023408D01*
X016682Y023407D01*
X016684Y023407D01*
X016690Y023412D02*
X016690Y023415D01*
X016692Y023417D01*
X016695Y023417D01*
X016697Y023415D01*
X016697Y023412D01*
X016695Y023410D01*
X016692Y023410D01*
X016690Y023412D01*
X016699Y023410D02*
X016706Y023410D01*
X016706Y023420D01*
X016708Y023420D02*
X016708Y023410D01*
X016712Y023413D01*
X016715Y023410D01*
X016715Y023420D01*
X016717Y023420D02*
X016717Y023410D01*
X016717Y023415D02*
X016724Y023415D01*
X016727Y023413D02*
X016727Y023412D01*
X016728Y023410D01*
X016732Y023410D01*
X016733Y023412D01*
X016736Y023412D02*
X016736Y023418D01*
X016738Y023420D01*
X016741Y023420D01*
X016743Y023418D01*
X016743Y023412D01*
X016741Y023410D01*
X016738Y023410D01*
X016736Y023412D01*
X016732Y023415D02*
X016728Y023415D01*
X016727Y023413D01*
X016724Y023410D02*
X016724Y023420D01*
X016727Y023418D02*
X016728Y023420D01*
X016732Y023420D01*
X016733Y023418D01*
X016733Y023417D01*
X016732Y023415D01*
X016745Y023420D02*
X016752Y023410D01*
X016756Y023410D02*
X016759Y023410D01*
X016761Y023412D01*
X016761Y023415D01*
X016759Y023417D01*
X016756Y023417D01*
X016754Y023415D01*
X016754Y023413D01*
X016761Y023413D01*
X016764Y023410D02*
X016767Y023410D01*
X016765Y023410D02*
X016765Y023420D01*
X016767Y023420D01*
X016770Y023417D02*
X016775Y023417D01*
X016776Y023415D01*
X016776Y023412D01*
X016775Y023410D01*
X016770Y023410D01*
X016770Y023408D02*
X016770Y023417D01*
X016770Y023408D02*
X016771Y023407D01*
X016773Y023407D01*
X016779Y023410D02*
X016784Y023410D01*
X016786Y023412D01*
X016784Y023413D01*
X016779Y023413D01*
X016779Y023415D02*
X016779Y023410D01*
X016779Y023415D02*
X016781Y023417D01*
X016784Y023417D01*
X016788Y023420D02*
X016795Y023420D01*
X016795Y023410D01*
X016788Y023410D01*
X016791Y023415D02*
X016795Y023415D01*
X016797Y023420D02*
X016804Y023410D01*
X016806Y023410D02*
X016812Y023410D01*
X016813Y023412D01*
X016812Y023413D01*
X016806Y023413D01*
X016806Y023415D02*
X016806Y023410D01*
X016806Y023415D02*
X016808Y023417D01*
X016812Y023417D01*
X016818Y023417D02*
X016818Y023410D01*
X016819Y023410D02*
X016816Y023410D01*
X016822Y023410D02*
X016827Y023410D01*
X016829Y023412D01*
X016829Y023415D01*
X016827Y023417D01*
X016822Y023417D01*
X016819Y023417D02*
X016818Y023417D01*
X016818Y023420D02*
X016818Y023422D01*
X016822Y023420D02*
X016822Y023410D01*
X016831Y023413D02*
X016838Y023413D01*
X016838Y023412D02*
X016838Y023415D01*
X016836Y023417D01*
X016833Y023417D01*
X016831Y023415D01*
X016831Y023413D01*
X016833Y023410D02*
X016836Y023410D01*
X016838Y023412D01*
X016840Y023410D02*
X016840Y023420D01*
X016844Y023417D01*
X016847Y023420D01*
X016847Y023410D01*
X016856Y023410D02*
X016849Y023420D01*
X016859Y023417D02*
X016860Y023417D01*
X016864Y023413D01*
X016866Y023413D02*
X016873Y023413D01*
X016873Y023412D02*
X016873Y023415D01*
X016871Y023417D01*
X016868Y023417D01*
X016866Y023415D01*
X016866Y023413D01*
X016868Y023410D02*
X016871Y023410D01*
X016873Y023412D01*
X016876Y023410D02*
X016881Y023410D01*
X016882Y023412D01*
X016882Y023415D01*
X016881Y023417D01*
X016876Y023417D01*
X016876Y023420D02*
X016876Y023410D01*
X016885Y023410D02*
X016885Y023415D01*
X016886Y023417D01*
X016891Y023417D01*
X016891Y023410D01*
X016894Y023412D02*
X016894Y023415D01*
X016896Y023417D01*
X016899Y023417D01*
X016901Y023415D01*
X016901Y023412D01*
X016899Y023410D01*
X016896Y023410D01*
X016894Y023412D01*
X016903Y023410D02*
X016903Y023420D01*
X016910Y023420D02*
X016910Y023410D01*
X016907Y023413D01*
X016903Y023410D01*
X016913Y023410D02*
X016914Y023412D01*
X016914Y023418D01*
X016913Y023417D02*
X016916Y023417D01*
X016920Y023417D02*
X016920Y023410D01*
X016919Y023410D02*
X016922Y023410D01*
X016925Y023412D02*
X016926Y023410D01*
X016931Y023410D01*
X016931Y023420D01*
X016926Y023420D01*
X016925Y023418D01*
X016925Y023417D01*
X016926Y023415D01*
X016931Y023415D01*
X016926Y023415D02*
X016925Y023413D01*
X016925Y023412D01*
X016922Y023417D02*
X016920Y023417D01*
X016920Y023420D02*
X016920Y023422D01*
X016934Y023420D02*
X016934Y023410D01*
X016941Y023420D01*
X016941Y023410D01*
X016950Y023410D02*
X016943Y023420D01*
X016952Y023417D02*
X016957Y023417D01*
X016959Y023415D01*
X016957Y023413D01*
X016954Y023413D01*
X016952Y023412D01*
X016954Y023410D01*
X016959Y023410D01*
X016962Y023410D02*
X016963Y023412D01*
X016963Y023418D01*
X016962Y023417D02*
X016965Y023417D01*
X016968Y023415D02*
X016968Y023410D01*
X016968Y023415D02*
X016969Y023417D01*
X016974Y023417D01*
X016974Y023410D01*
X016977Y023413D02*
X016984Y023413D01*
X016984Y023412D02*
X016984Y023415D01*
X016982Y023417D01*
X016979Y023417D01*
X016977Y023415D01*
X016977Y023413D01*
X016979Y023410D02*
X016982Y023410D01*
X016984Y023412D01*
X016986Y023410D02*
X016986Y023415D01*
X016988Y023417D01*
X016989Y023415D01*
X016989Y023410D01*
X016993Y023410D02*
X016993Y023417D01*
X016991Y023417D01*
X016989Y023415D01*
X016995Y023417D02*
X016995Y023410D01*
X017000Y023410D01*
X017002Y023412D01*
X017002Y023417D01*
X017004Y023417D02*
X017009Y023417D01*
X017011Y023415D01*
X017011Y023412D01*
X017009Y023410D01*
X017004Y023410D01*
X017014Y023412D02*
X017014Y023415D01*
X017015Y023417D01*
X017019Y023417D01*
X017020Y023415D01*
X017020Y023412D01*
X017019Y023410D01*
X017015Y023410D01*
X017014Y023412D01*
X017023Y023412D02*
X017023Y023418D01*
X017025Y023420D01*
X017030Y023420D01*
X017030Y023410D01*
X017025Y023410D01*
X017023Y023412D01*
X017032Y023420D02*
X017039Y023410D01*
X017041Y023410D02*
X017046Y023410D01*
X017048Y023412D01*
X017048Y023417D01*
X017050Y023415D02*
X017050Y023413D01*
X017057Y023413D01*
X017057Y023412D02*
X017057Y023415D01*
X017056Y023417D01*
X017052Y023417D01*
X017050Y023415D01*
X017052Y023410D02*
X017056Y023410D01*
X017057Y023412D01*
X017060Y023410D02*
X017063Y023410D01*
X017062Y023410D02*
X017062Y023420D01*
X017063Y023420D01*
X017066Y023420D02*
X017066Y023410D01*
X017071Y023410D01*
X017073Y023412D01*
X017073Y023415D01*
X017071Y023417D01*
X017066Y023417D01*
X017075Y023415D02*
X017075Y023410D01*
X017080Y023410D01*
X017082Y023412D01*
X017080Y023413D01*
X017075Y023413D01*
X017075Y023415D02*
X017077Y023417D01*
X017080Y023417D01*
X017084Y023415D02*
X017084Y023410D01*
X017084Y023415D02*
X017086Y023417D01*
X017089Y023417D01*
X017091Y023415D01*
X017093Y023415D02*
X017093Y023413D01*
X017100Y023413D01*
X017100Y023412D02*
X017100Y023415D01*
X017098Y023417D01*
X017095Y023417D01*
X017093Y023415D01*
X017091Y023420D02*
X017091Y023410D01*
X017095Y023410D02*
X017098Y023410D01*
X017100Y023412D01*
X017103Y023410D02*
X017108Y023410D01*
X017109Y023412D01*
X017109Y023415D01*
X017108Y023417D01*
X017103Y023417D01*
X017103Y023408D01*
X017104Y023407D01*
X017106Y023407D01*
X017112Y023417D02*
X017114Y023417D01*
X017117Y023413D01*
X017120Y023412D02*
X017120Y023415D01*
X017121Y023417D01*
X017125Y023417D01*
X017126Y023415D01*
X017126Y023412D01*
X017125Y023410D01*
X017121Y023410D01*
X017120Y023412D01*
X017117Y023410D02*
X017117Y023417D01*
X017129Y023415D02*
X017129Y023413D01*
X017135Y023413D01*
X017135Y023412D02*
X017135Y023415D01*
X017134Y023417D01*
X017130Y023417D01*
X017129Y023415D01*
X017130Y023410D02*
X017134Y023410D01*
X017135Y023412D01*
X017138Y023410D02*
X017143Y023410D01*
X017145Y023412D01*
X017145Y023415D01*
X017143Y023417D01*
X017138Y023417D01*
X017138Y023408D01*
X017140Y023407D01*
X017141Y023407D01*
X017154Y023410D02*
X017147Y023420D01*
X017156Y023417D02*
X017161Y023417D01*
X017163Y023415D01*
X017161Y023413D01*
X017158Y023413D01*
X017156Y023412D01*
X017158Y023410D01*
X017163Y023410D01*
X017166Y023417D02*
X017167Y023417D01*
X017171Y023413D01*
X017173Y023413D02*
X017180Y023413D01*
X017180Y023412D02*
X017180Y023415D01*
X017178Y023417D01*
X017175Y023417D01*
X017173Y023415D01*
X017173Y023413D01*
X017175Y023410D02*
X017178Y023410D01*
X017180Y023412D01*
X017182Y023412D02*
X017184Y023413D01*
X017187Y023413D01*
X017189Y023415D01*
X017187Y023417D01*
X017182Y023417D01*
X017182Y023412D02*
X017184Y023410D01*
X017189Y023410D01*
X017192Y023412D02*
X017192Y023420D01*
X017198Y023420D02*
X017198Y023412D01*
X017197Y023410D01*
X017193Y023410D01*
X017192Y023412D01*
X017201Y023420D02*
X017208Y023410D01*
X017171Y023410D02*
X017171Y023417D01*
X017045Y023407D02*
X017043Y023407D01*
X017041Y023408D01*
X017041Y023417D01*
X016864Y023410D02*
X016864Y023417D01*
D13*
X015930Y024790D03*
X014670Y025415D03*
X014005Y025075D03*
X012785Y025065D03*
X012075Y025065D03*
X011785Y025065D03*
X011325Y026920D03*
X009805Y025830D03*
X008505Y025545D03*
X007725Y025360D03*
X014025Y031450D03*
D14*
X011325Y026925D03*
X010585Y026105D03*
X010360Y025820D03*
X010080Y025825D03*
X009805Y025825D03*
X009640Y025540D03*
X009215Y025070D03*
X008925Y025070D03*
X008680Y025845D03*
X007975Y025845D03*
X010260Y026685D03*
X011780Y025070D03*
X012245Y025845D03*
X015930Y024795D03*
D15*
X015930Y024800D03*
X014680Y025410D03*
X013205Y025075D03*
X012490Y025545D03*
X011775Y025075D03*
X010365Y025815D03*
X009635Y025545D03*
X009375Y025170D03*
X009210Y025075D03*
X007730Y025350D03*
X010380Y031470D03*
X013005Y026905D03*
D16*
X012770Y025080D03*
X011770Y025080D03*
X010590Y026100D03*
X011320Y026935D03*
X008915Y025080D03*
X007735Y025345D03*
X015925Y024805D03*
D17*
X015923Y024810D03*
X014928Y025060D03*
X013993Y025085D03*
X013188Y025085D03*
X012763Y025085D03*
X013163Y026090D03*
X014168Y025900D03*
X011763Y025085D03*
X011333Y025570D03*
X010598Y026090D03*
X009623Y025555D03*
X009198Y025085D03*
X008488Y025560D03*
X010383Y031460D03*
D18*
X010385Y031455D03*
X013015Y026915D03*
X013170Y026075D03*
X012470Y025560D03*
X012755Y025125D03*
X012755Y025120D03*
X012755Y025115D03*
X012755Y025110D03*
X012755Y025105D03*
X012755Y025100D03*
X013180Y025095D03*
X012050Y025085D03*
X011755Y025095D03*
X011330Y025580D03*
X010605Y026080D03*
X010385Y025800D03*
X010105Y025800D03*
X009830Y025795D03*
X009615Y025570D03*
X009615Y025565D03*
X009190Y025105D03*
X009190Y025100D03*
X009190Y025095D03*
X008900Y025095D03*
X008900Y025090D03*
X007750Y025335D03*
X010260Y026705D03*
X014695Y025395D03*
X015915Y024815D03*
D19*
X015905Y024820D03*
X015680Y025895D03*
X016430Y025895D03*
X014705Y025380D03*
X014405Y025100D03*
X013170Y025630D03*
X013170Y025635D03*
X013170Y025640D03*
X013170Y025820D03*
X012770Y025650D03*
X012765Y025640D03*
X012450Y025640D03*
X012450Y025645D03*
X012460Y025290D03*
X012460Y025285D03*
X012460Y025240D03*
X012460Y025235D03*
X012040Y025235D03*
X012040Y025230D03*
X012040Y025225D03*
X012040Y025220D03*
X012040Y025215D03*
X012040Y025210D03*
X012040Y025205D03*
X012040Y025200D03*
X012040Y025195D03*
X012040Y025190D03*
X012040Y025185D03*
X012040Y025180D03*
X012040Y025175D03*
X012040Y025170D03*
X012040Y025165D03*
X012040Y025160D03*
X012040Y025155D03*
X012040Y025150D03*
X012040Y025145D03*
X012040Y025140D03*
X012040Y025135D03*
X012040Y025130D03*
X012040Y025125D03*
X012040Y025120D03*
X012040Y025115D03*
X012040Y025110D03*
X012040Y025105D03*
X012040Y025240D03*
X012040Y025245D03*
X012040Y025250D03*
X012040Y025255D03*
X012040Y025260D03*
X012040Y025265D03*
X012040Y025270D03*
X012040Y025275D03*
X012040Y025280D03*
X012040Y025285D03*
X012040Y025290D03*
X012040Y025295D03*
X012040Y025300D03*
X012040Y025305D03*
X012040Y025310D03*
X012040Y025315D03*
X012040Y025320D03*
X012040Y025325D03*
X012040Y025330D03*
X012040Y025335D03*
X012040Y025340D03*
X012040Y025345D03*
X012040Y025350D03*
X012040Y025355D03*
X012040Y025360D03*
X012040Y025365D03*
X012040Y025370D03*
X012040Y025375D03*
X012040Y025380D03*
X012040Y025385D03*
X012040Y025390D03*
X012040Y025395D03*
X012040Y025400D03*
X012040Y025405D03*
X012040Y025410D03*
X012040Y025585D03*
X012040Y025590D03*
X012040Y025595D03*
X012040Y025600D03*
X012040Y025605D03*
X012040Y025610D03*
X012045Y025620D03*
X012045Y025625D03*
X012045Y025630D03*
X011745Y025625D03*
X011745Y025620D03*
X011745Y025615D03*
X011745Y025610D03*
X011745Y025605D03*
X011745Y025600D03*
X011740Y025645D03*
X011340Y025645D03*
X011340Y025640D03*
X011335Y025635D03*
X011335Y025630D03*
X011040Y025575D03*
X011040Y025570D03*
X011040Y025565D03*
X011040Y025560D03*
X011040Y025555D03*
X011040Y025550D03*
X011040Y025545D03*
X011040Y025540D03*
X011040Y025535D03*
X011040Y025530D03*
X011040Y025525D03*
X011040Y025520D03*
X011040Y025515D03*
X011040Y025510D03*
X011040Y025505D03*
X011040Y025500D03*
X011040Y025495D03*
X011040Y025490D03*
X011040Y025485D03*
X011040Y025480D03*
X011040Y025475D03*
X011040Y025470D03*
X011040Y025465D03*
X011040Y025460D03*
X011040Y025455D03*
X011040Y025450D03*
X011040Y025445D03*
X011040Y025440D03*
X011040Y025435D03*
X011040Y025430D03*
X011040Y025425D03*
X011040Y025420D03*
X011040Y025415D03*
X011040Y025410D03*
X011040Y025405D03*
X011040Y025400D03*
X011040Y025395D03*
X011040Y025390D03*
X011040Y025385D03*
X011040Y025380D03*
X011040Y025375D03*
X011040Y025370D03*
X011040Y025365D03*
X011040Y025360D03*
X011040Y025355D03*
X011040Y025350D03*
X011040Y025345D03*
X011040Y025340D03*
X011040Y025335D03*
X011040Y025330D03*
X011040Y025325D03*
X011040Y025320D03*
X011020Y025245D03*
X011020Y025645D03*
X010615Y025635D03*
X010615Y025630D03*
X010615Y025625D03*
X010615Y025620D03*
X010615Y025615D03*
X010615Y025610D03*
X010615Y025605D03*
X010615Y025600D03*
X010615Y025595D03*
X010615Y025590D03*
X010615Y025565D03*
X010615Y025535D03*
X010615Y025500D03*
X010615Y025490D03*
X010615Y025475D03*
X010615Y025465D03*
X010615Y025440D03*
X010615Y025405D03*
X010615Y025395D03*
X010615Y025370D03*
X010615Y025365D03*
X010615Y025355D03*
X010615Y025345D03*
X010615Y025330D03*
X010615Y025300D03*
X010615Y025295D03*
X010615Y025290D03*
X010615Y025285D03*
X010615Y025280D03*
X010615Y025275D03*
X010615Y025270D03*
X010620Y025260D03*
X010620Y025255D03*
X010625Y025250D03*
X010625Y025245D03*
X010380Y025230D03*
X010380Y025225D03*
X010380Y025220D03*
X010115Y025255D03*
X010115Y025260D03*
X010115Y025295D03*
X010115Y025300D03*
X010115Y025315D03*
X010115Y025335D03*
X010115Y025345D03*
X010115Y025350D03*
X010115Y025360D03*
X010115Y025375D03*
X010115Y025395D03*
X010115Y025400D03*
X010115Y025410D03*
X010115Y025415D03*
X010115Y025420D03*
X009840Y025240D03*
X009840Y025235D03*
X009840Y025230D03*
X009605Y025610D03*
X009605Y025615D03*
X009605Y025620D03*
X009590Y025655D03*
X009585Y025665D03*
X009200Y025650D03*
X009200Y025645D03*
X009195Y025640D03*
X009195Y025570D03*
X009195Y025440D03*
X008880Y025645D03*
X008880Y025650D03*
X008480Y025640D03*
X008475Y025620D03*
X008475Y025615D03*
X008475Y025610D03*
X008475Y025605D03*
X008475Y025600D03*
X008180Y025600D03*
X008180Y025595D03*
X008180Y025590D03*
X008180Y025585D03*
X008180Y025580D03*
X008180Y025575D03*
X008180Y025570D03*
X008180Y025565D03*
X008180Y025560D03*
X008180Y025555D03*
X008180Y025550D03*
X008180Y025545D03*
X008180Y025540D03*
X008180Y025535D03*
X008180Y025530D03*
X008180Y025525D03*
X008180Y025520D03*
X008180Y025515D03*
X008180Y025510D03*
X008180Y025505D03*
X008180Y025500D03*
X008180Y025495D03*
X008180Y025490D03*
X008180Y025485D03*
X008180Y025605D03*
X008180Y025610D03*
X008180Y025615D03*
X008175Y025630D03*
X008175Y025635D03*
X008175Y025640D03*
X008180Y025305D03*
X008180Y025300D03*
X008180Y025295D03*
X008180Y025290D03*
X008180Y025285D03*
X008180Y025280D03*
X008175Y025260D03*
X007775Y025245D03*
X007770Y025255D03*
X007760Y025590D03*
X007770Y025635D03*
X007770Y025640D03*
X010260Y026710D03*
X010615Y026055D03*
X010615Y026050D03*
X010615Y026045D03*
X010615Y026040D03*
X010615Y026035D03*
X010615Y026030D03*
X010615Y026000D03*
X010615Y025990D03*
X010615Y025970D03*
X010615Y025950D03*
X010615Y025935D03*
X010615Y025930D03*
X010615Y025920D03*
X010615Y025905D03*
X010615Y025890D03*
X010615Y025865D03*
X010615Y025860D03*
X010615Y025855D03*
X010615Y025850D03*
X010615Y025845D03*
X010615Y025840D03*
X010615Y025835D03*
X010615Y025830D03*
X014025Y031430D03*
D20*
X014025Y031425D03*
X010385Y031445D03*
X010620Y025650D03*
X010620Y025645D03*
X010635Y025230D03*
X010640Y025225D03*
X010640Y025220D03*
X011010Y025220D03*
X011010Y025225D03*
X011015Y025230D03*
X011015Y025235D03*
X011015Y025660D03*
X011010Y025670D03*
X011010Y025675D03*
X011345Y025665D03*
X011345Y025660D03*
X011350Y025675D03*
X011725Y025670D03*
X011730Y025665D03*
X012045Y025575D03*
X012060Y025665D03*
X012065Y025670D03*
X012045Y025430D03*
X012045Y025425D03*
X012450Y025310D03*
X012450Y025215D03*
X012440Y025670D03*
X012775Y025665D03*
X012780Y025675D03*
X013165Y025655D03*
X010375Y025195D03*
X010375Y025190D03*
X010370Y025185D03*
X010110Y025220D03*
X010110Y025225D03*
X010110Y025230D03*
X009845Y025205D03*
X009845Y025200D03*
X009845Y025195D03*
X009605Y025225D03*
X009600Y025215D03*
X009605Y025300D03*
X009605Y025305D03*
X009600Y025310D03*
X009580Y025675D03*
X009575Y025680D03*
X009210Y025675D03*
X009210Y025670D03*
X009205Y025660D03*
X008875Y025665D03*
X008875Y025670D03*
X008500Y025675D03*
X008495Y025670D03*
X008490Y025665D03*
X008160Y025670D03*
X008155Y025675D03*
X008150Y025680D03*
X008175Y025470D03*
X008175Y025320D03*
X008170Y025245D03*
X008170Y025240D03*
X008165Y025235D03*
X007785Y025215D03*
X007780Y025225D03*
X007765Y025580D03*
X007775Y025655D03*
X007775Y025660D03*
X007780Y025665D03*
X007780Y025670D03*
X015900Y024825D03*
D21*
X015898Y024830D03*
X015678Y025070D03*
X016433Y025070D03*
X014928Y025890D03*
X014713Y025370D03*
X014713Y025365D03*
X014398Y025110D03*
X013973Y025110D03*
X013163Y025660D03*
X012783Y025680D03*
X012438Y025675D03*
X012433Y025680D03*
X012448Y025315D03*
X012448Y025210D03*
X012448Y025205D03*
X012443Y025200D03*
X012443Y025195D03*
X012048Y025570D03*
X012068Y025675D03*
X012073Y025680D03*
X011723Y025675D03*
X011718Y025680D03*
X011348Y025670D03*
X011008Y025680D03*
X011008Y025215D03*
X010648Y025210D03*
X010643Y025215D03*
X010623Y025655D03*
X010623Y025815D03*
X010368Y025180D03*
X010113Y025210D03*
X010113Y025215D03*
X009973Y025055D03*
X009853Y025185D03*
X009848Y025190D03*
X009598Y025210D03*
X009573Y025685D03*
X009213Y025680D03*
X009203Y025560D03*
X008873Y025675D03*
X008508Y025685D03*
X008503Y025680D03*
X008148Y025685D03*
X008143Y025690D03*
X007973Y025840D03*
X007783Y025675D03*
X007793Y025210D03*
X007798Y025205D03*
X008148Y025210D03*
X008153Y025215D03*
X008153Y025220D03*
X008158Y025225D03*
X008163Y025230D03*
X008173Y025325D03*
X008173Y025330D03*
X011303Y026950D03*
X013023Y026930D03*
X014058Y026655D03*
D22*
X013160Y025665D03*
X012965Y025840D03*
X012785Y025685D03*
X012430Y025685D03*
X012425Y025690D03*
X012420Y025695D03*
X012440Y025330D03*
X012440Y025325D03*
X012445Y025320D03*
X012440Y025190D03*
X012050Y025435D03*
X012050Y025565D03*
X012075Y025685D03*
X012080Y025690D03*
X011715Y025685D03*
X011710Y025690D03*
X011540Y025840D03*
X011360Y025685D03*
X011355Y025680D03*
X011000Y025685D03*
X011005Y025210D03*
X011000Y025205D03*
X010650Y025205D03*
X010625Y025660D03*
X010110Y025205D03*
X010250Y025055D03*
X009595Y025205D03*
X009590Y025200D03*
X009590Y025195D03*
X009585Y025190D03*
X009580Y025185D03*
X009595Y025315D03*
X009570Y025690D03*
X009220Y025685D03*
X009205Y025555D03*
X008865Y025680D03*
X008515Y025695D03*
X008510Y025690D03*
X008140Y025695D03*
X008170Y025465D03*
X008145Y025205D03*
X007810Y025190D03*
X007805Y025195D03*
X007800Y025200D03*
X007785Y025680D03*
X014025Y031420D03*
X015140Y025595D03*
X015140Y025590D03*
X015140Y025585D03*
X015140Y025580D03*
X015140Y025575D03*
X015140Y025570D03*
X015140Y025565D03*
X015140Y025560D03*
X015140Y025555D03*
X014715Y025360D03*
X014715Y025355D03*
X014715Y025350D03*
X014715Y025345D03*
X014715Y025340D03*
X014715Y025335D03*
X015895Y024835D03*
D23*
X015893Y024840D03*
X015893Y024845D03*
X015138Y025540D03*
X015138Y025545D03*
X015138Y025550D03*
X015138Y025600D03*
X015138Y025605D03*
X015138Y025610D03*
X015138Y025615D03*
X014718Y025330D03*
X014718Y025325D03*
X014393Y025115D03*
X013968Y025115D03*
X014173Y025890D03*
X014058Y026660D03*
X013028Y026935D03*
X012253Y025840D03*
X012408Y025710D03*
X012413Y025705D03*
X012418Y025700D03*
X012438Y025335D03*
X012438Y025185D03*
X012433Y025180D03*
X012788Y025690D03*
X012793Y025695D03*
X013158Y025675D03*
X013158Y025670D03*
X012083Y025695D03*
X012053Y025560D03*
X011708Y025695D03*
X011378Y025705D03*
X011373Y025700D03*
X011368Y025695D03*
X011363Y025690D03*
X010998Y025690D03*
X010653Y025200D03*
X010628Y025665D03*
X010113Y025200D03*
X009858Y025180D03*
X009593Y025320D03*
X009588Y025325D03*
X009583Y025335D03*
X009578Y025340D03*
X009568Y025695D03*
X009563Y025700D03*
X009398Y025840D03*
X009223Y025690D03*
X008863Y025685D03*
X008858Y025690D03*
X008518Y025700D03*
X008138Y025700D03*
X008133Y025705D03*
X008168Y025335D03*
X008138Y025200D03*
X007818Y025180D03*
X007813Y025185D03*
X007773Y025575D03*
X010263Y026715D03*
X011298Y026955D03*
X015678Y025890D03*
X016433Y025890D03*
D24*
X016640Y025640D03*
X016640Y025635D03*
X016645Y025630D03*
X016645Y025625D03*
X016645Y025620D03*
X016645Y025615D03*
X016645Y025610D03*
X016645Y025605D03*
X016645Y025600D03*
X016645Y025595D03*
X016645Y025590D03*
X016645Y025585D03*
X016645Y025580D03*
X016645Y025575D03*
X016645Y025570D03*
X016645Y025565D03*
X016645Y025560D03*
X016645Y025555D03*
X016645Y025550D03*
X016645Y025545D03*
X016645Y025540D03*
X016645Y025535D03*
X016645Y025530D03*
X016645Y025525D03*
X016645Y025520D03*
X016645Y025515D03*
X016645Y025510D03*
X016645Y025505D03*
X016645Y025500D03*
X016645Y025495D03*
X016645Y025490D03*
X016645Y025485D03*
X016645Y025480D03*
X016645Y025475D03*
X016645Y025470D03*
X016645Y025465D03*
X016645Y025460D03*
X016645Y025455D03*
X016645Y025450D03*
X016645Y025445D03*
X016645Y025440D03*
X016645Y025435D03*
X016645Y025430D03*
X016645Y025425D03*
X016645Y025420D03*
X016645Y025415D03*
X016645Y025410D03*
X016645Y025405D03*
X016645Y025400D03*
X016645Y025395D03*
X016645Y025390D03*
X016645Y025385D03*
X016645Y025380D03*
X016645Y025375D03*
X016645Y025370D03*
X016645Y025365D03*
X016645Y025360D03*
X016645Y025355D03*
X016645Y025350D03*
X016645Y025345D03*
X016645Y025340D03*
X016645Y025335D03*
X016645Y025330D03*
X016640Y025325D03*
X016640Y025320D03*
X015890Y025325D03*
X015890Y025330D03*
X015890Y025335D03*
X015890Y025340D03*
X015890Y025345D03*
X015890Y025350D03*
X015890Y025355D03*
X015890Y025360D03*
X015890Y025365D03*
X015890Y025370D03*
X015890Y025375D03*
X015890Y025380D03*
X015890Y025385D03*
X015890Y025390D03*
X015890Y025395D03*
X015890Y025400D03*
X015890Y025405D03*
X015890Y025410D03*
X015890Y025415D03*
X015890Y025420D03*
X015890Y025425D03*
X015890Y025430D03*
X015890Y025435D03*
X015890Y025440D03*
X015890Y025445D03*
X015890Y025450D03*
X015890Y025455D03*
X015890Y025460D03*
X015890Y025465D03*
X015890Y025470D03*
X015890Y025475D03*
X015890Y025480D03*
X015890Y025485D03*
X015890Y025490D03*
X015890Y025495D03*
X015890Y025500D03*
X015890Y025505D03*
X015890Y025510D03*
X015890Y025515D03*
X015890Y025520D03*
X015890Y025525D03*
X015890Y025530D03*
X015890Y025535D03*
X015890Y025540D03*
X015890Y025545D03*
X015890Y025550D03*
X015890Y025555D03*
X015890Y025560D03*
X015890Y025565D03*
X015890Y025570D03*
X015890Y025575D03*
X015890Y025580D03*
X015890Y025585D03*
X015890Y025590D03*
X015890Y025595D03*
X015890Y025600D03*
X015890Y025605D03*
X015890Y025610D03*
X015890Y025615D03*
X015890Y025620D03*
X015890Y025625D03*
X015890Y025630D03*
X015890Y025635D03*
X015465Y025620D03*
X015465Y025615D03*
X015465Y025610D03*
X015465Y025605D03*
X015465Y025600D03*
X015465Y025595D03*
X015465Y025590D03*
X015465Y025585D03*
X015465Y025580D03*
X015465Y025575D03*
X015465Y025570D03*
X015465Y025565D03*
X015465Y025560D03*
X015465Y025555D03*
X015465Y025550D03*
X015465Y025545D03*
X015465Y025540D03*
X015465Y025535D03*
X015465Y025530D03*
X015465Y025525D03*
X015465Y025520D03*
X015465Y025515D03*
X015465Y025510D03*
X015465Y025505D03*
X015465Y025500D03*
X015465Y025495D03*
X015465Y025490D03*
X015465Y025485D03*
X015465Y025480D03*
X015465Y025475D03*
X015465Y025470D03*
X015465Y025465D03*
X015465Y025460D03*
X015465Y025455D03*
X015465Y025450D03*
X015465Y025445D03*
X015465Y025440D03*
X015465Y025435D03*
X015465Y025430D03*
X015465Y025425D03*
X015465Y025420D03*
X015465Y025415D03*
X015465Y025410D03*
X015465Y025405D03*
X015465Y025400D03*
X015465Y025395D03*
X015465Y025390D03*
X015465Y025385D03*
X015465Y025380D03*
X015465Y025375D03*
X015465Y025370D03*
X015465Y025365D03*
X015465Y025360D03*
X015465Y025355D03*
X015465Y025350D03*
X015465Y025345D03*
X015465Y025340D03*
X015465Y025335D03*
X015890Y025060D03*
X015890Y025055D03*
X015890Y025050D03*
X015890Y025045D03*
X015890Y025040D03*
X015890Y025035D03*
X015890Y025030D03*
X015890Y025025D03*
X015890Y025020D03*
X015890Y025015D03*
X015890Y025010D03*
X015890Y025005D03*
X015890Y025000D03*
X015890Y024995D03*
X015890Y024990D03*
X015890Y024985D03*
X015890Y024980D03*
X015890Y024975D03*
X015890Y024970D03*
X015890Y024965D03*
X015890Y024960D03*
X015890Y024955D03*
X015890Y024950D03*
X015890Y024945D03*
X015890Y024940D03*
X015890Y024935D03*
X015890Y024930D03*
X015890Y024925D03*
X015890Y024920D03*
X015890Y024915D03*
X015890Y024910D03*
X015890Y024905D03*
X015890Y024900D03*
X015890Y024895D03*
X015890Y024890D03*
X015890Y024885D03*
X015890Y024880D03*
X015890Y024875D03*
X015890Y024870D03*
X015890Y024865D03*
X015890Y024860D03*
X015890Y024855D03*
X015890Y024850D03*
X015135Y025535D03*
X015135Y025620D03*
X015135Y025625D03*
X014720Y025320D03*
X014720Y025315D03*
X014390Y025125D03*
X014390Y025120D03*
X014385Y025640D03*
X013155Y025680D03*
X012805Y025710D03*
X012800Y025705D03*
X012795Y025700D03*
X012400Y025715D03*
X012090Y025705D03*
X012085Y025700D03*
X012055Y025555D03*
X011705Y025700D03*
X011700Y025705D03*
X011380Y025710D03*
X010995Y025695D03*
X010990Y025700D03*
X010825Y025840D03*
X010630Y025675D03*
X010630Y025670D03*
X010660Y025190D03*
X010995Y025200D03*
X010360Y025175D03*
X009575Y025180D03*
X009585Y025330D03*
X009560Y025705D03*
X009555Y025710D03*
X009230Y025700D03*
X009225Y025695D03*
X009210Y025550D03*
X008855Y025695D03*
X008850Y025700D03*
X008845Y025705D03*
X008840Y025710D03*
X008685Y025840D03*
X008525Y025710D03*
X008520Y025705D03*
X008165Y025340D03*
X008135Y025195D03*
X007790Y025685D03*
X007795Y025690D03*
X007805Y025705D03*
X011295Y026960D03*
X010385Y031440D03*
D25*
X010373Y031475D03*
X012998Y026890D03*
X012498Y025530D03*
X012313Y025050D03*
X010358Y025835D03*
X007723Y025365D03*
D26*
X007983Y025050D03*
X010233Y025050D03*
X010828Y025050D03*
X010848Y025050D03*
X012288Y025050D03*
D27*
X012265Y025050D03*
X012220Y025175D03*
X013145Y026110D03*
X013215Y025060D03*
X014425Y025070D03*
X010580Y026110D03*
X010075Y025835D03*
X009650Y025530D03*
X009365Y025175D03*
X009220Y025055D03*
X009945Y025050D03*
X010275Y025050D03*
X008010Y025050D03*
D28*
X007968Y025050D03*
X007943Y025050D03*
X009443Y025050D03*
X010803Y025050D03*
X011788Y025055D03*
X012243Y025050D03*
X012788Y025055D03*
X014058Y026625D03*
X014668Y025420D03*
X011323Y026915D03*
X010263Y026680D03*
D29*
X009425Y025050D03*
X009405Y025050D03*
X008930Y025055D03*
D30*
X009218Y025545D03*
X009248Y025715D03*
X009568Y025175D03*
X009873Y025170D03*
X010638Y025690D03*
X010978Y025180D03*
X010828Y025055D03*
X010263Y026725D03*
X008833Y025715D03*
X008123Y025715D03*
X008123Y025180D03*
X007783Y025565D03*
X010388Y031430D03*
X014058Y026670D03*
X013973Y025675D03*
X013968Y025670D03*
X014368Y025680D03*
X014373Y025670D03*
X014728Y025670D03*
X014728Y025665D03*
X014728Y025660D03*
X014728Y025675D03*
X014728Y025630D03*
X014728Y025625D03*
X014928Y025885D03*
X015123Y025685D03*
X015123Y025680D03*
X015128Y025670D03*
X015128Y025665D03*
X015128Y025345D03*
X015128Y025290D03*
X015123Y025280D03*
X015123Y025275D03*
X014733Y025270D03*
X014728Y025280D03*
X015473Y025295D03*
X015478Y025285D03*
X015483Y025280D03*
X015473Y025665D03*
X015478Y025675D03*
X015483Y025680D03*
X015488Y025690D03*
X015678Y025885D03*
X015878Y025675D03*
X015883Y025670D03*
X015883Y025290D03*
X016233Y025280D03*
X016433Y025075D03*
X016628Y025280D03*
X016628Y025285D03*
X016628Y025685D03*
X016628Y025690D03*
X016233Y025680D03*
X013148Y025695D03*
X012278Y025055D03*
D31*
X012433Y025340D03*
X012093Y025710D03*
X011698Y025710D03*
X010988Y025705D03*
X010983Y025710D03*
X010993Y025195D03*
X010988Y025190D03*
X010658Y025195D03*
X010633Y025680D03*
X010353Y025170D03*
X010113Y025195D03*
X009863Y025175D03*
X009573Y025345D03*
X009423Y025055D03*
X009233Y025705D03*
X009238Y025710D03*
X008128Y025710D03*
X008133Y025190D03*
X008128Y025185D03*
X007778Y025570D03*
X007798Y025695D03*
X007803Y025700D03*
X007813Y025710D03*
X010263Y026720D03*
X013153Y025685D03*
X013963Y025650D03*
X013963Y025645D03*
X014378Y025660D03*
X014383Y025655D03*
X014383Y025650D03*
X014383Y025645D03*
X014388Y025635D03*
X014388Y025630D03*
X014388Y025625D03*
X014388Y025620D03*
X014388Y025615D03*
X014388Y025610D03*
X014388Y025605D03*
X014388Y025600D03*
X014388Y025595D03*
X014388Y025590D03*
X014388Y025585D03*
X014388Y025580D03*
X014388Y025575D03*
X014388Y025570D03*
X014388Y025565D03*
X014388Y025560D03*
X014388Y025555D03*
X014388Y025550D03*
X014388Y025545D03*
X014388Y025540D03*
X014388Y025535D03*
X014388Y025530D03*
X014388Y025525D03*
X014388Y025520D03*
X014388Y025515D03*
X014388Y025510D03*
X014388Y025505D03*
X014388Y025500D03*
X014388Y025495D03*
X014388Y025490D03*
X014388Y025485D03*
X014388Y025480D03*
X014388Y025475D03*
X014388Y025470D03*
X014388Y025465D03*
X014388Y025460D03*
X014388Y025455D03*
X014388Y025450D03*
X014388Y025445D03*
X014388Y025440D03*
X014388Y025435D03*
X014388Y025430D03*
X014388Y025425D03*
X014388Y025420D03*
X014388Y025415D03*
X014388Y025410D03*
X014388Y025405D03*
X014388Y025400D03*
X014388Y025395D03*
X014388Y025390D03*
X014388Y025385D03*
X014388Y025380D03*
X014388Y025375D03*
X014388Y025370D03*
X014388Y025365D03*
X014388Y025360D03*
X014388Y025355D03*
X014388Y025350D03*
X014388Y025345D03*
X014388Y025340D03*
X014388Y025335D03*
X014388Y025330D03*
X014388Y025325D03*
X014388Y025320D03*
X014388Y025315D03*
X014388Y025310D03*
X014388Y025305D03*
X014388Y025300D03*
X014388Y025295D03*
X014388Y025290D03*
X014388Y025285D03*
X014388Y025280D03*
X014388Y025275D03*
X014388Y025270D03*
X014388Y025265D03*
X014388Y025260D03*
X014388Y025255D03*
X014388Y025250D03*
X014388Y025245D03*
X014388Y025240D03*
X014388Y025235D03*
X014388Y025230D03*
X014388Y025225D03*
X014388Y025220D03*
X014388Y025215D03*
X014388Y025210D03*
X014388Y025205D03*
X014388Y025200D03*
X014388Y025195D03*
X014388Y025190D03*
X014388Y025185D03*
X014388Y025180D03*
X014388Y025175D03*
X014388Y025170D03*
X014388Y025165D03*
X014388Y025160D03*
X014388Y025155D03*
X014388Y025150D03*
X014388Y025145D03*
X014388Y025140D03*
X014388Y025135D03*
X014388Y025130D03*
X013963Y025125D03*
X013963Y025120D03*
X014723Y025300D03*
X014723Y025305D03*
X014723Y025310D03*
X015133Y025315D03*
X015133Y025320D03*
X015133Y025325D03*
X015133Y025330D03*
X015133Y025530D03*
X015133Y025630D03*
X015133Y025635D03*
X015133Y025640D03*
X015468Y025640D03*
X015468Y025635D03*
X015468Y025630D03*
X015468Y025625D03*
X015468Y025645D03*
X015468Y025650D03*
X015468Y025330D03*
X015468Y025325D03*
X015468Y025320D03*
X015468Y025315D03*
X015468Y025310D03*
X015888Y025310D03*
X015888Y025305D03*
X015888Y025315D03*
X015888Y025320D03*
X015888Y025070D03*
X015888Y025065D03*
X016223Y025315D03*
X016223Y025320D03*
X016223Y025325D03*
X016223Y025330D03*
X016223Y025335D03*
X016223Y025340D03*
X016223Y025345D03*
X016223Y025350D03*
X016223Y025355D03*
X016223Y025360D03*
X016223Y025365D03*
X016223Y025370D03*
X016223Y025375D03*
X016223Y025380D03*
X016223Y025385D03*
X016223Y025390D03*
X016223Y025395D03*
X016223Y025400D03*
X016223Y025405D03*
X016223Y025410D03*
X016223Y025415D03*
X016223Y025420D03*
X016223Y025425D03*
X016223Y025430D03*
X016223Y025435D03*
X016223Y025440D03*
X016223Y025445D03*
X016223Y025450D03*
X016223Y025455D03*
X016223Y025460D03*
X016223Y025465D03*
X016223Y025470D03*
X016223Y025475D03*
X016223Y025480D03*
X016223Y025485D03*
X016223Y025490D03*
X016223Y025495D03*
X016223Y025500D03*
X016223Y025505D03*
X016223Y025510D03*
X016223Y025515D03*
X016223Y025520D03*
X016223Y025525D03*
X016223Y025530D03*
X016223Y025535D03*
X016223Y025540D03*
X016223Y025545D03*
X016223Y025550D03*
X016223Y025555D03*
X016223Y025560D03*
X016223Y025565D03*
X016223Y025570D03*
X016223Y025575D03*
X016223Y025580D03*
X016223Y025585D03*
X016223Y025590D03*
X016223Y025595D03*
X016223Y025600D03*
X016223Y025605D03*
X016223Y025610D03*
X016223Y025615D03*
X016223Y025620D03*
X016223Y025625D03*
X016223Y025630D03*
X016223Y025635D03*
X016223Y025640D03*
X016638Y025645D03*
X016638Y025650D03*
X016638Y025655D03*
X016638Y025315D03*
X015888Y025640D03*
X015888Y025645D03*
X015888Y025650D03*
X015888Y025655D03*
X014058Y026665D03*
X014023Y031415D03*
D32*
X013030Y026940D03*
X012815Y025715D03*
X013150Y025690D03*
X012425Y025345D03*
X012425Y025175D03*
X012060Y025550D03*
X011690Y025715D03*
X011390Y025715D03*
X010975Y025715D03*
X010985Y025185D03*
X010670Y025180D03*
X010665Y025185D03*
X010635Y025685D03*
X010115Y025190D03*
X010250Y025060D03*
X009975Y025060D03*
X009545Y025715D03*
X008530Y025715D03*
X008160Y025345D03*
X007965Y025055D03*
X007825Y025175D03*
X007820Y025715D03*
X011295Y026965D03*
X013965Y025665D03*
X013965Y025660D03*
X013965Y025655D03*
X013960Y025640D03*
X013960Y025635D03*
X013960Y025630D03*
X013960Y025625D03*
X013960Y025620D03*
X013960Y025615D03*
X013960Y025610D03*
X013960Y025605D03*
X013960Y025600D03*
X013960Y025595D03*
X013960Y025590D03*
X013960Y025585D03*
X013960Y025580D03*
X013960Y025575D03*
X013960Y025570D03*
X013960Y025565D03*
X013960Y025560D03*
X013960Y025555D03*
X013960Y025550D03*
X013960Y025545D03*
X013960Y025540D03*
X013960Y025535D03*
X013960Y025530D03*
X013960Y025525D03*
X013960Y025520D03*
X013960Y025515D03*
X013960Y025510D03*
X013960Y025505D03*
X013960Y025500D03*
X013960Y025495D03*
X013960Y025490D03*
X013960Y025485D03*
X013960Y025480D03*
X013960Y025475D03*
X013960Y025470D03*
X013960Y025465D03*
X013960Y025460D03*
X013960Y025455D03*
X013960Y025450D03*
X013960Y025445D03*
X013960Y025440D03*
X013960Y025435D03*
X013960Y025430D03*
X013960Y025425D03*
X013960Y025420D03*
X013960Y025415D03*
X013960Y025410D03*
X013960Y025405D03*
X013960Y025400D03*
X013960Y025395D03*
X013960Y025390D03*
X013960Y025385D03*
X013960Y025380D03*
X013960Y025375D03*
X013960Y025370D03*
X013960Y025365D03*
X013960Y025360D03*
X013960Y025355D03*
X013960Y025350D03*
X013960Y025345D03*
X013960Y025340D03*
X013960Y025335D03*
X013960Y025330D03*
X013960Y025325D03*
X013960Y025320D03*
X013960Y025315D03*
X013960Y025310D03*
X013960Y025305D03*
X013960Y025300D03*
X013960Y025295D03*
X013960Y025290D03*
X013960Y025285D03*
X013960Y025280D03*
X013960Y025275D03*
X013960Y025270D03*
X013960Y025265D03*
X013960Y025260D03*
X013960Y025255D03*
X013960Y025250D03*
X013960Y025245D03*
X013960Y025240D03*
X013960Y025235D03*
X013960Y025230D03*
X013960Y025225D03*
X013960Y025220D03*
X013960Y025215D03*
X013960Y025210D03*
X013960Y025205D03*
X013960Y025200D03*
X013960Y025195D03*
X013960Y025190D03*
X013960Y025185D03*
X013960Y025180D03*
X013960Y025175D03*
X013960Y025170D03*
X013960Y025165D03*
X013960Y025160D03*
X013960Y025155D03*
X013960Y025150D03*
X013960Y025145D03*
X013960Y025140D03*
X013960Y025135D03*
X013960Y025130D03*
X014375Y025665D03*
X014370Y025675D03*
X014725Y025655D03*
X014725Y025650D03*
X014725Y025645D03*
X014725Y025640D03*
X014725Y025635D03*
X014725Y025295D03*
X014725Y025290D03*
X014725Y025285D03*
X014925Y025075D03*
X015125Y025285D03*
X015130Y025295D03*
X015130Y025300D03*
X015130Y025305D03*
X015130Y025310D03*
X015130Y025335D03*
X015130Y025340D03*
X015130Y025645D03*
X015130Y025650D03*
X015130Y025655D03*
X015130Y025660D03*
X015125Y025675D03*
X015470Y025660D03*
X015470Y025655D03*
X015475Y025670D03*
X015470Y025305D03*
X015470Y025300D03*
X015475Y025290D03*
X015885Y025295D03*
X015885Y025300D03*
X015885Y025075D03*
X016230Y025285D03*
X016230Y025290D03*
X016230Y025295D03*
X016225Y025300D03*
X016225Y025305D03*
X016225Y025310D03*
X016225Y025645D03*
X016225Y025650D03*
X016225Y025655D03*
X016225Y025660D03*
X016230Y025665D03*
X016230Y025670D03*
X016230Y025675D03*
X016630Y025675D03*
X016630Y025670D03*
X016635Y025665D03*
X016635Y025660D03*
X016630Y025680D03*
X016635Y025310D03*
X016635Y025305D03*
X016630Y025300D03*
X016630Y025295D03*
X016630Y025290D03*
X015885Y025660D03*
X015885Y025665D03*
X010385Y031435D03*
D33*
X010383Y031465D03*
X014028Y031445D03*
X014058Y026640D03*
X014928Y025900D03*
X016428Y025900D03*
X016433Y025060D03*
X013198Y025080D03*
X013158Y026095D03*
X012063Y025080D03*
X011338Y025560D03*
X010593Y026095D03*
X009628Y025550D03*
X009203Y025080D03*
X008493Y025555D03*
D34*
X009813Y025815D03*
X010088Y025815D03*
X010263Y026690D03*
X011323Y026930D03*
X011343Y025555D03*
X012068Y025075D03*
X012228Y025170D03*
X013158Y026100D03*
X013998Y025080D03*
X015678Y025060D03*
D35*
X012785Y025060D03*
X012080Y025060D03*
X011785Y025060D03*
X011355Y025545D03*
X009800Y025835D03*
X009220Y025060D03*
X008930Y025060D03*
D36*
X009228Y025540D03*
X009518Y025730D03*
X009553Y025355D03*
X009973Y025070D03*
X010113Y025180D03*
X010253Y025070D03*
X010828Y025060D03*
X010263Y026735D03*
X012383Y025725D03*
X012833Y025725D03*
X013138Y025710D03*
X012278Y025060D03*
X013998Y025715D03*
X014348Y025715D03*
X014353Y025710D03*
X014738Y025695D03*
X014743Y025705D03*
X015108Y025710D03*
X015118Y025355D03*
X015113Y025255D03*
X015108Y025250D03*
X014748Y025245D03*
X015873Y025260D03*
X015873Y025265D03*
X015853Y025715D03*
X016248Y025710D03*
X016253Y025715D03*
X016248Y025255D03*
X016613Y025255D03*
X010388Y031420D03*
X007968Y025060D03*
D37*
X007835Y025170D03*
X007790Y025555D03*
X007830Y025720D03*
X007975Y025835D03*
X008540Y025720D03*
X009395Y025835D03*
X009425Y025060D03*
X010645Y025705D03*
X010825Y025835D03*
X010955Y025725D03*
X011540Y025835D03*
X011680Y025720D03*
X012110Y025720D03*
X012415Y025170D03*
X013140Y025705D03*
X013040Y026945D03*
X014055Y026675D03*
X014740Y025700D03*
X014735Y025690D03*
X015110Y025705D03*
X015115Y025700D03*
X015115Y025260D03*
X014745Y025250D03*
X014740Y025255D03*
X015500Y025245D03*
X015875Y025270D03*
X015875Y025275D03*
X015860Y025710D03*
X015500Y025715D03*
X016240Y025700D03*
X016240Y025695D03*
X016245Y025705D03*
X016615Y025710D03*
X016620Y025265D03*
X016615Y025260D03*
X016245Y025260D03*
X016240Y025265D03*
X016240Y025270D03*
X011285Y026975D03*
D38*
X011328Y025595D03*
X011328Y025590D03*
X011328Y025585D03*
X011753Y025100D03*
X012468Y025565D03*
X012468Y025570D03*
X012468Y025575D03*
X012463Y025600D03*
X012463Y025605D03*
X012753Y025575D03*
X012753Y025570D03*
X012753Y025565D03*
X012753Y025560D03*
X012753Y025555D03*
X012753Y025550D03*
X012753Y025545D03*
X012753Y025540D03*
X012753Y025535D03*
X012753Y025530D03*
X012753Y025525D03*
X012753Y025520D03*
X012753Y025515D03*
X012753Y025510D03*
X012753Y025505D03*
X012753Y025500D03*
X012753Y025495D03*
X012753Y025490D03*
X012753Y025485D03*
X012753Y025480D03*
X012753Y025475D03*
X012753Y025470D03*
X012753Y025465D03*
X012753Y025460D03*
X012753Y025455D03*
X012753Y025450D03*
X012753Y025445D03*
X012753Y025440D03*
X012753Y025435D03*
X012753Y025430D03*
X012753Y025425D03*
X012753Y025420D03*
X012753Y025415D03*
X012753Y025410D03*
X012753Y025405D03*
X012753Y025400D03*
X012753Y025395D03*
X012753Y025390D03*
X012753Y025385D03*
X012753Y025380D03*
X012753Y025375D03*
X012753Y025370D03*
X012753Y025365D03*
X012753Y025360D03*
X012753Y025355D03*
X012753Y025350D03*
X012753Y025345D03*
X012753Y025340D03*
X012753Y025335D03*
X012753Y025330D03*
X012753Y025325D03*
X012753Y025320D03*
X012753Y025315D03*
X012753Y025310D03*
X012753Y025305D03*
X012753Y025300D03*
X012753Y025295D03*
X012753Y025290D03*
X012753Y025285D03*
X012753Y025280D03*
X012753Y025275D03*
X012753Y025270D03*
X012753Y025265D03*
X012753Y025260D03*
X012753Y025255D03*
X012753Y025250D03*
X012753Y025245D03*
X012753Y025240D03*
X012753Y025235D03*
X012753Y025230D03*
X012753Y025225D03*
X012753Y025220D03*
X012753Y025215D03*
X012753Y025210D03*
X012753Y025205D03*
X012753Y025200D03*
X012753Y025195D03*
X012753Y025190D03*
X012753Y025185D03*
X012753Y025180D03*
X012753Y025175D03*
X012753Y025170D03*
X012753Y025165D03*
X012753Y025160D03*
X012753Y025155D03*
X012753Y025150D03*
X012753Y025145D03*
X012753Y025140D03*
X012753Y025135D03*
X012753Y025130D03*
X013178Y025120D03*
X013178Y025115D03*
X013178Y025110D03*
X013178Y025105D03*
X013178Y025100D03*
X013173Y026070D03*
X014698Y025390D03*
X014928Y025065D03*
X015678Y025065D03*
X016433Y025065D03*
X010388Y025785D03*
X010388Y025790D03*
X010388Y025795D03*
X010108Y025795D03*
X009833Y025790D03*
X009833Y025785D03*
X009833Y025780D03*
X009833Y025775D03*
X009833Y025770D03*
X009833Y025765D03*
X009833Y025760D03*
X009833Y025755D03*
X009833Y025750D03*
X009833Y025745D03*
X009833Y025740D03*
X009833Y025735D03*
X009833Y025730D03*
X009833Y025725D03*
X009833Y025720D03*
X009833Y025715D03*
X009833Y025710D03*
X009833Y025705D03*
X009833Y025700D03*
X009833Y025695D03*
X009833Y025690D03*
X009833Y025685D03*
X009833Y025680D03*
X009833Y025675D03*
X009833Y025670D03*
X009833Y025665D03*
X009833Y025660D03*
X009833Y025655D03*
X009833Y025650D03*
X009833Y025645D03*
X009833Y025640D03*
X009833Y025635D03*
X009833Y025630D03*
X009833Y025625D03*
X009833Y025620D03*
X009833Y025615D03*
X009833Y025610D03*
X009833Y025605D03*
X009833Y025600D03*
X009833Y025595D03*
X009833Y025590D03*
X009833Y025585D03*
X009833Y025580D03*
X009833Y025575D03*
X009833Y025570D03*
X009833Y025565D03*
X009833Y025560D03*
X009833Y025555D03*
X009833Y025550D03*
X009833Y025545D03*
X009833Y025540D03*
X009833Y025535D03*
X009833Y025530D03*
X009833Y025525D03*
X009833Y025520D03*
X009833Y025515D03*
X009833Y025510D03*
X009833Y025505D03*
X009833Y025500D03*
X009833Y025495D03*
X009833Y025490D03*
X009833Y025485D03*
X009833Y025480D03*
X009833Y025475D03*
X009833Y025470D03*
X009833Y025465D03*
X009833Y025460D03*
X009833Y025455D03*
X009833Y025450D03*
X009833Y025445D03*
X009833Y025440D03*
X009833Y025435D03*
X009833Y025430D03*
X009833Y025425D03*
X009833Y025420D03*
X009833Y025415D03*
X009833Y025410D03*
X009833Y025405D03*
X009833Y025400D03*
X009833Y025395D03*
X009833Y025390D03*
X009833Y025385D03*
X009833Y025380D03*
X009833Y025375D03*
X009833Y025370D03*
X009833Y025365D03*
X009833Y025360D03*
X009833Y025355D03*
X009833Y025350D03*
X009833Y025345D03*
X009833Y025340D03*
X009833Y025335D03*
X009833Y025330D03*
X009833Y025325D03*
X009833Y025320D03*
X009833Y025315D03*
X009833Y025310D03*
X009833Y025305D03*
X009833Y025300D03*
X009833Y025295D03*
X009833Y025290D03*
X009833Y025285D03*
X009833Y025280D03*
X009833Y025275D03*
X009833Y025270D03*
X009833Y025265D03*
X009833Y025260D03*
X009613Y025575D03*
X009188Y025590D03*
X009188Y025595D03*
X009188Y025600D03*
X009188Y025605D03*
X009188Y025610D03*
X009188Y025415D03*
X009188Y025410D03*
X009188Y025405D03*
X009188Y025400D03*
X009188Y025395D03*
X009188Y025390D03*
X009188Y025385D03*
X009188Y025380D03*
X009188Y025375D03*
X009188Y025370D03*
X009188Y025365D03*
X009188Y025360D03*
X009188Y025355D03*
X009188Y025350D03*
X009188Y025345D03*
X009188Y025340D03*
X009188Y025335D03*
X009188Y025330D03*
X009188Y025325D03*
X009188Y025320D03*
X009188Y025315D03*
X009188Y025310D03*
X009188Y025305D03*
X009188Y025300D03*
X009188Y025295D03*
X009188Y025290D03*
X009188Y025285D03*
X009188Y025280D03*
X009188Y025275D03*
X009188Y025270D03*
X009188Y025265D03*
X009188Y025260D03*
X009188Y025255D03*
X009188Y025250D03*
X009188Y025245D03*
X009188Y025240D03*
X009188Y025235D03*
X009188Y025230D03*
X009188Y025225D03*
X009188Y025220D03*
X009188Y025215D03*
X009188Y025210D03*
X009188Y025205D03*
X009188Y025200D03*
X009188Y025195D03*
X009188Y025190D03*
X009188Y025185D03*
X009188Y025180D03*
X009188Y025175D03*
X009188Y025170D03*
X009188Y025165D03*
X009188Y025160D03*
X009188Y025155D03*
X009188Y025150D03*
X009188Y025145D03*
X009188Y025140D03*
X009188Y025135D03*
X009188Y025130D03*
X009188Y025125D03*
X009188Y025120D03*
X009188Y025115D03*
X009188Y025110D03*
X008898Y025110D03*
X008898Y025105D03*
X008898Y025100D03*
X008898Y025115D03*
X008898Y025120D03*
X008898Y025125D03*
X008898Y025130D03*
X008898Y025135D03*
X008898Y025140D03*
X008898Y025145D03*
X008898Y025150D03*
X008898Y025155D03*
X008898Y025160D03*
X008898Y025165D03*
X008898Y025170D03*
X008898Y025175D03*
X008898Y025180D03*
X008898Y025185D03*
X008898Y025190D03*
X008898Y025195D03*
X008898Y025200D03*
X008898Y025205D03*
X008898Y025210D03*
X008898Y025215D03*
X008898Y025220D03*
X008898Y025225D03*
X008898Y025230D03*
X008898Y025235D03*
X008898Y025240D03*
X008898Y025245D03*
X008898Y025250D03*
X008898Y025255D03*
X008898Y025260D03*
X008898Y025265D03*
X008898Y025270D03*
X008898Y025275D03*
X008898Y025280D03*
X008898Y025285D03*
X008898Y025290D03*
X008898Y025295D03*
X008898Y025300D03*
X008898Y025305D03*
X008898Y025310D03*
X008898Y025315D03*
X008898Y025320D03*
X008898Y025325D03*
X008898Y025330D03*
X008898Y025335D03*
X008898Y025340D03*
X008898Y025345D03*
X008898Y025350D03*
X008898Y025355D03*
X008898Y025360D03*
X008898Y025365D03*
X008898Y025370D03*
X008898Y025375D03*
X008898Y025380D03*
X008898Y025385D03*
X008898Y025390D03*
X008898Y025395D03*
X008898Y025400D03*
X008898Y025405D03*
X008898Y025410D03*
X008898Y025415D03*
X008898Y025420D03*
X008898Y025425D03*
X008898Y025430D03*
X008898Y025435D03*
X008898Y025440D03*
X008898Y025445D03*
X008898Y025450D03*
X008898Y025455D03*
X008898Y025460D03*
X008898Y025465D03*
X008898Y025470D03*
X008898Y025475D03*
X008898Y025480D03*
X008898Y025485D03*
X008898Y025490D03*
X008898Y025495D03*
X008898Y025500D03*
X008898Y025505D03*
X008898Y025510D03*
X008898Y025515D03*
X008898Y025520D03*
X008898Y025525D03*
X008898Y025530D03*
X008898Y025535D03*
X008898Y025540D03*
X008898Y025545D03*
X008898Y025550D03*
X008898Y025555D03*
X008898Y025560D03*
X008898Y025565D03*
X008898Y025570D03*
X008898Y025575D03*
X008898Y025580D03*
X008898Y025585D03*
X008898Y025590D03*
X008898Y025595D03*
X008893Y025615D03*
X008478Y025575D03*
X007753Y025330D03*
X007753Y025325D03*
D39*
X009398Y025845D03*
X009648Y025535D03*
X010358Y025830D03*
X012498Y025535D03*
X012968Y025845D03*
X013213Y025065D03*
X014428Y025075D03*
X014058Y026630D03*
X012998Y026895D03*
D40*
X013048Y026950D03*
X014053Y026680D03*
X014008Y025725D03*
X014003Y025720D03*
X014343Y025720D03*
X014748Y025715D03*
X014753Y025720D03*
X015098Y025720D03*
X015113Y025360D03*
X014768Y025230D03*
X014763Y025235D03*
X015508Y025240D03*
X015868Y025250D03*
X016603Y025240D03*
X016608Y025245D03*
X016608Y025720D03*
X013133Y025715D03*
X012963Y025830D03*
X012278Y025065D03*
X012078Y025540D03*
X012118Y025725D03*
X011413Y025730D03*
X010948Y025730D03*
X011278Y026980D03*
X009548Y025360D03*
X009543Y025365D03*
X009423Y025065D03*
X008143Y025355D03*
X008103Y025170D03*
X007848Y025165D03*
X008098Y025730D03*
X007973Y025830D03*
D41*
X008090Y025735D03*
X007845Y025730D03*
X007970Y025065D03*
X008810Y025730D03*
X009275Y025730D03*
X009395Y025830D03*
X009510Y025735D03*
X009235Y025535D03*
X009540Y025370D03*
X009975Y025075D03*
X010250Y025075D03*
X010825Y025065D03*
X010655Y025715D03*
X010825Y025830D03*
X010940Y025735D03*
X010265Y026740D03*
X012125Y025730D03*
X012250Y025830D03*
X012400Y025365D03*
X012405Y025360D03*
X014010Y025730D03*
X014175Y025880D03*
X014340Y025725D03*
X014925Y025080D03*
X015100Y025240D03*
X015110Y025365D03*
X015510Y025235D03*
X015510Y025725D03*
X015515Y025730D03*
X015675Y025880D03*
X015840Y025730D03*
X015845Y025725D03*
X016265Y025725D03*
X016600Y025725D03*
X016260Y025240D03*
X014020Y031400D03*
D42*
X011290Y026970D03*
X010965Y025720D03*
X010640Y025695D03*
X010250Y025065D03*
X009975Y025065D03*
X009565Y025350D03*
X009535Y025720D03*
X008115Y025175D03*
X012100Y025715D03*
X012390Y025720D03*
X012825Y025720D03*
X013145Y025700D03*
X013975Y025680D03*
X013980Y025690D03*
X014175Y025885D03*
X014360Y025700D03*
X014360Y025695D03*
X014365Y025690D03*
X014365Y025685D03*
X014730Y025680D03*
X014730Y025620D03*
X014730Y025275D03*
X014735Y025265D03*
X015120Y025270D03*
X015120Y025690D03*
X015485Y025685D03*
X015490Y025695D03*
X015490Y025700D03*
X015870Y025690D03*
X015875Y025680D03*
X015880Y025285D03*
X015880Y025080D03*
X015680Y025075D03*
X015490Y025260D03*
X015490Y025265D03*
X015485Y025270D03*
X015485Y025275D03*
X016235Y025275D03*
X016625Y025275D03*
X016625Y025695D03*
X016620Y025700D03*
X016235Y025685D03*
D43*
X013208Y025070D03*
X012783Y025070D03*
X012493Y025540D03*
X011543Y025845D03*
X011348Y025550D03*
X010828Y025845D03*
X010358Y025825D03*
X010078Y025830D03*
X009218Y025065D03*
X008928Y025065D03*
X007728Y025355D03*
X012998Y026900D03*
D44*
X013023Y026925D03*
X012778Y025670D03*
X012773Y025660D03*
X012773Y025655D03*
X012768Y025645D03*
X012448Y025650D03*
X012448Y025655D03*
X012443Y025660D03*
X012443Y025665D03*
X012453Y025305D03*
X012453Y025300D03*
X012458Y025295D03*
X012458Y025230D03*
X012453Y025225D03*
X012453Y025220D03*
X012043Y025415D03*
X012043Y025420D03*
X012043Y025580D03*
X012043Y025615D03*
X012048Y025635D03*
X012048Y025640D03*
X012048Y025645D03*
X012053Y025650D03*
X012053Y025655D03*
X012058Y025660D03*
X011743Y025640D03*
X011743Y025635D03*
X011743Y025630D03*
X011738Y025650D03*
X011738Y025655D03*
X011733Y025660D03*
X011343Y025655D03*
X011343Y025650D03*
X011018Y025650D03*
X011018Y025655D03*
X011013Y025665D03*
X011018Y025240D03*
X010633Y025235D03*
X010628Y025240D03*
X010378Y025215D03*
X010378Y025210D03*
X010378Y025205D03*
X010378Y025200D03*
X010113Y025235D03*
X010113Y025240D03*
X010113Y025245D03*
X010113Y025250D03*
X009843Y025225D03*
X009843Y025220D03*
X009843Y025215D03*
X009843Y025210D03*
X009608Y025230D03*
X009608Y025235D03*
X009608Y025240D03*
X009608Y025245D03*
X009608Y025250D03*
X009608Y025255D03*
X009608Y025260D03*
X009608Y025265D03*
X009608Y025270D03*
X009608Y025275D03*
X009608Y025280D03*
X009608Y025285D03*
X009608Y025290D03*
X009608Y025295D03*
X009603Y025220D03*
X009588Y025660D03*
X009583Y025670D03*
X009208Y025665D03*
X009203Y025655D03*
X009198Y025565D03*
X008878Y025655D03*
X008878Y025660D03*
X008488Y025660D03*
X008483Y025655D03*
X008483Y025650D03*
X008483Y025645D03*
X008478Y025635D03*
X008478Y025630D03*
X008478Y025625D03*
X008178Y025625D03*
X008178Y025620D03*
X008173Y025645D03*
X008173Y025650D03*
X008168Y025655D03*
X008168Y025660D03*
X008163Y025665D03*
X008178Y025480D03*
X008178Y025475D03*
X008178Y025315D03*
X008178Y025310D03*
X008178Y025275D03*
X008178Y025270D03*
X008178Y025265D03*
X008173Y025255D03*
X008173Y025250D03*
X007783Y025220D03*
X007778Y025230D03*
X007778Y025235D03*
X007778Y025240D03*
X007773Y025250D03*
X007763Y025585D03*
X007773Y025645D03*
X007773Y025650D03*
X010618Y025640D03*
X010618Y025820D03*
X010618Y025825D03*
X013168Y025650D03*
X013168Y025645D03*
X013978Y025105D03*
X014403Y025105D03*
X014708Y025375D03*
X014928Y025070D03*
X014173Y025895D03*
D45*
X014020Y025740D03*
X014330Y025735D03*
X014335Y025730D03*
X014765Y025730D03*
X015105Y025370D03*
X015085Y025230D03*
X015520Y025225D03*
X015520Y025735D03*
X015835Y025740D03*
X016275Y025735D03*
X016585Y025740D03*
X016590Y025735D03*
X016275Y025225D03*
X016280Y025220D03*
X013125Y025720D03*
X012385Y025375D03*
X012280Y025070D03*
X012085Y025535D03*
X012135Y025735D03*
X013050Y026955D03*
X010825Y025825D03*
X009395Y025825D03*
X009240Y025530D03*
X009425Y025070D03*
X008685Y025830D03*
X014020Y031395D03*
D46*
X014058Y026635D03*
X013153Y026105D03*
X012778Y025075D03*
X012073Y025070D03*
X010083Y025820D03*
X009808Y025820D03*
X008923Y025075D03*
X008498Y025550D03*
X014423Y025080D03*
D47*
X014325Y025740D03*
X014775Y025740D03*
X015525Y025740D03*
X015525Y025220D03*
X016580Y025220D03*
X013055Y026960D03*
X012250Y025825D03*
X012090Y025530D03*
X012375Y025380D03*
X011270Y026990D03*
X010825Y025820D03*
X010825Y025070D03*
X009975Y025080D03*
X009525Y025380D03*
X009245Y025525D03*
X008685Y025825D03*
X008130Y025370D03*
X007970Y025070D03*
X007810Y025540D03*
X010390Y031410D03*
X014020Y031390D03*
D48*
X011273Y026985D03*
X010268Y026745D03*
X010663Y025720D03*
X010253Y025080D03*
X011538Y025825D03*
X011653Y025735D03*
X012283Y025075D03*
X012963Y025825D03*
X014053Y026685D03*
X014768Y025735D03*
X014753Y025605D03*
X015078Y025740D03*
X015103Y025375D03*
X015083Y025225D03*
X015078Y025220D03*
X014783Y025215D03*
X015858Y025240D03*
X016283Y025740D03*
X016593Y025230D03*
X016588Y025225D03*
X008568Y025735D03*
X008133Y025365D03*
X008088Y025165D03*
X007973Y025825D03*
D49*
X007818Y025535D03*
X007973Y025075D03*
X008688Y025820D03*
X009253Y025515D03*
X009433Y025080D03*
X010823Y025075D03*
X010673Y025725D03*
X011263Y027000D03*
X012098Y025520D03*
X012363Y025385D03*
X012288Y025080D03*
X013113Y025730D03*
X013063Y026970D03*
X014053Y026695D03*
X014313Y025745D03*
X014763Y025590D03*
X015538Y025745D03*
X015848Y025225D03*
D50*
X015853Y025235D03*
X015823Y025745D03*
X016288Y025215D03*
X015068Y025215D03*
X014758Y025600D03*
X014053Y026690D03*
X013058Y026965D03*
X012963Y025820D03*
X013118Y025725D03*
X010268Y026750D03*
X009398Y025820D03*
X009248Y025520D03*
X009428Y025075D03*
X007973Y025820D03*
D51*
X007853Y025735D03*
X007803Y025545D03*
X008138Y025360D03*
X008558Y025730D03*
X008803Y025735D03*
X009283Y025735D03*
X009533Y025375D03*
X010113Y025175D03*
X010703Y025165D03*
X010943Y025165D03*
X011418Y025735D03*
X011538Y025830D03*
X011663Y025730D03*
X012368Y025735D03*
X012393Y025370D03*
X012848Y025735D03*
X014013Y025735D03*
X014758Y025725D03*
X014928Y025880D03*
X015083Y025735D03*
X015088Y025730D03*
X015093Y025725D03*
X015093Y025235D03*
X014778Y025220D03*
X014773Y025225D03*
X015518Y025230D03*
X015678Y025080D03*
X015863Y025245D03*
X015838Y025735D03*
X016273Y025730D03*
X016433Y025880D03*
X016598Y025730D03*
X016598Y025235D03*
X016433Y025080D03*
X016273Y025230D03*
X016268Y025235D03*
X010388Y031415D03*
D52*
X014018Y031375D03*
X012113Y025510D03*
X012328Y025410D03*
X012298Y025090D03*
X010823Y025080D03*
X009443Y025095D03*
X015078Y025390D03*
D53*
X014773Y025580D03*
X014053Y026705D03*
X013068Y026975D03*
X012338Y025405D03*
X012343Y025400D03*
X009983Y025085D03*
X009488Y025400D03*
X009483Y025405D03*
X009473Y025410D03*
X009263Y025510D03*
X007973Y025080D03*
X007838Y025515D03*
D54*
X007833Y025520D03*
X007828Y025525D03*
X007973Y025815D03*
X009398Y025815D03*
X010113Y025170D03*
X010248Y025085D03*
X010678Y025730D03*
X010828Y025815D03*
X011538Y025815D03*
X014178Y025875D03*
X014053Y026700D03*
X014928Y025875D03*
X014768Y025585D03*
X015678Y025875D03*
X015843Y025220D03*
X016433Y025085D03*
X016433Y025875D03*
D55*
X016430Y025815D03*
X015760Y025085D03*
X015680Y025815D03*
X014175Y025815D03*
X014040Y026765D03*
X013025Y025805D03*
X010825Y025140D03*
X010280Y026825D03*
X008685Y025750D03*
X010400Y031340D03*
X014010Y031315D03*
D56*
X010390Y031405D03*
X010270Y026755D03*
X009510Y025385D03*
X008120Y025380D03*
X007825Y025530D03*
X012355Y025390D03*
X014925Y025085D03*
X016295Y025745D03*
D57*
X015685Y025900D03*
X014685Y025405D03*
X014415Y025085D03*
X013010Y026910D03*
X012480Y025550D03*
X011335Y025565D03*
X010375Y025810D03*
X010095Y025810D03*
X009820Y025810D03*
X010260Y026695D03*
D58*
X010270Y026760D03*
X011260Y027005D03*
X012250Y025815D03*
X012105Y025515D03*
X012350Y025395D03*
X012290Y025085D03*
X013105Y025735D03*
X015085Y025385D03*
X014020Y031380D03*
X010390Y031400D03*
X008685Y025815D03*
X009495Y025395D03*
X009500Y025390D03*
X009440Y025085D03*
D59*
X009458Y025115D03*
X009278Y025500D03*
X010273Y026775D03*
X010823Y025085D03*
X012318Y025115D03*
X012293Y025425D03*
X013083Y026985D03*
X014048Y026715D03*
X014173Y025865D03*
X014928Y025095D03*
X015068Y025405D03*
X015678Y025865D03*
X016433Y025095D03*
X007973Y025085D03*
X007943Y025465D03*
D60*
X007745Y025340D03*
X008485Y025565D03*
X008905Y025085D03*
X009825Y025805D03*
X010100Y025805D03*
X010600Y026085D03*
X010260Y026700D03*
X011315Y026940D03*
X012235Y025165D03*
X012760Y025090D03*
X013165Y026085D03*
X014690Y025400D03*
D61*
X014925Y025090D03*
X015075Y025395D03*
X015680Y025870D03*
X016430Y025090D03*
X014175Y025870D03*
X014050Y026710D03*
X013075Y026980D03*
X012250Y025810D03*
X012315Y025415D03*
X012300Y025095D03*
X010270Y026770D03*
X009395Y025810D03*
X009270Y025505D03*
X009460Y025415D03*
X009445Y025100D03*
X008105Y025390D03*
X007850Y025510D03*
X010390Y031390D03*
D62*
X010400Y031335D03*
X014040Y026770D03*
X014925Y025810D03*
X015680Y025810D03*
X015755Y025090D03*
X016430Y025150D03*
X016430Y025810D03*
X013020Y025800D03*
X010825Y025145D03*
X009395Y025745D03*
X008685Y025745D03*
X008030Y025455D03*
X007970Y025150D03*
D63*
X008483Y025570D03*
X009193Y025090D03*
X009618Y025560D03*
X009828Y025800D03*
X010383Y025805D03*
X011333Y025575D03*
X011758Y025090D03*
X012473Y025555D03*
X012758Y025095D03*
X013183Y025090D03*
X013988Y025090D03*
X014413Y025090D03*
X013168Y026080D03*
X014058Y026645D03*
X014028Y031440D03*
D64*
X014025Y031435D03*
X013020Y026920D03*
X013175Y026065D03*
X013175Y026060D03*
X013175Y026055D03*
X013175Y026050D03*
X013175Y026040D03*
X013175Y026035D03*
X013175Y026030D03*
X013175Y026025D03*
X013175Y026020D03*
X013175Y026015D03*
X013175Y026010D03*
X013175Y026005D03*
X013175Y026000D03*
X013175Y025995D03*
X013175Y025990D03*
X013175Y025985D03*
X013175Y025980D03*
X013175Y025975D03*
X013175Y025970D03*
X013175Y025965D03*
X013175Y025960D03*
X013175Y025955D03*
X013175Y025950D03*
X013175Y025945D03*
X013175Y025940D03*
X013175Y025935D03*
X013175Y025930D03*
X013175Y025925D03*
X013175Y025920D03*
X013175Y025915D03*
X013175Y025910D03*
X013175Y025905D03*
X013175Y025900D03*
X013175Y025895D03*
X013175Y025890D03*
X013175Y025885D03*
X013175Y025880D03*
X013175Y025875D03*
X013175Y025870D03*
X013175Y025865D03*
X013175Y025860D03*
X013175Y025855D03*
X013175Y025850D03*
X013175Y025845D03*
X013175Y025840D03*
X013175Y025835D03*
X013175Y025830D03*
X013175Y025590D03*
X013175Y025585D03*
X013175Y025580D03*
X013175Y025575D03*
X013175Y025570D03*
X013175Y025565D03*
X013175Y025560D03*
X013175Y025555D03*
X013175Y025550D03*
X013175Y025545D03*
X013175Y025540D03*
X013175Y025535D03*
X013175Y025530D03*
X013175Y025525D03*
X013175Y025520D03*
X013175Y025515D03*
X013175Y025510D03*
X013175Y025505D03*
X013175Y025500D03*
X013175Y025495D03*
X013175Y025490D03*
X013175Y025485D03*
X013175Y025480D03*
X013175Y025475D03*
X013175Y025470D03*
X013175Y025465D03*
X013175Y025460D03*
X013175Y025455D03*
X013175Y025450D03*
X013175Y025445D03*
X013175Y025440D03*
X013175Y025435D03*
X013175Y025430D03*
X013175Y025425D03*
X013175Y025420D03*
X013175Y025415D03*
X013175Y025410D03*
X013175Y025405D03*
X013175Y025400D03*
X013175Y025395D03*
X013175Y025390D03*
X013175Y025385D03*
X013175Y025380D03*
X013175Y025375D03*
X013175Y025370D03*
X013175Y025365D03*
X013175Y025360D03*
X013175Y025355D03*
X013175Y025350D03*
X013175Y025345D03*
X013175Y025340D03*
X013175Y025335D03*
X013175Y025330D03*
X013175Y025325D03*
X013175Y025320D03*
X013175Y025315D03*
X013175Y025310D03*
X013175Y025305D03*
X013175Y025300D03*
X013175Y025295D03*
X013175Y025290D03*
X013175Y025285D03*
X013175Y025280D03*
X013175Y025275D03*
X013175Y025270D03*
X013175Y025265D03*
X013175Y025260D03*
X013175Y025255D03*
X013175Y025250D03*
X013175Y025245D03*
X013175Y025240D03*
X013175Y025235D03*
X013175Y025230D03*
X013175Y025225D03*
X013175Y025220D03*
X013175Y025215D03*
X013175Y025210D03*
X013175Y025205D03*
X013175Y025200D03*
X013175Y025195D03*
X013175Y025190D03*
X013175Y025185D03*
X013175Y025180D03*
X013175Y025175D03*
X013175Y025170D03*
X013175Y025165D03*
X013175Y025160D03*
X013175Y025155D03*
X013175Y025150D03*
X013175Y025145D03*
X013175Y025140D03*
X013175Y025135D03*
X013175Y025130D03*
X013175Y025125D03*
X012755Y025580D03*
X012755Y025585D03*
X012755Y025590D03*
X012755Y025595D03*
X012755Y025600D03*
X012755Y025605D03*
X012755Y025610D03*
X012755Y025615D03*
X012760Y025630D03*
X012465Y025595D03*
X012465Y025590D03*
X012465Y025585D03*
X012465Y025580D03*
X012460Y025610D03*
X012460Y025615D03*
X012460Y025620D03*
X012455Y025625D03*
X012455Y025630D03*
X012465Y025270D03*
X012465Y025265D03*
X012465Y025260D03*
X012465Y025255D03*
X012045Y025090D03*
X011750Y025105D03*
X011750Y025110D03*
X011750Y025115D03*
X011325Y025600D03*
X011325Y025605D03*
X011330Y025610D03*
X011330Y025615D03*
X011035Y025610D03*
X011030Y025625D03*
X011030Y025630D03*
X011035Y025285D03*
X011035Y025280D03*
X011030Y025270D03*
X011030Y025265D03*
X010390Y025265D03*
X010390Y025260D03*
X010390Y025255D03*
X010385Y025250D03*
X010385Y025245D03*
X010390Y025270D03*
X010390Y025275D03*
X010390Y025280D03*
X010390Y025285D03*
X010390Y025290D03*
X010390Y025295D03*
X010390Y025300D03*
X010390Y025305D03*
X010390Y025310D03*
X010390Y025315D03*
X010390Y025320D03*
X010390Y025325D03*
X010390Y025330D03*
X010390Y025335D03*
X010390Y025340D03*
X010390Y025345D03*
X010390Y025350D03*
X010390Y025355D03*
X010390Y025360D03*
X010390Y025365D03*
X010390Y025370D03*
X010390Y025375D03*
X010390Y025380D03*
X010390Y025385D03*
X010390Y025390D03*
X010390Y025395D03*
X010390Y025400D03*
X010390Y025405D03*
X010390Y025410D03*
X010390Y025415D03*
X010390Y025420D03*
X010390Y025425D03*
X010390Y025430D03*
X010390Y025435D03*
X010390Y025440D03*
X010390Y025445D03*
X010390Y025450D03*
X010390Y025455D03*
X010390Y025460D03*
X010390Y025465D03*
X010390Y025470D03*
X010390Y025475D03*
X010390Y025480D03*
X010390Y025485D03*
X010390Y025490D03*
X010390Y025495D03*
X010390Y025500D03*
X010390Y025505D03*
X010390Y025510D03*
X010390Y025515D03*
X010390Y025520D03*
X010390Y025525D03*
X010390Y025530D03*
X010390Y025535D03*
X010390Y025540D03*
X010390Y025545D03*
X010390Y025550D03*
X010390Y025555D03*
X010390Y025560D03*
X010390Y025565D03*
X010390Y025570D03*
X010390Y025575D03*
X010390Y025580D03*
X010390Y025585D03*
X010390Y025590D03*
X010390Y025595D03*
X010390Y025600D03*
X010390Y025605D03*
X010390Y025610D03*
X010390Y025615D03*
X010390Y025620D03*
X010390Y025625D03*
X010390Y025630D03*
X010390Y025635D03*
X010390Y025640D03*
X010390Y025645D03*
X010390Y025650D03*
X010390Y025655D03*
X010390Y025660D03*
X010390Y025665D03*
X010390Y025670D03*
X010390Y025675D03*
X010390Y025680D03*
X010390Y025685D03*
X010390Y025690D03*
X010390Y025695D03*
X010390Y025700D03*
X010390Y025705D03*
X010390Y025710D03*
X010390Y025715D03*
X010390Y025720D03*
X010390Y025725D03*
X010390Y025730D03*
X010390Y025735D03*
X010390Y025740D03*
X010390Y025745D03*
X010390Y025750D03*
X010390Y025755D03*
X010390Y025760D03*
X010390Y025765D03*
X010390Y025770D03*
X010390Y025775D03*
X010390Y025780D03*
X010610Y026075D03*
X010110Y025790D03*
X010110Y025785D03*
X010110Y025780D03*
X010110Y025775D03*
X010110Y025770D03*
X010110Y025765D03*
X010110Y025760D03*
X010110Y025755D03*
X010110Y025750D03*
X010110Y025745D03*
X010110Y025740D03*
X010110Y025735D03*
X010110Y025730D03*
X010110Y025725D03*
X010110Y025720D03*
X010110Y025715D03*
X010110Y025710D03*
X010110Y025705D03*
X010110Y025700D03*
X010110Y025695D03*
X010110Y025690D03*
X010110Y025685D03*
X010110Y025680D03*
X010110Y025675D03*
X010110Y025670D03*
X010110Y025665D03*
X010110Y025660D03*
X010110Y025655D03*
X010110Y025650D03*
X010110Y025645D03*
X010110Y025640D03*
X010110Y025635D03*
X010110Y025630D03*
X010110Y025625D03*
X010110Y025620D03*
X010110Y025615D03*
X010110Y025610D03*
X010110Y025605D03*
X010110Y025600D03*
X010110Y025595D03*
X010110Y025590D03*
X010110Y025585D03*
X010110Y025580D03*
X010110Y025575D03*
X010110Y025570D03*
X010110Y025565D03*
X010110Y025560D03*
X010110Y025555D03*
X010110Y025550D03*
X010110Y025545D03*
X010110Y025540D03*
X010110Y025535D03*
X010110Y025530D03*
X010110Y025525D03*
X010110Y025520D03*
X010110Y025515D03*
X010110Y025510D03*
X010110Y025505D03*
X010110Y025500D03*
X010110Y025495D03*
X010110Y025490D03*
X010110Y025485D03*
X010110Y025480D03*
X009835Y025255D03*
X009610Y025580D03*
X009610Y025585D03*
X009190Y025585D03*
X009190Y025580D03*
X009190Y025615D03*
X009190Y025620D03*
X009190Y025625D03*
X009190Y025430D03*
X009190Y025425D03*
X009190Y025420D03*
X008895Y025600D03*
X008895Y025605D03*
X008895Y025610D03*
X008890Y025620D03*
X008890Y025625D03*
X008475Y025585D03*
X008475Y025580D03*
X007765Y025620D03*
X007760Y025605D03*
X007760Y025600D03*
X007755Y025320D03*
X007755Y025315D03*
X007755Y025310D03*
X007755Y025305D03*
X007755Y025300D03*
X007755Y025295D03*
X007760Y025290D03*
X007760Y025285D03*
X007760Y025280D03*
X007765Y025270D03*
X013985Y025095D03*
X014410Y025095D03*
X014700Y025385D03*
X014925Y025895D03*
D65*
X014925Y025860D03*
X014795Y025565D03*
X016430Y025860D03*
X013085Y026995D03*
X012250Y025805D03*
X012130Y025495D03*
X012330Y025140D03*
X011540Y025805D03*
X010825Y025090D03*
X009470Y025135D03*
X009285Y025490D03*
X010275Y026780D03*
X007970Y025805D03*
D66*
X010113Y025090D03*
X010288Y026875D03*
X014033Y026810D03*
X015703Y025185D03*
X012218Y032075D03*
D67*
X010390Y031395D03*
X011255Y027010D03*
X010270Y026765D03*
X010685Y025735D03*
X009440Y025090D03*
X008110Y025385D03*
X015835Y025215D03*
D68*
X016433Y025105D03*
X015058Y025415D03*
X014798Y025560D03*
X014928Y025105D03*
X014173Y025860D03*
X014048Y026720D03*
X013088Y027000D03*
X012333Y025145D03*
X011243Y027025D03*
X009493Y025165D03*
X009488Y025160D03*
X009488Y025155D03*
X009483Y025150D03*
X009478Y025145D03*
X009473Y025140D03*
X008683Y025805D03*
X008088Y025410D03*
X007973Y025090D03*
X014018Y031355D03*
D69*
X014010Y031310D03*
X010400Y031330D03*
X010770Y025795D03*
X010825Y025155D03*
X010825Y025150D03*
X012195Y025440D03*
X012250Y025740D03*
X013015Y025790D03*
X014925Y025805D03*
X014995Y025470D03*
X015750Y025095D03*
X016430Y025155D03*
X016430Y025805D03*
X008685Y025740D03*
X008025Y025460D03*
X007970Y025155D03*
D70*
X007768Y025260D03*
X007768Y025265D03*
X007763Y025275D03*
X007758Y025595D03*
X007763Y025610D03*
X007763Y025615D03*
X007768Y025625D03*
X007768Y025630D03*
X008473Y025595D03*
X008473Y025590D03*
X008883Y025640D03*
X008888Y025635D03*
X008888Y025630D03*
X009193Y025630D03*
X009193Y025635D03*
X009193Y025575D03*
X009193Y025435D03*
X009608Y025590D03*
X009608Y025595D03*
X009608Y025600D03*
X009608Y025605D03*
X009603Y025625D03*
X009603Y025630D03*
X009603Y025635D03*
X009598Y025640D03*
X009598Y025645D03*
X009593Y025650D03*
X009838Y025250D03*
X009838Y025245D03*
X010113Y025265D03*
X010113Y025270D03*
X010113Y025275D03*
X010113Y025280D03*
X010113Y025285D03*
X010113Y025290D03*
X010113Y025305D03*
X010113Y025310D03*
X010113Y025320D03*
X010113Y025325D03*
X010113Y025330D03*
X010113Y025340D03*
X010113Y025355D03*
X010113Y025365D03*
X010113Y025370D03*
X010113Y025380D03*
X010113Y025385D03*
X010113Y025390D03*
X010113Y025405D03*
X010113Y025425D03*
X010113Y025430D03*
X010113Y025435D03*
X010113Y025440D03*
X010113Y025445D03*
X010113Y025450D03*
X010113Y025455D03*
X010113Y025460D03*
X010113Y025465D03*
X010113Y025470D03*
X010113Y025475D03*
X010383Y025240D03*
X010383Y025235D03*
X010618Y025265D03*
X010613Y025305D03*
X010613Y025310D03*
X010613Y025315D03*
X010613Y025320D03*
X010613Y025325D03*
X010613Y025335D03*
X010613Y025340D03*
X010613Y025350D03*
X010613Y025360D03*
X010613Y025375D03*
X010613Y025380D03*
X010613Y025385D03*
X010613Y025390D03*
X010613Y025400D03*
X010613Y025410D03*
X010613Y025415D03*
X010613Y025420D03*
X010613Y025425D03*
X010613Y025430D03*
X010613Y025435D03*
X010613Y025445D03*
X010613Y025450D03*
X010613Y025455D03*
X010613Y025460D03*
X010613Y025470D03*
X010613Y025480D03*
X010613Y025485D03*
X010613Y025495D03*
X010613Y025505D03*
X010613Y025510D03*
X010613Y025515D03*
X010613Y025520D03*
X010613Y025525D03*
X010613Y025530D03*
X010613Y025540D03*
X010613Y025545D03*
X010613Y025550D03*
X010613Y025555D03*
X010613Y025560D03*
X010613Y025570D03*
X010613Y025575D03*
X010613Y025580D03*
X010613Y025585D03*
X010613Y025870D03*
X010613Y025875D03*
X010613Y025880D03*
X010613Y025885D03*
X010613Y025895D03*
X010613Y025900D03*
X010613Y025910D03*
X010613Y025915D03*
X010613Y025925D03*
X010613Y025940D03*
X010613Y025945D03*
X010613Y025955D03*
X010613Y025960D03*
X010613Y025965D03*
X010613Y025975D03*
X010613Y025980D03*
X010613Y025985D03*
X010613Y025995D03*
X010613Y026005D03*
X010613Y026010D03*
X010613Y026015D03*
X010613Y026020D03*
X010613Y026025D03*
X010613Y026060D03*
X010613Y026065D03*
X010613Y026070D03*
X011023Y025640D03*
X011028Y025635D03*
X011033Y025620D03*
X011033Y025615D03*
X011038Y025605D03*
X011038Y025600D03*
X011038Y025595D03*
X011038Y025590D03*
X011038Y025585D03*
X011038Y025580D03*
X011038Y025315D03*
X011038Y025310D03*
X011038Y025305D03*
X011038Y025300D03*
X011038Y025295D03*
X011038Y025290D03*
X011033Y025275D03*
X011028Y025260D03*
X011028Y025255D03*
X011023Y025250D03*
X011333Y025620D03*
X011333Y025625D03*
X011748Y025595D03*
X011748Y025590D03*
X011748Y025585D03*
X011748Y025580D03*
X011748Y025575D03*
X011748Y025570D03*
X011748Y025565D03*
X011748Y025560D03*
X011748Y025555D03*
X011748Y025550D03*
X011748Y025545D03*
X011748Y025540D03*
X011748Y025535D03*
X011748Y025530D03*
X011748Y025525D03*
X011748Y025520D03*
X011748Y025515D03*
X011748Y025510D03*
X011748Y025505D03*
X011748Y025500D03*
X011748Y025495D03*
X011748Y025490D03*
X011748Y025485D03*
X011748Y025480D03*
X011748Y025475D03*
X011748Y025470D03*
X011748Y025465D03*
X011748Y025460D03*
X011748Y025455D03*
X011748Y025450D03*
X011748Y025445D03*
X011748Y025440D03*
X011748Y025435D03*
X011748Y025430D03*
X011748Y025425D03*
X011748Y025420D03*
X011748Y025415D03*
X011748Y025410D03*
X011748Y025405D03*
X011748Y025400D03*
X011748Y025395D03*
X011748Y025390D03*
X011748Y025385D03*
X011748Y025380D03*
X011748Y025375D03*
X011748Y025370D03*
X011748Y025365D03*
X011748Y025360D03*
X011748Y025355D03*
X011748Y025350D03*
X011748Y025345D03*
X011748Y025340D03*
X011748Y025335D03*
X011748Y025330D03*
X011748Y025325D03*
X011748Y025320D03*
X011748Y025315D03*
X011748Y025310D03*
X011748Y025305D03*
X011748Y025300D03*
X011748Y025295D03*
X011748Y025290D03*
X011748Y025285D03*
X011748Y025280D03*
X011748Y025275D03*
X011748Y025270D03*
X011748Y025265D03*
X011748Y025260D03*
X011748Y025255D03*
X011748Y025250D03*
X011748Y025245D03*
X011748Y025240D03*
X011748Y025235D03*
X011748Y025230D03*
X011748Y025225D03*
X011748Y025220D03*
X011748Y025215D03*
X011748Y025210D03*
X011748Y025205D03*
X011748Y025200D03*
X011748Y025195D03*
X011748Y025190D03*
X011748Y025185D03*
X011748Y025180D03*
X011748Y025175D03*
X011748Y025170D03*
X011748Y025165D03*
X011748Y025160D03*
X011748Y025155D03*
X011748Y025150D03*
X011748Y025145D03*
X011748Y025140D03*
X011748Y025135D03*
X011748Y025130D03*
X011748Y025125D03*
X011748Y025120D03*
X012043Y025100D03*
X012043Y025095D03*
X012463Y025245D03*
X012463Y025250D03*
X012463Y025275D03*
X012463Y025280D03*
X012453Y025635D03*
X012758Y025625D03*
X012758Y025620D03*
X012763Y025635D03*
X013173Y025625D03*
X013173Y025620D03*
X013173Y025615D03*
X013173Y025610D03*
X013173Y025605D03*
X013173Y025600D03*
X013173Y025595D03*
X013173Y025825D03*
X013178Y026045D03*
X014058Y026650D03*
X013983Y025100D03*
X011308Y026945D03*
X010383Y031450D03*
D71*
X010393Y031375D03*
X012253Y032080D03*
X013093Y027005D03*
X014048Y026725D03*
X014803Y025555D03*
X016433Y025855D03*
X012343Y025160D03*
X011538Y025800D03*
X010823Y025095D03*
X010273Y026785D03*
X008683Y025800D03*
X007973Y025800D03*
X007973Y025095D03*
D72*
X010113Y025095D03*
X014943Y025515D03*
X015698Y025200D03*
D73*
X015678Y025860D03*
X015063Y025410D03*
X014928Y025100D03*
X016433Y025100D03*
X012328Y025130D03*
X012328Y025135D03*
X012323Y025125D03*
X012278Y025435D03*
X012128Y025500D03*
X009468Y025130D03*
X009463Y025125D03*
X009413Y025440D03*
X008093Y025405D03*
X010393Y031380D03*
X014018Y031360D03*
D74*
X011198Y027090D03*
X010773Y025790D03*
X011538Y025740D03*
X013013Y025785D03*
X014173Y025805D03*
X014038Y026775D03*
X014928Y025160D03*
X015683Y025805D03*
X015748Y025100D03*
X007968Y025740D03*
D75*
X007973Y025810D03*
X007913Y025480D03*
X008683Y025810D03*
X009448Y025105D03*
X011248Y027015D03*
X011538Y025810D03*
X012303Y025100D03*
X014783Y025575D03*
X014928Y025870D03*
X015073Y025400D03*
X016433Y025870D03*
X014018Y031370D03*
D76*
X014018Y031350D03*
X014173Y025850D03*
X015048Y025420D03*
X016433Y025850D03*
X011538Y025795D03*
X010823Y025100D03*
X008683Y025795D03*
X007973Y025795D03*
X007973Y025100D03*
D77*
X010113Y025100D03*
X014033Y026815D03*
X015693Y025210D03*
X010408Y031285D03*
D78*
X010400Y031325D03*
X013130Y027055D03*
X013010Y025780D03*
X014925Y025800D03*
X014990Y025475D03*
X014930Y025165D03*
X015745Y025105D03*
X016430Y025160D03*
X010825Y025160D03*
X010775Y025785D03*
X010285Y026840D03*
X007970Y025160D03*
D79*
X008100Y025395D03*
X007935Y025470D03*
X007925Y025475D03*
X007895Y025485D03*
X007860Y025505D03*
X009445Y025420D03*
X009455Y025110D03*
X012120Y025505D03*
X012300Y025420D03*
X012310Y025110D03*
X012305Y025105D03*
X010390Y031385D03*
D80*
X013098Y027010D03*
X011538Y025790D03*
X010823Y025105D03*
X010278Y026795D03*
X008683Y025790D03*
X007973Y025790D03*
X014813Y025545D03*
X014928Y025115D03*
X015678Y025845D03*
D81*
X014933Y025525D03*
X010408Y031280D03*
X010293Y026885D03*
X010113Y025105D03*
D82*
X009395Y025790D03*
X010275Y026790D03*
X011235Y027040D03*
X012250Y025790D03*
X012145Y025480D03*
X014045Y026735D03*
X010395Y031370D03*
X007975Y025105D03*
D83*
X008080Y025415D03*
X009295Y025480D03*
X009395Y025795D03*
X011240Y027035D03*
X012250Y025795D03*
X012140Y025485D03*
X014045Y026730D03*
X014925Y025850D03*
X014805Y025550D03*
X014930Y025110D03*
X015680Y025850D03*
X016430Y025110D03*
D84*
X016433Y025165D03*
X016433Y025800D03*
X015743Y025110D03*
X015678Y025800D03*
X014923Y025795D03*
X014928Y025170D03*
X014173Y025800D03*
X013008Y025775D03*
X013133Y027060D03*
X011198Y027095D03*
X010778Y025780D03*
X014008Y031305D03*
D85*
X014043Y026740D03*
X011538Y025785D03*
X010823Y025110D03*
X009308Y025475D03*
X008683Y025785D03*
X007973Y025110D03*
D86*
X010113Y025110D03*
X010293Y026890D03*
D87*
X010275Y026800D03*
X009395Y025785D03*
X008070Y025420D03*
X007970Y025785D03*
X010395Y031365D03*
X014015Y031345D03*
X014175Y025845D03*
X014925Y025845D03*
X015040Y025425D03*
X016430Y025115D03*
X016430Y025845D03*
X012250Y025785D03*
D88*
X013003Y025770D03*
X014173Y025795D03*
X014923Y025790D03*
X014983Y025480D03*
X014928Y025175D03*
X015678Y025790D03*
X015678Y025795D03*
X015738Y025115D03*
X016433Y025170D03*
X014038Y026780D03*
X013138Y027065D03*
X010783Y025775D03*
X010283Y026845D03*
X014008Y031300D03*
D89*
X011225Y027050D03*
X011540Y025780D03*
X012250Y025775D03*
X010825Y025115D03*
X009315Y025470D03*
X008685Y025780D03*
X008060Y025430D03*
X010395Y031355D03*
X014045Y026745D03*
X014175Y025840D03*
X015030Y025440D03*
X016430Y025120D03*
X016430Y025840D03*
D90*
X014028Y026830D03*
X014003Y031250D03*
X010293Y026895D03*
X010113Y025115D03*
D91*
X010278Y026805D03*
X008063Y025425D03*
X007973Y025115D03*
X014823Y025540D03*
X015033Y025435D03*
X014928Y025120D03*
X014923Y025840D03*
X015678Y025840D03*
D92*
X014975Y025485D03*
X015730Y025120D03*
X014175Y025780D03*
X012995Y025755D03*
X011190Y027110D03*
X010285Y026850D03*
X010790Y025760D03*
X014010Y031290D03*
D93*
X014020Y031365D03*
X013085Y026990D03*
X012285Y025430D03*
X012320Y025120D03*
X011245Y027020D03*
X009395Y025805D03*
X009280Y025495D03*
X009425Y025435D03*
X009430Y025430D03*
X009435Y025425D03*
X009460Y025120D03*
X008095Y025400D03*
X007885Y025490D03*
X007875Y025495D03*
X007870Y025500D03*
X014790Y025570D03*
X014925Y025865D03*
X016430Y025865D03*
D94*
X016430Y025835D03*
X015025Y025445D03*
X014830Y025535D03*
X014925Y025835D03*
X011220Y027055D03*
X010825Y025120D03*
X009320Y025465D03*
X008685Y025775D03*
X014015Y031335D03*
D95*
X014028Y026835D03*
X010293Y026900D03*
X010113Y025120D03*
D96*
X009393Y025775D03*
X010278Y026810D03*
X012163Y025470D03*
X013108Y027020D03*
X014928Y025125D03*
X008058Y025435D03*
X007973Y025120D03*
X007968Y025775D03*
D97*
X008053Y025440D03*
X009323Y025460D03*
X009393Y025770D03*
X011538Y025775D03*
X012168Y025465D03*
X012248Y025770D03*
X013108Y027025D03*
X014043Y026750D03*
X014173Y025835D03*
X014838Y025530D03*
X014923Y025830D03*
X014928Y025130D03*
X015678Y025835D03*
X016433Y025125D03*
X014013Y031330D03*
X010398Y031350D03*
D98*
X010793Y025755D03*
X012993Y025750D03*
X012993Y025745D03*
X014173Y025775D03*
X014923Y025780D03*
X014928Y025185D03*
X015678Y025775D03*
X015728Y025125D03*
X016433Y025180D03*
X016433Y025780D03*
D99*
X013110Y027030D03*
X012170Y025460D03*
X011220Y027060D03*
X010825Y025125D03*
X009325Y025455D03*
X008685Y025770D03*
X007970Y025770D03*
X007975Y025125D03*
D100*
X010110Y025125D03*
X010410Y031270D03*
D101*
X011218Y027065D03*
X010278Y026815D03*
X011538Y025770D03*
X012248Y025765D03*
X014173Y025830D03*
X014923Y025825D03*
X014928Y025135D03*
X015678Y025830D03*
X016433Y025830D03*
X016433Y025130D03*
X014013Y031325D03*
X008048Y025445D03*
D102*
X010795Y025745D03*
X010795Y025750D03*
X012990Y025740D03*
X014035Y026790D03*
X014925Y025775D03*
X015680Y025770D03*
X015725Y025130D03*
X016430Y025185D03*
X016430Y025775D03*
D103*
X015680Y025825D03*
X015015Y025450D03*
X014040Y026755D03*
X013115Y027035D03*
X013035Y025815D03*
X012175Y025455D03*
X011215Y027070D03*
X010825Y025130D03*
X009395Y025765D03*
X009330Y025450D03*
X008685Y025765D03*
X007970Y025765D03*
X007975Y025130D03*
X010400Y031345D03*
D104*
X010293Y026905D03*
X010113Y025130D03*
X014003Y031245D03*
D105*
X014013Y031320D03*
X014173Y025825D03*
X014923Y025820D03*
X014928Y025140D03*
X016433Y025135D03*
X016433Y025825D03*
X012248Y025760D03*
X012248Y025755D03*
X011538Y025765D03*
X008683Y025760D03*
X007973Y025135D03*
D106*
X010288Y026855D03*
X010798Y025740D03*
X011188Y027115D03*
X014173Y025770D03*
X014928Y025195D03*
X014928Y025190D03*
X014968Y025490D03*
X015723Y025140D03*
X015723Y025135D03*
X014008Y031285D03*
X010403Y031310D03*
D107*
X011210Y027075D03*
X010280Y026820D03*
X009395Y025760D03*
X010825Y025135D03*
X011540Y025760D03*
X012180Y025450D03*
X013030Y025810D03*
X014175Y025820D03*
X014040Y026760D03*
X013115Y027040D03*
X015680Y025820D03*
X008040Y025450D03*
X007975Y025140D03*
X007970Y025760D03*
D108*
X010110Y025135D03*
X014030Y026840D03*
X010410Y031265D03*
D109*
X010758Y025810D03*
X011538Y025755D03*
X012248Y025750D03*
X014923Y025815D03*
X015008Y025455D03*
X014928Y025145D03*
X016433Y025140D03*
X016433Y025820D03*
X009393Y025755D03*
X009338Y025445D03*
X008683Y025755D03*
X007968Y025755D03*
X007973Y025145D03*
D110*
X010113Y025145D03*
X010113Y025140D03*
X014003Y031240D03*
D111*
X013123Y027045D03*
X012248Y025745D03*
X012188Y025445D03*
X011538Y025750D03*
X010763Y025805D03*
X010283Y026830D03*
X009393Y025750D03*
X007968Y025750D03*
X011208Y027080D03*
X014928Y025150D03*
X015003Y025460D03*
X016433Y025145D03*
D112*
X016430Y025190D03*
X016430Y025765D03*
X016430Y025770D03*
X015720Y025145D03*
X015680Y025765D03*
X014925Y025765D03*
X014925Y025770D03*
X014170Y025765D03*
X014035Y026795D03*
X011185Y027120D03*
D113*
X010288Y026860D03*
X014928Y025205D03*
X014928Y025200D03*
X014963Y025495D03*
X015718Y025150D03*
X016428Y025195D03*
D114*
X015680Y025855D03*
X014925Y025855D03*
X014175Y025855D03*
X012250Y025800D03*
X012135Y025490D03*
X012340Y025155D03*
X012335Y025150D03*
X011240Y027030D03*
X009395Y025800D03*
X009290Y025485D03*
D115*
X010113Y025150D03*
D116*
X010288Y026865D03*
X011183Y027125D03*
X014173Y025755D03*
X014923Y025750D03*
X014928Y025210D03*
X015713Y025155D03*
X016433Y025750D03*
D117*
X014998Y025465D03*
X014928Y025155D03*
X014173Y025810D03*
X013018Y025795D03*
X013128Y027050D03*
X011538Y025745D03*
X010768Y025800D03*
X010283Y026835D03*
X009393Y025740D03*
X007968Y025745D03*
X011203Y027085D03*
D118*
X010113Y025155D03*
D119*
X010290Y026870D03*
X010405Y031300D03*
X014035Y026805D03*
X014955Y025505D03*
X015680Y025755D03*
X015710Y025160D03*
X016430Y025210D03*
D120*
X014000Y031230D03*
X010295Y026915D03*
X010110Y025160D03*
D121*
X014173Y025750D03*
X015678Y025750D03*
X015708Y025170D03*
X015708Y025165D03*
D122*
X015870Y025255D03*
X015850Y025720D03*
X015505Y025720D03*
X015105Y025715D03*
X014745Y025710D03*
X014740Y025610D03*
X014755Y025240D03*
X015105Y025245D03*
X016250Y025250D03*
X016255Y025245D03*
X016610Y025250D03*
X016610Y025715D03*
X016260Y025720D03*
X012840Y025730D03*
X012375Y025730D03*
X012250Y025835D03*
X012410Y025355D03*
X012405Y025165D03*
X011670Y025725D03*
X011405Y025725D03*
X010955Y025170D03*
X010690Y025170D03*
X010650Y025710D03*
X009270Y025725D03*
X008815Y025725D03*
X008685Y025835D03*
X008550Y025725D03*
X008105Y025725D03*
X007840Y025725D03*
X007795Y025550D03*
X014020Y031405D03*
D123*
X013998Y031225D03*
X014023Y026850D03*
X010413Y031250D03*
X010113Y025165D03*
D124*
X010113Y025185D03*
X009558Y025170D03*
X009528Y025725D03*
X009258Y025720D03*
X008823Y025720D03*
X008113Y025720D03*
X008153Y025350D03*
X007788Y025560D03*
X010263Y026730D03*
X010643Y025700D03*
X010678Y025175D03*
X010968Y025175D03*
X011398Y025720D03*
X012068Y025545D03*
X012418Y025350D03*
X012963Y025835D03*
X013978Y025685D03*
X013983Y025695D03*
X013983Y025700D03*
X013988Y025705D03*
X013993Y025710D03*
X014358Y025705D03*
X014733Y025685D03*
X014733Y025615D03*
X014738Y025260D03*
X015118Y025265D03*
X015123Y025350D03*
X015118Y025695D03*
X015493Y025705D03*
X015498Y025710D03*
X015863Y025705D03*
X015863Y025700D03*
X015868Y025695D03*
X015873Y025685D03*
X015878Y025280D03*
X015498Y025250D03*
X015493Y025255D03*
X016238Y025690D03*
X016433Y025885D03*
X016618Y025705D03*
X016623Y025270D03*
X014023Y031410D03*
X010388Y031425D03*
D125*
X010403Y031315D03*
X014008Y031295D03*
X014038Y026785D03*
X014173Y025785D03*
X014923Y025785D03*
X014928Y025180D03*
X015678Y025780D03*
X015678Y025785D03*
X016433Y025785D03*
X016433Y025175D03*
X012998Y025760D03*
X010788Y025765D03*
D126*
X010405Y031295D03*
X014005Y031275D03*
X014950Y025510D03*
X015705Y025180D03*
X015705Y025175D03*
D127*
X015700Y025190D03*
X015700Y025195D03*
X014005Y031270D03*
X010405Y031290D03*
D128*
X010405Y031305D03*
X014005Y031280D03*
X014035Y026800D03*
X014170Y025760D03*
X014925Y025760D03*
X014925Y025755D03*
X014960Y025500D03*
X015680Y025760D03*
X016430Y025760D03*
X016430Y025755D03*
X016430Y025205D03*
X016430Y025200D03*
D129*
X015695Y025205D03*
X014005Y031265D03*
X010290Y026880D03*
D130*
X011265Y026995D03*
X011535Y025820D03*
X012095Y025525D03*
X012250Y025820D03*
X014030Y025745D03*
X014760Y025595D03*
X014785Y025745D03*
X015065Y025745D03*
X015095Y025380D03*
X015535Y025215D03*
X015850Y025230D03*
X016570Y025215D03*
X016575Y025745D03*
X014020Y031385D03*
X008125Y025375D03*
D131*
X007970Y025780D03*
X009395Y025780D03*
X011230Y027045D03*
X012250Y025780D03*
X012155Y025475D03*
X013105Y027015D03*
X015035Y025430D03*
X014015Y031340D03*
X010395Y031360D03*
D132*
X014005Y031260D03*
X014935Y025520D03*
D133*
X014175Y025790D03*
X013000Y025765D03*
X011195Y027105D03*
X010785Y025770D03*
X016435Y025790D03*
D134*
X016435Y025795D03*
X011195Y027100D03*
X010400Y031320D03*
D135*
X014005Y031255D03*
X014030Y026820D03*
D136*
X014030Y026825D03*
D137*
X014025Y026845D03*
X014000Y031235D03*
X010410Y031255D03*
D138*
X012193Y032070D03*
X013998Y031220D03*
X014023Y026855D03*
X010298Y026925D03*
D139*
X010298Y026930D03*
X010413Y031245D03*
X014023Y026860D03*
D140*
X014023Y026865D03*
X013998Y031215D03*
D141*
X013995Y031210D03*
X014020Y026870D03*
X010415Y031235D03*
X010300Y026940D03*
D142*
X014020Y026875D03*
X013995Y031205D03*
D143*
X014018Y026880D03*
D144*
X014015Y026885D03*
X010305Y026955D03*
D145*
X010305Y026960D03*
X014015Y026890D03*
X013990Y031185D03*
D146*
X014015Y026895D03*
X010420Y031210D03*
D147*
X012188Y032055D03*
X013993Y031180D03*
X014013Y026900D03*
X010308Y026970D03*
D148*
X010310Y026975D03*
X010425Y031200D03*
X012190Y032050D03*
X013990Y031175D03*
X014010Y026905D03*
D149*
X014010Y026910D03*
X013985Y031165D03*
X010425Y031190D03*
D150*
X010410Y031260D03*
X010295Y026910D03*
D151*
X010313Y026990D03*
X014008Y026915D03*
D152*
X014008Y026920D03*
X010428Y031180D03*
X010313Y026995D03*
D153*
X010295Y026920D03*
D154*
X010315Y027000D03*
X012190Y032030D03*
X014005Y026925D03*
D155*
X014005Y026930D03*
X012190Y032020D03*
X012190Y032025D03*
X010430Y031175D03*
X010315Y027005D03*
D156*
X010318Y027010D03*
X010433Y031170D03*
X012193Y031975D03*
X012193Y031980D03*
X012193Y031985D03*
X012193Y031990D03*
X012193Y031995D03*
X012193Y032000D03*
X012193Y032005D03*
X014003Y026935D03*
D157*
X010415Y031240D03*
X010300Y026935D03*
D158*
X010433Y031165D03*
X012193Y031945D03*
X012193Y031950D03*
X012193Y031955D03*
X012193Y031960D03*
X012193Y031965D03*
X014003Y026940D03*
D159*
X014000Y026945D03*
X012190Y031920D03*
X010435Y031155D03*
X010320Y027020D03*
D160*
X010303Y026945D03*
X010418Y031225D03*
D161*
X010438Y031150D03*
X012193Y031885D03*
X012193Y031890D03*
X012193Y031895D03*
X013978Y031125D03*
X013998Y026950D03*
X010323Y027025D03*
D162*
X010305Y026950D03*
X010420Y031220D03*
X013995Y031195D03*
D163*
X013975Y031115D03*
X012195Y031850D03*
X012195Y031855D03*
X010325Y027035D03*
X013995Y026955D03*
D164*
X013995Y026960D03*
X012195Y031800D03*
X012195Y031805D03*
X012195Y031810D03*
X012195Y031815D03*
X012195Y031820D03*
X010325Y027040D03*
D165*
X012193Y031775D03*
X012193Y031780D03*
X012193Y031785D03*
X012193Y031790D03*
X012193Y031795D03*
X013993Y026965D03*
D166*
X010308Y026965D03*
D167*
X010328Y027045D03*
X012193Y031750D03*
X013993Y026970D03*
D168*
X013993Y026975D03*
X013973Y031105D03*
X012198Y031725D03*
X010443Y031130D03*
D169*
X012195Y031695D03*
X012195Y031700D03*
X013970Y031095D03*
X013990Y026980D03*
D170*
X010425Y031195D03*
X010310Y026980D03*
D171*
X010330Y027065D03*
X010445Y031115D03*
X012195Y031625D03*
X012195Y031630D03*
X012195Y031635D03*
X012195Y031640D03*
X012195Y031645D03*
X012195Y031650D03*
X012195Y031655D03*
X013970Y031085D03*
X013990Y026985D03*
D172*
X010313Y026985D03*
D173*
X010333Y027070D03*
X013988Y026990D03*
D174*
X013988Y026995D03*
X013968Y031080D03*
X012198Y031570D03*
X012198Y031575D03*
X012198Y031580D03*
X010448Y031110D03*
D175*
X010450Y031105D03*
X012200Y031530D03*
X012200Y031535D03*
X012200Y031540D03*
X013965Y031075D03*
X013985Y027000D03*
D176*
X013985Y027005D03*
X012200Y031505D03*
X012200Y031510D03*
X012200Y031515D03*
X012200Y031520D03*
X010450Y031100D03*
D177*
X010453Y031090D03*
X012198Y031475D03*
X012198Y031480D03*
X012198Y031485D03*
X013963Y031065D03*
X013983Y027010D03*
X010343Y027090D03*
D178*
X010455Y031085D03*
X012195Y031425D03*
X012195Y031430D03*
X012195Y031435D03*
X013960Y031055D03*
X013980Y027015D03*
D179*
X012190Y031940D03*
X010320Y027015D03*
D180*
X010343Y027105D03*
X010458Y031080D03*
X012198Y031370D03*
X012198Y031375D03*
X012198Y031380D03*
X012198Y031385D03*
X012198Y031390D03*
X013978Y027020D03*
D181*
X013978Y027025D03*
X013958Y031045D03*
X012203Y031345D03*
X012203Y031350D03*
D182*
X012203Y031335D03*
X012203Y031330D03*
X012203Y031325D03*
X012203Y031320D03*
X012203Y031315D03*
X010458Y031075D03*
X013978Y027030D03*
D183*
X012193Y031860D03*
X012193Y031865D03*
X012193Y031870D03*
X012193Y031875D03*
X010323Y027030D03*
D184*
X012205Y031310D03*
X013955Y031040D03*
X013975Y027035D03*
D185*
X013975Y027040D03*
X012200Y031275D03*
X012200Y031280D03*
X012200Y031285D03*
D186*
X012198Y031255D03*
X013973Y027045D03*
D187*
X013970Y027050D03*
X013955Y031020D03*
D188*
X012195Y031715D03*
X012195Y031720D03*
X010330Y027050D03*
D189*
X012195Y031245D03*
X013970Y027055D03*
D190*
X012198Y031685D03*
X012198Y031690D03*
X010443Y031120D03*
X010333Y027055D03*
D191*
X010465Y031045D03*
X013970Y027060D03*
D192*
X012198Y031660D03*
X012198Y031665D03*
X010333Y027060D03*
D193*
X013970Y027065D03*
X013950Y031010D03*
D194*
X013563Y029680D03*
X013668Y028535D03*
X013588Y028445D03*
X013403Y027975D03*
X013598Y027420D03*
X013603Y027410D03*
X013608Y027405D03*
X013728Y027070D03*
X010963Y028020D03*
X010963Y028025D03*
X010823Y027650D03*
X010818Y027640D03*
X010813Y027635D03*
X010813Y027630D03*
X010808Y027625D03*
X010803Y027620D03*
X010798Y027610D03*
X010618Y027130D03*
X010808Y028435D03*
X010803Y028440D03*
X010808Y029670D03*
X010813Y029675D03*
D195*
X010820Y029680D03*
X010825Y029685D03*
X010830Y029690D03*
X010810Y028430D03*
X010815Y028425D03*
X010960Y028035D03*
X010960Y028030D03*
X010800Y027615D03*
X010795Y027605D03*
X010795Y027600D03*
X010790Y027590D03*
X013405Y027980D03*
X013580Y028435D03*
X013585Y028440D03*
X013610Y027400D03*
X013615Y027395D03*
X013620Y027385D03*
X013625Y027375D03*
X013730Y027075D03*
X013670Y029570D03*
X013560Y029685D03*
D196*
X012195Y031560D03*
X012195Y031565D03*
X010335Y027075D03*
D197*
X010615Y027140D03*
X010785Y027580D03*
X010960Y028045D03*
X010655Y028610D03*
X010790Y029660D03*
X010835Y029700D03*
X013405Y027990D03*
X013405Y027985D03*
X013570Y028420D03*
X013575Y028425D03*
X013630Y027365D03*
X013630Y027360D03*
X013730Y027080D03*
X013555Y029695D03*
D198*
X012198Y031525D03*
X010338Y027080D03*
D199*
X010613Y027145D03*
X010778Y027570D03*
X010783Y027575D03*
X010963Y028050D03*
X010828Y028410D03*
X010843Y029705D03*
X013408Y028000D03*
X013408Y027995D03*
X013683Y028540D03*
X013553Y029700D03*
X013548Y029705D03*
X013638Y027355D03*
X013638Y027350D03*
X013733Y027085D03*
D200*
X013963Y031070D03*
X010343Y027085D03*
D201*
X010765Y027545D03*
X010770Y027550D03*
X010770Y027555D03*
X010775Y027560D03*
X010775Y027565D03*
X010960Y028055D03*
X010845Y029710D03*
X013545Y029710D03*
X013680Y029565D03*
X013565Y028415D03*
X013560Y028410D03*
X013640Y027345D03*
X013645Y027335D03*
X013735Y027090D03*
D202*
X013735Y027095D03*
X013735Y027100D03*
X013655Y027315D03*
X013650Y027320D03*
X013410Y028020D03*
X013410Y028025D03*
X013555Y028405D03*
X013540Y029720D03*
X010960Y028060D03*
X010840Y028395D03*
X010750Y027520D03*
X010745Y027510D03*
X010740Y027500D03*
X010610Y027160D03*
X010610Y027155D03*
D203*
X010343Y027095D03*
X012198Y031440D03*
X012198Y031445D03*
X012198Y031450D03*
X012198Y031455D03*
X012198Y031460D03*
X012198Y031465D03*
X013963Y031060D03*
D204*
X012198Y031395D03*
X012198Y031400D03*
X012198Y031405D03*
X012198Y031410D03*
X012198Y031415D03*
X012198Y031420D03*
X010343Y027100D03*
D205*
X010610Y027170D03*
X010730Y027480D03*
X010735Y027485D03*
X010960Y028065D03*
X010960Y028070D03*
X010850Y028380D03*
X010845Y028385D03*
X010860Y029730D03*
X013410Y028040D03*
X013410Y028035D03*
X013665Y027300D03*
X013670Y027295D03*
X013675Y027285D03*
X013675Y027280D03*
X013680Y027275D03*
X013735Y027110D03*
X013735Y027105D03*
X013535Y029725D03*
X013530Y029730D03*
D206*
X012200Y031340D03*
X010345Y027110D03*
D207*
X010705Y027440D03*
X010710Y027445D03*
X010720Y027460D03*
X010725Y027470D03*
X010960Y028075D03*
X010960Y028080D03*
X010960Y028085D03*
X010855Y028375D03*
X013410Y028050D03*
X013410Y028045D03*
X013705Y028545D03*
X013685Y027265D03*
X013690Y027255D03*
X013735Y027120D03*
X013735Y027115D03*
X013525Y029740D03*
D208*
X012203Y031290D03*
X012203Y031295D03*
X012203Y031300D03*
X012203Y031305D03*
X010458Y031070D03*
X010348Y027115D03*
D209*
X010353Y027120D03*
X012203Y031270D03*
X013958Y031035D03*
D210*
X013518Y029745D03*
X013708Y029555D03*
X013533Y028375D03*
X013688Y027260D03*
X013693Y027250D03*
X013733Y027125D03*
X010703Y027430D03*
X010703Y027435D03*
X010698Y027425D03*
X010603Y027180D03*
X010858Y028370D03*
X010628Y028615D03*
X010873Y029745D03*
D211*
X010460Y031055D03*
X010355Y027125D03*
X013955Y031025D03*
D212*
X013530Y028370D03*
X013410Y028055D03*
X013695Y027245D03*
X013695Y027240D03*
X013700Y027235D03*
X013700Y027230D03*
X013735Y027135D03*
X013735Y027130D03*
X010960Y028090D03*
X010960Y028095D03*
X010960Y028100D03*
X010960Y028105D03*
X010860Y028365D03*
X010695Y027420D03*
X010695Y027415D03*
X010690Y027405D03*
X010880Y029750D03*
D213*
X010833Y029695D03*
X010798Y029665D03*
X010818Y028420D03*
X010823Y028415D03*
X010963Y028040D03*
X010793Y027595D03*
X010788Y027585D03*
X010618Y027135D03*
X013618Y027390D03*
X013623Y027380D03*
X013628Y027370D03*
X013578Y028430D03*
X013558Y029690D03*
X012198Y031155D03*
D214*
X013528Y028365D03*
X013703Y027225D03*
X013708Y027220D03*
X013733Y027150D03*
X013733Y027145D03*
X013733Y027140D03*
X010958Y028110D03*
X010868Y028355D03*
X010863Y028360D03*
X010693Y027410D03*
X010688Y027400D03*
X010688Y027395D03*
X010603Y027190D03*
X010603Y027185D03*
D215*
X010613Y027150D03*
X010748Y027515D03*
X010753Y027525D03*
X010753Y027530D03*
X010758Y027535D03*
X010763Y027540D03*
X010838Y028400D03*
X010833Y028405D03*
X010778Y029655D03*
X010848Y029715D03*
X013408Y028015D03*
X013408Y028010D03*
X013408Y028005D03*
X013643Y027340D03*
X013648Y027330D03*
X013648Y027325D03*
X013543Y029715D03*
D216*
X013510Y029750D03*
X013525Y028360D03*
X013520Y028355D03*
X013410Y028065D03*
X013410Y028060D03*
X013710Y027215D03*
X013715Y027210D03*
X013720Y027200D03*
X013725Y027190D03*
X013725Y027185D03*
X013725Y027180D03*
X013730Y027175D03*
X013730Y027170D03*
X013730Y027165D03*
X013730Y027160D03*
X013730Y027155D03*
X010960Y028115D03*
X010960Y028120D03*
X010685Y027390D03*
X010680Y027385D03*
X010885Y029755D03*
X010890Y029760D03*
D217*
X010858Y029725D03*
X010853Y029720D03*
X010843Y028390D03*
X010743Y027505D03*
X010738Y027495D03*
X010738Y027490D03*
X010608Y027165D03*
X013408Y028030D03*
X013548Y028390D03*
X013548Y028395D03*
X013553Y028400D03*
X013658Y027310D03*
X013663Y027305D03*
X013673Y027290D03*
X013693Y029560D03*
X012198Y031150D03*
D218*
X013528Y029735D03*
X013543Y028385D03*
X013538Y028380D03*
X013683Y027270D03*
X010728Y027475D03*
X010723Y027465D03*
X010718Y027455D03*
X010713Y027450D03*
X010608Y027175D03*
X010763Y029650D03*
X010863Y029735D03*
X010868Y029740D03*
D219*
X010893Y029765D03*
X010898Y029770D03*
X010873Y028350D03*
X010958Y028125D03*
X010678Y027380D03*
X010673Y027375D03*
X010668Y027365D03*
X010663Y027360D03*
X010663Y027355D03*
X010658Y027350D03*
X010603Y027195D03*
X013518Y028350D03*
X013718Y027205D03*
X013723Y027195D03*
X013503Y029755D03*
X012198Y031145D03*
D220*
X013495Y029765D03*
X013500Y029760D03*
X013725Y029550D03*
X013410Y028075D03*
X013410Y028070D03*
X010960Y028130D03*
X010670Y027370D03*
X010655Y027345D03*
X010605Y027205D03*
X010605Y027200D03*
D221*
X010605Y027210D03*
X010605Y027215D03*
X010605Y027220D03*
X010640Y027310D03*
X010645Y027320D03*
X010645Y027325D03*
X010735Y029645D03*
X013410Y028090D03*
X013410Y028085D03*
X013510Y028345D03*
X013730Y028550D03*
X013485Y029775D03*
D222*
X013413Y028100D03*
X013413Y028095D03*
X010958Y028140D03*
X010608Y028620D03*
X010643Y027315D03*
X010638Y027305D03*
X010633Y027295D03*
X010613Y027260D03*
X010608Y027240D03*
X010608Y027235D03*
X010608Y027230D03*
X010608Y027225D03*
D223*
X010610Y027245D03*
X010610Y027250D03*
X010610Y027255D03*
X010615Y027265D03*
X010615Y027270D03*
X010620Y027275D03*
X010620Y027280D03*
X010625Y027285D03*
X010630Y027290D03*
X010635Y027300D03*
X010960Y028145D03*
X010890Y028335D03*
X010885Y028340D03*
X010910Y029780D03*
X013410Y028105D03*
X013505Y028340D03*
X013480Y029780D03*
D224*
X013493Y029770D03*
X013413Y028080D03*
X010958Y028135D03*
X010878Y028345D03*
X010653Y027340D03*
X010648Y027335D03*
X010648Y027330D03*
X010903Y029775D03*
D225*
X010800Y028445D03*
X010960Y028015D03*
X010830Y027665D03*
X010825Y027660D03*
X010825Y027655D03*
X010820Y027645D03*
X013590Y027440D03*
X013595Y027430D03*
X013595Y027425D03*
X013600Y027415D03*
X013590Y028450D03*
X013570Y029675D03*
D226*
X013573Y029670D03*
X013593Y028455D03*
X013403Y027970D03*
X013403Y027965D03*
X013588Y027445D03*
X013593Y027435D03*
X010963Y028005D03*
X010963Y028010D03*
X010833Y027675D03*
X010833Y027670D03*
X012198Y031160D03*
D227*
X013583Y029655D03*
X013653Y029575D03*
X013603Y028470D03*
X013403Y027955D03*
X013583Y027450D03*
X010853Y027710D03*
X010848Y027700D03*
X010843Y027690D03*
X010838Y027680D03*
X010788Y028460D03*
D228*
X010785Y028465D03*
X010675Y028605D03*
X010965Y027995D03*
X010860Y027720D03*
X010855Y027715D03*
X010850Y027705D03*
X010845Y027695D03*
X010840Y027685D03*
X013405Y027945D03*
X013405Y027950D03*
X013570Y027480D03*
X013575Y027470D03*
X013575Y027465D03*
X013580Y027460D03*
X013580Y027455D03*
X013605Y028475D03*
X013650Y028525D03*
X013590Y029645D03*
X013585Y029650D03*
X012195Y031165D03*
D229*
X013608Y028480D03*
X013558Y027495D03*
X013563Y027490D03*
X013568Y027485D03*
X013573Y027475D03*
X010968Y027985D03*
X010968Y027990D03*
X010873Y027740D03*
X010868Y027735D03*
X010868Y027730D03*
X010863Y027725D03*
X010783Y028470D03*
D230*
X010780Y028475D03*
X010780Y028480D03*
X010880Y027760D03*
X010875Y027750D03*
X010875Y027745D03*
X013405Y027935D03*
X013405Y027940D03*
X013545Y027520D03*
X013550Y027510D03*
X013550Y027505D03*
X013555Y027500D03*
X013610Y028485D03*
X013615Y028495D03*
X013640Y028520D03*
X013600Y029635D03*
X013595Y029640D03*
D231*
X013603Y029630D03*
X013603Y029625D03*
X013608Y029620D03*
X013633Y028515D03*
X013618Y028500D03*
X013613Y028490D03*
X013403Y027930D03*
X013543Y027530D03*
X013543Y027525D03*
X013548Y027515D03*
X010968Y027980D03*
X010883Y027770D03*
X010883Y027765D03*
X010878Y027755D03*
X010778Y028485D03*
X010773Y028490D03*
X010773Y028495D03*
D232*
X010770Y028500D03*
X010965Y027975D03*
X010885Y027775D03*
X013400Y027925D03*
X013535Y027540D03*
X013540Y027535D03*
X013620Y028505D03*
X013625Y028510D03*
X013610Y029610D03*
X013610Y029615D03*
X012195Y031170D03*
D233*
X013613Y029605D03*
X013618Y029600D03*
X013633Y029580D03*
X013533Y027545D03*
X010968Y027970D03*
X010913Y027815D03*
X010908Y027810D03*
X010903Y027800D03*
X010898Y027790D03*
X010893Y027785D03*
X010893Y027780D03*
X010768Y028505D03*
X010688Y028600D03*
D234*
X010765Y028510D03*
X010965Y027965D03*
X010965Y027960D03*
X010915Y027820D03*
X010905Y027805D03*
X010900Y027795D03*
X013400Y027915D03*
X013400Y027920D03*
X013530Y027550D03*
X013620Y029595D03*
D235*
X013623Y029590D03*
X013628Y029585D03*
X013398Y027910D03*
X013518Y027575D03*
X013523Y027565D03*
X013523Y027560D03*
X013528Y027555D03*
X010923Y027830D03*
X010923Y027835D03*
X010918Y027825D03*
X010763Y028515D03*
D236*
X010760Y028520D03*
X010755Y028525D03*
X010755Y028530D03*
X010700Y028595D03*
X010965Y027955D03*
X010965Y027950D03*
X010930Y027855D03*
X010925Y027845D03*
X010925Y027840D03*
X013395Y027905D03*
X013510Y027585D03*
X013515Y027580D03*
X013520Y027570D03*
D237*
X013508Y027590D03*
X013503Y027595D03*
X013498Y027605D03*
X013398Y027900D03*
X010968Y027945D03*
X010938Y027870D03*
X010933Y027860D03*
X010928Y027850D03*
X010753Y028535D03*
X012193Y031175D03*
D238*
X010750Y028540D03*
X010965Y027940D03*
X010965Y027935D03*
X010965Y027925D03*
X010960Y027910D03*
X010955Y027895D03*
X010945Y027880D03*
X010935Y027865D03*
X013395Y027885D03*
X013395Y027890D03*
X013395Y027895D03*
X013490Y027620D03*
X013495Y027615D03*
X013495Y027610D03*
X013500Y027600D03*
D239*
X013488Y027625D03*
X013488Y027630D03*
X010968Y027930D03*
X010963Y027920D03*
X010963Y027915D03*
X010958Y027905D03*
X010958Y027900D03*
X010953Y027890D03*
X010948Y027885D03*
X010943Y027875D03*
X010748Y028545D03*
X010743Y028550D03*
X010708Y028590D03*
D240*
X010715Y028585D03*
X010720Y028580D03*
X010725Y028575D03*
X010730Y028570D03*
X010735Y028565D03*
X010740Y028555D03*
X013395Y027880D03*
X013395Y027875D03*
X013485Y027635D03*
D241*
X013483Y027640D03*
X013478Y027645D03*
X010738Y028560D03*
D242*
X013395Y027870D03*
X013470Y027665D03*
X013470Y027660D03*
X013475Y027655D03*
X013475Y027650D03*
D243*
X013468Y027670D03*
X013463Y027675D03*
X013458Y027680D03*
D244*
X013455Y027685D03*
X013450Y027690D03*
X013450Y027695D03*
X013445Y027705D03*
X013395Y027865D03*
D245*
X013393Y027860D03*
X013443Y027710D03*
X013448Y027700D03*
D246*
X013440Y027715D03*
X013435Y027720D03*
X012195Y031180D03*
D247*
X013393Y027855D03*
X013393Y027850D03*
X013433Y027725D03*
D248*
X013430Y027730D03*
X013430Y027735D03*
X013425Y027745D03*
X013390Y027845D03*
D249*
X013393Y027840D03*
X013393Y027835D03*
X013418Y027760D03*
X013423Y027750D03*
X013428Y027740D03*
D250*
X013420Y027755D03*
X013415Y027765D03*
X013410Y027770D03*
X013390Y027825D03*
X013390Y027830D03*
D251*
X013393Y027820D03*
X013393Y027815D03*
X013393Y027810D03*
X013393Y027805D03*
X013398Y027795D03*
X013398Y027790D03*
X013403Y027780D03*
X013408Y027775D03*
D252*
X013400Y027785D03*
X013395Y027800D03*
D253*
X013405Y027960D03*
X013595Y028460D03*
X013600Y028465D03*
X013655Y028530D03*
X013580Y029660D03*
X013575Y029665D03*
X010965Y028000D03*
X010795Y028450D03*
X010790Y028455D03*
D254*
X010958Y028150D03*
X012198Y031140D03*
X013413Y028115D03*
X013413Y028110D03*
D255*
X013415Y028120D03*
X013500Y028335D03*
X013745Y028555D03*
X010960Y028155D03*
X010895Y028330D03*
D256*
X010960Y028170D03*
X010960Y028165D03*
X010920Y029790D03*
X013415Y028130D03*
X013415Y028125D03*
X013490Y028325D03*
X013465Y029790D03*
D257*
X013463Y029795D03*
X013758Y028560D03*
X013488Y028320D03*
X013418Y028135D03*
X012198Y031135D03*
X010928Y029795D03*
X010908Y028315D03*
X010958Y028180D03*
X010958Y028175D03*
D258*
X010958Y028195D03*
X010958Y028200D03*
X010918Y028310D03*
X010698Y029635D03*
X010933Y029805D03*
X013418Y028145D03*
X013418Y028140D03*
X013458Y029805D03*
D259*
X013450Y029810D03*
X013415Y028150D03*
X010960Y028205D03*
D260*
X010958Y028210D03*
X010958Y028215D03*
X010573Y028635D03*
X010938Y029810D03*
X012198Y031130D03*
X013768Y028565D03*
X013473Y028310D03*
X013418Y028155D03*
D261*
X013415Y028160D03*
X013415Y028165D03*
X013465Y028305D03*
X010930Y028300D03*
X010925Y028305D03*
X010685Y029630D03*
D262*
X010713Y029640D03*
X010918Y029785D03*
X010593Y028625D03*
X010898Y028325D03*
X010903Y028320D03*
X010958Y028160D03*
X013493Y028330D03*
X013473Y029785D03*
D263*
X013778Y028570D03*
X013413Y028175D03*
X013413Y028170D03*
X012198Y031125D03*
X010948Y029815D03*
X010933Y028295D03*
X010958Y028220D03*
D264*
X010955Y028225D03*
X010940Y028290D03*
X013415Y028180D03*
X013450Y028290D03*
X013455Y028295D03*
X013460Y028300D03*
X013440Y029815D03*
D265*
X013778Y029540D03*
X013413Y028190D03*
X013413Y028185D03*
X010958Y028230D03*
X010943Y028285D03*
X010678Y029625D03*
X010953Y029820D03*
D266*
X010930Y029800D03*
X010585Y028630D03*
X010960Y028190D03*
X010960Y028185D03*
X013480Y028315D03*
X013755Y029545D03*
X013460Y029800D03*
D267*
X013435Y029820D03*
X013445Y028285D03*
X013415Y028200D03*
X013415Y028195D03*
D268*
X013418Y028205D03*
X012198Y031120D03*
X010958Y029825D03*
X010558Y028640D03*
X010948Y028280D03*
X010958Y028240D03*
X010958Y028235D03*
D269*
X010665Y029620D03*
X010965Y029830D03*
X013415Y028210D03*
D270*
X013418Y028215D03*
X013418Y028220D03*
X013438Y028280D03*
X013793Y028575D03*
X013428Y029825D03*
X013423Y029830D03*
X010973Y029835D03*
X010953Y028275D03*
X010958Y028265D03*
X010958Y028260D03*
X010958Y028255D03*
X010958Y028250D03*
X010958Y028245D03*
D271*
X013418Y028230D03*
X013418Y028225D03*
X013428Y028275D03*
X013793Y029535D03*
X013418Y029835D03*
D272*
X012195Y031115D03*
X010980Y029840D03*
X013425Y028270D03*
X013420Y028240D03*
X013420Y028235D03*
D273*
X013418Y028245D03*
X013418Y028250D03*
X013423Y028265D03*
X013408Y029840D03*
D274*
X013805Y029530D03*
X013420Y028260D03*
X013420Y028255D03*
D275*
X010955Y028270D03*
D276*
X013820Y028580D03*
D277*
X013840Y028585D03*
X013370Y029860D03*
X010505Y028650D03*
D278*
X011035Y029870D03*
X012195Y031100D03*
X013850Y029515D03*
X013855Y028590D03*
D279*
X013868Y028595D03*
X012198Y031095D03*
D280*
X010580Y029595D03*
X010475Y028660D03*
X013875Y028600D03*
D281*
X013888Y028605D03*
X012198Y031085D03*
X010568Y029590D03*
X010463Y028665D03*
D282*
X011075Y029880D03*
X013315Y029880D03*
X013905Y028610D03*
D283*
X013933Y028615D03*
X012198Y031070D03*
D284*
X012198Y031060D03*
X013948Y028620D03*
D285*
X013960Y028625D03*
X011130Y029890D03*
X010480Y029565D03*
D286*
X010470Y029560D03*
X010385Y028685D03*
X013970Y028630D03*
D287*
X013978Y028635D03*
D288*
X013995Y028640D03*
X010445Y029550D03*
X010360Y028695D03*
D289*
X012200Y031030D03*
X014020Y028645D03*
D290*
X010993Y029845D03*
X010648Y029615D03*
X010533Y028645D03*
D291*
X010255Y028880D03*
X010255Y028885D03*
X010255Y028890D03*
X010255Y028895D03*
X010255Y028900D03*
X010260Y029230D03*
X010260Y029235D03*
X010260Y029240D03*
X010260Y029245D03*
X010260Y029250D03*
X010265Y029275D03*
X012195Y031020D03*
X014125Y029245D03*
X014125Y029240D03*
X014125Y029235D03*
X014125Y029230D03*
X014125Y029225D03*
X014125Y029220D03*
X014130Y029190D03*
X014130Y029185D03*
X014130Y029180D03*
X014130Y028930D03*
X014130Y028925D03*
X014130Y028920D03*
X014130Y028915D03*
X014130Y028910D03*
X014130Y028905D03*
X014130Y028900D03*
X014130Y028895D03*
X014130Y028890D03*
X014130Y028885D03*
X014040Y028650D03*
D292*
X014053Y028655D03*
X014123Y028820D03*
X014123Y028825D03*
X014123Y028830D03*
X014118Y029285D03*
X014118Y029290D03*
X014048Y029455D03*
X010278Y029320D03*
X010273Y029310D03*
X010273Y029305D03*
X010268Y028805D03*
X010268Y028800D03*
X010288Y028735D03*
X010293Y028730D03*
D293*
X010485Y028655D03*
D294*
X010283Y028745D03*
X010273Y028780D03*
X010273Y028785D03*
X010293Y029385D03*
X010293Y029390D03*
X010298Y029395D03*
X014108Y029340D03*
X014108Y029335D03*
X014108Y029330D03*
X014108Y029325D03*
X014108Y029320D03*
X014113Y029310D03*
X014113Y029305D03*
X014118Y028805D03*
X014113Y028795D03*
X014113Y028790D03*
X014113Y028785D03*
X014063Y028660D03*
D295*
X014065Y028665D03*
X014110Y028765D03*
X014110Y028770D03*
X014110Y028775D03*
X014110Y028780D03*
X014105Y029345D03*
X014105Y029350D03*
X014105Y029355D03*
X014105Y029360D03*
X014105Y029365D03*
X014065Y029445D03*
X010375Y029530D03*
X010300Y029400D03*
X010275Y028775D03*
X010275Y028770D03*
X010275Y028765D03*
X010275Y028760D03*
X010280Y028755D03*
X010280Y028750D03*
D296*
X010303Y029405D03*
X010303Y029410D03*
X014098Y029385D03*
X014103Y029375D03*
X014103Y029370D03*
X014108Y028760D03*
X014108Y028755D03*
X014108Y028750D03*
X014108Y028745D03*
X014108Y028740D03*
X014073Y028670D03*
D297*
X010453Y028670D03*
X010553Y029585D03*
D298*
X010365Y029525D03*
X010310Y029435D03*
X010305Y029420D03*
X010305Y029415D03*
X014070Y029440D03*
X014075Y029435D03*
X014080Y029420D03*
X014095Y029390D03*
X014100Y029380D03*
X014105Y028735D03*
X014105Y028730D03*
X014105Y028725D03*
X014080Y028680D03*
X014075Y028675D03*
D299*
X013915Y029500D03*
X010435Y028675D03*
D300*
X010408Y028680D03*
X010508Y029575D03*
D301*
X010313Y029445D03*
X010313Y029440D03*
X010308Y029430D03*
X010308Y029425D03*
X014078Y029425D03*
X014078Y029430D03*
X014083Y029415D03*
X014083Y029410D03*
X014088Y029405D03*
X014088Y029400D03*
X014093Y029395D03*
X014103Y028720D03*
X014098Y028715D03*
X014098Y028710D03*
X014083Y028685D03*
D302*
X014085Y028690D03*
X014090Y028695D03*
X014090Y028700D03*
X014095Y028705D03*
X010360Y029520D03*
X010315Y029450D03*
D303*
X010460Y029555D03*
X010370Y028690D03*
D304*
X010348Y028700D03*
D305*
X010333Y028705D03*
D306*
X010313Y028710D03*
X010248Y028970D03*
X010248Y028975D03*
X010248Y028980D03*
X010248Y028985D03*
X010248Y028990D03*
X010248Y028995D03*
X010248Y029000D03*
X010248Y029100D03*
X010248Y029105D03*
X010248Y029110D03*
X010248Y029115D03*
X010248Y029120D03*
X010248Y029125D03*
X010248Y029130D03*
X010253Y029150D03*
X010253Y029155D03*
X010253Y029160D03*
X014138Y029100D03*
X014138Y029095D03*
X014138Y029090D03*
X014138Y029085D03*
X014138Y029080D03*
X014138Y029075D03*
X014143Y029045D03*
X014143Y029040D03*
X014143Y029035D03*
D307*
X014128Y028880D03*
X014128Y028875D03*
X014128Y028870D03*
X014128Y028865D03*
X014128Y028860D03*
X014128Y028855D03*
X014123Y029250D03*
X014123Y029255D03*
X014123Y029260D03*
X014123Y029265D03*
X014123Y029270D03*
X010268Y029280D03*
X010268Y029285D03*
X010268Y029290D03*
X010263Y029270D03*
X010263Y029265D03*
X010263Y029260D03*
X010263Y029255D03*
X010258Y028875D03*
X010258Y028870D03*
X010258Y028865D03*
X010258Y028860D03*
X010258Y028855D03*
X010258Y028850D03*
X010263Y028835D03*
X010263Y028830D03*
X010263Y028825D03*
X010298Y028720D03*
X010303Y028715D03*
D308*
X010295Y028725D03*
X010265Y028810D03*
X010265Y028815D03*
X010265Y028820D03*
X010260Y028840D03*
X010260Y028845D03*
X010270Y029295D03*
X010270Y029300D03*
X014040Y029460D03*
X014120Y029280D03*
X014120Y029275D03*
X014125Y028850D03*
X014125Y028845D03*
X014125Y028840D03*
X014125Y028835D03*
D309*
X014120Y028815D03*
X014120Y028810D03*
X014115Y028800D03*
X014115Y029295D03*
X014115Y029300D03*
X014110Y029315D03*
X014055Y029450D03*
X010385Y029535D03*
X010290Y029380D03*
X010290Y029375D03*
X010290Y029370D03*
X010285Y029365D03*
X010285Y029360D03*
X010285Y029355D03*
X010285Y029350D03*
X010285Y029345D03*
X010280Y029340D03*
X010280Y029335D03*
X010280Y029330D03*
X010280Y029325D03*
X010275Y029315D03*
X010270Y028795D03*
X010270Y028790D03*
X010285Y028740D03*
D310*
X010253Y028905D03*
X010253Y028910D03*
X010253Y028915D03*
X010253Y028920D03*
X010253Y028925D03*
X010253Y028930D03*
X010253Y028935D03*
X010258Y029200D03*
X010258Y029205D03*
X010258Y029210D03*
X010258Y029215D03*
X010258Y029220D03*
X010258Y029225D03*
X010398Y029540D03*
X014033Y029465D03*
X014128Y029215D03*
X014128Y029210D03*
X014128Y029205D03*
X014128Y029200D03*
X014128Y029195D03*
X014133Y029175D03*
X014133Y029170D03*
X014133Y029165D03*
X014133Y029160D03*
X014133Y029155D03*
X014133Y029150D03*
X014133Y029145D03*
X014133Y029140D03*
X014133Y028965D03*
X014133Y028960D03*
X014133Y028955D03*
X014133Y028950D03*
X014133Y028945D03*
X014133Y028940D03*
X014133Y028935D03*
D311*
X014135Y028970D03*
X014135Y028975D03*
X014135Y028980D03*
X014135Y028985D03*
X014135Y028990D03*
X014135Y028995D03*
X014140Y029000D03*
X014140Y029005D03*
X014140Y029010D03*
X014140Y029015D03*
X014140Y029020D03*
X014140Y029025D03*
X014140Y029030D03*
X014135Y029105D03*
X014135Y029110D03*
X014135Y029115D03*
X014135Y029120D03*
X014135Y029125D03*
X014135Y029130D03*
X014135Y029135D03*
X010255Y029165D03*
X010255Y029170D03*
X010255Y029175D03*
X010255Y029180D03*
X010255Y029185D03*
X010255Y029190D03*
X010255Y029195D03*
X010250Y029145D03*
X010250Y029140D03*
X010250Y029135D03*
X010250Y028965D03*
X010250Y028960D03*
X010250Y028955D03*
X010250Y028950D03*
X010250Y028945D03*
X010250Y028940D03*
D312*
X010245Y029005D03*
X010245Y029010D03*
X010245Y029015D03*
X010245Y029020D03*
X010245Y029025D03*
X010245Y029030D03*
X010245Y029035D03*
X010245Y029040D03*
X010245Y029045D03*
X010245Y029050D03*
X010245Y029055D03*
X010245Y029060D03*
X010245Y029065D03*
X010245Y029070D03*
X010245Y029075D03*
X010245Y029080D03*
X010245Y029085D03*
X010245Y029090D03*
X010245Y029095D03*
X014020Y029470D03*
X014140Y029070D03*
X014140Y029065D03*
X014140Y029060D03*
X014140Y029055D03*
X014140Y029050D03*
D313*
X010353Y029515D03*
X010348Y029510D03*
X010318Y029460D03*
X010318Y029455D03*
D314*
X010320Y029465D03*
X010325Y029475D03*
X010330Y029490D03*
X010335Y029500D03*
X010340Y029505D03*
D315*
X010333Y029495D03*
X010328Y029485D03*
X010328Y029480D03*
X010323Y029470D03*
D316*
X012198Y031035D03*
X014003Y029475D03*
D317*
X013978Y029480D03*
X012198Y031045D03*
D318*
X012198Y031055D03*
X010493Y029570D03*
X013953Y029485D03*
D319*
X013938Y029490D03*
D320*
X013925Y029495D03*
D321*
X013903Y029505D03*
D322*
X013880Y029510D03*
D323*
X013830Y029520D03*
X013375Y029855D03*
D324*
X013398Y029845D03*
X013813Y029525D03*
D325*
X010418Y029545D03*
D326*
X010533Y029580D03*
X012198Y031075D03*
D327*
X013345Y029875D03*
X011045Y029875D03*
X010590Y029600D03*
D328*
X010603Y029605D03*
D329*
X010623Y029610D03*
X011018Y029855D03*
D330*
X011010Y029850D03*
X013385Y029850D03*
D331*
X013363Y029865D03*
X012198Y031105D03*
X011023Y029860D03*
D332*
X011030Y029865D03*
D333*
X013358Y029870D03*
D334*
X013293Y029885D03*
D335*
X012200Y031065D03*
X011110Y029885D03*
D336*
X013275Y029890D03*
D337*
X012195Y029895D03*
D338*
X012198Y029900D03*
X012203Y030510D03*
D339*
X012205Y030505D03*
X012195Y029910D03*
X012195Y029905D03*
D340*
X012198Y029915D03*
D341*
X012198Y029920D03*
X012208Y030495D03*
D342*
X012205Y030490D03*
X012200Y029925D03*
D343*
X012198Y029930D03*
X012208Y030485D03*
D344*
X012198Y029940D03*
X012198Y029935D03*
D345*
X012195Y029945D03*
X012205Y030475D03*
D346*
X012198Y029950D03*
D347*
X012195Y029955D03*
X012195Y029960D03*
X012195Y029965D03*
X012205Y030470D03*
D348*
X012205Y030465D03*
X012205Y030460D03*
X012195Y029980D03*
X012195Y029975D03*
X012195Y029970D03*
D349*
X012195Y029985D03*
X012205Y030455D03*
D350*
X012208Y030450D03*
X012198Y029990D03*
D351*
X012195Y029995D03*
D352*
X012195Y030000D03*
X012205Y030440D03*
D353*
X012208Y030435D03*
X012198Y030005D03*
D354*
X012195Y030010D03*
X012205Y030430D03*
D355*
X012205Y030425D03*
X012195Y030020D03*
X012195Y030015D03*
D356*
X012195Y030025D03*
X012195Y030030D03*
X012195Y030035D03*
X012205Y030420D03*
D357*
X012208Y030415D03*
X012198Y030040D03*
D358*
X012195Y030045D03*
D359*
X012198Y030050D03*
X012208Y030410D03*
D360*
X012195Y030055D03*
D361*
X012198Y030060D03*
X012208Y030405D03*
D362*
X012208Y030395D03*
X012198Y030070D03*
X012198Y030065D03*
D363*
X012198Y030075D03*
X012208Y030385D03*
D364*
X012195Y030080D03*
D365*
X012198Y030085D03*
X012208Y030380D03*
D366*
X012195Y030095D03*
X012195Y030090D03*
D367*
X012195Y030100D03*
X012195Y030105D03*
D368*
X012198Y030110D03*
X012208Y030370D03*
D369*
X012195Y030115D03*
D370*
X012198Y030120D03*
X012208Y030360D03*
X012208Y030365D03*
D371*
X012208Y030355D03*
X012198Y030125D03*
D372*
X012200Y030130D03*
X012210Y030350D03*
D373*
X012208Y030345D03*
X012198Y030135D03*
D374*
X012198Y030140D03*
X012208Y030335D03*
D375*
X012195Y030145D03*
D376*
X012198Y030150D03*
X012208Y030330D03*
D377*
X012195Y030160D03*
X012195Y030155D03*
D378*
X012195Y030165D03*
X012195Y030170D03*
X012210Y030320D03*
D379*
X012210Y030315D03*
X012195Y030175D03*
D380*
X012198Y030180D03*
D381*
X012198Y030185D03*
D382*
X012198Y030190D03*
D383*
X012195Y030195D03*
X012210Y030290D03*
D384*
X012208Y030285D03*
X012198Y030200D03*
D385*
X012195Y030205D03*
D386*
X012195Y030210D03*
X012195Y030215D03*
D387*
X012198Y030220D03*
X012198Y030225D03*
D388*
X012198Y030230D03*
X012198Y030235D03*
X012208Y030270D03*
D389*
X012210Y030265D03*
X012205Y030250D03*
X012205Y030245D03*
X012200Y030240D03*
D390*
X012208Y030255D03*
X012208Y030260D03*
D391*
X012210Y030275D03*
D392*
X012208Y030280D03*
D393*
X012210Y030295D03*
X012210Y030300D03*
D394*
X012210Y030305D03*
X012210Y030310D03*
D395*
X012208Y030325D03*
D396*
X012210Y030340D03*
D397*
X012208Y030375D03*
D398*
X012210Y030390D03*
D399*
X012210Y030400D03*
D400*
X012208Y030445D03*
D401*
X012205Y030480D03*
D402*
X012205Y030500D03*
D403*
X012203Y030515D03*
D404*
X012203Y030520D03*
D405*
X012205Y030525D03*
D406*
X012205Y030530D03*
D407*
X012208Y030535D03*
D408*
X012205Y030540D03*
D409*
X012205Y030545D03*
D410*
X012203Y030550D03*
D411*
X012203Y030555D03*
D412*
X012200Y030560D03*
D413*
X012203Y030565D03*
D414*
X012203Y030570D03*
D415*
X012205Y030575D03*
D416*
X012205Y030580D03*
D417*
X012203Y030585D03*
D418*
X012205Y030590D03*
D419*
X012203Y030595D03*
D420*
X012203Y030600D03*
D421*
X012200Y030605D03*
D422*
X012200Y030610D03*
D423*
X012203Y030615D03*
D424*
X012203Y030620D03*
D425*
X012205Y030625D03*
D426*
X012205Y030630D03*
X012205Y030635D03*
D427*
X012205Y030640D03*
D428*
X012200Y030645D03*
D429*
X012200Y030650D03*
X012200Y030655D03*
D430*
X012200Y030660D03*
D431*
X012200Y030665D03*
D432*
X012203Y030670D03*
D433*
X012203Y030675D03*
X012203Y030680D03*
D434*
X012203Y030685D03*
D435*
X012203Y030690D03*
D436*
X012200Y030695D03*
D437*
X012200Y030700D03*
X012200Y030705D03*
D438*
X012200Y030710D03*
D439*
X012200Y030715D03*
D440*
X012203Y030720D03*
D441*
X012203Y030725D03*
X012203Y030730D03*
D442*
X012203Y030735D03*
D443*
X012200Y030740D03*
D444*
X012200Y030745D03*
D445*
X012198Y030750D03*
D446*
X012198Y030755D03*
D447*
X012200Y030760D03*
D448*
X012200Y030765D03*
D449*
X012203Y030770D03*
D450*
X012200Y030775D03*
D451*
X012200Y030780D03*
D452*
X012200Y030785D03*
D453*
X012198Y030790D03*
D454*
X012198Y030795D03*
X012198Y030800D03*
D455*
X012198Y030805D03*
D456*
X012200Y030810D03*
D457*
X012200Y030815D03*
D458*
X012200Y030820D03*
X012195Y031000D03*
D459*
X012198Y030825D03*
D460*
X012198Y030830D03*
X012193Y030990D03*
D461*
X012195Y030835D03*
D462*
X012198Y030840D03*
X012193Y030985D03*
D463*
X012198Y030850D03*
X012198Y030845D03*
D464*
X012198Y030855D03*
D465*
X012200Y030860D03*
X012195Y030970D03*
D466*
X012200Y030865D03*
D467*
X012198Y030870D03*
X012193Y030960D03*
D468*
X012195Y030955D03*
X012200Y030875D03*
D469*
X012198Y030880D03*
D470*
X012198Y030885D03*
X012193Y030945D03*
D471*
X012195Y030940D03*
X012195Y030935D03*
X012195Y030905D03*
X012195Y030900D03*
X012195Y030895D03*
X012195Y030890D03*
D472*
X012193Y030910D03*
X012193Y030915D03*
X012193Y030920D03*
X012193Y030925D03*
X012193Y030930D03*
D473*
X012195Y030950D03*
D474*
X012193Y030965D03*
D475*
X012195Y030975D03*
D476*
X012195Y030980D03*
D477*
X012195Y030995D03*
D478*
X010468Y031035D03*
X013948Y031005D03*
D479*
X011605Y031005D03*
D480*
X011603Y031010D03*
D481*
X013953Y031015D03*
D482*
X011598Y031015D03*
D483*
X010475Y031020D03*
D484*
X012200Y031025D03*
D485*
X010468Y031025D03*
D486*
X010460Y031060D03*
X010460Y031065D03*
X012200Y031260D03*
X012200Y031265D03*
X013955Y031030D03*
D487*
X010468Y031030D03*
D488*
X012200Y031040D03*
D489*
X010468Y031040D03*
D490*
X013960Y031050D03*
D491*
X012198Y031050D03*
D492*
X010463Y031050D03*
D493*
X012198Y031080D03*
D494*
X012195Y031670D03*
X012195Y031675D03*
X012195Y031680D03*
X013970Y031090D03*
D495*
X012198Y031090D03*
D496*
X012200Y031490D03*
X012200Y031495D03*
X012200Y031500D03*
X010450Y031095D03*
D497*
X010443Y031125D03*
X012198Y031705D03*
X012198Y031710D03*
X013973Y031100D03*
D498*
X013975Y031110D03*
X012195Y031755D03*
X012195Y031760D03*
X012195Y031765D03*
X012195Y031770D03*
X010440Y031140D03*
D499*
X012198Y031110D03*
D500*
X012195Y031880D03*
X013975Y031120D03*
D501*
X013978Y031130D03*
X012193Y031905D03*
X012193Y031910D03*
X012193Y031915D03*
D502*
X012193Y031925D03*
X012193Y031930D03*
X012193Y031935D03*
X010433Y031160D03*
X013978Y031135D03*
D503*
X012195Y031730D03*
X012195Y031735D03*
X012195Y031740D03*
X012195Y031745D03*
X010440Y031135D03*
D504*
X012190Y031970D03*
X013980Y031140D03*
D505*
X013983Y031145D03*
X012193Y032010D03*
X012193Y032015D03*
D506*
X012193Y031845D03*
X012193Y031840D03*
X012193Y031835D03*
X012193Y031830D03*
X012193Y031825D03*
X010438Y031145D03*
D507*
X013983Y031150D03*
D508*
X013985Y031155D03*
X012190Y032035D03*
D509*
X012190Y032040D03*
X010425Y031185D03*
X013985Y031160D03*
D510*
X013988Y031170D03*
X012193Y032045D03*
D511*
X012195Y031185D03*
D512*
X013993Y031190D03*
D513*
X012198Y031190D03*
D514*
X012195Y031195D03*
D515*
X012185Y032065D03*
X013995Y031200D03*
D516*
X012195Y031200D03*
D517*
X012195Y031205D03*
D518*
X010423Y031205D03*
D519*
X012198Y031210D03*
D520*
X012193Y031215D03*
D521*
X012188Y032060D03*
X010418Y031215D03*
D522*
X012193Y031220D03*
D523*
X012193Y031225D03*
D524*
X012193Y031230D03*
D525*
X010418Y031230D03*
D526*
X012193Y031235D03*
D527*
X012195Y031240D03*
D528*
X012198Y031250D03*
D529*
X010410Y031275D03*
D530*
X012200Y031355D03*
X012200Y031360D03*
X012200Y031365D03*
D531*
X012200Y031470D03*
D532*
X012198Y031545D03*
X012198Y031550D03*
X012198Y031555D03*
D533*
X012195Y031585D03*
X012195Y031590D03*
X012195Y031595D03*
X012195Y031600D03*
X012195Y031605D03*
X012195Y031610D03*
X012195Y031615D03*
X012195Y031620D03*
D534*
X012190Y031900D03*
M02*
